<?xml version="1.0" encoding="UTF-8"?>
<svg id="Layer_1" data-name="Layer 1" xmlns="http://www.w3.org/2000/svg" viewBox="0 0 598.74 193.87">
  <defs>
    <style>
      .cls-1 {
        fill: #e12d92;
      }

      .cls-1, .cls-2 {
        stroke-width: 0px;
      }

      .cls-2 {
        fill: #fff;
      }
    </style>
  </defs>
  <path class="cls-1" d="m229.72,20.87v152.18h-10.12v-71.1H31.97v71.1h-10.12V20.87h10.12v71.07h187.63V20.87h10.12Zm-20.22,0h-10.12v50.8H52.22V20.87h-10.12v60.82h167.41V20.87Zm-137.01,0h-10v40.5h10V20.87Zm116.69,0h-10.12v40.5h10.12V20.87ZM42.1,173.05h10.12v-50.8h147.16v50.8h10.12v-60.92H42.1v60.92Zm136.89,0h10.12v-40.61h-10.12v40.61Zm-116.57,0h10.12v-40.61h-10.12v40.61Z"/>
  <path class="cls-2" d="m285.97,20.87v44.75h-8.76v-18.54h-18.14v18.54h-8.82V20.87h8.82v17.77h18.14v-17.77h8.76Z"/>
  <path class="cls-2" d="m321.95,33.65v31.96h-8.25v-3.58c-1.92,2.88-5.24,4.47-9.53,4.47-6.77,0-12.08-4.72-12.08-13.23v-19.63h8.25v18.6c0,4.35,2.62,6.58,6.33,6.58,4.03,0,7.03-2.36,7.03-7.93v-17.26h8.25Z"/>
  <path class="cls-2" d="m376.92,45.92v19.69h-8.25v-19.11c0-3.77-1.92-6.07-5.37-6.07-3.64,0-5.94,2.43-5.94,7.22v17.96h-8.25v-19.11c0-3.77-1.92-6.07-5.37-6.07s-6.01,2.43-6.01,7.22v17.96h-8.25v-31.96h8.24v3.39c1.79-2.68,4.79-4.28,8.89-4.28s6.9,1.66,8.69,4.6c1.98-2.88,5.18-4.6,9.53-4.6,7.29,0,12.09,5.18,12.09,13.17Z"/>
  <path class="cls-2" d="m416.48,33.65v31.96h-8.25v-3.77c-2.3,2.88-5.75,4.67-10.43,4.67-8.5,0-15.53-7.35-15.53-16.88s7.03-16.88,15.53-16.88c4.67,0,8.12,1.79,10.43,4.67v-3.77h8.25Zm-8.25,15.98c0-5.37-3.77-9.01-8.89-9.01s-8.82,3.64-8.82,9.01,3.77,9.01,8.82,9.01,8.89-3.64,8.89-9.01h0Z"/>
  <path class="cls-2" d="m453.8,45.99v19.62h-8.25v-18.6c0-4.35-2.62-6.59-6.33-6.59-4.03,0-7.03,2.36-7.03,7.93v17.26h-8.25v-31.96h8.25v3.58c1.92-2.88,5.24-4.47,9.53-4.47,6.79,0,12.08,4.73,12.08,13.23Z"/>
  <path class="cls-2" d="m265.02,103.8h-5.95v15.53h-8.82v-44.75h18.66c8.2-.02,14.87,6.61,14.89,14.82,0,0,0,0,0,.01,0,5.63-3.52,10.68-8.63,13.04l9.91,16.88h-9.53l-10.53-15.53Zm-5.95-7.73h9.84c3.32,0,6.07-2.94,6.07-6.65s-2.75-6.58-6.07-6.58h-9.84v13.23Z"/>
  <path class="cls-2" d="m289.87,87.37h8.25v31.96h-8.25v-31.96Z"/>
  <path class="cls-2" d="m336.91,87.37v30.43c0,10.48-8.25,15.22-16.69,15.22-6.84,0-12.34-2.62-15.15-7.8l7.03-4.03c1.34,2.49,3.45,4.48,8.37,4.48,5.18,0,8.37-2.81,8.37-7.87v-3.44c-2.24,3-5.69,4.86-10.23,4.86-9.08,0-15.92-7.35-15.92-16.36s6.84-16.36,15.92-16.36c4.54,0,7.99,1.85,10.23,4.86v-3.97h8.06Zm-8.06,15.47c0-5.05-3.77-8.69-8.95-8.69s-8.94,3.64-8.94,8.69,3.77,8.76,8.95,8.76,8.94-3.64,8.94-8.76Z"/>
  <path class="cls-2" d="m374.23,99.7v19.62h-8.25v-18.6c0-4.35-2.62-6.58-6.33-6.58-4.03,0-7.03,2.36-7.03,7.93v17.26h-8.25v-44.75h8.25v16.36c1.92-2.88,5.24-4.47,9.53-4.47,6.78,0,12.08,4.73,12.08,13.23Z"/>
  <path class="cls-2" d="m392.32,95.29v13.3c0,3.45,2.49,3.52,7.22,3.26v7.48c-11.57,1.28-15.47-2.11-15.47-10.74v-13.29h-5.56v-7.93h5.56v-6.46l8.25-2.49v8.95h7.22v7.93h-7.22Z"/>
  <path class="cls-2" d="m428.75,110c0,6.9-6.01,10.23-12.85,10.23-6.39,0-11.12-2.69-13.42-7.61l7.16-4.03c.9,2.62,3.07,4.16,6.26,4.16,2.62,0,4.41-.9,4.41-2.75,0-4.67-16.49-2.11-16.49-13.36,0-6.52,5.56-10.16,12.15-10.16,5.18,0,9.65,2.36,12.15,6.78l-7.03,3.83c-.96-2.05-2.75-3.26-5.12-3.26-2.05,0-3.71.9-3.71,2.62,0,4.72,16.49,1.79,16.49,13.55Z"/>
  <path class="cls-2" d="m259.07,136.74v10.61h18.91v8.44h-18.91v17.26h-8.82v-44.75h28.24v8.44h-19.42Z"/>
  <path class="cls-2" d="m281.61,157.07c0-9.52,7.48-16.88,16.88-16.88s16.94,7.35,16.94,16.88-7.54,16.88-16.94,16.88-16.88-7.35-16.88-16.88Zm25.58,0c0-5.18-3.77-8.82-8.69-8.82s-8.63,3.64-8.63,8.82,3.77,8.82,8.63,8.82,8.69-3.64,8.69-8.82h0Z"/>
  <path class="cls-2" d="m349.3,141.08v31.96h-8.25v-3.58c-1.92,2.88-5.24,4.47-9.53,4.47-6.78,0-12.08-4.72-12.08-13.23v-19.62h8.24v18.6c0,4.35,2.62,6.59,6.33,6.59,4.03,0,7.03-2.36,7.03-7.93v-17.26h8.25Z"/>
  <path class="cls-2" d="m386.69,153.42v19.63h-8.24v-18.6c0-4.35-2.62-6.58-6.33-6.58-4.03,0-7.03,2.36-7.03,7.93v17.26h-8.25v-31.96h8.25v3.58c1.92-2.88,5.24-4.48,9.53-4.48,6.77,0,12.07,4.73,12.07,13.23Z"/>
  <path class="cls-2" d="m426.19,128.3v44.75h-8.25v-3.77c-2.3,2.94-5.69,4.67-10.36,4.67-8.57,0-15.6-7.35-15.6-16.88s7.03-16.88,15.6-16.88c4.67,0,8.06,1.73,10.36,4.67v-16.56h8.25Zm-8.25,28.77c0-5.37-3.77-9.01-8.82-9.01s-8.89,3.64-8.89,9.01,3.77,9.02,8.89,9.02,8.82-3.64,8.82-9.02Z"/>
  <path class="cls-2" d="m465.88,141.08v31.96h-8.25v-3.77c-2.3,2.88-5.76,4.67-10.43,4.67-8.5,0-15.53-7.35-15.53-16.88s7.03-16.88,15.53-16.88c4.67,0,8.12,1.79,10.43,4.67v-3.77h8.25Zm-8.25,15.98c0-5.37-3.77-9.01-8.89-9.01s-8.82,3.64-8.82,9.01,3.77,9.02,8.82,9.02,8.89-3.64,8.89-9.02h0Z"/>
  <path class="cls-2" d="m484.79,149.01v13.3c0,3.45,2.49,3.51,7.22,3.26v7.48c-11.57,1.28-15.47-2.11-15.47-10.74v-13.29h-5.56v-7.93h5.56v-6.46l8.25-2.49v8.95h7.22v7.93h-7.22Z"/>
  <path class="cls-2" d="m496.87,132.2c0-2.75,2.3-5.12,5.05-5.12,2.81.03,5.09,2.3,5.12,5.12-.06,2.81-2.38,5.04-5.18,4.98-2.73-.05-4.93-2.25-4.98-4.98h0Zm.96,8.89h8.25v31.96h-8.25v-31.96Z"/>
  <path class="cls-2" d="m510.68,157.07c0-9.52,7.48-16.88,16.88-16.88s16.94,7.35,16.94,16.88-7.54,16.88-16.94,16.88-16.88-7.35-16.88-16.88Zm25.58,0c0-5.18-3.77-8.82-8.69-8.82s-8.63,3.64-8.63,8.82,3.77,8.82,8.63,8.82,8.69-3.64,8.69-8.82Z"/>
  <path class="cls-2" d="m578.88,153.42v19.63h-8.25v-18.6c0-4.35-2.62-6.58-6.33-6.58-4.03,0-7.03,2.36-7.03,7.93v17.26h-8.25v-31.96h8.25v3.58c1.92-2.88,5.24-4.48,9.53-4.48,6.78,0,12.08,4.73,12.08,13.23Z"/>
  <path class="cls-2" d="m288.9,78.53c0-2.75,2.3-5.12,5.05-5.12,2.81.03,5.09,2.3,5.12,5.12-.06,2.81-2.38,5.04-5.18,4.98-2.73-.05-4.93-2.25-4.98-4.98h0Z"/>
</svg>
