<svg xmlns="http://www.w3.org/2000/svg" xmlns:xlink="http://www.w3.org/1999/xlink" version="1.1" width="500pt" height="500pt" viewBox="0 0 500 500">
<defs>
<clipPath id="clip_0">
<path transform="matrix(1,0,0,-1,0,500)" d="M0 500H500V0H0Z"/>
</clipPath>
</defs>
<g id="layer_1" data-name="Layer 1">
<g clip-path="url(#clip_0)">
<path transform="matrix(1,0,0,-1,276.086,214.224)" d="M0 0 12.992 28.572 25.984 0ZM20.204 49.336C19.563 51.272 18.168 52.953 16.166 53.864 12.361 55.596 7.86 53.914 6.127 50.099L-23.549-15.162-61.263-15.297C-76.725-15.297-89.307-2.719-89.307 12.743-89.307 28.205-76.725 40.784-61.263 40.784-53.445 40.784-45.923 37.482-40.622 31.722-37.786 28.644-32.996 28.44-29.909 31.278-26.829 34.113-26.629 38.909-29.465 41.991-37.627 50.86-49.217 55.946-61.263 55.946-85.087 55.946-104.469 36.566-104.469 12.743-104.469-11.079-85.087-30.46-61.237-30.46L-18.634-30.306C-15.668-30.295-12.985-28.561-11.759-25.862L-6.894-15.162H32.879L37.814-26.016C39.084-28.811 41.838-30.462 44.718-30.462 45.769-30.462 46.835-30.243 47.853-29.78 51.662-28.046 53.35-23.552 51.614-19.741Z" fill="#0035a0"/>
<path transform="matrix(1,0,0,-1,301.4518,299.2207)" d="M0 0 25.163 30.052C27.85 33.264 27.428 38.045 24.219 40.734 21.002 43.423 16.227 42.999 13.539 39.788L-9.887 11.809-33.314 39.788C-36.001 42.999-40.78 43.421-43.993 40.734-47.203 38.045-47.625 33.264-44.937 30.052L-19.775 0-42.665-27.339H-106.534V-7.581H-68.576C-64.39-7.581-60.995-4.187-60.995 0-60.995 4.187-64.39 7.581-68.576 7.581H-106.534V27.339H-69.957C-65.77 27.339-62.376 30.734-62.376 34.92-62.376 39.107-65.77 42.501-69.957 42.501H-114.115C-118.302 42.501-121.696 39.107-121.696 34.92V-34.92C-121.696-39.107-118.302-42.501-114.115-42.501H-40.836C-40.568-42.501-40.316-42.45-40.055-42.423-39.747-42.46-39.439-42.501-39.129-42.501-36.964-42.501-34.813-41.578-33.314-39.788L-9.887-11.809 13.539-39.788C15.038-41.578 17.189-42.501 19.354-42.501 21.072-42.501 22.797-41.922 24.219-40.734 27.428-38.045 27.85-33.264 25.163-30.052Z" fill="#0035a0"/>
</g>
</g>
</svg>
