<svg width="96" height="45" viewBox="0 0 96 45" fill="none" xmlns="http://www.w3.org/2000/svg">
<g clip-path="url(#clip0_2491_20065)">
<path fill-rule="evenodd" clip-rule="evenodd" d="M0 4.72821C2.43865 4.44972 4.35955 2.46666 4.54175 0H91.5701C91.7495 2.42883 93.6147 4.38877 96 4.71421V9.82675C93.49 10.1692 91.556 12.3215 91.556 14.9254C91.556 17.5294 93.49 19.6817 96 20.0241V25.1367C93.49 25.4792 91.556 27.6315 91.556 30.2354C91.556 32.8394 93.49 34.9917 96 35.3341V40.4466C93.6675 40.7648 91.8324 42.6459 91.5845 45H4.52735C4.27547 42.6084 2.38544 40.705 0 40.4326V35.3481C2.56416 35.0553 4.55589 32.878 4.55589 30.2354C4.55589 27.5929 2.56416 25.4155 0 25.1227V20.0382C2.56416 19.7453 4.55589 17.568 4.55589 14.9254C4.55589 12.2829 2.56416 10.1056 0 9.81274V4.72821Z" fill="white"/>
<path d="M13.5781 19.4087V16.8633H23.6918V19.4087H20.1918V28.4996H17.0781V19.4087H13.5781Z" fill="#FF9500"/>
<path d="M28.04 16.8633V28.4996H24.8809V16.8633H28.04Z" fill="#FF9500"/>
<path d="M40.4008 21.2278H37.1962C37.1735 20.9627 37.1129 20.7221 37.0144 20.5062C36.9197 20.2903 36.7871 20.1047 36.6167 19.9494C36.45 19.7903 36.2474 19.6691 36.0087 19.5858C35.7701 19.4987 35.4993 19.4551 35.1962 19.4551C34.6659 19.4551 34.2171 19.5839 33.8496 19.8415C33.486 20.099 33.2095 20.4683 33.0201 20.9494C32.8345 21.4305 32.7417 22.0081 32.7417 22.6824C32.7417 23.3945 32.8364 23.9911 33.0258 24.4721C33.2189 24.9494 33.4974 25.3093 33.861 25.5517C34.2246 25.7903 34.6621 25.9096 35.1735 25.9096C35.4652 25.9096 35.7265 25.8737 35.9576 25.8017C36.1886 25.7259 36.3894 25.618 36.5599 25.4778C36.7303 25.3377 36.8686 25.1691 36.9746 24.9721C37.0845 24.7714 37.1583 24.546 37.1962 24.296L40.4008 24.3187C40.3629 24.8112 40.2246 25.313 39.986 25.8244C39.7474 26.332 39.4083 26.8017 38.9689 27.2335C38.5333 27.6615 37.9936 28.0062 37.3496 28.2676C36.7057 28.529 35.9576 28.6596 35.1053 28.6596C34.0371 28.6596 33.0788 28.4305 32.2303 27.9721C31.3856 27.5138 30.7171 26.8396 30.2246 25.9494C29.736 25.0593 29.4917 23.9702 29.4917 22.6824C29.4917 21.3869 29.7417 20.296 30.2417 19.4096C30.7417 18.5195 31.4159 17.8471 32.2644 17.3926C33.1129 16.9343 34.0599 16.7051 35.1053 16.7051C35.8402 16.7051 36.5163 16.8055 37.1337 17.0062C37.7511 17.207 38.2928 17.5005 38.7587 17.8869C39.2246 18.2695 39.5996 18.7411 39.8837 19.3017C40.1678 19.8623 40.3402 20.5043 40.4008 21.2278Z" fill="#FF9500"/>
<path d="M41.834 28.4996V16.8633H44.9931V21.5678H45.1522L48.6522 16.8633H52.334L48.4022 22.0451L52.4249 28.4996H48.6522L46.0386 24.136L44.9931 25.4996V28.4996H41.834Z" fill="#FF9500"/>
<path d="M53.2715 28.4996V16.8633H61.6579V19.4087H56.4306V21.4087H61.2261V23.9542H56.4306V25.9542H61.6351V28.4996H53.2715Z" fill="#FF9500"/>
<path d="M62.9062 19.4087V16.8633H73.0199V19.4087H69.5199V28.4996H66.4062V19.4087H62.9062Z" fill="#FF9500"/>
<path d="M80.4817 20.5005C80.4514 20.1218 80.3094 19.8263 80.0556 19.6142C79.8056 19.4021 79.4249 19.296 78.9136 19.296C78.5878 19.296 78.3208 19.3358 78.1124 19.4153C77.9079 19.4911 77.7564 19.5952 77.6579 19.7278C77.5594 19.8604 77.5083 20.0119 77.5045 20.1824C77.4969 20.3225 77.5215 20.4494 77.5783 20.563C77.6389 20.6729 77.7336 20.7733 77.8624 20.8642C77.9912 20.9513 78.156 21.0308 78.3567 21.1028C78.5575 21.1748 78.7961 21.2392 79.0726 21.296L80.0272 21.5005C80.6711 21.6369 81.2223 21.8168 81.6806 22.0403C82.1389 22.2638 82.5139 22.5271 82.8056 22.8301C83.0973 23.1293 83.3113 23.4665 83.4476 23.8415C83.5878 24.2165 83.6598 24.6255 83.6636 25.0687C83.6598 25.8339 83.4685 26.4816 83.0897 27.0119C82.7109 27.5422 82.1692 27.9456 81.4647 28.2221C80.7639 28.4987 79.9211 28.6369 78.9363 28.6369C77.9249 28.6369 77.0423 28.4873 76.2886 28.188C75.5386 27.8888 74.9552 27.4286 74.5386 26.8074C74.1257 26.1824 73.9173 25.3831 73.9136 24.4096H76.9136C76.9325 24.7657 77.0215 25.0649 77.1806 25.3074C77.3397 25.5498 77.5632 25.7335 77.8511 25.8585C78.1427 25.9835 78.4893 26.046 78.8908 26.046C79.2279 26.046 79.5101 26.0043 79.7374 25.921C79.9647 25.8377 80.137 25.7221 80.2545 25.5744C80.3719 25.4267 80.4325 25.2581 80.4363 25.0687C80.4325 24.8907 80.3738 24.7354 80.2601 24.6028C80.1503 24.4665 79.9685 24.3452 79.7147 24.2392C79.4609 24.1293 79.1181 24.0271 78.6863 23.9324L77.5272 23.6824C76.4969 23.4589 75.6844 23.0858 75.0897 22.563C74.4988 22.0365 74.2052 21.3187 74.209 20.4096C74.2052 19.671 74.4022 19.0252 74.7999 18.4721C75.2014 17.9153 75.7564 17.4816 76.4647 17.171C77.1768 16.8604 77.9931 16.7051 78.9136 16.7051C79.8529 16.7051 80.6654 16.8623 81.3511 17.1767C82.0367 17.4911 82.5651 17.9343 82.9363 18.5062C83.3113 19.0744 83.5007 19.7392 83.5045 20.5005H80.4817Z" fill="#FF9500"/>
</g>
<defs>
<clipPath id="clip0_2491_20065">
<rect width="96" height="45" fill="white"/>
</clipPath>
</defs>
</svg>
