<?xml version="1.0" encoding="UTF-8" standalone="no"?>
<svg
   xmlns:dc="http://purl.org/dc/elements/1.1/"
   xmlns:cc="http://creativecommons.org/ns#"
   xmlns:rdf="http://www.w3.org/1999/02/22-rdf-syntax-ns#"
   xmlns:svg="http://www.w3.org/2000/svg"
   xmlns="http://www.w3.org/2000/svg"
   viewBox="0 0 528.55334 464.80399"
   height="464.80399"
   width="528.55334"
   xml:space="preserve"
   id="svg2"
   version="1.1"><metadata
     id="metadata8"><rdf:RDF><cc:Work
         rdf:about=""><dc:format>image/svg+xml</dc:format><dc:type
           rdf:resource="http://purl.org/dc/dcmitype/StillImage" /></cc:Work></rdf:RDF></metadata><defs
     id="defs6"><clipPath
       id="clipPath18"
       clipPathUnits="userSpaceOnUse"><path
         id="path16"
         d="M 0,348.603 H 396.415 V 0 H 0 Z" /></clipPath></defs><g
     transform="matrix(1.3333333,0,0,-1.3333333,0,464.804)"
     id="g10"><g
       id="g12"><g
         clip-path="url(#clipPath18)"
         id="g14"><g
           transform="translate(114.517,196.5652)"
           id="g20"><path
             id="path22"
             style="fill:#6fc9c7;fill-opacity:1;fill-rule:nonzero;stroke:none"
             d="m 0,0 c 0,1.528 -0.798,2.053 -2.029,2.053 -1.141,0 -2.03,-0.639 -2.509,-1.3 V -6.659 H -7.434 V 4.356 h 2.896 V 2.919 c 0.707,0.844 2.052,1.711 3.854,1.711 2.418,0 3.581,-1.369 3.581,-3.513 v -7.776 l -2.897,0 z" /></g><g
           transform="translate(127.015,193.92)"
           id="g24"><path
             id="path26"
             style="fill:#6fc9c7;fill-opacity:1;fill-rule:nonzero;stroke:none"
             d="m 0,0 c -0.479,0.638 -1.391,0.958 -2.326,0.958 -1.14,0 -2.075,-0.593 -2.075,-1.665 0,-1.027 0.935,-1.619 2.075,-1.619 0.935,0 1.847,0.319 2.326,0.957 z m 0,-2.874 c -0.753,-0.889 -2.053,-1.414 -3.49,-1.414 -1.755,0 -3.831,1.186 -3.831,3.649 0,2.577 2.076,3.512 3.831,3.512 1.46,0 2.76,-0.456 3.49,-1.345 v 1.528 c 0,1.117 -0.958,1.847 -2.418,1.847 -1.185,0 -2.28,-0.433 -3.216,-1.3 l -1.094,1.939 c 1.346,1.186 3.079,1.733 4.812,1.733 2.509,0 4.812,-1.003 4.812,-4.174 V -4.014 H 0 Z" /></g><g
           transform="translate(133.4692,192.6426)"
           id="g28"><path
             id="path30"
             style="fill:#6fc9c7;fill-opacity:1;fill-rule:nonzero;stroke:none"
             d="M 0,0 V 5.747 H -1.825 V 8.279 H 0 v 3.01 H 2.919 V 8.279 H 5.154 V 5.747 H 2.919 V 0.775 c 0,-0.684 0.365,-1.208 1.004,-1.208 0.433,0 0.843,0.159 1.003,0.319 L 5.542,-2.303 C 5.109,-2.691 4.334,-3.01 3.125,-3.01 1.094,-3.01 0,-1.961 0,0" /></g><g
           transform="translate(148.1554,191.2971)"
           id="g32"><path
             id="path34"
             style="fill:#6fc9c7;fill-opacity:1;fill-rule:nonzero;stroke:none"
             d="m 0,0 c -0.752,-0.844 -2.075,-1.665 -3.877,-1.665 -2.417,0 -3.557,1.323 -3.557,3.467 v 7.822 h 2.896 V 2.942 c 0,-1.528 0.798,-2.03 2.03,-2.03 1.117,0 2.007,0.616 2.508,1.255 V 9.624 H 2.897 V -1.391 H 0 Z" /></g><g
           transform="translate(154.0405,200.9214)"
           id="g36"><path
             id="path38"
             style="fill:#6fc9c7;fill-opacity:1;fill-rule:nonzero;stroke:none"
             d="m 0,0 h 2.896 v -1.505 c 0.775,0.98 2.144,1.756 3.512,1.756 v -2.828 c -0.205,0.045 -0.479,0.091 -0.798,0.091 -0.958,0 -2.235,-0.547 -2.714,-1.254 v -7.275 H 0 Z" /></g><g
           transform="translate(168.9782,193.92)"
           id="g40"><path
             id="path42"
             style="fill:#6fc9c7;fill-opacity:1;fill-rule:nonzero;stroke:none"
             d="m 0,0 c -0.479,0.638 -1.391,0.958 -2.326,0.958 -1.14,0 -2.075,-0.593 -2.075,-1.665 0,-1.027 0.935,-1.619 2.075,-1.619 0.935,0 1.847,0.319 2.326,0.957 z m 0,-2.874 c -0.753,-0.889 -2.053,-1.414 -3.49,-1.414 -1.755,0 -3.831,1.186 -3.831,3.649 0,2.577 2.076,3.512 3.831,3.512 1.46,0 2.76,-0.456 3.49,-1.345 v 1.528 c 0,1.117 -0.958,1.847 -2.418,1.847 -1.185,0 -2.28,-0.433 -3.216,-1.3 l -1.094,1.939 c 1.346,1.186 3.079,1.733 4.812,1.733 2.509,0 4.812,-1.003 4.812,-4.174 V -4.014 H 0 Z" /></g><path
           id="path44"
           style="fill:#6fc9c7;fill-opacity:1;fill-rule:nonzero;stroke:none"
           d="m 174.863,205.118 h 2.896 v -15.212 h -2.896 z" /><g
           transform="translate(193.3126,193.92)"
           id="g46"><path
             id="path48"
             style="fill:#6fc9c7;fill-opacity:1;fill-rule:nonzero;stroke:none"
             d="m 0,0 c -0.479,0.638 -1.391,0.958 -2.326,0.958 -1.14,0 -2.076,-0.593 -2.076,-1.665 0,-1.027 0.936,-1.619 2.076,-1.619 0.935,0 1.847,0.319 2.326,0.957 z m 0,-2.874 c -0.753,-0.889 -2.053,-1.414 -3.49,-1.414 -1.755,0 -3.831,1.186 -3.831,3.649 0,2.577 2.076,3.512 3.831,3.512 1.46,0 2.76,-0.456 3.49,-1.345 v 1.528 c 0,1.117 -0.958,1.847 -2.418,1.847 -1.185,0 -2.28,-0.433 -3.216,-1.3 l -1.094,1.939 c 1.346,1.186 3.079,1.733 4.812,1.733 2.509,0 4.813,-1.003 4.813,-4.174 V -4.014 H 0 Z" /></g><g
           transform="translate(199.1961,200.9214)"
           id="g50"><path
             id="path52"
             style="fill:#6fc9c7;fill-opacity:1;fill-rule:nonzero;stroke:none"
             d="m 0,0 h 2.896 v -1.505 c 0.776,0.98 2.144,1.756 3.512,1.756 v -2.828 c -0.205,0.045 -0.479,0.091 -0.798,0.091 -0.958,0 -2.235,-0.547 -2.714,-1.254 v -7.275 H 0 Z" /></g><g
           transform="translate(208.0907,192.6426)"
           id="g54"><path
             id="path56"
             style="fill:#6fc9c7;fill-opacity:1;fill-rule:nonzero;stroke:none"
             d="M 0,0 V 5.747 H -1.825 V 8.279 H 0 v 3.01 H 2.919 V 8.279 H 5.154 V 5.747 H 2.919 V 0.775 c 0,-0.684 0.365,-1.208 1.004,-1.208 0.433,0 0.843,0.159 1.003,0.319 L 5.542,-2.303 C 5.109,-2.691 4.334,-3.01 3.125,-3.01 1.095,-3.01 0,-1.961 0,0" /></g><g
           transform="translate(217.6229,196.4512)"
           id="g58"><path
             id="path60"
             style="fill:#6fc9c7;fill-opacity:1;fill-rule:nonzero;stroke:none"
             d="M 0,0 H 5.428 C 5.36,1.049 4.63,2.44 2.714,2.44 0.912,2.44 0.137,1.095 0,0 m 2.714,4.744 c 3.284,0 5.52,-2.463 5.52,-6.067 V -1.961 H 0.046 c 0.182,-1.391 1.3,-2.554 3.17,-2.554 1.027,0 2.235,0.41 2.942,1.094 l 1.277,-1.87 C 6.34,-6.294 4.607,-6.819 2.897,-6.819 c -3.353,0 -5.885,2.258 -5.885,5.793 0,3.193 2.35,5.77 5.702,5.77" /></g><g
           transform="translate(228.3654,193.3724)"
           id="g62"><path
             id="path64"
             style="fill:#6fc9c7;fill-opacity:1;fill-rule:nonzero;stroke:none"
             d="m 0,0 c 0.798,-0.752 2.44,-1.505 3.808,-1.505 1.254,0 1.847,0.433 1.847,1.117 0,0.776 -0.957,1.049 -2.212,1.3 -1.892,0.365 -4.333,0.821 -4.333,3.444 0,1.847 1.619,3.467 4.516,3.467 1.87,0 3.352,-0.639 4.447,-1.505 L 6.91,4.333 C 6.249,5.04 4.995,5.61 3.649,5.61 2.599,5.61 1.915,5.223 1.915,4.584 1.915,3.9 2.782,3.649 4.014,3.398 5.906,3.033 8.438,2.532 8.438,-0.205 c 0,-2.007 -1.711,-3.535 -4.767,-3.535 -1.916,0 -3.763,0.638 -4.926,1.71 z" /></g><path
           id="path66"
           style="fill:#6fc9c7;fill-opacity:1;fill-rule:nonzero;stroke:none"
           d="m 239.061,200.921 h 2.896 v -11.015 h -2.896 z m -0.297,3.353 c 0,0.958 0.798,1.733 1.733,1.733 0.958,0 1.733,-0.775 1.733,-1.733 0,-0.958 -0.775,-1.733 -1.733,-1.733 -0.935,0 -1.733,0.775 -1.733,1.733" /><g
           transform="translate(251.5586,193.92)"
           id="g68"><path
             id="path70"
             style="fill:#6fc9c7;fill-opacity:1;fill-rule:nonzero;stroke:none"
             d="m 0,0 c -0.479,0.638 -1.391,0.958 -2.326,0.958 -1.14,0 -2.075,-0.593 -2.075,-1.665 0,-1.027 0.935,-1.619 2.075,-1.619 0.935,0 1.847,0.319 2.326,0.957 z m 0,-2.874 c -0.753,-0.889 -2.053,-1.414 -3.49,-1.414 -1.755,0 -3.831,1.186 -3.831,3.649 0,2.577 2.076,3.512 3.831,3.512 1.46,0 2.76,-0.456 3.49,-1.345 v 1.528 c 0,1.117 -0.958,1.847 -2.418,1.847 -1.185,0 -2.28,-0.433 -3.216,-1.3 l -1.094,1.939 c 1.346,1.186 3.079,1.733 4.812,1.733 2.509,0 4.812,-1.003 4.812,-4.174 V -4.014 H 0 Z" /></g><g
           transform="translate(264.8764,196.5652)"
           id="g72"><path
             id="path74"
             style="fill:#6fc9c7;fill-opacity:1;fill-rule:nonzero;stroke:none"
             d="m 0,0 c 0,1.528 -0.798,2.053 -2.029,2.053 -1.141,0 -2.03,-0.639 -2.509,-1.3 V -6.659 H -7.434 V 4.356 h 2.896 V 2.919 c 0.707,0.844 2.052,1.711 3.854,1.711 2.418,0 3.581,-1.369 3.581,-3.513 v -7.776 l -2.897,0 z" /></g><g
           transform="translate(284.0567,197.4091)"
           id="g76"><path
             id="path78"
             style="fill:#6fc9c7;fill-opacity:1;fill-rule:nonzero;stroke:none"
             d="M 0,0 -2.326,-7.503 H -5.427 L -8.78,3.512 h 3.01 L -3.717,-3.9 -1.3,3.512 H 1.277 L 3.695,-3.9 5.747,3.512 H 8.758 L 5.406,-7.503 H 2.327 Z" /></g><g
           transform="translate(300.9794,193.92)"
           id="g80"><path
             id="path82"
             style="fill:#6fc9c7;fill-opacity:1;fill-rule:nonzero;stroke:none"
             d="m 0,0 c -0.479,0.638 -1.391,0.958 -2.326,0.958 -1.14,0 -2.076,-0.593 -2.076,-1.665 0,-1.027 0.936,-1.619 2.076,-1.619 0.935,0 1.847,0.319 2.326,0.957 z m 0,-2.874 c -0.753,-0.889 -2.053,-1.414 -3.49,-1.414 -1.755,0 -3.831,1.186 -3.831,3.649 0,2.577 2.076,3.512 3.831,3.512 1.46,0 2.76,-0.456 3.49,-1.345 v 1.528 c 0,1.117 -0.958,1.847 -2.418,1.847 -1.185,0 -2.28,-0.433 -3.216,-1.3 l -1.094,1.939 c 1.346,1.186 3.079,1.733 4.812,1.733 2.509,0 4.813,-1.003 4.813,-4.174 V -4.014 H 0 Z" /></g><g
           transform="translate(307.4328,192.6426)"
           id="g84"><path
             id="path86"
             style="fill:#6fc9c7;fill-opacity:1;fill-rule:nonzero;stroke:none"
             d="M 0,0 V 5.747 H -1.825 V 8.279 H 0 v 3.01 H 2.919 V 8.279 H 5.154 V 5.747 H 2.919 V 0.775 c 0,-0.684 0.365,-1.208 1.004,-1.208 0.433,0 0.843,0.159 1.003,0.319 L 5.542,-2.303 C 5.109,-2.691 4.334,-3.01 3.125,-3.01 1.095,-3.01 0,-1.961 0,0" /></g><g
           transform="translate(316.9657,196.4512)"
           id="g88"><path
             id="path90"
             style="fill:#6fc9c7;fill-opacity:1;fill-rule:nonzero;stroke:none"
             d="M 0,0 H 5.428 C 5.36,1.049 4.63,2.44 2.714,2.44 0.912,2.44 0.137,1.095 0,0 m 2.714,4.744 c 3.284,0 5.52,-2.463 5.52,-6.067 V -1.961 H 0.046 c 0.182,-1.391 1.3,-2.554 3.17,-2.554 1.027,0 2.235,0.41 2.942,1.094 l 1.277,-1.87 C 6.34,-6.294 4.607,-6.819 2.897,-6.819 c -3.353,0 -5.885,2.258 -5.885,5.793 0,3.193 2.35,5.77 5.702,5.77" /></g><g
           transform="translate(327.4109,200.9214)"
           id="g92"><path
             id="path94"
             style="fill:#6fc9c7;fill-opacity:1;fill-rule:nonzero;stroke:none"
             d="m 0,0 h 2.896 v -1.505 c 0.775,0.98 2.144,1.756 3.512,1.756 v -2.828 c -0.205,0.045 -0.479,0.091 -0.798,0.091 -0.958,0 -2.235,-0.547 -2.714,-1.254 v -7.275 H 0 Z" /></g><g
           transform="translate(327.6484,137.532)"
           id="g96"><path
             id="path98"
             style="fill:#4e009f;fill-opacity:1;fill-rule:nonzero;stroke:none"
             d="M 0,0 C -1.275,0 -2.304,1.058 -2.304,2.369 -2.304,3.68 -1.275,4.737 0,4.737 1.276,4.737 2.305,3.68 2.305,2.369 2.305,1.058 1.276,0 0,0 m 0,5.14 c -1.485,0 -2.696,-1.245 -2.696,-2.771 0,-1.527 1.211,-2.772 2.696,-2.772 1.486,0 2.696,1.245 2.696,2.772 C 2.696,3.895 1.486,5.14 0,5.14" /></g><g
           transform="translate(327.5614,140.0717)"
           id="g100"><path
             id="path102"
             style="fill:#4e009f;fill-opacity:1;fill-rule:nonzero;stroke:none"
             d="M 0,0 H -0.5 V 1.081 H 0.196 C 0.529,1.081 0.892,0.962 0.892,0.552 0.892,0.023 0.428,0 0,0 m 1.283,0.552 c 0,0.573 -0.275,0.886 -0.978,0.886 H -0.891 V -1.758 H -0.5 v 1.401 H 0.059 L 0.986,-1.758 H 1.428 L 0.5,-0.357 c 0.42,0.074 0.783,0.319 0.783,0.909" /></g><g
           transform="translate(182.3517,155.4083)"
           id="g104"><path
             id="path106"
             style="fill:#4e009f;fill-opacity:1;fill-rule:nonzero;stroke:none"
             d="m 0,0 c 0,-1.074 -0.077,-2.112 -0.236,-3.137 l -0.03,-0.282 c -1.313,-5.464 -7.288,-8.801 -12.535,-9.276 -0.423,-0.039 -0.848,-0.058 -1.266,-0.058 -2.46,0 -6.697,0.643 -7.442,4.95 -0.338,1.963 -0.063,3.395 0.868,4.506 1.629,1.946 6.191,4.267 18.668,4.267 0.682,0 1.342,-0.005 1.973,-0.015 z m -9.743,26.316 c -6.153,0 -12.663,-2.485 -16.582,-6.332 l -1.135,-1.114 5.167,-6.22 1.262,1.107 c 3.282,2.88 6.975,4.28 11.288,4.28 C -3.278,18.037 0,15.213 0,9.645 V 9.228 c -0.675,0.012 -1.376,0.018 -2.096,0.018 -8.011,0 -19.281,-0.741 -24.644,-7.147 -2.559,-3.056 -3.465,-6.873 -2.692,-11.348 1.255,-7.267 7.109,-11.781 15.276,-11.781 0.675,0 1.37,0.032 2.063,0.095 4.33,0.392 8.637,2.017 12.106,4.532 v -3.414 H 8.061 L 8.054,9.555 c 0,10.809 -6.32,16.761 -17.797,16.761" /></g><g
           transform="translate(331.9405,181.5822)"
           id="g108"><path
             id="path110"
             style="fill:#4e009f;fill-opacity:1;fill-rule:nonzero;stroke:none"
             d="m 0,0 c -0.942,0.114 -1.909,0.168 -2.956,0.168 -5.574,0 -10.256,-1.847 -13.541,-5.342 -3.244,-3.444 -4.955,-8.291 -4.946,-14.012 V -45.79 h 8.328 v 26.58 c 0.104,7.378 3.518,10.867 10.726,10.981 0.608,0 1.225,-0.028 1.838,-0.082 l 3.03,-0.257 v 8.297 z" /></g><g
           transform="translate(238.6869,181.7272)"
           id="g112"><path
             id="path114"
             style="fill:#4e009f;fill-opacity:1;fill-rule:nonzero;stroke:none"
             d="M 0,0 C -5.235,0 -9.926,-2.19 -13.073,-6.055 -16.199,-2.19 -20.924,0 -26.24,0 c -4.807,0 -9.21,-1.806 -12.397,-5.084 -3.199,-3.277 -4.959,-7.803 -4.956,-12.745 V -46.03 h 8.419 v 28.191 c 0.03,5.381 3.704,9.165 8.921,9.203 5.36,-0.044 8.984,-3.741 9.02,-9.193 V -46.03 h 8.342 v 28.189 c 0.034,5.468 3.631,9.167 8.934,9.205 5.36,-0.044 8.987,-3.741 9.024,-9.193 V -46.03 h 8.334 v 28.2 c 0.002,4.944 -1.743,9.47 -4.914,12.743 C 9.308,-1.807 4.873,0 0,0" /></g><g
           transform="translate(144.2493,180.7355)"
           id="g116"><path
             id="path118"
             style="fill:#4e009f;fill-opacity:1;fill-rule:nonzero;stroke:none"
             d="M 0,0 -14.23,-31.21 -28.46,0 h -9.298 l 20.953,-45.956 h 5.15 L 9.298,0 Z" /></g><g
           transform="translate(283.3686,142.6557)"
           id="g120"><path
             id="path122"
             style="fill:#4e009f;fill-opacity:1;fill-rule:nonzero;stroke:none"
             d="m 0,0 c -8.146,0 -14.774,6.813 -14.774,15.187 0,8.374 6.628,15.186 14.774,15.186 8.147,0 14.775,-6.812 14.775,-15.186 C 14.775,6.813 8.147,0 0,0 m 0,38.629 c -12.575,0 -22.806,-10.516 -22.806,-23.442 0,-12.926 10.231,-23.442 22.806,-23.442 12.576,0 22.806,10.516 22.806,23.442 0,12.926 -10.23,23.442 -22.806,23.442" /></g><g
           transform="translate(85.4376,173.0279)"
           id="g124"><path
             id="path126"
             style="fill:#4e009f;fill-opacity:1;fill-rule:nonzero;stroke:none"
             d="M 0,0 C 7.185,0 13.19,-4.996 14.768,-11.7 H -14.768 C -13.19,-4.996 -7.185,0 0,0 M 11.036,-25.575 C 8.268,-28.516 4.358,-30.371 0,-30.371 c -6.987,0 -12.857,4.726 -14.626,11.151 h 29.252 6.537 1.971 c 0,0 0.308,2.174 0.308,4.035 0,12.947 -10.495,23.442 -23.442,23.442 -12.947,0 -23.442,-10.495 -23.442,-23.442 0,-12.947 10.495,-23.443 23.442,-23.443 9.212,0 17.164,5.324 20.997,13.053 z" /></g></g></g></g></svg>