<?xml version="1.0" encoding="utf-8"?>
<!-- Generator: Adobe Illustrator 27.0.1, SVG Export Plug-In . SVG Version: 6.00 Build 0)  -->
<svg version="1.0" id="Layer_1" xmlns="http://www.w3.org/2000/svg" xmlns:xlink="http://www.w3.org/1999/xlink" x="0px" y="0px"
	 viewBox="0 0 651.78 272.684" style="enable-background:new 0 0 651.78 272.684;" xml:space="preserve">
<style type="text/css">
	.st0{fill:url(#SVGID_1_);}
	.st1{fill:url(#SVGID_00000049919199417269226420000014751672680562071728_);}
</style>
<g>
	<g>
		<path d="M135.311,104.78c-12.336,12.443-12.336,32.664,0,45.107c12.336,12.444,32.383,12.444,44.719,0l-9.549-9.632
			c-7.058,7.119-18.504,7.119-25.562,0c-7.058-7.119-7.058-18.665,0-25.784L135.311,104.78z"/>
		<linearGradient id="SVGID_1_" gradientUnits="userSpaceOnUse" x1="141.4795" y1="98.5464" x2="179.841" y2="117.2566">
			<stop  offset="0.1911" style="stop-color:#000000"/>
			<stop  offset="0.2445" style="stop-color:#0C0C0C;stop-opacity:0.9127"/>
			<stop  offset="0.3404" style="stop-color:#2B2B2B;stop-opacity:0.7559"/>
			<stop  offset="0.4678" style="stop-color:#5E5E5E;stop-opacity:0.5475"/>
			<stop  offset="0.622" style="stop-color:#A4A4A4;stop-opacity:0.2954"/>
			<stop  offset="0.7973" style="stop-color:#FCFCFC;stop-opacity:0.0089"/>
			<stop  offset="0.8027" style="stop-color:#FFFFFF;stop-opacity:0"/>
		</linearGradient>
		<path class="st0" d="M144.918,114.412c-0.059,0.06-0.178,0.179-0.237,0.239l-9.608-9.632c0.059-0.06,0.178-0.179,0.237-0.239
			c12.336-12.443,32.383-12.443,44.719,0l-9.549,9.632C163.423,107.293,151.976,107.293,144.918,114.412z"/>
		<path d="M492.648,109.087c9.964,0,18.089,8.136,18.089,18.246c0,10.05-8.066,18.247-18.089,18.247
			c-9.964,0-18.089-8.136-18.089-18.247h-13.522c0,17.588,14.175,31.886,31.612,31.886c17.437,0,31.612-14.298,31.612-31.886
			c0-17.588-14.175-31.886-31.612-31.886V109.087z"/>
		<polygon points="193.612,97.541 193.612,157.365 207.372,157.365 207.372,110.045 222.91,110.045 229.197,97.541 		"/>
		<polygon points="289.87,97.541 269.942,136.726 249.006,97.541 233.289,97.541 262.409,151.622 248.887,178.423 264.367,178.423 
			305.349,97.541 		"/>
		<path d="M348.23,144.563c-6.524,2.752-16.606,0.957-23.012,0v-34.818c6.405-1.017,16.31-2.931,22.893-0.179
			c6.346,2.692,9.964,8.854,9.964,17.768C358.134,136.188,354.517,141.93,348.23,144.563z M341.765,95.447
			c-12.574,0-20.818,1.795-30.366,3.829v79.207h13.759v-20.52c4.922,0.718,10.201,1.376,16.607,1.197
			c18.682-0.539,30.01-12.683,30.01-31.707C371.776,108.31,359.736,95.447,341.765,95.447z"/>
		<rect x="435.472" y="97.541" width="13.76" height="59.824"/>
		<path d="M419.519,145.281c-2.966,0.478-5.516,0.658-7.77,0.658c-5.575,0-8.659-1.735-8.659-11.067v-24.887h19.097V97.541H403.09
			V77.859H389.33v19.682h-17.378l6.642,12.503h10.735v25.605c0,15.614,7.117,23.511,21.114,23.511c5.1,0,8.363-0.539,12.633-1.615
			l2.609-0.658L419.519,145.281z"/>
		
			<linearGradient id="SVGID_00000021827449181261007460000004475868111407753100_" gradientUnits="userSpaceOnUse" x1="465.2864" y1="130.4397" x2="489.852" y2="94.0197">
			<stop  offset="0.1911" style="stop-color:#000000"/>
			<stop  offset="0.2701" style="stop-color:#101010;stop-opacity:0.9024"/>
			<stop  offset="0.4251" style="stop-color:#3B3B3B;stop-opacity:0.7107"/>
			<stop  offset="0.6411" style="stop-color:#7F7F7F;stop-opacity:0.4437"/>
			<stop  offset="0.9072" style="stop-color:#DDDDDD;stop-opacity:0.1148"/>
			<stop  offset="1" style="stop-color:#FFFFFF;stop-opacity:0"/>
		</linearGradient>
		<path style="fill:url(#SVGID_00000021827449181261007460000004475868111407753100_);" d="M474.559,127.334c0,0.12,0,0.239,0,0.359
			l-13.522-0.119c0-0.06,0-0.18,0-0.239c0-17.588,14.175-31.886,31.612-31.886v13.64
			C482.625,109.087,474.559,117.283,474.559,127.334z"/>
	</g>
</g>
</svg>
