<?xml version="1.0" encoding="UTF-8" standalone="no"?>
<!-- Created with Inkscape (http://www.inkscape.org/) -->

<svg
   version="1.1"
   id="svg2"
   width="2400"
   height="1509.3333"
   viewBox="0 0 2400 1509.3333"
   sodipodi:docname="Ballet_Logo_Standard - Stephanie Ma.ai"
   xmlns:inkscape="http://www.inkscape.org/namespaces/inkscape"
   xmlns:sodipodi="http://sodipodi.sourceforge.net/DTD/sodipodi-0.dtd"
   xmlns="http://www.w3.org/2000/svg"
   xmlns:svg="http://www.w3.org/2000/svg">
  <defs
     id="defs6">
    <clipPath
       clipPathUnits="userSpaceOnUse"
       id="clipPath16">
      <path
         d="M 0,1132 H 1800 V 0 H 0 Z"
         id="path14" />
    </clipPath>
  </defs>
  <sodipodi:namedview
     id="namedview4"
     pagecolor="#ffffff"
     bordercolor="#000000"
     borderopacity="0.25"
     inkscape:showpageshadow="2"
     inkscape:pageopacity="0.0"
     inkscape:pagecheckerboard="0"
     inkscape:deskcolor="#d1d1d1" />
  <g
     id="g8"
     inkscape:groupmode="layer"
     inkscape:label="Ballet_Logo_Standard - Stephanie Ma"
     transform="matrix(1.3333333,0,0,-1.3333333,0,1509.3333)">
    <g
       id="g10">
      <g
         id="g12"
         clip-path="url(#clipPath16)">
        <g
           id="g18"
           transform="translate(853.98,531.824)">
          <path
             d="m 0,0 c -8.013,-10.34 -16.342,-19.52 -24.776,-27.434 -8.434,-7.913 -16.763,-14.244 -24.776,-18.782 -7.907,-4.642 -14.971,-6.858 -21.086,-6.858 -6.115,0 -10.648,2.11 -14.443,6.436 -3.901,4.432 -6.326,10.974 -7.275,19.204 -1.898,16.672 0.211,34.504 6.536,52.864 6.326,18.36 14.866,35.453 25.409,50.542 10.543,15.194 22.351,27.751 35.003,37.564 12.44,9.496 24.354,14.455 35.108,14.455 6.747,0 12.651,-2.11 17.712,-6.331 5.061,-4.22 8.118,-10.551 9.067,-18.676 C 37.744,92.327 36.795,80.72 33.738,68.902 30.68,56.874 26.252,45.056 20.454,33.344 14.76,21.631 7.802,10.447 -0.105,0.106 Z m 407.38,66.159 c 6.01,10.446 13.07,20.47 20.77,29.65 7.91,9.18 16.03,16.988 24.35,23.003 8.12,6.014 16.13,9.074 23.62,9.074 3.8,0 6.96,-1.161 9.81,-3.482 2.84,-2.321 4.42,-6.015 5.06,-10.868 1.16,-9.391 -1.69,-18.044 -8.54,-26.274 C 475.28,78.926 466.32,71.54 455.88,65.104 445.33,58.773 433.95,53.392 422.14,48.96 c -10.33,-3.799 -19.29,-6.437 -26.67,-8.125 2.74,7.597 6.74,16.039 12.02,25.218 z m 320.82,23.53 -0.95,-1.688 C 718.82,74.389 708.17,58.984 695.73,41.89 683.29,24.902 669.58,8.758 655.35,-6.436 641.12,-21.525 626.36,-34.292 611.28,-44.633 596.42,-54.868 582.29,-60.038 569,-60.038 c -6.11,0 -11.7,1.371 -16.65,4.009 -4.85,2.533 -7.49,7.07 -8.33,13.612 -0.85,6.542 0.21,14.245 3.16,22.791 3.06,8.864 7.91,19.837 14.23,32.816 6.33,12.767 14.55,28.595 24.25,46.744 9.39,17.621 20.24,38.935 32.05,63.204 h 76.33 l 3.9,10.551 h -74.53 l 36.47,66.159 h -38.27 l -35.95,-66.159 h -31.84 l -4,-10.551 h 30.36 C 572.27,107.627 564.26,92.644 556.56,78.504 548.45,63.838 541.07,50.015 534.74,37.353 528.31,24.797 523.25,12.873 519.66,2.111 519.45,1.478 519.35,0.95 519.03,0.317 c -5.38,-5.381 -10.02,-9.813 -14.44,-13.612 -15.61,-13.506 -31.42,-24.479 -47.13,-32.604 -15.5,-8.019 -29.63,-12.029 -41.75,-12.029 -4.96,0 -9.28,1.055 -12.76,3.166 -3.69,2.11 -6.75,4.959 -9.06,8.335 -2.43,3.377 -4.33,7.281 -5.8,11.502 -1.37,4.22 -2.43,8.546 -2.96,13.084 -1.16,9.285 -0.94,18.676 0.43,27.961 1.37,8.969 3.69,17.199 6.53,24.375 12.02,2.743 25.73,6.753 41.02,12.134 15.6,5.487 30.36,11.923 43.75,18.887 13.39,6.964 24.67,15.089 33.63,23.636 9.17,8.969 13.28,18.36 12.02,28.067 -1.05,8.125 -4.74,14.456 -10.97,18.677 -6.11,4.22 -14.12,6.331 -23.93,6.331 -17.29,0 -34.9,-5.276 -52.4,-15.617 C 417.82,112.27 402.11,99.08 388.4,83.464 374.59,67.847 363.84,50.437 355.93,31.972 c -4.01,-9.497 -6.85,-19.204 -8.22,-28.49 -6.12,-7.386 -12.34,-14.35 -18.35,-20.575 -12.75,-13.295 -25.3,-23.952 -36.79,-31.655 -11.39,-7.492 -21.83,-11.396 -30.89,-11.396 -7.38,0 -11.39,4.01 -12.34,12.557 -0.42,4.326 0,9.602 1.69,15.933 1.68,6.331 5.06,15.088 10.12,25.851 5.06,10.763 12.33,25.218 21.51,42.312 9.49,17.727 21.61,39.885 35.74,65.842 14.55,26.59 32.05,58.667 52.4,96.125 20.13,36.825 44.07,81.67 71.48,133.162 l 1.37,2.743 h -43.97 l -0.42,-1.055 c -23.19,-46.005 -44.07,-86.84 -62.2,-121.133 -18.24,-34.609 -34.05,-64.47 -47.34,-88.95 C 275.49,96.864 264.42,76.289 255.88,60.145 246.81,43.051 239.43,28.384 234.05,16.355 230.26,7.914 227.2,0.106 225.2,-6.858 c -3.27,-3.693 -6.54,-7.175 -9.81,-10.552 -12.75,-13.295 -25.3,-23.952 -36.9,-31.655 -11.38,-7.491 -21.82,-11.395 -30.89,-11.395 -7.378,0 -11.385,4.009 -12.333,12.556 -0.422,4.326 -0.001,9.602 1.686,15.933 1.687,6.331 5.061,15.089 10.117,25.851 5.07,10.869 12.34,25.219 21.62,42.312 9.38,17.516 21.51,39.78 35.84,65.842 14.55,26.591 32.05,58.667 52.51,96.126 20.13,36.93 44.17,81.775 71.69,133.161 l 1.37,2.743 h -43.96 l -0.43,-1.055 C 262.52,287.004 241.54,246.275 223.3,211.877 204.96,177.267 188.93,147.301 175.86,122.927 161.41,96.126 150.55,76.077 141.908,59.828 132.736,42.734 125.462,28.068 120.085,16.039 c -4.639,-10.13 -8.013,-19.415 -10.016,-27.434 -1.898,-2.111 -3.69,-4.115 -5.483,-6.12 C 91.935,-31.021 79.81,-41.89 68.529,-49.487 57.459,-56.978 48.076,-60.882 40.485,-60.882 c -9.383,0 -14.233,4.22 -15.287,13.189 -0.738,6.437 1.159,15.722 5.693,27.329 4.639,11.923 11.07,25.746 19.294,41.468 8.118,15.616 17.607,33.026 28.36,51.491 10.543,18.571 21.824,37.881 33.527,57.612 l 1.687,2.849 H 72.325 L 58.303,101.19 c -1.476,4.01 -3.374,7.914 -5.483,11.607 -2.741,4.748 -6.325,8.969 -10.648,12.662 -4.323,3.693 -9.594,6.753 -15.709,8.969 -6.115,2.11 -13.179,3.271 -20.875,3.271 -16.236,0 -32.894,-5.698 -49.763,-16.777 -16.552,-11.079 -31.734,-25.219 -45.018,-41.785 -13.284,-16.566 -23.933,-34.609 -31.735,-53.496 -7.801,-19.099 -10.859,-36.72 -9.067,-52.547 1.266,-11.29 5.377,-21.631 12.336,-30.6 7.064,-9.18 18.028,-13.823 32.683,-13.823 8.54,0 17.396,2.111 26.357,6.437 8.751,4.221 17.185,9.391 25.093,15.616 7.907,6.12 15.287,12.768 21.824,19.837 5.06,5.382 9.383,10.341 13.178,14.667 -0.843,-3.482 -1.687,-7.175 -2.425,-10.868 -1.159,-5.276 -1.37,-10.868 -0.738,-16.355 0.949,-8.019 4.428,-15.089 10.543,-20.787 6.115,-5.909 15.077,-8.863 26.463,-8.863 13.601,0 27.728,5.381 41.961,16.038 10.227,7.598 20.453,16.777 30.469,27.329 -0.211,-4.326 -0.105,-8.547 0.317,-12.662 1.054,-9.18 4.744,-16.671 10.859,-22.264 6.115,-5.698 15.392,-8.441 27.625,-8.441 11.28,0 23.51,4.115 36.37,12.24 11.28,7.175 24.46,18.465 39.01,33.448 -0.42,-5.17 -0.32,-10.129 0.21,-14.983 1.05,-9.18 4.74,-16.671 10.86,-22.264 6.11,-5.698 15.39,-8.441 27.62,-8.441 11.28,0 23.51,4.115 36.38,12.24 12.54,8.019 27.41,21.103 43.85,38.513 2.01,2.216 4.12,4.432 6.22,6.859 0.11,-2.955 0.22,-5.804 0.64,-8.547 1.89,-15.616 8.01,-27.856 18.13,-36.192 10.02,-8.441 23.41,-12.768 39.75,-12.768 13.07,0 26.36,2.427 39.32,7.281 12.97,4.854 25.83,11.396 38.17,19.626 11.6,7.808 22.67,16.566 33.1,26.274 -0.21,-3.693 -0.1,-7.07 0.21,-10.341 1.69,-13.401 7.49,-23.952 17.29,-31.549 9.81,-7.386 20.77,-11.185 33,-11.185 15.19,0 30.68,5.065 46.18,15.194 15.29,9.919 30.47,22.581 44.92,37.67 14.44,15.088 28.36,31.76 41.43,49.909 12.97,17.832 24.88,35.242 35.85,51.703 l 1.05,1.688 -7.27,4.959 z M -186.188,389.46 c -8.119,-16.355 -16.026,-31.971 -23.406,-46.954 l -5.482,-10.974 c -6.221,0.95 -12.757,1.794 -19.716,2.216 -16.447,1.161 -30.996,1.794 -47.97,2.11 l 2.425,4.432 c 9.067,16.144 18.45,32.815 26.146,47.377 l 1.371,2.743 h -43.964 l -0.422,-1.055 c -5.061,-10.13 -16.447,-32.605 -26.99,-53.602 -1.687,0 -3.268,0 -4.955,-0.106 -112.283,2.322 -177.438,-12.767 -240.801,-55.29 -42.172,-28.49 -75.699,-84.624 -74.539,-125.142 0.422,-17.305 8.434,-41.152 29.52,-56.557 15.498,-11.396 43.964,-22.158 91.302,-8.547 52.926,15.089 85.082,61.622 77.596,91.694 -4.006,16.144 -28.36,27.856 -45.861,26.801 -1.687,-0.106 -3.163,-0.95 -4.218,-2.322 -0.949,-1.266 -1.897,-3.904 -1.265,-5.064 l 0.422,-0.95 h 1.054 c 0,0 0.844,-0.211 1.476,-0.211 5.272,-0.106 19.188,-0.317 21.824,-22.158 1.265,-10.974 -8.434,-37.881 -29.836,-57.718 -13.601,-12.662 -36.479,-26.695 -67.475,-20.681 -23.722,4.643 -37.85,17.41 -41.961,38.302 -8.856,44.423 31.523,111.425 70.743,137.171 75.487,49.593 157.512,47.799 206.537,46.533 h 0.316 c 0,0 0.632,-0.106 0.949,-0.106 -7.17,-12.45 -29.31,-53.496 -45.968,-84.307 -9.383,-17.41 -16.763,-31.022 -19.188,-35.453 -4.639,-8.336 -16.658,-30.6 -27.306,-50.226 -5.904,-10.974 -11.281,-20.787 -14.339,-26.379 -7.485,-13.823 -72.324,-131.895 -81.813,-147.406 -11.175,-18.36 -21.718,-26.59 -41.961,-32.604 -4.112,-1.161 -8.329,-1.267 -12.335,-1.267 -4.217,0 -8.118,0.633 -11.597,1.689 -2.425,0.738 -4.323,1.899 -5.904,3.376 4.322,2.005 7.801,4.959 10.121,8.863 2.846,4.749 3.268,9.497 1.687,14.351 -1.898,5.381 -5.272,9.391 -10.016,11.712 -4.639,2.321 -10.543,2.321 -17.291,0 -6.747,-2.321 -11.702,-6.331 -14.971,-11.712 -3.268,-5.487 -3.795,-11.713 -1.37,-18.466 3.479,-10.235 12.546,-16.988 26.673,-20.048 15.604,-3.376 32.578,-1.899 50.396,4.326 6.22,2.216 12.441,4.854 18.556,7.809 -9.384,-17.833 -19.716,-37.459 -28.888,-55.08 l -1.371,-2.743 h 43.964 l 0.422,1.055 c 4.85,9.813 20.243,40.94 65.894,133.372 l 2.741,5.382 c 19.188,37.88 98.893,190.667 117.343,223.905 4.428,7.491 9.172,15.511 14.127,23.952 l 4.639,7.808 c 6.537,11.185 13.074,20.892 19.399,28.912 3.796,4.853 8.224,8.019 13.285,9.39 5.377,1.372 11.175,2.111 17.29,2.111 9.172,0 13.811,-0.739 22.984,-2.111 3.163,-0.422 6.114,-1.16 9.488,-2.11 4.112,-1.161 8.118,-2.743 11.914,-4.432 0.949,-0.422 2.003,-0.949 2.952,-1.371 7.169,-3.904 13.073,-9.391 17.501,-16.355 4.428,-6.964 6.748,-15.722 6.748,-26.379 0,-13.612 -2.425,-26.485 -7.169,-38.514 -4.85,-12.028 -11.281,-22.897 -19.189,-32.604 -8.012,-9.602 -17.079,-18.254 -26.884,-25.324 -3.058,-2.216 -5.799,-4.326 -8.329,-6.331 -5.693,-4.326 -10.438,-8.23 -17.396,-11.29 -4.323,-1.688 -10.016,-2.955 -16.447,-3.799 -6.537,-0.844 -12.441,-1.266 -17.501,-1.266 -6.115,0 -12.125,0.844 -17.607,2.532 -5.904,1.794 -12.23,2.744 -18.661,2.744 -3.374,0 -6.221,-1.266 -8.329,-3.799 -2.003,-2.321 -3.058,-5.275 -3.058,-8.546 0,-4.116 0.633,-6.542 1.898,-7.914 0.211,-0.211 0.633,-0.633 0.949,-0.844 0.316,-0.211 0.633,-0.422 1.054,-0.739 0.317,-0.211 0.844,-0.316 1.16,-0.633 0.422,-0.211 1.054,-0.422 1.476,-0.633 h 0.633 c 7.59,-0.106 16.447,0.949 26.357,2.954 8.434,1.794 16.447,2.744 23.616,2.955 v -0.317 l 1.898,0.211 c 0.843,0.106 20.137,2.216 35.951,1.688 10.543,-0.316 18.872,-3.798 28.888,-9.285 9.489,-5.17 17.185,-12.24 22.562,-20.681 5.483,-8.547 8.224,-19.31 8.224,-32.077 0,-17.41 -2.952,-34.715 -8.856,-51.386 -5.904,-16.566 -14.655,-31.655 -26.463,-44.634 -11.598,-12.978 -26.463,-23.53 -43.964,-31.443 -17.502,-7.914 -38.271,-11.924 -61.677,-11.924 -15.498,0 -28.571,3.693 -38.482,10.868 -9.91,7.07 -14.654,15.722 -14.654,26.379 0,10.024 1.792,18.255 5.271,24.797 3.374,6.331 9.173,9.918 17.607,11.079 l 4.323,0.633 -3.374,2.743 c -6.537,5.171 -14.339,7.914 -22.984,7.914 -14.022,0 -25.303,-3.904 -33.737,-11.607 -8.435,-7.808 -12.652,-17.199 -12.652,-27.961 0,-13.084 6.01,-24.375 17.712,-33.66 -10.016,-18.887 -20.559,-39.041 -31.84,-60.461 l -1.37,-2.743 h 43.964 l 0.422,1.055 c 7.907,15.722 15.393,30.811 22.562,45.266 0.105,0.211 0.105,0.317 0.211,0.634 13.811,-3.799 29.731,-5.698 47.759,-5.698 21.297,0 43.543,3.798 65.788,11.29 22.351,7.386 42.805,17.832 61.044,30.916 18.239,13.084 33.527,28.595 45.44,46.216 12.125,17.727 18.24,37.142 18.24,57.612 0,13.4 -2.847,25.324 -8.329,35.242 -5.483,9.919 -13.284,18.255 -22.879,24.797 -9.594,6.436 -21.191,11.501 -34.053,15.088 -8.118,2.216 -16.975,3.904 -26.252,4.854 10.859,4.432 19.61,9.497 27.728,14.456 15.709,9.602 28.571,20.048 38.06,30.811 9.594,10.868 16.552,21.947 20.664,33.132 4.112,11.184 6.22,21.103 6.22,29.439 0,16.038 -3.479,28.911 -10.332,38.513 -5.693,7.914 -13.495,14.35 -23.511,19.415 11.071,20.892 22.773,43.156 35.214,67.003 l 1.37,2.743 h -44.385 l -0.422,-1.372 z"
             style="fill:#231815;fill-opacity:1;fill-rule:nonzero;stroke:none"
             id="path20" />
        </g>
        <g
           id="g22"
           transform="translate(250.607,350.442)">
          <path
             d="m 0,0 h 22.456 l 25.092,-71.856 h 0.211 L 72.219,0 h 22.14 V -91.799 H 79.177 v 70.801 H 78.966 L 53.769,-91.799 H 40.59 L 15.392,-20.998 H 15.181 V -91.799 H 0 Z"
             style="fill:#231815;fill-opacity:1;fill-rule:nonzero;stroke:none"
             id="path24" />
        </g>
        <g
           id="g26"
           transform="translate(407.802,291.986)">
          <path
             d="m 0,0 c -2.214,-1.477 -4.955,-2.321 -8.118,-2.638 -3.268,-0.316 -6.431,-0.738 -9.7,-1.371 -1.476,-0.211 -3.057,-0.633 -4.428,-1.056 -1.476,-0.422 -2.741,-1.055 -3.795,-1.899 -1.16,-0.844 -2.003,-1.899 -2.636,-3.165 -0.632,-1.372 -0.949,-2.955 -0.949,-4.854 0,-1.583 0.422,-2.954 1.371,-4.115 0.949,-1.161 2.109,-2.005 3.374,-2.638 1.37,-0.633 2.741,-1.055 4.322,-1.372 1.582,-0.211 2.952,-0.422 4.217,-0.422 1.582,0 3.374,0.211 5.272,0.633 1.898,0.422 3.585,1.161 5.271,2.216 1.687,1.055 3.058,2.321 4.112,3.904 1.054,1.583 1.687,3.482 1.687,5.804 z m 14.549,-18.465 c 0,-1.794 0.211,-3.06 0.738,-3.904 0.528,-0.844 1.371,-1.161 2.741,-1.161 h 1.582 c 0.633,0 1.265,0 2.003,0.211 v -10.129 c 0,0 -1.16,-0.317 -2.003,-0.528 -0.843,-0.211 -1.687,-0.422 -2.53,-0.633 -0.844,-0.106 -1.687,-0.317 -2.531,-0.422 -0.843,0 -1.581,-0.106 -2.214,-0.106 -2.952,0 -5.482,0.633 -7.38,1.794 -1.897,1.161 -3.268,3.271 -3.795,6.331 -2.847,-2.849 -6.431,-4.854 -10.649,-6.12 -4.217,-1.266 -8.223,-1.899 -12.124,-1.899 -2.952,0 -5.799,0.422 -8.54,1.266 -2.741,0.844 -5.166,2.005 -7.169,3.588 -2.109,1.582 -3.69,3.587 -4.955,6.014 -1.265,2.427 -1.793,5.276 -1.793,8.547 0,4.115 0.739,7.491 2.215,10.024 1.476,2.532 3.479,4.537 5.904,6.014 2.424,1.478 5.166,2.533 8.118,3.166 3.057,0.633 6.009,1.16 9.067,1.477 2.635,0.528 5.166,0.844 7.485,1.055 2.319,0.211 4.534,0.633 6.326,1.055 1.792,0.528 3.268,1.267 4.323,2.427 1.054,1.161 1.581,2.638 1.581,4.854 0,1.899 -0.422,3.376 -1.371,4.643 -0.949,1.266 -2.003,2.11 -3.268,2.743 -1.371,0.633 -2.741,1.055 -4.428,1.266 -1.581,0.211 -3.163,0.317 -4.639,0.317 -4.112,0 -7.485,-0.844 -10.016,-2.533 -2.635,-1.688 -4.111,-4.326 -4.428,-8.019 H -41.75 c 0.211,4.326 1.265,7.808 3.057,10.657 1.793,2.849 4.007,5.065 6.853,6.753 2.847,1.689 5.904,2.955 9.384,3.588 3.479,0.633 7.063,1.055 10.753,1.055 3.269,0 6.432,-0.316 9.595,-1.055 3.162,-0.739 6.009,-1.794 8.434,-3.377 2.53,-1.582 4.533,-3.482 6.009,-6.014 1.582,-2.427 2.32,-5.381 2.32,-8.969 v -34.187 z"
             style="fill:#231815;fill-opacity:1;fill-rule:nonzero;stroke:none"
             id="path28" />
        </g>
        <g
           id="g30"
           transform="translate(443.543,350.442)">
          <path
             d="m 0,0 h 14.549 v -52.125 l 26.252,26.801 H 58.618 L 33.421,-49.698 61.043,-91.693 H 43.331 l -20.137,32.288 -8.645,-8.442 V -91.588 H 0 V 0.211 Z"
             style="fill:#231815;fill-opacity:1;fill-rule:nonzero;stroke:none"
             id="path32" />
        </g>
        <path
           d="m 517.027,325.118 h 14.55 v -66.475 h -14.55 z m 0,25.324 h 14.55 v -13.928 h -14.55 z"
           style="fill:#231815;fill-opacity:1;fill-rule:nonzero;stroke:none"
           id="path34" />
        <g
           id="g36"
           transform="translate(552.452,325.118)">
          <path
             d="m 0,0 h 13.811 v -9.707 l 0.211,-0.211 c 2.214,3.693 5.06,6.542 8.645,8.652 3.585,2.11 7.485,3.166 11.808,3.166 7.169,0 12.863,-1.9 17.08,-5.698 4.112,-3.799 6.22,-9.391 6.22,-16.988 V -66.369 H 43.226 v 41.784 c -0.211,5.276 -1.265,8.969 -3.269,11.396 -2.003,2.321 -5.271,3.587 -9.594,3.587 -2.425,0 -4.638,-0.422 -6.642,-1.371 -2.003,-0.95 -3.584,-2.111 -4.955,-3.693 -1.37,-1.583 -2.425,-3.483 -3.163,-5.593 -0.738,-2.11 -1.159,-4.432 -1.159,-6.753 V -66.158 H -0.106 V 0.317 Z"
             style="fill:#231815;fill-opacity:1;fill-rule:nonzero;stroke:none"
             id="path38" />
        </g>
        <g
           id="g40"
           transform="translate(659.357,270.355)">
          <path
             d="m 0,0 c 3.269,0 6.01,0.634 8.224,2.005 2.214,1.372 4.112,3.06 5.482,5.276 1.371,2.216 2.425,4.643 3.058,7.492 0.632,2.849 0.949,5.592 0.949,8.441 0,2.849 -0.317,5.592 -1.055,8.23 -0.632,2.638 -1.687,4.959 -3.163,7.07 -1.37,2.005 -3.268,3.693 -5.482,4.854 -2.214,1.16 -4.955,1.793 -8.118,1.793 -3.163,0 -5.904,-0.738 -8.118,-2.11 -2.214,-1.372 -4.006,-3.165 -5.377,-5.276 -1.371,-2.216 -2.319,-4.643 -2.952,-7.491 -0.633,-2.744 -0.949,-5.593 -0.949,-8.231 0,-2.638 0.316,-5.381 1.054,-8.019 0.738,-2.638 1.687,-4.959 3.163,-6.964 1.371,-2.005 3.163,-3.693 5.377,-4.959 2.214,-1.267 4.744,-1.9 7.802,-1.9 z m 32.262,-8.124 c 0,-10.024 -2.741,-17.516 -8.329,-22.475 -5.588,-4.96 -13.601,-7.386 -24.038,-7.386 -3.268,0 -6.642,0.316 -10.016,1.055 -3.374,0.738 -6.431,1.899 -9.172,3.482 -2.741,1.583 -5.061,3.798 -6.959,6.436 -1.897,2.638 -2.952,5.909 -3.268,9.708 h 14.549 c 0.422,-2.005 1.16,-3.693 2.214,-4.96 1.055,-1.266 2.214,-2.321 3.585,-3.059 1.371,-0.739 2.952,-1.161 4.639,-1.372 1.687,-0.211 3.479,-0.317 5.377,-0.317 5.904,0 10.121,1.477 12.862,4.326 2.742,2.849 4.112,7.07 4.112,12.557 V 0 h -0.211 c -2.003,-3.693 -4.85,-6.542 -8.329,-8.652 -3.479,-2.11 -7.38,-3.06 -11.386,-3.06 -5.272,0 -9.7,0.95 -13.495,2.744 -3.69,1.793 -6.748,4.326 -9.173,7.597 -2.424,3.165 -4.217,6.964 -5.271,11.079 -1.054,4.221 -1.687,8.652 -1.687,13.506 0,4.432 0.633,8.652 2.003,12.767 1.371,4.01 3.269,7.598 5.904,10.657 2.531,3.06 5.693,5.487 9.384,7.281 3.69,1.794 7.907,2.744 12.546,2.744 4.217,0 8.012,-0.845 11.492,-2.638 3.479,-1.794 6.114,-4.538 8.012,-8.336 h 0.211 v 9.18 H 32.367 V -8.124 Z"
             style="fill:#231815;fill-opacity:1;fill-rule:nonzero;stroke:none"
             id="path42" />
        </g>
        <g
           id="g44"
           transform="translate(815.393,321.32)">
          <path
             d="m 0,0 c -0.633,2.638 -1.581,5.064 -2.846,7.386 -1.16,2.216 -2.742,4.115 -4.639,5.803 -1.898,1.583 -4.007,2.849 -6.537,3.799 -2.53,0.949 -5.377,1.371 -8.751,1.371 -4.849,0 -9.067,-0.949 -12.546,-2.954 -3.479,-2.005 -6.431,-4.643 -8.645,-7.914 -2.214,-3.271 -3.901,-7.069 -4.955,-11.184 -1.054,-4.221 -1.582,-8.442 -1.582,-12.873 0,-4.432 0.528,-8.653 1.582,-12.873 1.054,-4.221 2.741,-7.914 4.955,-11.185 2.214,-3.271 5.061,-5.909 8.645,-7.914 3.585,-2.005 7.697,-2.954 12.546,-2.954 3.585,0 6.748,0.633 9.384,1.899 2.741,1.266 5.06,2.955 7.063,5.17 1.898,2.216 3.479,4.749 4.639,7.598 1.054,2.954 1.793,6.014 2.214,9.39 h 15.499 c -0.317,-5.486 -1.477,-10.446 -3.48,-14.983 -2.003,-4.537 -4.639,-8.441 -8.118,-11.712 -3.374,-3.271 -7.38,-5.803 -12.019,-7.597 -4.639,-1.794 -9.594,-2.744 -15.182,-2.744 -6.747,0 -12.862,1.267 -18.239,3.799 -5.377,2.532 -9.91,6.014 -13.706,10.34 -3.69,4.327 -6.642,9.497 -8.645,15.3 -2.003,5.804 -2.952,12.029 -2.952,18.677 0,6.647 1.054,12.662 2.952,18.465 1.898,5.803 4.85,10.974 8.645,15.3 3.69,4.326 8.329,7.808 13.706,10.446 5.377,2.532 11.492,3.799 18.239,3.799 5.061,0 9.911,-0.739 14.444,-2.111 4.534,-1.372 8.434,-3.482 11.914,-6.12 3.479,-2.638 6.22,-6.014 8.329,-9.813 2.108,-3.904 3.479,-8.23 3.9,-13.295 H -0.105 Z"
             style="fill:#231815;fill-opacity:1;fill-rule:nonzero;stroke:none"
             id="path46" />
        </g>
        <g
           id="g48"
           transform="translate(849.025,325.118)">
          <path
             d="m 0,0 h 13.6 v -12.873 h 0.211 c 0.422,1.794 1.266,3.588 2.531,5.276 1.265,1.688 2.741,3.271 4.428,4.643 1.792,1.372 3.69,2.532 5.798,3.376 2.109,0.844 4.323,1.267 6.537,1.267 1.687,0 2.846,0 3.479,-0.106 0.633,-0.105 1.265,-0.211 2.003,-0.211 v -14.139 c -1.054,0.211 -2.108,0.316 -3.163,0.422 -1.054,0.105 -2.108,0.211 -3.163,0.211 -2.425,0 -4.744,-0.528 -6.958,-1.477 -2.214,-0.95 -4.006,-2.427 -5.693,-4.326 -1.687,-1.9 -2.847,-4.327 -3.796,-7.176 -0.949,-2.848 -1.37,-6.119 -1.37,-9.707 V -66.475 H -0.105 V 0 Z"
             style="fill:#231815;fill-opacity:1;fill-rule:nonzero;stroke:none"
             id="path50" />
        </g>
        <g
           id="g52"
           transform="translate(891.724,325.118)">
          <path
             d="m 0,0 h 15.92 l 17.185,-49.592 h 0.211 L 49.974,0 h 15.182 l -25.62,-70.062 c -1.159,-2.955 -2.319,-5.804 -3.479,-8.653 -1.16,-2.743 -2.53,-5.17 -4.217,-7.28 -1.687,-2.111 -3.69,-3.799 -6.22,-5.065 -2.425,-1.266 -5.588,-1.899 -9.384,-1.899 -3.373,0 -6.747,0.211 -10.015,0.738 v 12.346 c 1.159,-0.211 2.319,-0.423 3.479,-0.634 1.054,-0.211 2.214,-0.316 3.479,-0.316 1.687,0 3.057,0.211 4.217,0.633 1.054,0.422 2.003,1.055 2.741,1.899 0.738,0.844 1.371,1.794 1.793,2.849 0.527,1.161 0.949,2.427 1.37,3.904 l 1.687,5.171 L 0,-0.211 Z"
             style="fill:#231815;fill-opacity:1;fill-rule:nonzero;stroke:none"
             id="path54" />
        </g>
        <g
           id="g56"
           transform="translate(1021.3,291.881)">
          <path
             d="m 0,0 c 0,2.954 -0.42,5.909 -1.16,8.758 -0.74,2.848 -1.9,5.275 -3.48,7.491 -1.48,2.216 -3.48,3.904 -5.69,5.276 -2.32,1.372 -4.96,2.005 -7.91,2.005 -6.117,0 -10.756,-2.111 -13.813,-6.437 C -35.111,12.767 -36.692,7.069 -36.692,0 c 0,-3.377 0.421,-6.437 1.159,-9.286 0.844,-2.849 2.003,-5.381 3.585,-7.386 1.581,-2.005 3.585,-3.693 5.799,-4.854 2.214,-1.16 4.849,-1.793 7.799,-1.793 3.27,0 6.12,0.738 8.44,2.11 2.32,1.372 4.21,3.165 5.69,5.276 1.48,2.216 2.53,4.642 3.16,7.491 0.64,2.849 0.95,5.593 0.95,8.547 z m -50.715,33.237 h 13.812 v -8.969 h 0.211 c 2.003,3.904 4.85,6.648 8.54,8.336 3.69,1.688 7.592,2.533 11.812,2.533 5.16,0 9.7,-0.95 13.6,-2.744 3.9,-1.899 7.06,-4.326 9.59,-7.597 2.53,-3.166 4.43,-6.964 5.69,-11.29 1.27,-4.326 1.9,-8.864 1.9,-13.717 0,-4.432 -0.53,-8.758 -1.69,-12.979 -1.16,-4.22 -2.84,-7.914 -5.27,-11.079 -2.42,-3.166 -5.27,-5.803 -8.85,-7.703 -3.59,-1.899 -7.81,-2.849 -12.65,-2.849 -2.11,0 -4.22,0.211 -6.33,0.528 -2.109,0.422 -4.218,1.055 -6.116,1.899 -2.003,0.844 -3.795,1.9 -5.377,3.271 -1.581,1.372 -3.057,2.849 -4.111,4.643 h -0.211 v -33.132 h -14.55 v 90.955 z"
             style="fill:#231815;fill-opacity:1;fill-rule:nonzero;stroke:none"
             id="path58" />
        </g>
        <g
           id="g60"
           transform="translate(1046.49,325.118)">
          <path
             d="M 0,0 H 10.97 V 19.943 H 25.52 V 0 H 38.7 V -10.973 H 25.52 v -35.454 c 0,-1.583 0,-2.849 0.21,-4.01 0.1,-1.055 0.42,-2.004 0.84,-2.848 0.42,-0.739 1.16,-1.372 2.11,-1.689 0.95,-0.422 2.22,-0.527 3.8,-0.527 h 3.05 c 1.06,0 2.01,0.211 3.06,0.422 v -11.29 c -1.58,-0.211 -3.16,-0.317 -4.74,-0.528 -1.58,-0.211 -3.06,-0.211 -4.75,-0.211 -3.79,0 -6.85,0.422 -9.27,1.055 -2.32,0.739 -4.22,1.794 -5.49,3.166 -1.26,1.371 -2.21,3.165 -2.63,5.381 -0.42,2.11 -0.74,4.537 -0.85,7.281 v 39.146 H -0.1 v 10.974 z"
             style="fill:#231815;fill-opacity:1;fill-rule:nonzero;stroke:none"
             id="path62" />
        </g>
        <g
           id="g64"
           transform="translate(1130.84,268.456)">
          <path
             d="m 0,0 c 3.27,0 6.01,0.739 8.43,2.11 2.43,1.372 4.33,3.166 5.91,5.382 1.58,2.216 2.63,4.748 3.37,7.491 0.74,2.744 1.06,5.593 1.06,8.547 0,2.955 -0.32,5.698 -1.06,8.441 -0.74,2.849 -1.79,5.382 -3.37,7.492 -1.48,2.216 -3.48,4.01 -5.91,5.276 -2.42,1.372 -5.16,2.11 -8.43,2.11 -3.27,0 -6.01,-0.738 -8.44,-2.11 -2.42,-1.372 -4.32,-3.166 -5.9,-5.276 -1.58,-2.11 -2.64,-4.643 -3.37,-7.492 -0.74,-2.848 -1.06,-5.697 -1.06,-8.441 0,-2.743 0.32,-5.803 1.06,-8.547 0.73,-2.743 1.89,-5.275 3.37,-7.491 1.48,-2.216 3.48,-4.01 5.9,-5.382 C -6.01,0.739 -3.27,0 0,0 m 0,-11.501 c -5.27,0 -10.02,0.844 -14.13,2.638 -4.11,1.793 -7.59,4.22 -10.44,7.28 -2.84,3.06 -5.06,6.753 -6.53,11.08 -1.48,4.326 -2.22,8.968 -2.22,14.139 0,5.17 0.74,9.707 2.22,14.033 1.47,4.327 3.69,7.914 6.53,11.08 2.85,3.165 6.33,5.486 10.44,7.28 4.11,1.794 8.86,2.638 14.13,2.638 5.27,0 9.91,-0.844 14.13,-2.638 4.11,-1.794 7.59,-4.22 10.43,-7.28 2.85,-3.06 5.06,-6.753 6.54,-11.08 1.48,-4.326 2.21,-8.969 2.21,-14.033 0,-5.065 -0.73,-9.813 -2.21,-14.139 C 29.62,5.17 27.41,1.583 24.56,-1.583 21.72,-4.748 18.24,-7.07 14.13,-8.863 10.01,-10.657 5.27,-11.501 0,-11.501"
             style="fill:#231815;fill-opacity:1;fill-rule:nonzero;stroke:none"
             id="path66" />
        </g>
        <g
           id="g68"
           transform="translate(1223.9301,350.442)">
          <path
             d="M 0,0 H 65.48 V -13.928 H 15.92 V -37.986 H 61.79 V -51.07 H 15.92 v -26.801 h 50.5 V -91.799 H 0 Z"
             style="fill:#231815;fill-opacity:1;fill-rule:nonzero;stroke:none"
             id="path70" />
        </g>
        <g
           id="g72"
           transform="translate(1347.92,291.986)">
          <path
             d="m 0,0 c -2.22,-1.477 -4.96,-2.321 -8.12,-2.638 -3.27,-0.316 -6.43,-0.738 -9.7,-1.371 -1.48,-0.211 -3.06,-0.633 -4.43,-1.056 -1.47,-0.422 -2.74,-1.055 -3.79,-1.899 -1.16,-0.844 -2.01,-1.899 -2.64,-3.165 -0.63,-1.372 -0.95,-2.955 -0.95,-4.854 0,-1.583 0.42,-2.954 1.37,-4.115 0.95,-1.161 2.11,-2.005 3.38,-2.638 1.37,-0.633 2.74,-1.055 4.32,-1.372 1.58,-0.211 2.95,-0.422 4.22,-0.422 1.58,0 3.37,0.211 5.27,0.633 1.9,0.422 3.58,1.161 5.27,2.216 1.69,1.055 3.06,2.321 4.11,3.904 1.06,1.583 1.69,3.482 1.69,5.804 z m 14.55,-18.465 c 0,-1.794 0.21,-3.06 0.74,-3.904 0.52,-0.844 1.37,-1.161 2.74,-1.161 h 1.58 c 0.63,0 1.26,0 2,0.211 v -10.129 c 0,0 -1.16,-0.317 -2,-0.528 -0.85,-0.211 -1.69,-0.422 -2.53,-0.633 -0.85,-0.106 -1.69,-0.317 -2.53,-0.422 -0.85,0 -1.58,-0.106 -2.22,-0.106 -2.95,0 -5.48,0.633 -7.38,1.794 -1.89,1.161 -3.26,3.271 -3.79,6.331 -2.85,-2.849 -6.43,-4.854 -10.65,-6.12 -4.22,-1.266 -8.22,-1.899 -12.12,-1.899 -2.96,0 -5.8,0.422 -8.54,1.266 -2.75,0.844 -5.17,2.005 -7.17,3.588 -2.11,1.582 -3.69,3.587 -4.96,6.014 -1.26,2.427 -1.79,5.276 -1.79,8.547 0,4.115 0.74,7.491 2.21,10.024 1.48,2.532 3.48,4.537 5.91,6.014 2.42,1.478 5.16,2.533 8.11,3.166 3.06,0.633 6.01,1.16 9.07,1.477 2.64,0.528 5.17,0.844 7.49,1.055 2.32,0.211 4.53,0.633 6.32,1.055 1.8,0.528 3.27,1.267 4.33,2.427 1.05,1.161 1.58,2.638 1.58,4.854 0,1.899 -0.42,3.376 -1.37,4.643 -0.95,1.266 -2.01,2.11 -3.27,2.743 -1.37,0.633 -2.74,1.055 -4.43,1.266 -1.58,0.211 -3.16,0.317 -4.64,0.317 -4.11,0 -7.48,-0.844 -10.01,-2.533 -2.64,-1.688 -4.12,-4.326 -4.43,-8.019 h -14.55 c 0.21,4.326 1.26,7.808 3.06,10.657 1.79,2.849 4,5.065 6.85,6.753 2.85,1.689 5.9,2.955 9.38,3.588 3.48,0.633 7.07,1.055 10.76,1.055 3.26,0 6.43,-0.316 9.59,-1.055 3.16,-0.739 6.01,-1.794 8.43,-3.377 2.53,-1.582 4.54,-3.482 6.01,-6.014 1.59,-2.427 2.32,-5.381 2.32,-8.969 v -34.187 z"
             style="fill:#231815;fill-opacity:1;fill-rule:nonzero;stroke:none"
             id="path74" />
        </g>
        <g
           id="g76"
           transform="translate(1394.2,280.063)">
          <path
             d="m 0,0 c 0.42,-4.326 2.01,-7.281 4.85,-8.969 2.85,-1.688 6.12,-2.532 10.02,-2.532 1.37,0 2.95,0.105 4.64,0.316 1.68,0.211 3.37,0.633 4.95,1.266 1.58,0.633 2.74,1.478 3.8,2.638 0.95,1.161 1.37,2.638 1.37,4.537 0,1.9 -0.74,3.482 -2.01,4.643 -1.26,1.161 -2.95,2.111 -4.95,2.849 -2,0.739 -4.32,1.372 -6.85,1.899 -2.53,0.528 -5.17,1.056 -7.81,1.689 -2.74,0.633 -5.37,1.371 -7.8,2.215 -2.53,0.845 -4.74,2.005 -6.74,3.483 -2.01,1.477 -3.59,3.376 -4.75,5.592 -1.16,2.216 -1.79,5.065 -1.79,8.441 0,3.588 0.84,6.648 2.63,9.075 1.69,2.426 3.91,4.431 6.65,5.908 2.63,1.478 5.69,2.533 8.96,3.166 3.27,0.633 6.43,0.844 9.38,0.844 3.37,0 6.64,-0.316 9.7,-1.055 3.06,-0.739 5.9,-1.899 8.43,-3.482 2.54,-1.583 4.64,-3.693 6.23,-6.331 1.58,-2.638 2.74,-5.803 3.16,-9.391 H 26.89 c -0.64,3.482 -2.32,5.909 -4.75,7.07 -2.53,1.16 -5.37,1.793 -8.64,1.793 -1.06,0 -2.22,0 -3.59,-0.211 C 8.54,35.242 7.17,34.926 6.01,34.504 4.75,34.082 3.69,33.343 2.85,32.393 2.01,31.549 1.58,30.283 1.58,28.911 c 0,-1.794 0.64,-3.271 1.9,-4.326 1.27,-1.161 2.85,-2.005 4.85,-2.743 2,-0.739 4.22,-1.372 6.85,-1.9 2.53,-0.527 5.17,-1.055 7.91,-1.688 2.64,-0.633 5.27,-1.372 7.8,-2.216 2.53,-0.844 4.85,-2.004 6.86,-3.482 2,-1.477 3.58,-3.271 4.85,-5.487 1.26,-2.215 1.89,-4.959 1.89,-8.23 0,-3.904 -0.95,-7.28 -2.63,-10.024 -1.8,-2.743 -4.11,-4.959 -6.96,-6.647 -2.85,-1.689 -6.01,-2.955 -9.49,-3.693 -3.48,-0.739 -6.96,-1.161 -10.33,-1.161 -4.22,0 -8.01,0.422 -11.49,1.372 -3.48,0.949 -6.54,2.426 -9.18,4.326 -2.63,1.899 -4.63,4.326 -6.11,7.175 -1.48,2.849 -2.32,6.331 -2.32,10.235 H 0.53 Z"
             style="fill:#231815;fill-opacity:1;fill-rule:nonzero;stroke:none"
             id="path78" />
        </g>
        <g
           id="g80"
           transform="translate(1447.13,325.118)">
          <path
             d="M 0,0 H 15.92 L 33.1,-49.592 h 0.21 L 49.97,0 H 65.15 L 39.53,-70.062 c -1.16,-2.955 -2.32,-5.804 -3.48,-8.653 -1.16,-2.743 -2.53,-5.17 -4.21,-7.28 -1.69,-2.111 -3.69,-3.799 -6.22,-5.065 -2.43,-1.266 -5.59,-1.899 -9.39,-1.899 -3.37,0 -6.74,0.211 -10.01,0.738 v 12.346 c 1.16,-0.211 2.32,-0.423 3.48,-0.634 1.05,-0.211 2.21,-0.316 3.48,-0.316 1.68,0 3.05,0.211 4.21,0.633 1.06,0.422 2.01,1.055 2.74,1.899 0.74,0.844 1.37,1.794 1.8,2.849 0.52,1.161 0.95,2.427 1.37,3.904 l 1.68,5.171 L 0,-0.211 Z"
             style="fill:#231815;fill-opacity:1;fill-rule:nonzero;stroke:none"
             id="path82" />
        </g>
        <g
           id="g84"
           transform="translate(1543.17,274.048)">
          <path
             d="m 0,0 c 2.01,-1.793 2.96,-4.22 2.96,-7.28 0,-3.06 -0.95,-5.487 -2.96,-7.281 -1.89,-1.794 -4.53,-2.638 -7.9,-2.638 -3.38,0 -5.91,0.844 -7.91,2.638 -1.9,1.794 -2.95,4.221 -2.95,7.281 0,3.06 0.95,5.487 2.95,7.28 2,1.794 4.64,2.638 7.91,2.638 C -4.64,2.638 -2,1.794 0,0"
             style="fill:#231815;fill-opacity:1;fill-rule:nonzero;stroke:none"
             id="path86" />
        </g>
      </g>
    </g>
  </g>
</svg>
