<svg width="228" height="311" viewBox="0 0 228 311" fill="none" xmlns="http://www.w3.org/2000/svg">
<path fill-rule="evenodd" clip-rule="evenodd" d="M110.16 255.043H109.87C106.02 255.003 102.42 254.263 99.4604 252.883C99.3604 252.853 99.2603 252.813 99.1704 252.763L86.2603 245.183L7.44043 199.133C3.74023 196.953 1.81006 193.843 2.12012 190.583V182.843C2.1001 182.783 2.09033 182.674 2.09033 182.553V77.0934C2.09033 75.0734 2.14014 73.0832 2.76025 71.0334C3.02393 70.155 3.33496 69.2839 3.69092 68.4255C4.15771 67.3 4.70215 66.1955 5.32031 65.1232C6.46045 63.1432 7.74023 61.3932 9.13037 59.9235C10.5601 58.3732 12.1504 57.0632 13.8701 56.0431L14.2402 55.8532L106.52 2.27313C106.562 2.24725 106.637 2.21551 106.711 2.18719C106.779 2.16131 106.847 2.13787 106.89 2.12323C109.79 0.743343 113.63 -0.0564616 117.52 0.00310871C121.37 0.0431478 124.97 0.783382 127.94 2.16326C128.04 2.19354 128.14 2.23309 128.23 2.29315L141.14 9.87323L219.96 55.9235C223.66 58.1032 225.6 61.2233 225.28 64.4733V72.1633C225.3 72.2634 225.31 72.4636 225.31 72.5134V177.953C225.31 179.893 225.26 181.953 224.64 184.013C224.03 186.053 223.17 188.043 222.08 189.933C220.94 191.903 219.66 193.653 218.27 195.133C216.84 196.683 215.24 197.993 213.53 199.013L213.16 199.203L120.87 252.783C120.829 252.809 120.757 252.84 120.684 252.868L120.585 252.904L120.5 252.933C117.67 254.283 113.95 255.053 110.15 255.053L110.16 255.043ZM100.46 250.153L100.55 250.194C103.17 251.433 106.41 252.103 109.9 252.143C113.45 252.214 116.77 251.503 119.44 250.234L132.36 242.853L212.14 196.453C213.52 195.623 214.9 194.493 216.15 193.133C217.4 191.813 218.54 190.243 219.57 188.473C220.55 186.783 221.32 185.003 221.86 183.174C222.36 181.493 222.4 179.743 222.4 177.953V72.4933C222.4 72.4933 222.392 72.4533 222.383 72.3991C222.376 72.3522 222.37 72.2946 222.37 72.2433V64.3132C222.58 62.0934 221.16 59.9933 218.48 58.4133L126.93 4.88348L126.84 4.84344C124.22 3.60321 120.98 2.93328 117.48 2.89325C114.05 2.8034 110.62 3.53338 107.94 4.8034L95.02 12.1833L15.2305 58.5832C13.8501 59.4133 12.4702 60.5431 11.2202 61.9035C10.772 62.3806 10.3354 62.8889 9.91309 63.4279C9.16602 64.3806 8.46143 65.4304 7.81006 66.5734C6.83008 68.2731 6.06006 70.0534 5.52002 71.8635C5.29932 72.6008 5.16846 73.3556 5.09082 74.1227C5.04492 74.5754 5.01758 75.0324 5.00195 75.4929C4.98389 76.0192 4.98047 76.55 4.98047 77.0832V182.523C4.98047 182.523 5.01025 182.803 5.01025 182.813V190.703C4.80029 192.924 6.22021 195.023 8.90039 196.603L100.46 250.133V250.153ZM203.64 82.2033C203.592 82.1013 203.541 82.0012 203.489 81.9025C202.991 80.9636 202.328 80.1711 201.64 79.6735C201.58 79.6135 201.48 79.5436 201.37 79.4733C201.25 79.3932 201.13 79.3034 200.99 79.2233C200.85 79.134 200.709 79.0607 200.573 78.9987L200.447 78.9431L200.35 78.9035L200.3 78.8835L182.75 69.0134H182.72C182.64 68.9435 182.54 68.8835 182.4 68.8034C181.889 68.4992 181.342 68.2765 180.77 68.1354C180.043 67.9567 179.274 67.9094 178.48 67.9933C177.06 68.1037 175.6 68.6037 174.14 69.4733L109.65 106.964L91.3003 117.163C91.3003 117.163 91.23 117.203 91.1899 117.223L27.5303 154.573C24.7803 156.133 23.1499 158.343 22.9199 160.794C22.8901 160.933 22.8701 161.073 22.8701 161.183V182.174C22.6001 185.033 24.27 187.754 27.46 189.633L101.67 233.024C101.74 233.064 101.83 233.104 101.93 233.133C104.4 234.274 107.4 234.903 110.82 234.933C113.98 234.933 117.07 234.294 119.64 233.073L194.41 189.683C194.41 189.683 194.71 189.524 194.74 189.513C196.17 188.663 197.5 187.573 198.69 186.274C199.85 185.053 200.91 183.604 201.85 181.964C202.76 180.383 203.47 178.734 203.97 177.064C204.205 176.284 204.341 175.519 204.421 174.759C204.518 173.833 204.53 172.916 204.53 171.993V86.6735C204.53 84.9636 204.23 83.4636 203.64 82.1935V82.2033ZM167.33 120.294L182.69 111.383V169.903L167.42 160.953L167.34 120.303L167.33 120.294ZM165.97 163.464L178.29 170.683L180.78 172.143L130.84 201.283V183.823L165.97 163.464ZM164.53 160.944L130.84 180.473V141.214L164.45 121.703L164.53 160.944ZM108.88 130.593V231.343C106.81 231.153 104.9 230.674 103.32 229.924L103.24 229.883L93.8101 224.343V121.754L108.88 130.593ZM90.3501 164.734V179.553L77.6401 172.113L90.3501 164.723V164.734ZM90.3501 143.393V160.703L74.1899 170.104L59.3604 161.433L90.3403 143.403L90.3501 143.393ZM55.0503 161.374V161.424V161.453L54.9902 161.413L55.0503 161.374ZM27.2681 168.15L27.4702 168.274L90.3501 205.073V222.323L29.2202 186.604C27.25 185.444 26.21 183.933 26.3501 182.323V167.524C26.542 167.666 26.7397 167.805 26.9448 167.941C27.0503 168.011 27.1582 168.081 27.2681 168.15ZM180.87 71.9435C180.98 72.0334 181.15 72.1335 181.32 72.2033L193.88 79.2634C193.49 79.4435 193.1 79.6432 192.72 79.8737L110.63 127.564L95.6104 118.743L111.38 109.984L175.91 72.4733C176.93 71.8737 177.89 71.5334 178.83 71.4533C179.51 71.3737 180.15 71.4933 180.88 71.9333L180.87 71.9435ZM0 277.214H26.46V277.204C30.0498 277.204 32.96 280.124 32.96 283.704V303.714C32.96 307.274 30.0698 310.164 26.5098 310.164H0V277.214ZM6.34326 303.86C6.37158 303.882 6.4082 303.894 6.4502 303.894H26.46C26.5186 303.894 26.5664 303.87 26.5962 303.83C26.6177 303.802 26.6299 303.765 26.6299 303.724V283.664C26.6299 283.564 26.5601 283.494 26.46 283.494H6.4502C6.3501 283.494 6.27979 283.564 6.27979 283.664V303.724C6.27979 303.782 6.30371 303.83 6.34326 303.86ZM44.0698 277.174H43.9297C40.5498 277.174 37.7998 279.924 37.7998 283.303V303.723C37.7998 307.283 40.6899 310.174 44.25 310.174H64.6196C68 310.174 70.75 307.424 70.75 304.044V303.903H44.0698V277.183V277.174ZM80.98 277.214H101.26V277.234C104.64 277.234 107.39 279.984 107.39 283.363V283.504H80.98C80.8896 283.504 80.8096 283.573 80.8096 283.674V303.734C80.8096 303.756 80.814 303.777 80.8218 303.797C80.835 303.83 80.8589 303.859 80.8896 303.879C80.8975 303.883 80.9058 303.887 80.9146 303.891C80.9341 303.899 80.9561 303.903 80.98 303.903H107.39V304.044C107.39 307.424 104.64 310.174 101.26 310.174H80.98C77.4199 310.174 74.5298 307.283 74.5298 303.724V283.664C74.5298 280.104 77.4199 277.214 80.98 277.214ZM114.86 303.944C113.14 303.944 111.74 305.343 111.74 307.053C111.74 308.763 113.14 310.174 114.86 310.174C116.58 310.174 117.98 308.774 117.98 307.053C117.98 305.334 116.58 303.944 114.86 303.944ZM127.72 277.174H127.86V277.183V303.903H154.54V304.044C154.54 307.424 151.79 310.174 148.41 310.174H128.04C124.48 310.174 121.59 307.283 121.59 303.723V283.303C121.59 279.924 124.34 277.174 127.72 277.174ZM158.14 286.734V310.174H164.37V283.573H161.3C159.55 283.573 158.14 284.993 158.14 286.734ZM158.14 277.394C158.14 275.633 159.54 274.234 161.26 274.234C162.98 274.234 164.38 275.593 164.38 277.354C164.38 279.113 162.98 280.513 161.26 280.513C159.54 280.513 158.14 279.153 158.14 277.394ZM189.72 283.573H169.12V310.174H175.35V289.973C175.35 289.873 175.42 289.803 175.52 289.803H189.72C189.82 289.803 189.89 289.873 189.89 289.973V310.174H196.12V289.973C196.12 286.444 193.25 283.573 189.72 283.573ZM222.5 283.573H227.4C227.4 284.694 226.98 285.774 226.23 286.604L216.92 296.874L226.23 307.144C226.98 307.973 227.4 309.053 227.4 310.174H222.66C221.47 310.174 220.34 309.674 219.53 308.803L211.4 300.004H206.93V310.164H200.7V274.944H200.84C204.2 274.944 206.93 277.674 206.93 281.033V293.734H211.4L219.64 284.823C220.38 284.024 221.41 283.573 222.5 283.573Z" fill="url(#paint0_linear_4215_28999)"/>
<defs>
<linearGradient id="paint0_linear_4215_28999" x1="-18.7169" y1="-109.23" x2="398.47" y2="338.364" gradientUnits="userSpaceOnUse">
<stop stop-color="#93009E"/>
<stop offset="1" stop-color="#001FBA"/>
</linearGradient>
</defs>
</svg>
