<?xml version="1.0" encoding="UTF-8" standalone="no"?>
<!-- Created with Inkscape (http://www.inkscape.org/) -->

<svg
   version="1.1"
   id="svg2"
   width="669.3573"
   height="564.01868"
   viewBox="0 0 669.3573 564.01868"
   sodipodi:docname="WhatsMiner logo.ai"
   xmlns:inkscape="http://www.inkscape.org/namespaces/inkscape"
   xmlns:sodipodi="http://sodipodi.sourceforge.net/DTD/sodipodi-0.dtd"
   xmlns="http://www.w3.org/2000/svg"
   xmlns:svg="http://www.w3.org/2000/svg">
  <defs
     id="defs6">
    <linearGradient
       x1="0"
       y1="0"
       x2="1"
       y2="0"
       gradientUnits="userSpaceOnUse"
       gradientTransform="matrix(-221.66377,119.86968,119.86968,221.66377,398.12424,249.5209)"
       spreadMethod="pad"
       id="linearGradient30">
      <stop
         style="stop-opacity:1;stop-color:#3742fe"
         offset="0"
         id="stop22" />
      <stop
         style="stop-opacity:1;stop-color:#3742fe"
         offset="0.0003756"
         id="stop24" />
      <stop
         style="stop-opacity:1;stop-color:#c07cf0"
         offset="0.72612951"
         id="stop26" />
      <stop
         style="stop-opacity:1;stop-color:#c07cf0"
         offset="1"
         id="stop28" />
    </linearGradient>
    <linearGradient
       x1="0"
       y1="0"
       x2="1"
       y2="0"
       gradientUnits="userSpaceOnUse"
       gradientTransform="matrix(-212.40622,114.86346,114.86346,212.40622,367.55365,203.26628)"
       spreadMethod="pad"
       id="linearGradient54">
      <stop
         style="stop-opacity:1;stop-color:#3742fe"
         offset="0"
         id="stop46" />
      <stop
         style="stop-opacity:1;stop-color:#3742fe"
         offset="0.0003756"
         id="stop48" />
      <stop
         style="stop-opacity:1;stop-color:#c07cf0"
         offset="0.72612951"
         id="stop50" />
      <stop
         style="stop-opacity:1;stop-color:#c07cf0"
         offset="1"
         id="stop52" />
    </linearGradient>
    <clipPath
       clipPathUnits="userSpaceOnUse"
       id="clipPath64">
      <path
         d="M 0,423.014 H 502.018 V 0 H 0 Z"
         id="path62" />
    </clipPath>
  </defs>
  <sodipodi:namedview
     id="namedview4"
     pagecolor="#ffffff"
     bordercolor="#000000"
     borderopacity="0.25"
     inkscape:showpageshadow="2"
     inkscape:pageopacity="0.0"
     inkscape:pagecheckerboard="0"
     inkscape:deskcolor="#d1d1d1" />
  <g
     id="g8"
     inkscape:groupmode="layer"
     inkscape:label="WhatsMiner logo"
     transform="matrix(1.3333333,0,0,-1.3333333,0,564.01867)">
    <g
       id="g10">
      <g
         id="g12">
        <g
           id="g18">
          <g
             id="g20">
            <path
               d="m 338.669,284.836 -4.144,-5.014 c -0.261,-0.317 -0.147,-0.795 0.229,-0.959 v 0 l 8.753,-3.813 c 0.378,-0.165 0.82,-0.06 1.082,0.259 v 0 l 4.144,5.014 c 0.261,0.316 0.147,0.794 -0.23,0.958 v 0 l -8.751,3.813 c -0.12,0.052 -0.245,0.077 -0.37,0.077 v 0 c -0.269,0 -0.533,-0.118 -0.713,-0.335"
               style="fill:url(#linearGradient30);stroke:none"
               id="path32" />
          </g>
        </g>
      </g>
    </g>
    <g
       id="g34">
      <g
         id="g36">
        <g
           id="g42">
          <g
             id="g44">
            <path
               d="m 270.409,337.577 -1.638,-7.702 c -1.748,-8.223 -0.405,-16.531 3.315,-23.593 v 0 l -7.744,3.375 c -6.483,2.825 -12.644,6.337 -18.377,10.477 v 0 l -4.028,2.908 c -0.361,0.261 -0.871,0.064 -0.964,-0.371 v 0 l -1.637,-7.7 c -1.752,-8.223 -0.409,-16.532 3.312,-23.593 v 0 l -7.583,3.304 c -6.439,2.806 -12.565,6.279 -18.278,10.364 v 0 l -4.293,3.068 c -0.361,0.258 -0.87,0.062 -0.962,-0.373 v 0 l -1.633,-7.677 c -1.752,-8.223 -0.41,-16.532 3.313,-23.593 v 0 l -82.132,35.788 c -6.484,2.825 -12.645,6.337 -18.379,10.478 v 0 l -4.027,2.907 c -0.361,0.261 -0.871,0.065 -0.964,-0.371 v 0 l -1.637,-7.7 c -3.46,-16.277 5.011,-32.741 20.266,-39.388 v 0 l 12.416,-5.41 c -2.072,-15.36 6.265,-30.463 20.707,-36.756 v 0 l 12.037,-5.246 c -2.07,-15.358 6.266,-30.462 20.71,-36.755 v 0 l 63.174,-27.527 c 0.38,-0.166 0.824,-0.059 1.086,0.262 v 0 l 65.77,80.408 c 0.136,0.166 0.35,0.251 0.564,0.22 v 0 l 41.192,-5.848 c 0.276,-0.04 0.491,-0.258 0.525,-0.534 v 0 l 0.912,-7.247 c 0.052,-0.415 0.375,-0.742 0.788,-0.801 v 0 l 21.929,-3.116 c 0.321,-0.045 0.642,0.079 0.846,0.329 v 0 l 16.099,19.68 c 0.309,0.378 0.272,0.93 -0.084,1.262 v 0 l -49.882,46.533 c -0.256,0.239 -0.551,0.432 -0.872,0.572 v 0 l -9.827,4.283 c 1.659,3.903 1.806,8.336 0.279,12.56 v 0 c -1.637,4.527 -5.307,8.033 -9.722,9.957 v 0 l -2.783,1.212 c -0.378,0.165 -0.82,0.059 -1.082,-0.258 v 0 l -10.74,-12.994 -26.602,11.592 c -6.484,2.825 -12.644,6.337 -18.378,10.478 v 0 l -4.027,2.908 c -0.111,0.08 -0.236,0.117 -0.359,0.117 v 0 c -0.276,0 -0.541,-0.187 -0.606,-0.489 m 35.732,-53.933 4.348,5.261 c 0.196,0.237 0.11,0.595 -0.171,0.719 v 0 l -18.209,7.934 c -10.95,4.772 -17.457,16.176 -16.249,27.855 v 0 c 4.737,-3.028 9.715,-5.684 14.863,-7.926 v 0 l 31.475,-13.715 c 0.252,-0.109 0.547,-0.039 0.722,0.173 v 0 l 10.812,13.081 c 2.264,-1.439 3.805,-3.775 4.223,-6.535 v 0 c 0.419,-2.759 -0.583,-5.553 -2.361,-7.705 v 0 l -2.687,-3.251 c -0.13,-0.158 -0.074,-0.398 0.115,-0.479 v 0 l 17.135,-7.467 c 0.192,-0.084 0.37,-0.2 0.523,-0.343 v 0 l 44.11,-41.145 c 0.178,-0.166 0.197,-0.442 0.043,-0.63 v 0 l -9.161,-11.199 c -0.137,-0.167 -0.351,-0.251 -0.565,-0.219 v 0 l -12.091,1.72 c -0.344,0.048 -0.613,0.322 -0.656,0.666 v 0 l -0.898,7.132 c -0.052,0.413 -0.374,0.741 -0.787,0.799 v 0 l -50.914,7.229 c -0.32,0.045 -0.642,-0.08 -0.846,-0.331 v 0 L 254.05,175.97 c -0.174,-0.213 -0.471,-0.286 -0.723,-0.175 v 0 l -58.039,25.289 c -10.568,4.606 -16.949,15.26 -16.361,26.453 v 0 l 58.903,-25.666 c 0.316,-0.138 0.684,-0.051 0.903,0.215 v 0 l 4.348,5.261 c 0.196,0.237 0.11,0.595 -0.172,0.719 v 0 l -69.796,30.412 -10.572,4.607 c -10.57,4.606 -16.949,15.261 -16.359,26.453 v 0 L 254.683,222.26 c 0.315,-0.136 0.683,-0.049 0.903,0.215 v 0 l 4.348,5.263 c 0.196,0.237 0.11,0.595 -0.172,0.718 v 0 l -119.394,52.024 -10.961,4.776 c -10.95,4.772 -17.457,16.174 -16.246,27.853 v 0 c 4.734,-3.027 9.711,-5.682 14.859,-7.925 v 0 l 102.134,-44.504 41.381,-18.031 c 0.314,-0.137 0.683,-0.049 0.902,0.216 v 0 l 4.348,5.261 c 0.196,0.237 0.111,0.595 -0.172,0.72 v 0 l -43.38,18.901 c -10.953,4.772 -17.456,16.175 -16.246,27.854 v 0 c 4.732,-3.024 9.712,-5.682 14.863,-7.926 v 0 l 27.741,-12.087 28.797,-12.549 c 0.315,-0.136 0.682,-0.049 0.902,0.215 v 0 l 4.348,5.263 c 0.196,0.236 0.109,0.595 -0.172,0.717 v 0 l -30.796,13.42 c -10.95,4.771 -17.457,16.174 -16.247,27.852 v 0 c 4.735,-3.026 9.712,-5.681 14.86,-7.924 v 0 l 27.747,-12.091 16.21,-7.063 c 0.099,-0.043 0.203,-0.064 0.307,-0.064 v 0 c 0.224,0 0.444,0.098 0.594,0.28"
               style="fill:url(#linearGradient54);stroke:none"
               id="path56" />
          </g>
        </g>
      </g>
    </g>
    <g
       id="g58">
      <g
         id="g60"
         clip-path="url(#clipPath64)">
        <g
           id="g66"
           transform="translate(81.018,97.4901)">
          <path
             d="m 0,0 -10.871,29.358 -0.032,0.084 h -5.847 l -11.108,-29.303 -10.663,29.218 -0.03,0.085 h -6.643 l 13.853,-37.273 0.032,-0.084 h 6.615 l 10.762,27.912 10.592,-27.829 0.031,-0.083 h 6.617 l 13.892,37.184 0.065,0.173 h -6.294 z"
             style="fill:#000000;fill-opacity:1;fill-rule:nonzero;stroke:none"
             id="path68" />
        </g>
        <g
           id="g70"
           transform="translate(124.698,127.2822)">
          <path
             d="m 0,0 c -2.805,0 -5.377,-0.498 -7.646,-1.481 -2.151,-0.931 -3.939,-2.238 -5.317,-3.887 V 14.49 h -6.975 v -52.197 h 6.975 v 19.239 c 0,3.912 1.048,6.956 3.113,9.045 2.066,2.088 4.932,3.147 8.52,3.147 3.169,0 5.634,-0.905 7.328,-2.691 1.695,-1.788 2.555,-4.49 2.555,-8.032 v -20.708 h 6.974 v 21.478 c 0,5.284 -1.413,9.354 -4.202,12.096 C 8.535,-1.391 4.725,0 0,0"
             style="fill:#000000;fill-opacity:1;fill-rule:nonzero;stroke:none"
             id="path72" />
        </g>
        <g
           id="g74"
           transform="translate(171.1121,96.2871)">
          <path
             d="m 0,0 c -1.839,-1.126 -4.054,-1.696 -6.584,-1.696 -2.529,0 -4.528,0.533 -5.944,1.585 -1.405,1.041 -2.119,2.49 -2.119,4.308 0,3.723 2.831,5.612 8.413,5.612 H 3.999 V 4.781 C 3.172,2.728 1.826,1.119 -0.001,0 Z m 6.838,27.181 c -2.743,2.531 -6.741,3.814 -11.882,3.814 -2.982,0 -5.845,-0.414 -8.508,-1.23 -2.665,-0.82 -4.988,-2.018 -6.902,-3.559 l -0.084,-0.068 2.851,-5.134 0.077,-0.135 0.118,0.099 c 1.424,1.196 3.201,2.166 5.279,2.883 2.079,0.715 4.232,1.077 6.399,1.077 3.22,0 5.687,-0.766 7.334,-2.276 1.644,-1.507 2.479,-3.713 2.479,-6.555 V 14.894 H -6.515 c -5.186,0 -9.029,-1.011 -11.422,-3.005 -2.399,-2.001 -3.615,-4.683 -3.615,-7.973 0,-3.292 1.276,-5.987 3.793,-8.009 2.506,-2.016 5.889,-3.039 10.055,-3.039 2.851,0 5.353,0.463 7.436,1.376 1.949,0.854 3.501,2.083 4.617,3.657 v -4.613 h 6.625 v 22.528 c 0,5.007 -1.391,8.831 -4.136,11.364 z"
             style="fill:#000000;fill-opacity:1;fill-rule:nonzero;stroke:none"
             id="path76" />
        </g>
        <g
           id="g78"
           transform="translate(213.2281,96.9076)">
          <path
             d="m 0,0 -0.13,-0.105 c -1.418,-1.142 -3.157,-1.722 -5.17,-1.722 -1.822,0 -3.239,0.529 -4.212,1.57 -0.975,1.042 -1.47,2.567 -1.47,4.533 v 19.962 h 10.639 v 5.786 h -10.639 v 8.12 h -6.975 v -8.12 h -6.3 v -5.786 h 6.3 V 3.996 c 0,-3.753 1.049,-6.681 3.117,-8.701 2.068,-2.022 5.019,-3.048 8.771,-3.048 1.543,0 3.063,0.226 4.516,0.671 1.458,0.448 2.699,1.104 3.687,1.951 l 0.071,0.061 -2.138,4.917 z"
             style="fill:#000000;fill-opacity:1;fill-rule:nonzero;stroke:none"
             id="path80" />
        </g>
        <g
           id="g82"
           transform="translate(243.4212,109.2501)">
          <path
             d="m 0,0 c -1.842,0.582 -4.284,1.137 -7.259,1.649 -2.237,0.42 -3.989,0.796 -5.208,1.118 -1.212,0.319 -2.244,0.829 -3.065,1.515 -0.816,0.68 -1.214,1.586 -1.214,2.772 0,1.485 0.733,2.697 2.18,3.601 1.467,0.917 3.635,1.381 6.442,1.381 4.062,0 7.643,-0.982 10.641,-2.92 l 0.117,-0.075 2.991,5.546 -0.098,0.064 c -1.594,1.029 -3.657,1.859 -6.131,2.467 -2.474,0.607 -4.981,0.914 -7.45,0.914 -4.718,0 -8.536,-1.033 -11.345,-3.07 -2.821,-2.045 -4.252,-4.8 -4.252,-8.189 0,-2.635 0.695,-4.714 2.064,-6.177 1.361,-1.456 3.016,-2.504 4.919,-3.114 1.885,-0.606 4.352,-1.15 7.333,-1.615 2.187,-0.373 3.891,-0.714 5.066,-1.013 1.162,-0.296 2.146,-0.771 2.924,-1.409 0.759,-0.625 1.144,-1.488 1.144,-2.562 0,-3.26 -2.925,-4.912 -8.692,-4.912 -2.355,0 -4.722,0.351 -7.035,1.044 -2.31,0.694 -4.299,1.63 -5.911,2.782 l -0.12,0.085 -2.868,-5.449 -0.049,-0.094 0.082,-0.065 c 1.591,-1.265 3.82,-2.32 6.623,-3.139 2.802,-0.816 5.759,-1.23 8.788,-1.23 4.949,0 8.919,1.008 11.796,2.997 2.894,2 4.361,4.732 4.361,8.122 0,2.541 -0.671,4.548 -1.994,5.967 C 3.465,-1.6 1.856,-0.587 0,0"
             style="fill:#000000;fill-opacity:1;fill-rule:nonzero;stroke:none"
             id="path84" />
        </g>
        <g
           id="g86"
           transform="translate(316.0632,123.1855)">
          <path
             d="m 0,0 c -2.744,2.718 -6.508,4.097 -11.186,4.097 -3.133,0 -5.989,-0.618 -8.489,-1.834 -2.437,-1.185 -4.38,-2.836 -5.78,-4.908 -1.217,2.162 -2.941,3.836 -5.131,4.977 -2.253,1.171 -4.862,1.765 -7.761,1.765 -2.804,0 -5.341,-0.511 -7.541,-1.518 -2.083,-0.952 -3.811,-2.33 -5.141,-4.099 v 5.266 h -6.695 V -33.61 h 6.974 v 19.239 c 0,3.914 1.003,6.958 2.976,9.047 1.971,2.087 4.673,3.144 8.028,3.144 3.028,0 5.388,-0.904 7.01,-2.688 1.626,-1.787 2.452,-4.49 2.452,-8.034 V -33.61 h 6.975 v 19.239 c 0,3.914 1.002,6.958 2.976,9.047 1.97,2.087 4.672,3.144 8.027,3.144 3.029,0 5.389,-0.904 7.01,-2.688 1.626,-1.787 2.452,-4.49 2.452,-8.034 V -33.61 h 6.975 v 21.478 c 0,5.33 -1.389,9.412 -4.131,12.131 z"
             style="fill:#000000;fill-opacity:1;fill-rule:nonzero;stroke:none"
             id="path88" />
        </g>
        <g
           id="g90"
           transform="translate(335.8178,142.8221)">
          <path
             d="m 0,0 c -1.337,0 -2.462,-0.448 -3.345,-1.332 -0.886,-0.886 -1.332,-1.964 -1.332,-3.206 0,-1.244 0.449,-2.311 1.332,-3.171 0.883,-0.86 2.008,-1.296 3.345,-1.296 1.335,0 2.46,0.448 3.345,1.332 0.886,0.884 1.332,1.985 1.332,3.274 0,1.245 -0.449,2.301 -1.334,3.139 C 2.457,-0.424 1.332,0 0,0"
             style="fill:#000000;fill-opacity:1;fill-rule:nonzero;stroke:none"
             id="path92" />
        </g>
        <path
           d="m 332.33,89.575 h 6.975 v 37.356 h -6.975 z"
           style="fill:#000000;fill-opacity:1;fill-rule:nonzero;stroke:none"
           id="path94" />
        <g
           id="g96"
           transform="translate(371.7971,127.2822)">
          <path
             d="m 0,0 c -2.944,0 -5.61,-0.522 -7.928,-1.552 -2.19,-0.973 -3.976,-2.363 -5.316,-4.136 v 5.338 h -6.693 v -37.357 h 6.975 v 19.239 c 0,3.912 1.048,6.955 3.111,9.045 2.065,2.088 4.934,3.147 8.521,3.147 3.169,0 5.633,-0.905 7.327,-2.691 1.696,-1.788 2.557,-4.491 2.557,-8.032 v -20.708 h 6.972 v 21.478 c 0,5.286 -1.412,9.356 -4.201,12.096 C 8.536,-1.391 4.727,0 0,0"
             style="fill:#000000;fill-opacity:1;fill-rule:nonzero;stroke:none"
             id="path98" />
        </g>
        <g
           id="g100"
           transform="translate(415.058,121.3563)">
          <path
             d="m 0,0 c 3.171,0 5.862,-0.99 7.998,-2.941 2.103,-1.922 3.365,-4.426 3.756,-7.444 h -23.511 c 0.389,3.062 1.654,5.577 3.757,7.478 C -5.862,-0.978 -3.171,0 0,0 M 9.549,3.492 C 6.765,5.107 3.552,5.926 0,5.926 c -3.552,0 -6.79,-0.819 -9.617,-2.433 -2.831,-1.611 -5.084,-3.9 -6.7,-6.803 -1.611,-2.898 -2.43,-6.192 -2.43,-9.792 0,-3.65 0.841,-6.969 2.502,-9.865 1.659,-2.901 4.044,-5.19 7.085,-6.805 3.038,-1.612 6.568,-2.429 10.49,-2.429 3.08,0 5.912,0.521 8.411,1.55 2.505,1.029 4.63,2.548 6.317,4.515 l 0.069,0.083 -3.874,4.533 -0.097,-0.107 c -2.672,-2.945 -6.244,-4.438 -10.617,-4.438 -3.595,0 -6.64,0.991 -9.055,2.947 -2.375,1.922 -3.799,4.495 -4.238,7.648 h 30.069 l 0.013,0.114 c 0.094,0.859 0.139,1.528 0.139,2.043 0,3.733 -0.793,7.098 -2.36,10.001 -1.569,2.902 -3.776,5.192 -6.558,6.804"
             style="fill:#000000;fill-opacity:1;fill-rule:nonzero;stroke:none"
             id="path102" />
        </g>
        <g
           id="g104"
           transform="translate(462.657,127.2822)">
          <path
             d="m 0,0 c -3.273,0 -6.094,-0.57 -8.387,-1.693 -2.148,-1.052 -3.826,-2.576 -4.996,-4.534 v 5.877 h -6.693 v -37.357 h 6.972 v 18.608 c 0,3.959 1.038,7.05 3.081,9.187 2.04,2.134 4.894,3.215 8.484,3.215 0.641,0 1.152,-0.023 1.524,-0.068 L 0.127,-6.783 V 0 Z"
             style="fill:#000000;fill-opacity:1;fill-rule:nonzero;stroke:none"
             id="path106" />
        </g>
      </g>
    </g>
  </g>
</svg>
