<?xml version="1.0" encoding="UTF-8"?><svg id="Layer_1" xmlns="http://www.w3.org/2000/svg" viewBox="0 0 841.89 595.28"><defs><style>.cls-1{fill:#c5a063;}.cls-2{fill:#221f20;}</style></defs><path class="cls-2" d="M645.21,291.79h26.73c3.35,0,5.92-.74,7.71-2.23,1.79-1.48,2.68-3.52,2.68-6.11s-.9-4.66-2.68-6.22c-1.79-1.56-4.36-2.34-7.71-2.34h-26.73v16.9Zm57.68,45.34h-19.99l-14.16-27.64h-23.53v27.64h-17.7v-79.95h43.51c9.21,0,16.35,2.49,21.41,7.48,5.06,4.99,7.6,11.17,7.6,18.56,0,4.95-1.2,9.48-3.6,13.59-2.4,4.11-5.84,7.27-10.34,9.48l16.79,30.84Zm-88.85-17.7v17.7h-70.81v-79.95h70.24v17.7h-52.54v13.48h51.96v17.59h-51.96v13.48h53.1Zm-123.45,16.99l22.86-79.24h19.42l-23.15,79.95h-38.95l-22.18-79.95h19.41l22.6,79.24Zm-54.36,.71h-17.7v-79.95h17.7v79.95Zm-87.32-45.34h26.73c3.35,0,5.92-.74,7.71-2.23,1.79-1.48,2.68-3.52,2.68-6.11s-.9-4.66-2.68-6.22c-1.79-1.56-4.36-2.34-7.71-2.34h-26.73v16.9Zm57.68,45.34h-19.99l-14.16-27.64h-23.53v27.64h-17.7v-79.95h43.51c9.21,0,16.35,2.49,21.41,7.48,5.06,4.99,7.59,11.17,7.59,18.56,0,4.95-1.2,9.48-3.6,13.59-2.4,4.11-5.84,7.27-10.34,9.48l16.79,30.84Z"/><path class="cls-1" d="M161.94,351.92l44.69-97.95c.18-.4,.78-.16,.64,.25l-32.07,92.76c4.8-1.51,9.71-2.75,14.72-3.73l21.3-87.87c.1-.42,.74-.3,.67,.13l-12.39,86.22c4.09-.5,8.24-.82,12.43-.95l4.04-84.87c.02-.44,.66-.44,.69,0l4.04,84.87c4.19,.13,8.34,.45,12.43,.95l-12.39-86.22c-.06-.43,.57-.55,.67-.13l21.3,87.87c5.01,.98,9.92,2.22,14.72,3.73l-32.07-92.76c-.14-.41,.46-.65,.64-.25l44.69,97.95c8.08,3.5,15.75,7.75,22.94,12.67l-77.31-133.9-77.31,133.9c7.18-4.92,14.86-9.17,22.94-12.67"/></svg>