<?xml version="1.0" encoding="utf-8"?>
<!-- Generator: Adobe Illustrator 27.4.1, SVG Export Plug-In . SVG Version: 6.00 Build 0)  -->
<svg version="1.1" id="Layer_1" xmlns="http://www.w3.org/2000/svg" xmlns:xlink="http://www.w3.org/1999/xlink" x="0px" y="0px"
	 viewBox="0 0 1000 357" style="enable-background:new 0 0 1000 357;" xml:space="preserve">
<style type="text/css">
	.st0{fill:none;}
	.st1{fill-rule:evenodd;clip-rule:evenodd;fill:#373E4C;}
</style>
<path class="st0" d="M0,0"/>
<path class="st1" d="M109,49.2c0,2.7-6.2,75.3-6.5,76.4c-0.2,0.6-2.3,1.4-4.7,1.8c-6.9,1.1-20.1,8-25.7,13.5
	c-9.5,9.2-15.9,21.8-17.7,34.6l-0.7,5l-1.5-3.2c-0.8-1.8-2.2-3.4-3-3.8c-1.3-0.5-1.4,1.6-0.9,15.2c0.5,15.1,0.9,17.3,8.2,49.6
	c4.2,18.6,8.5,35.5,9.5,37.5c3.3,6.5,10.6,15.4,20.5,25c5.3,5.1,10,9,10.6,8.7c0.6-0.4,1-9.7,1-24.3v-23.7l-15.2-15.4
	c-14.6-14.7-15-15.3-9.8-12.4c3,1.7,11.7,6.2,19.2,10.2l13.8,7.2v6.8c0,5.9,0.3,7.1,2.5,9.1l2.5,2.3l2.5-2.3c2.1-2,2.5-3.4,2.8-9.3
	l0.3-7l19.2-10.1c17.8-9.4,20.9-11.6,18.8-13.8c-0.3-0.3-9.8,2.1-21.2,5.3c-11.4,3.2-21.6,5.8-22.7,5.8c-1.1,0-11.3-2.7-22.5-6
	c-11.3-3.3-18.8-5.7-16.8-5.4c7.7,1.1,24.6,2.4,32,2.4l7.8,0v-90.5c0-59.7-0.3-90.5-1-90.5C109.4,48,109,48.6,109,49.2 M908.4,174
	c-6.1,0.9-14.6,4.6-19,8.4c-9.9,8.3-10.2,25.9-0.7,34.8c4.7,4.3,10.1,6.5,24.6,9.7c19.9,4.5,22.7,6.4,22.7,15.4
	c0,4.2-0.5,5.3-3.1,7.8c-3.7,3.4-8.5,4.9-16,4.9c-10.9,0-18.6-4.7-23.5-14.2l-2.4-4.7l-6.7,2.9c-3.7,1.6-6.9,3.3-7.1,3.9
	c-1.1,3.4,8.3,15.5,15.1,19.5c10.2,6,27.4,7.5,40,3.7c7.9-2.4,15.7-8.9,18.1-15.1c2.4-6,2.2-14.9-0.4-20.4
	c-4.3-8.8-12.1-13.3-30.9-17.5c-6.9-1.6-13.7-3.3-15.2-3.8c-6.5-2.5-9-11.2-4.7-16.6c3-3.8,7.7-5.5,15.3-5.5
	c10.3,0,16.6,3.5,20.6,11.2l1.9,3.7l6.2-2.6c3.4-1.5,6.6-3,7.1-3.4c1.4-1.2-2.9-8.3-7.8-12.8c-2.5-2.3-6.7-5.1-9.2-6.2
	c-4-1.7-15.9-4.1-18.8-3.8C914,173.2,911.2,173.6,908.4,174 M276.7,175.2c-0.3,0.7-9.3,21.5-20.1,46.2
	c-10.8,24.7-19.6,45.3-19.6,45.8c0,0.5,3.6,0.7,8.1,0.6l8.1-0.3l12.7-29.7c7-16.4,12.9-29.7,13.2-29.7s6.2,13.4,13.2,29.7l12.7,29.7
	l8.1,0.3c4.4,0.2,8.1-0.1,8.1-0.6c0-0.7-16.2-38.3-36.2-84c-2.9-6.7-4.5-9.2-5.8-9.2C278,174,277,174.6,276.7,175.2 M353.7,174.7
	c-0.3,0.5,1.1,3.4,3,6.6l3.5,5.7h16.5c18.8,0,21,0.6,26.6,6.8c8.9,9.9,6.9,23.9-4.2,30.2c-4.3,2.4-5.4,2.5-25,3l-20.5,0.5v20v20h8h8
	l0.3-13.8l0.3-13.8l12,0.3l12,0.3l7.2,13.5l7.2,13.5l8.2,0.3c4.5,0.2,8.2-0.1,8.2-0.5c0-0.4-3.8-7.7-8.5-16.2l-8.5-15.4l5.5-5.1
	c9.4-8.8,13-19.5,10.2-30.4c-2.7-10.4-9.8-19-19.5-23.5c-4.2-1.9-6.6-2.2-27.3-2.5C364.4,174,354,174.2,353.7,174.7 M485.8,175.6
	c-11.7,3.6-24.2,15.8-28.8,28.1c-2.7,7.2-3.7,19.8-2.1,27.5c2.9,13.9,13.2,27.1,25.8,33.1c6.4,3,7.5,3.2,17.8,3.2
	c9.9,0,11.6-0.3,16.9-2.8c6.8-3.2,13.4-8.3,16.7-12.9l2.2-3.1l-3.4-2.9c-7.6-6.5-7.1-6.5-13.2-0.4c-8,8-16.8,10.3-27.4,7.1
	c-13-3.9-22.3-19-21.1-34.1c0.6-7.4,4.5-16.5,9.1-21.3c11.4-11.9,30.4-11.5,41.1,1l3.6,4.2l3.9-2.7c2.2-1.5,4.7-3.6,5.7-4.7
	c1.7-1.9,1.6-2.1-1.2-5.7c-4-5-14.3-11.8-20.6-13.7C504.4,173.6,492,173.7,485.8,175.6 M573.7,177.6l-6.8,3.5l0.3,31.7l0.3,31.7
	l2.7,5c3.4,6.4,8.9,11.6,15.8,15.2c5,2.6,6.4,2.8,16.5,2.8c9.9,0,11.5-0.3,16.5-2.7c6.4-3.1,13.3-9.6,16.3-15.3
	c2.1-3.8,2.2-5.4,2.4-39.8c0.2-25,0-35.8-0.8-35.8c-0.6,0-4.2,1.6-8,3.5l-7,3.5v30.2v30.1l-2.5,4.2c-3.2,5.5-9.1,8.4-16.8,8.4
	c-3.1,0-6.9-0.5-8.4-1.1c-4.2-1.6-9.2-6.9-10.3-10.9c-0.6-2-1-17.7-1-35.8c0-25.2-0.3-32.2-1.3-32.2
	C581.1,174.1,577.4,175.7,573.7,177.6 M690.2,177.6l-6.2,3.5v43.4V268h29h29v-7v-7h-21h-21v-40C700,168.2,700.9,171.5,690.2,177.6
	 M779.7,177.6l-6.8,3.5l0.3,32.2c0.3,30.8,0.4,32.4,2.5,36.3c3.1,5.9,9.7,12,16.2,15.2c5.2,2.5,6.7,2.8,16.7,2.8
	c10.4,0,11.3-0.2,17.1-3.2c7.9-4.1,14.9-11.8,16.9-18.6c2.1-6.9,2.3-71.7,0.2-71.7c-0.7,0-4.3,1.6-8,3.6l-6.7,3.6v29.5
	c0,32.7-0.2,33.7-6.3,39.1c-4.1,3.6-8.4,4.7-16.2,4.1c-6.4-0.5-11.5-3.7-14.5-8.9c-2-3.5-2.1-5.2-2.1-37.3c0-26.3-0.3-33.6-1.2-33.6
	C787.1,174.1,783.4,175.7,779.7,177.6 M268,260.5v7.5h11h11v-7.5V253h-11h-11V260.5"/>
</svg>
