<?xml version="1.0" encoding="utf-8"?>
<!-- Generator: Adobe Illustrator 27.6.1, SVG Export Plug-In . SVG Version: 6.00 Build 0)  -->
<svg version="1.1" id="Layer_1" xmlns="http://www.w3.org/2000/svg" xmlns:xlink="http://www.w3.org/1999/xlink" x="0px" y="0px"
	 viewBox="0 0 936 936" style="enable-background:new 0 0 936 936;" xml:space="preserve">
<g>
	<g>
		<path d="M544.9,651.2l99.79-60.72c3.59-2.18,5.78-6.08,5.78-10.28v-53.6l4.41-2.56c37.15-21.62,49.78-69.42,28.17-106.57
			c-7.93-13.64-19.4-23.95-32.57-30.5v-73c0-3.12-0.53-6.12-1.5-8.95c-3.38-9.78-12.13-17.34-23.01-19.66l-40.05,23.31
			l-246.44,143.4c-6.82,3.97-9.13,12.71-5.16,19.53c2.65,4.56,7.44,7.1,12.36,7.1c2.44,0,4.91-0.62,7.17-1.94l272.58-158.61v61.38
			c-16.7-2.34-34.27,0.66-49.94,9.78l-32.31,18.8v0l-41.17,23.96l-130.02,75.66v0l-27.8,16.17c-12.49,7.27-26.88,8.42-39.69,4.39
			c-9.31-2.93-17.76-8.61-24.06-16.68c-1.36-1.75-2.63-3.59-3.78-5.56c-6.63-11.4-8.43-24.7-5.06-37.45
			c1.74-6.58,4.76-12.61,8.83-17.81c3.82-4.88,8.56-9.04,14.07-12.25l9.98-5.81l213.2-124.06l41.34-24.06h-56.8H343.67v-86.4
			c0-54.56,55.61-98.94,123.96-98.94c68.35,0,123.96,44.39,123.96,98.94v43.16c0,2.57,2.09,4.66,4.66,4.66h12.79
			c2.58,0,4.66-2.09,4.66-4.66v-43.16c0-66.75-65.53-121.05-146.07-121.05s-146.08,54.3-146.08,121.05v86.4H313
			c-17.41,0-31.57,13.17-31.57,29.36v99.71l-0.29,0.17c-37.15,21.61-49.79,69.42-28.17,106.57c7.1,12.2,17.02,21.74,28.46,28.31
			v31.48c0,4.11,2.1,7.94,5.57,10.15l33.89,21.55l27.13,17.26l23.41-13.62l179.75-104.59l45.37-26.4
			c6.82-3.97,9.13-12.71,5.16-19.53c-3.97-6.82-12.71-9.13-19.53-5.16l-45.37,26.4L344.29,598.29l-38.81-24.69v-15.91
			c4.92,0.96,9.94,1.45,14.98,1.45c13.3,0,26.77-3.4,39.07-10.56l102.81-59.82l128.49-74.77c11.17-6.5,23.86-8.1,35.57-5.49
			c8.96,2,17.35,6.48,24.06,13.13c3,2.97,5.66,6.38,7.89,10.2c11.53,19.82,7.67,44.42-7.89,59.88c-2.92,2.9-6.24,5.48-9.96,7.64
			l-14.09,8.2L404.58,636.63l-23.41,13.62l27.13,17.26l30.54,19.42c7.08,4.51,15.37,6.76,23.67,6.76c8.23,0,16.46-2.22,23.5-6.67
			L544.9,651.2"/>
	</g>
	<g>
		<path d="M376.44,801.58c0.51-1.51,1.17-3,1.5-4.55c2.07-9.6,4.07-19.22,6.07-28.84c0.95-4.6,1.82-5.41,6.38-5.52
			c2.92-0.07,5.84-0.07,8.76,0c4.31,0.09,5.09,0.85,5.12,5.18c0.07,10.29,0.11,20.59,0.1,30.88c-0.01,17.36-0.07,34.72-0.11,52.08
			c0,1.38,0.02,2.77-0.05,4.15c-0.13,2.33-1.28,3.72-3.72,3.81c-0.92,0.04-1.84,0.07-2.76,0.06c-4.45-0.05-5.4-0.86-5.41-5.42
			c-0.04-15.05,0.05-30.11,0.02-45.16c-0.01-4.14-0.23-8.29-0.42-12.43c-0.03-0.68-0.41-1.35-1.46-2.16
			c-0.48,1.34-1.11,2.66-1.42,4.04c-1.43,6.29-2.79,12.59-4.12,18.9c-1.01,4.75-2,5.67-6.72,5.83c-1.69,0.06-3.38,0.04-5.07,0.01
			c-4.59-0.1-5.65-0.93-6.59-5.34c-1.28-6.01-2.47-12.04-3.79-18.03c-0.38-1.73-1.09-3.39-1.66-5.08c-0.38,0.01-0.76,0.03-1.14,0.04
			c-0.22,1.2-0.63,2.41-0.64,3.61c-0.12,11.21-0.2,22.43-0.25,33.64c-0.03,7.22,0.05,14.44,0.02,21.66
			c-0.01,2.12,0.34,4.9-2.28,5.43c-2.58,0.52-5.48,0.3-8.06-0.33c-1.87-0.46-1.54-2.76-1.55-4.43c-0.02-7.68-0.01-15.36-0.01-23.05
			c0-20.59-0.01-41.18,0-61.77c0-5.52,0.55-6.11,5.99-6.19c2.92-0.04,5.84,0.03,8.76,0.12c3.58,0.11,4.56,0.78,5.38,4.39
			c1.22,5.39,2.17,10.84,3.28,16.26c0.89,4.37,1.78,8.73,2.79,13.07c0.41,1.74,1.15,3.4,1.74,5.1
			C375.54,801.56,375.99,801.57,376.44,801.58z"/>
		<path d="M761.1,810.05c0-13.82,0-27.64,0.01-41.46c0-1.07,0.08-2.15,0.2-3.21c0.23-2.15,1.41-3.36,3.63-3.34
			c7.83,0.05,15.71-0.45,23.47,0.33c11.4,1.15,18.59,11.84,18.57,20.32c-0.03,14.42,0.12,28.85,0.17,43.28
			c0.01,3.53-0.03,7.06-0.15,10.59c-0.41,12.29-10.07,21.62-22.36,21.66c-5.07,0.02-10.13,0.02-15.2,0.02
			c-8.24,0-8.31-0.07-8.33-8.11c-0.02-6.76-0.08-13.51-0.1-20.27c-0.02-6.6,0-13.2,0-19.8C761.02,810.05,761.06,810.05,761.1,810.05
			z M795.06,810.31c0-3.68,0-7.36,0-11.04c0-3.68-0.19-7.37,0.03-11.03c0.67-10.95-5.08-14.81-14.26-14.32
			c-7.42,0.4-7.66,0.2-7.68,7.83c-0.03,19.17-0.02,38.34-0.01,57.51c0,1.22,0.05,2.46,0.19,3.67c0.22,1.91,1.26,3.21,3.25,3.21
			c3.37,0.01,6.79,0.16,10.08-0.37c4.65-0.74,7.53-4.1,8.13-8.77c0.21-1.67,0.23-3.37,0.24-5.05
			C795.07,824.73,795.06,817.52,795.06,810.31z"/>
		<path d="M310.56,857.44c-4.55-0.12-5.57-0.93-6.59-5.38c-0.45-1.94-0.73-3.93-1.24-5.86c-0.8-3.05-1.65-3.78-4.8-3.87
			c-3.84-0.11-7.68-0.18-11.52-0.02c-3.34,0.14-4.2,0.97-5.01,4.27c-0.51,2.08-0.72,4.24-1.24,6.32c-0.84,3.4-1.95,4.26-5.45,4.46
			c-1.07,0.06-2.15,0.07-3.22,0c-3.21-0.22-4.16-1.23-3.64-4.4c0.83-5,1.86-9.96,2.83-14.93c4.27-21.99,8.55-43.98,12.85-65.96
			c0.5-2.56,1.18-5.08,1.77-7.62c0.48-2.06,1.77-3.15,3.9-3.24c0.15-0.01,0.31-0.03,0.46-0.03c7.79-0.04,8.86-0.68,10.47,7.84
			c4.98,26.23,10.17,52.43,15.27,78.64c0.29,1.51,0.53,3.03,0.73,4.55c0.55,4.09-0.2,5.02-4.19,5.22
			C311.48,857.46,311.02,857.44,310.56,857.44z M292.58,798.44c-0.36-0.01-0.71-0.01-1.07-0.02c-0.6,1.81-1.38,3.58-1.77,5.43
			c-1.25,5.83-2.29,11.7-3.52,17.53c-1.66,7.86-1.65,8.94,7.98,8.62c4.19-0.14,5.13-1.41,4.36-5.52c-1.33-7.06-2.72-14.1-4.2-21.13
			C294,801.66,293.19,800.07,292.58,798.44z"/>
		<path d="M441.67,810.61c0-13.06,0-26.12,0-39.17c0-1.23-0.04-2.46,0.03-3.69c0.25-4.28,0.94-5.18,5.26-5.2
			c7.51-0.03,15.08-0.29,22.53,0.51c10.01,1.08,17.35,9.02,18.15,19.09c0.51,6.41,0.61,12.91,0.26,19.33
			c-0.67,12.16-9.64,20.67-21.89,21.27c-2.45,0.12-4.92,0.04-7.37,0.13c-3.87,0.14-4.68,0.73-4.8,4.56
			c-0.19,6.14-0.06,12.28-0.09,18.42c-0.01,2.61,0.06,5.23-0.13,7.83c-0.27,3.74-1.05,4.37-4.89,4.53
			c-0.46,0.02-0.92,0.01-1.38,0.01c-4.73-0.06-5.64-0.89-5.66-5.69C441.64,838.56,441.67,824.59,441.67,810.61z M453.81,792.4
			C453.8,792.4,453.8,792.4,453.81,792.4c-0.01,4.6-0.06,9.2,0.01,13.79c0.03,1.93,0.6,3.93,2.81,4.2
			c4.56,0.56,9.23,1.05,13.56-1.06c3.57-1.74,5.62-4.69,5.63-8.79c0.01-5.37,0.07-10.74-0.13-16.1c-0.19-5.17-3.13-8.63-8.27-9.55
			c-2.83-0.51-5.79-0.49-8.69-0.39c-4.01,0.14-4.75,0.91-4.89,5.01C453.7,783.81,453.81,788.11,453.81,792.4z"/>
		<path d="M618.27,810.04c0-13.67,0-27.34,0-41.01c0-0.77-0.01-1.54,0.07-2.3c0.4-3.73,1.1-4.53,4.91-4.57
			c10.75-0.11,21.51-0.13,32.26-0.06c3.79,0.03,4.69,1.16,4.87,5.12c0.26,5.68-0.75,6.81-6.43,6.86
			c-5.99,0.05-11.98-0.02-17.97,0.01c-4.48,0.02-5.19,0.52-5.34,4.91c-0.23,6.75-0.3,13.51-0.2,20.27c0.07,4.54,1.05,5.31,5.5,5.39
			c2.76,0.05,5.54-0.07,8.29,0.11c2.93,0.19,3.74,1.06,4.09,3.94c0.13,1.06,0.15,2.15,0.1,3.22c-0.16,3.75-0.95,4.61-4.66,4.77
			c-2.76,0.12-5.53-0.04-8.29,0.05c-3.68,0.12-4.9,1.05-5.01,4.55c-0.21,6.6-0.27,13.21-0.08,19.81c0.13,4.41,1.14,5.12,5.78,5.15
			c5.99,0.04,11.98-0.04,17.97,0.02c5.58,0.06,8.49,4.91,5.66,9.74c-0.64,1.09-2.4,1.91-3.76,2.1c-2.41,0.35-4.9,0.12-7.36,0.13
			c-7.68,0.02-15.36,0.07-23.04,0.05c-6.88-0.02-7.4-0.54-7.4-7.26c-0.02-13.67,0-27.34,0-41.01
			C618.26,810.04,618.26,810.04,618.27,810.04z"/>
		<path d="M688.87,810.12c0-13.67,0-27.34,0-41.01c0-0.77-0.02-1.54,0.06-2.3c0.36-3.74,1.08-4.6,4.83-4.64
			c10.75-0.11,21.51-0.14,32.26-0.07c3.84,0.02,4.75,1.13,4.98,5.05c0.32,5.63-0.79,6.88-6.39,6.94
			c-5.99,0.05-11.98-0.01-17.97,0.01c-4.57,0.02-5.29,0.48-5.44,4.83c-0.24,6.9-0.29,13.82-0.16,20.73
			c0.08,4.12,1.18,4.93,5.41,5.01c2.61,0.05,5.23-0.05,7.83,0.08c3.46,0.17,4.38,1.05,4.69,4.36c0.13,1.37,0.08,2.77-0.03,4.14
			c-0.18,2.14-1.36,3.39-3.57,3.43c-3.07,0.06-6.14,0-9.21,0.09c-3.86,0.12-5.03,1.1-5.13,4.92c-0.17,6.45-0.23,12.9-0.05,19.35
			c0.12,4.42,1.15,5.2,5.71,5.23c6.14,0.04,12.29,0,18.44,0.02c2.01,0,4.62-0.13,5.14,2.08c0.6,2.54,0.24,5.37-0.08,8.02
			c-0.08,0.66-1.59,1.26-2.54,1.66c-0.67,0.28-1.51,0.26-2.27,0.26c-10.29,0.01-20.59,0.05-30.88-0.04
			c-4.76-0.04-5.6-0.91-5.61-5.74c-0.05-14.13-0.02-28.26-0.02-42.39C688.86,810.12,688.87,810.12,688.87,810.12z"/>
		<path d="M151.39,858.14c-9.84-0.13-18.09-5.87-21.28-14.81c-2.64-7.42-0.43-10.29,7.21-9.11c1.17,0.18,2.28,1.24,3.23,2.11
			c0.51,0.47,0.66,1.37,0.88,2.1c2.13,6.91,8.81,9.24,15.23,6.47c5.24-2.26,7.32-9.78,4.29-15.59c-1.12-2.15-2.6-4.22-4.31-5.93
			c-3.47-3.47-7.17-6.71-10.86-9.95c-4.86-4.27-9.64-8.59-13-14.22c-5.81-9.73-5.19-21.94,1.95-29.61
			c6.29-6.76,14.21-8.85,23.12-6.47c8.85,2.37,14.08,8.34,16.12,17.17c0.3,1.32,0.26,2.76,0.13,4.12c-0.06,0.68-0.59,1.83-1.02,1.89
			c-2.68,0.36-5.46,0.87-8.08,0.47c-1.1-0.17-2.3-2.3-2.73-3.75c-1.3-4.34-3.72-7.31-8.29-8.32c-6.44-1.43-12.17,2.6-12.85,9.16
			c-0.43,4.18,0.66,8.04,3.38,11.17c2.81,3.23,5.96,6.17,9.08,9.11c3.69,3.47,7.63,6.68,11.23,10.24
			c5.75,5.69,9.12,12.35,9.57,20.76C174.98,845.92,165.7,858.39,151.39,858.14z"/>
		<path d="M564.11,858.14c-11.14-0.16-20.47-7.79-21.97-17.97c-0.73-4.97,0.18-6.02,5.23-6.05c5.02-0.03,5.28-0.12,6.79,4.37
			c2.14,6.39,8.32,9.14,14.88,6.57c5.35-2.1,7.72-9.41,4.85-15.38c-1.05-2.18-2.51-4.28-4.21-5.99c-3.57-3.58-7.38-6.94-11.18-10.29
			c-4.73-4.18-9.4-8.39-12.75-13.83c-6.13-9.95-5.41-22.65,2.08-30.35c6.3-6.47,14.12-8.42,22.83-6.07
			c8.65,2.33,13.85,8.14,15.98,16.75c0.29,1.17,0.26,2.44,0.3,3.66c0.07,2.23-1.05,3.44-3.29,3.56c-0.92,0.05-1.84,0.06-2.76,0.05
			c-4.51-0.05-4.66-0.17-6.07-4.61c-1.84-5.83-6.66-9.01-12.21-8.05c-5.1,0.88-8.4,4.53-8.76,9.83c-0.27,4,0.82,7.7,3.42,10.71
			c2.6,3.01,5.5,5.77,8.4,8.5c4.03,3.78,8.33,7.29,12.24,11.18c5.63,5.59,8.78,12.21,9.21,20.43
			C587.69,846.17,578.28,858.39,564.11,858.14z"/>
		<path d="M230.3,816.16c0,12.13,0,24.26,0,36.4c0,1.99,0.32,4.65-1.99,5.12c-2.72,0.54-5.75,0.29-8.46-0.36
			c-0.82-0.2-1.45-2.87-1.48-4.42c-0.14-7.21-0.03-14.43-0.03-21.65c-0.01-17.2,0.01-34.4-0.06-51.6c-0.02-5.7-0.78-6.35-6.38-6.4
			c-2.46-0.02-4.92,0.07-7.37-0.1c-2.6-0.18-3.43-1.12-3.69-3.76c-0.1-1.07-0.11-2.16-0.02-3.22c0.25-2.84,1.17-3.81,3.97-4.05
			c1.68-0.14,3.38-0.11,5.07-0.11c10.6-0.01,21.2-0.01,31.8,0.01c1.07,0,2.16-0.01,3.21,0.16c1.7,0.27,2.76,1.31,2.91,3.07
			c0.1,1.22,0.16,2.46,0.05,3.68c-0.27,3.08-1.25,4.05-4.32,4.21c-1.99,0.11-3.99-0.01-5.99,0.02c-6.69,0.11-7.17,0.56-7.18,7.07
			c-0.02,11.98-0.01,23.96-0.01,35.94C230.32,816.16,230.31,816.16,230.3,816.16z"/>
	</g>
</g>
</svg>
