<svg width="150" height="28" viewBox="0 0 150 28" fill="none" xmlns="http://www.w3.org/2000/svg">
<g clip-path="url(#clip0_4291_4086)">
<path fill-rule="evenodd" clip-rule="evenodd" d="M75.0968 20.7373L70.958 24.8761C70.0576 25.7766 68.8627 26.2702 67.5899 26.2702C66.317 26.2702 65.1222 25.7766 64.2217 24.8761C63.3212 23.9757 62.8276 22.7808 62.8276 21.508C62.8276 20.2351 63.3212 19.0403 64.2217 18.1398L68.3605 14.001L64.2217 9.86214C62.3601 8.0092 62.3601 4.98735 64.2217 3.12575C65.1222 2.22526 66.317 1.73172 67.5899 1.73172C68.8627 1.73172 70.0576 2.22526 70.958 3.12575L75.0968 7.26456L76.3214 6.04005L72.1826 1.90125C70.9565 0.675158 69.3208 0 67.5899 0C65.8589 0 64.2232 0.675158 62.9972 1.90124C60.4614 4.43704 60.4567 8.55643 62.9985 11.088L63 11.0895L65.9115 14.001L62.9972 16.9153C61.7711 18.1413 61.0959 19.777 61.0959 21.508C61.0959 23.2389 61.7711 24.8746 62.9972 26.1007C64.2232 27.3267 65.8589 28.0019 67.5899 28.0019C69.3208 28.0019 70.9565 27.3267 72.1826 26.1007L76.3214 21.9619L75.0968 20.7373Z" fill="#C66E4E"/>
<path fill-rule="evenodd" clip-rule="evenodd" d="M75.0976 7.26456L79.2364 3.12575C80.1369 2.22526 81.3317 1.73172 82.6045 1.73172C83.8774 1.73172 85.0722 2.22526 85.9727 3.12575C87.8343 4.98735 87.8343 8.0092 85.9727 9.86214L81.8339 14.001L85.9727 18.1398C86.8732 19.0403 87.3668 20.2351 87.3668 21.508C87.3668 22.7808 86.8732 23.9757 85.9727 24.8761C85.0722 25.7766 83.8774 26.2702 82.6045 26.2702C81.3317 26.2702 80.1369 25.7766 79.2364 24.8761L75.0976 20.7373L73.873 21.9619L78.0119 26.1007C79.2379 27.3267 80.8736 28.0019 82.6045 28.0019C84.3355 28.0019 85.9712 27.3267 87.1972 26.1007C88.4233 24.8746 89.0985 23.2389 89.0985 21.508C89.0985 19.777 88.4233 18.1413 87.1972 16.9153L84.283 14.001L87.1944 11.0895L87.1958 11.0881C89.7377 8.55649 89.7331 4.43705 87.1972 1.90124C85.9712 0.675158 84.3355 0 82.6045 0C80.8736 0 79.2379 0.675158 78.0119 1.90124L73.873 6.04005L75.0976 7.26456Z" fill="#C66E4E"/>
<path fill-rule="evenodd" clip-rule="evenodd" d="M75.0959 4.81445L84.2797 13.9983L75.0959 23.1821L65.9121 13.9983L75.0959 4.81445ZM81.8307 13.9983L75.0959 20.7331L68.3611 13.9983L75.0959 7.26347L81.8307 13.9983Z" fill="#C66E4E"/>
<path d="M6.23418 13.8526L10.2951 19.7145H8.07846L5.11722 15.4112L2.15599 19.7145H0L4.04356 13.8873L0.19049 8.28516H2.40709L5.16052 12.3287L7.97456 8.28516H10.1132L6.24284 13.8526H6.23418Z" fill="#353535"/>
<path d="M20.8941 8.28516L25.284 19.7145H23.3098L22.1409 16.5541H17.7683L16.5994 19.7145H14.6426L19.0325 8.28516H20.8941ZM18.3831 14.8743H21.5088L19.9416 10.649L18.3744 14.8743H18.3831Z" fill="#353535"/>
<path d="M32.6348 15.4545V19.7145H30.6953V8.28516H35.1112C37.475 8.28516 39.0162 9.51467 39.0162 11.8785C39.0162 14.2423 37.475 15.4545 35.1112 15.4545H32.6348ZM35.0766 9.96492H32.6348V13.7834H35.0766C36.4186 13.7834 37.1027 12.9868 37.1027 11.8871C37.1027 10.7875 36.4186 9.97358 35.0766 9.97358V9.96492Z" fill="#353535"/>
<path d="M49.2761 19.9052C46.185 19.9052 44.0117 17.4115 44.0117 14C44.0117 10.5885 46.185 8.10352 49.2761 8.10352C52.3673 8.10352 54.5665 10.5799 54.5665 14C54.5665 17.4202 52.3673 19.9052 49.2761 19.9052ZM49.2761 9.83523C47.2673 9.83523 45.9599 11.5843 45.9599 14.0087C45.9599 16.4331 47.2587 18.1821 49.2761 18.1821C51.2936 18.1821 52.6097 16.4331 52.6097 14.0087C52.6097 11.5843 51.2849 9.83523 49.2761 9.83523Z" fill="#353535"/>
<path d="M104.388 16.4415C104.388 18.5802 102.898 19.7145 100.517 19.7145H96.1445V8.28516H100.145C102.526 8.28516 104.015 9.35016 104.015 11.3936C104.015 12.6231 103.366 13.5149 102.526 13.8093C103.608 14.1643 104.388 15.2207 104.388 16.4329V16.4415ZM100.127 13.0907C101.452 13.0907 102.154 12.5885 102.154 11.5061C102.154 10.4238 101.444 9.96492 100.127 9.96492H98.0234V13.0907H100.127ZM98.0234 18.0434H100.482C101.781 18.0434 102.491 17.394 102.491 16.3636C102.491 15.3332 101.781 14.6925 100.482 14.6925H98.0234V18.0434Z" fill="#353535"/>
<path d="M115.253 8.28516L119.643 19.7145H117.669L116.5 16.5541H112.128L110.959 19.7145H109.002L113.392 8.28516H115.253ZM112.742 14.8743H115.868L114.301 10.649L112.734 14.8743H112.742Z" fill="#353535"/>
<path d="M134.26 19.7145H132.771L126.926 11.3936V19.7145H125.064V8.28516H126.891L132.398 16.2164V8.28516H134.26V19.7145Z" fill="#353535"/>
<path d="M142.512 13.2552L147.092 8.28516H149.491L144.329 13.7574L149.655 19.7145H147.196L142.503 14.4847V19.7145H140.562V8.28516H142.503V13.2552H142.512Z" fill="#353535"/>
</g>
<defs>
<clipPath id="clip0_4291_4086">
<rect width="150" height="28" fill="white"/>
</clipPath>
</defs>
</svg>
