<svg width="749" height="749" viewBox="0 0 749 749" fill="none" xmlns="http://www.w3.org/2000/svg">
<path d="M375.233 557.963C371.786 557.963 368.514 556.91 365.768 554.921L355.194 547.168H254.616L245.327 473.093L178.343 424.266C176.444 413.324 175.48 402.002 175.48 390.505C175.48 280.182 265.074 190.484 375.233 190.484C485.363 190.484 574.956 280.211 574.956 390.505C574.956 401.768 573.992 413.119 572.094 424.295L505.139 473.122L495.821 547.197H395.273L384.639 555.038C382.039 556.91 378.651 557.963 375.233 557.963Z" fill="#FFCD00"/>
<path d="M356.141 568.302C361.751 572.368 368.413 574.446 375.221 574.446C382.029 574.446 388.75 572.339 394.33 568.302L400.671 563.68H510.33L520.586 482.233L587.089 433.757C589.981 419.568 591.442 405.058 591.442 390.489C591.442 270.952 494.581 174 375.221 174C255.861 174 159 270.952 159 390.489C159 405.058 160.403 419.568 163.383 433.757L229.885 482.233L240.083 563.68H349.83L356.141 568.302ZM353.278 525.794H273.48L265.474 461.257L199.731 413.425C197.803 405.906 196.809 398.271 196.809 390.489C196.809 377.558 199.527 364.773 204.845 352.983L321.166 470.677L208.088 330.984C212.529 312.845 222.376 296.492 236.343 284.117L337.733 459.238L247.855 267.529C259.455 251.994 275.643 240.614 294.167 234.909L356.141 452.363L310.852 225.928C324.701 218.117 340.129 214.05 355.995 214.05C359.355 214.05 362.686 214.197 365.988 214.548L375.221 450.052L384.425 214.577C387.785 214.226 391.087 214.08 394.506 214.08C410.255 214.08 425.829 218.146 439.62 225.957L394.33 452.393L456.363 234.939C474.8 240.643 490.987 252.053 502.616 267.558L412.797 459.238L514.187 284.117C528.066 296.492 537.942 312.845 542.442 330.984L429.364 470.706L545.685 353.013C550.945 364.803 553.604 377.587 553.604 390.518C553.604 398.3 552.669 405.935 550.682 413.454L485.056 461.286L476.991 525.823H397.194L385.448 534.395C382.438 536.531 378.874 537.789 375.221 537.789C371.569 537.789 368.004 536.56 365.053 534.395L353.278 525.794Z" fill="#DA291C"/>
</svg>
