<svg width="96" height="45" viewBox="0 0 96 45" fill="none" xmlns="http://www.w3.org/2000/svg">
<path fill-rule="evenodd" clip-rule="evenodd" d="M0 4.72821C2.43865 4.44972 4.35955 2.46666 4.54175 0H91.5701C91.7495 2.42883 93.6147 4.38877 96 4.71421V9.82675C93.49 10.1692 91.556 12.3215 91.556 14.9254C91.556 17.5294 93.49 19.6817 96 20.0241V25.1367C93.49 25.4792 91.556 27.6315 91.556 30.2354C91.556 32.8394 93.49 34.9917 96 35.3341V40.4466C93.6675 40.7648 91.8324 42.6459 91.5845 45H4.52735C4.27547 42.6084 2.38544 40.705 0 40.4326V35.3481C2.56416 35.0553 4.55589 32.878 4.55589 30.2354C4.55589 27.5929 2.56416 25.4155 0 25.1227V20.0382C2.56416 19.7453 4.55589 17.568 4.55589 14.9254C4.55589 12.2829 2.56416 10.1056 0 9.81274V4.72821Z" fill="#FF9501"/>
<path d="M13.5781 19.4091V16.8637H23.6918V19.4091H20.1918V28.5H17.0781V19.4091H13.5781Z" fill="white"/>
<path d="M28.0398 16.8637V28.5H24.8807V16.8637H28.0398Z" fill="white"/>
<path d="M40.4006 21.2273H37.196C37.1733 20.9622 37.1127 20.7216 37.0142 20.5057C36.9195 20.2898 36.7869 20.1042 36.6165 19.9489C36.4498 19.7898 36.2472 19.6686 36.0085 19.5853C35.7699 19.4982 35.4991 19.4546 35.196 19.4546C34.6657 19.4546 34.2169 19.5834 33.8494 19.841C33.4858 20.0985 33.2093 20.4678 33.0199 20.9489C32.8343 21.43 32.7415 22.0076 32.7415 22.6819C32.7415 23.394 32.8362 23.9906 33.0256 24.4716C33.2187 24.9489 33.4972 25.3088 33.8608 25.5512C34.2244 25.7898 34.6619 25.9091 35.1733 25.9091C35.465 25.9091 35.7263 25.8732 35.9574 25.8012C36.1884 25.7254 36.3892 25.6175 36.5597 25.4773C36.7301 25.3372 36.8684 25.1686 36.9744 24.9716C37.0843 24.7709 37.1581 24.5455 37.196 24.2955L40.4006 24.3182C40.3627 24.8107 40.2244 25.3125 39.9858 25.8239C39.7472 26.3315 39.4081 26.8012 38.9687 27.233C38.5331 27.661 37.9934 28.0057 37.3494 28.2671C36.7055 28.5285 35.9574 28.6591 35.1051 28.6591C34.0369 28.6591 33.0786 28.43 32.2301 27.9716C31.3854 27.5133 30.7169 26.8391 30.2244 25.9489C29.7358 25.0588 29.4915 23.9697 29.4915 22.6819C29.4915 21.3864 29.7415 20.2955 30.2415 19.4091C30.7415 18.519 31.4157 17.8466 32.2642 17.3921C33.1127 16.9338 34.0597 16.7046 35.1051 16.7046C35.84 16.7046 36.5161 16.805 37.1335 17.0057C37.7509 17.2065 38.2926 17.5 38.7585 17.8864C39.2244 18.269 39.5994 18.7406 39.8835 19.3012C40.1676 19.8618 40.34 20.5038 40.4006 21.2273Z" fill="white"/>
<path d="M41.8338 28.5V16.8637H44.9929V21.5682H45.152L48.652 16.8637H52.3338L48.402 22.0455L52.4247 28.5H48.652L46.0384 24.1364L44.9929 25.5V28.5H41.8338Z" fill="white"/>
<path d="M53.2713 28.5V16.8637H61.6577V19.4091H56.4304V21.4091H61.2259V23.9546H56.4304V25.9546H61.6349V28.5H53.2713Z" fill="white"/>
<path d="M62.9062 19.4091V16.8637H73.0199V19.4091H69.5199V28.5H66.4062V19.4091H62.9062Z" fill="white"/>
<path d="M80.4815 20.5C80.4512 20.1213 80.3092 19.8258 80.0554 19.6137C79.8054 19.4016 79.4247 19.2955 78.9134 19.2955C78.5876 19.2955 78.3206 19.3353 78.1122 19.4148C77.9077 19.4906 77.7562 19.5947 77.6577 19.7273C77.5592 19.8599 77.5081 20.0114 77.5043 20.1819C77.4967 20.322 77.5213 20.4489 77.5781 20.5625C77.6387 20.6724 77.7334 20.7728 77.8622 20.8637C77.991 20.9508 78.1558 21.0303 78.3565 21.1023C78.5573 21.1743 78.7959 21.2387 79.0724 21.2955L80.027 21.5C80.6709 21.6364 81.2221 21.8163 81.6804 22.0398C82.1387 22.2633 82.5137 22.5266 82.8054 22.8296C83.0971 23.1288 83.3111 23.466 83.4474 23.841C83.5876 24.216 83.6596 24.625 83.6634 25.0682C83.6596 25.8334 83.4683 26.4811 83.0895 27.0114C82.7107 27.5417 82.169 27.9451 81.4645 28.2216C80.7637 28.4982 79.9209 28.6364 78.9361 28.6364C77.9247 28.6364 77.0421 28.4868 76.2884 28.1875C75.5384 27.8883 74.955 27.4281 74.5384 26.8069C74.1255 26.1819 73.9171 25.3826 73.9134 24.4091H76.9134C76.9323 24.7652 77.0213 25.0644 77.1804 25.3069C77.3395 25.5493 77.563 25.733 77.8509 25.858C78.1425 25.983 78.4891 26.0455 78.8906 26.0455C79.2277 26.0455 79.5099 26.0038 79.7372 25.9205C79.9645 25.8372 80.1368 25.7216 80.2543 25.5739C80.3717 25.4262 80.4323 25.2576 80.4361 25.0682C80.4323 24.8902 80.3736 24.7349 80.2599 24.6023C80.1501 24.466 79.9683 24.3447 79.7145 24.2387C79.4607 24.1288 79.1179 24.0266 78.6861 23.9319L77.527 23.6819C76.4967 23.4584 75.6842 23.0853 75.0895 22.5625C74.4986 22.036 74.205 21.3182 74.2088 20.4091C74.205 19.6705 74.402 19.0247 74.7997 18.4716C75.2012 17.9148 75.7562 17.4811 76.4645 17.1705C77.1766 16.8599 77.9929 16.7046 78.9134 16.7046C79.8527 16.7046 80.6652 16.8618 81.3509 17.1762C82.0365 17.4906 82.5649 17.9338 82.9361 18.5057C83.3111 19.0739 83.5005 19.7387 83.5043 20.5H80.4815Z" fill="white"/>
</svg>
