<svg xmlns="http://www.w3.org/2000/svg" viewBox="0 0 281.78 41.75">
  <defs>
    <style>
      .cls-1 {
        fill: #000;
      }

      .cls-2 {
        fill: #a9cc3d;
      }
    </style>
  </defs>
  <g id="Layer_2" data-name="Layer 2">
    <g id="Layer_1-2" data-name="Layer 1">
      <path class="cls-1" d="M76.91,21.3a9.58,9.58,0,0,1-5.53,7.63,11.46,11.46,0,0,1-4.94,1,12.52,12.52,0,0,1-4.73-.88,11.34,11.34,0,0,1-6.33-6.63,14.54,14.54,0,0,1-.92-5.25,14.13,14.13,0,0,1,.92-5.25,11.76,11.76,0,0,1,2.51-4,11.51,11.51,0,0,1,3.82-2.54,12,12,0,0,1,4.73-.91,11.32,11.32,0,0,1,5,1.08,9.28,9.28,0,0,1,3.7,3A9.87,9.87,0,0,1,77,13.18H74.15A7.89,7.89,0,0,0,72.46,10a7.65,7.65,0,0,0-2.68-2,8.07,8.07,0,0,0-3.34-.7A9.1,9.1,0,0,0,62,8.43a8.94,8.94,0,0,0-3.29,3.34,10.92,10.92,0,0,0-1.27,5.42,10.57,10.57,0,0,0,1.27,5.41A8.55,8.55,0,0,0,62,26a8.88,8.88,0,0,0,4.4,1.13,8.64,8.64,0,0,0,3.31-.64,7.33,7.33,0,0,0,2.69-2,7.77,7.77,0,0,0,1.68-3.17h2.79Z"/>
      <path class="cls-1" d="M85.13,2.87V6.58h-4V2.87ZM81.61,10.5h3V29.57h-3Z"/>
      <path class="cls-1" d="M128.61,14a6.08,6.08,0,0,0-1.29-2.13,5.51,5.51,0,0,0-2.08-1.33,7.87,7.87,0,0,0-2.74-.47,6.27,6.27,0,0,0-4.56,1.94,8.48,8.48,0,0,0-1.49,2.21,9.73,9.73,0,0,0-.53,1.63v-13h-3v26.7h3V18.26a8,8,0,0,1,.83-2.07A6.58,6.58,0,0,1,119,14a5.68,5.68,0,0,1,2.91-.8,4.76,4.76,0,0,1,2.29.5,3.13,3.13,0,0,1,1.38,1.49A5.54,5.54,0,0,1,126,17.6v12h3V16.83A7.85,7.85,0,0,0,128.61,14Z"/>
      <path class="cls-1" d="M147.55,23.43h2.85A7.41,7.41,0,0,1,149,26.77a7.51,7.51,0,0,1-2.74,2.33,8.63,8.63,0,0,1-3.9.82,9.18,9.18,0,0,1-4.81-1.27,9.55,9.55,0,0,1-3.4-3.51A10.66,10.66,0,0,1,133,20a10.67,10.67,0,0,1,1.18-5.11,9.2,9.2,0,0,1,3.32-3.54,9,9,0,0,1,4.73-1.29,8.21,8.21,0,0,1,4.7,1.27A7,7,0,0,1,149.74,15a13.92,13.92,0,0,1,.77,5.83H136a8.06,8.06,0,0,0,1,3.28,6.11,6.11,0,0,0,2.21,2.22,6.52,6.52,0,0,0,3.12.77,5.36,5.36,0,0,0,3.29-1A5,5,0,0,0,147.55,23.43ZM142.33,13a6,6,0,0,0-4,1.38,6.59,6.59,0,0,0-2.13,3.73h11.17a5.21,5.21,0,0,0-1.63-3.81A4.87,4.87,0,0,0,142.33,13Z"/>
      <path class="cls-1" d="M161,10.72a5.6,5.6,0,0,0-1.82,1.58A8.52,8.52,0,0,0,158,14.23a10.58,10.58,0,0,0-.5,1.46V10.5h-3V29.57h3v-11a8.25,8.25,0,0,1,.78-1.88,6.84,6.84,0,0,1,2.07-2.38,5.38,5.38,0,0,1,3.29-1V10.11A5.6,5.6,0,0,0,161,10.72Z"/>
      <path class="cls-1" d="M147.55,23.43h2.85A7.41,7.41,0,0,1,149,26.77a7.51,7.51,0,0,1-2.74,2.33,8.63,8.63,0,0,1-3.9.82,9.18,9.18,0,0,1-4.81-1.27,9.55,9.55,0,0,1-3.4-3.51A10.66,10.66,0,0,1,133,20a10.67,10.67,0,0,1,1.18-5.11,9.2,9.2,0,0,1,3.32-3.54,9,9,0,0,1,4.73-1.29,8.21,8.21,0,0,1,4.7,1.27A7,7,0,0,1,149.74,15a13.92,13.92,0,0,1,.77,5.83H136a8.06,8.06,0,0,0,1,3.28,6.11,6.11,0,0,0,2.21,2.22,6.52,6.52,0,0,0,3.12.77,5.36,5.36,0,0,0,3.29-1A5,5,0,0,0,147.55,23.43ZM142.33,13a6,6,0,0,0-4,1.38,6.59,6.59,0,0,0-2.13,3.73h11.17a5.21,5.21,0,0,0-1.63-3.81A4.87,4.87,0,0,0,142.33,13Z"/>
      <path class="cls-1" d="M107.63,14.92a9.47,9.47,0,0,0-3.43-3.48,9,9,0,0,0-4.53-1.22,9.3,9.3,0,0,0-4.59,1.22,8.46,8.46,0,0,0-2,1.52V10.5H90.18V37.19h3l-.06-9.72a9.29,9.29,0,0,0,1.91,1.4,9.17,9.17,0,0,0,4.59,1.19,9.2,9.2,0,0,0,8-4.58,10.47,10.47,0,0,0,1.3-5.31A10.19,10.19,0,0,0,107.63,14.92ZM105,24a6.2,6.2,0,0,1-2.3,2.38,6.11,6.11,0,0,1-3,.8,6.3,6.3,0,0,1-3-.8A6.39,6.39,0,0,1,94.22,24a8,8,0,0,1-.88-3.84,7.43,7.43,0,0,1,.91-3.84,6.11,6.11,0,0,1,5.36-3.24,6,6,0,0,1,3,.83,6.35,6.35,0,0,1,2.29,2.44,7.46,7.46,0,0,1,.91,3.81A7,7,0,0,1,105,24Z"/>
      <path class="cls-1" d="M197,4.78,186.26,26.5,175.59,4.78h-3.07V29.57h3.07V11.47l9.15,18.1h3L197,11.44V29.57h3V4.78Z"/>
      <path class="cls-1" d="M209.32,2.87V6.58h-4V2.87ZM205.8,10.5h3V29.57h-3Z"/>
      <path class="cls-1" d="M229.77,14a6.08,6.08,0,0,0-1.29-2.13,5.51,5.51,0,0,0-2.08-1.33,7.87,7.87,0,0,0-2.74-.47,6.27,6.27,0,0,0-4.56,1.94,8.48,8.48,0,0,0-1.49,2.21,8.88,8.88,0,0,0-.52,1.63V10.5H214V29.57h3.05V18.26a7.65,7.65,0,0,1,.82-2.07A6.52,6.52,0,0,1,220.13,14a5.62,5.62,0,0,1,2.9-.8,4,4,0,0,1,3.1,1.11,4.71,4.71,0,0,1,1,3.31v12h3V16.83A6.89,6.89,0,0,0,229.77,14Z"/>
      <path class="cls-1" d="M239,2.87V6.58H235V2.87Zm-3.51,7.63h3V29.57h-3Z"/>
      <path class="cls-1" d="M259.44,14a6.1,6.1,0,0,0-1.3-2.13,5.4,5.4,0,0,0-2.07-1.33,8,8,0,0,0-2.74-.47,6.47,6.47,0,0,0-2.49.5,6.4,6.4,0,0,0-2.07,1.44,8.76,8.76,0,0,0-1.5,2.21,9.72,9.72,0,0,0-.52,1.63V10.5h-3V29.57h3V18.26a7.66,7.66,0,0,1,.83-2.07A6.58,6.58,0,0,1,249.79,14a5.65,5.65,0,0,1,2.9-.8,4,4,0,0,1,3.1,1.11,4.71,4.71,0,0,1,1,3.31v12h3.05V16.83A7.65,7.65,0,0,0,259.44,14Z"/>
      <path class="cls-1" d="M281.78,13.79V10.5H274A7.86,7.86,0,0,0,264.89,14c-2.44,4.14-.83,10.44,3.95,12a5.11,5.11,0,0,0-3.65,1.05,3.05,3.05,0,0,0,1.88,5.19c2.46.72,7.13-.58,9.15,1.13a2.83,2.83,0,0,1,1,2.24c-.13,3-3.48,3.48-6.05,3.48-3.34-.11-5.58-.27-5.61-3.59h-3.07c0,2.35.63,3.95,1.93,4.84s3.6,1.35,6.89,1.35c5.67,0,8.87-1.41,9-5.36.39-4.81-2.82-6.82-7.24-6.77-.92-.11-4.59.28-5.31-.33a1.3,1.3,0,0,1,.69-2.24c1.85-.55,5.2-.16,7.11-1.38,4.72-2.43,5.5-10.33.83-13.35A13.28,13.28,0,0,0,281.78,13.79Zm-6,7.51a4.73,4.73,0,0,1-4.12,2.41,4.9,4.9,0,0,1-2.38-.61,4.64,4.64,0,0,1-1.8-1.8,5.66,5.66,0,0,1-.69-2.9,5.72,5.72,0,0,1,.69-2.93,4.9,4.9,0,0,1,1.8-1.79,4.55,4.55,0,0,1,2.38-.64,4.74,4.74,0,0,1,2.38.64,4.31,4.31,0,0,1,1.74,1.82,5.56,5.56,0,0,1,.69,2.9A5.61,5.61,0,0,1,275.78,21.3Z"/>
      <path class="cls-2" d="M5.53,11.05A5.53,5.53,0,1,0,0,5.53,5.53,5.53,0,0,0,5.53,11.05Z"/>
      <path class="cls-2" d="M16,22.38a5.53,5.53,0,1,0-5.53-5.52A5.52,5.52,0,0,0,16,22.38Z"/>
      <path class="cls-2" d="M16,33.71a5.53,5.53,0,1,0-5.53-5.53A5.52,5.52,0,0,0,16,33.71Z"/>
      <path class="cls-2" d="M27.37,11.05a5.53,5.53,0,1,0-5.53-5.52A5.53,5.53,0,0,0,27.37,11.05Z"/>
      <path class="cls-2" d="M27.37,22.38a5.53,5.53,0,1,0-5.53-5.52A5.53,5.53,0,0,0,27.37,22.38Z"/>
      <path class="cls-2" d="M27.37,33.71a5.53,5.53,0,1,0-5.53-5.53A5.53,5.53,0,0,0,27.37,33.71Z"/>
      <path class="cls-2" d="M38.71,11.05a5.53,5.53,0,1,0-5.53-5.52A5.53,5.53,0,0,0,38.71,11.05Z"/>
      <path class="cls-2" d="M38.71,22.38a5.53,5.53,0,1,0-5.53-5.52A5.53,5.53,0,0,0,38.71,22.38Z"/>
      <path class="cls-2" d="M38.71,33.71a5.53,5.53,0,1,0-5.53-5.53A5.53,5.53,0,0,0,38.71,33.71Z"/>
    </g>
  </g>
</svg>
