<svg width="920" height="920" viewBox="0 0 920 920" fill="none" xmlns="http://www.w3.org/2000/svg">
<g id="B24_record_2">
<g id="RotateLabelGraphic">
<path id="Vector" d="M536.539 437.465C539.937 414.831 522.686 402.652 499.118 394.541L506.75 363.891L488.088 359.249L480.647 389.086C475.742 387.865 470.693 386.717 465.692 385.569L473.181 355.517L454.519 350.875L446.862 381.525C442.795 380.592 438.823 379.683 434.947 378.726L434.971 378.63L409.226 372.194L404.249 392.124C404.249 392.124 418.103 395.307 417.815 395.498C425.376 397.388 426.74 402.389 426.501 406.361L417.791 441.293C418.318 441.437 418.988 441.628 419.729 441.916C419.107 441.772 418.438 441.581 417.768 441.437L405.565 490.367C404.632 492.664 402.287 496.109 397.023 494.793C397.215 495.056 383.457 491.396 383.457 491.396L374.197 512.762L398.483 518.815C403.005 519.94 407.431 521.136 411.786 522.261L404.058 553.27L422.696 557.911L430.353 527.238C435.449 528.625 440.378 529.893 445.235 531.09L437.603 561.62L456.265 566.262L463.994 535.301C495.816 541.33 519.743 538.89 529.816 510.106C537.927 486.921 529.409 473.57 512.66 464.837C524.887 462.062 534.075 454.046 536.539 437.465ZM493.878 497.258C488.112 520.442 449.087 507.905 436.43 504.771L446.671 463.689C459.352 466.847 499.907 473.092 493.878 497.258ZM499.668 437.13C494.404 458.209 461.936 447.49 451.384 444.882L460.668 407.629C471.219 410.237 505.147 415.142 499.668 437.13Z" fill="white"/>
</g>
</g>
</svg>
