<?xml version="1.0" encoding="UTF-8" standalone="no"?>
<!-- Created with Inkscape (http://www.inkscape.org/) -->

<svg
   version="1.1"
   id="svg2"
   width="478.89334"
   height="99.293335"
   viewBox="0 0 478.89334 99.293335"
   sodipodi:docname="SBGLogo_Black - Wayne Berkley.eps"
   xmlns:inkscape="http://www.inkscape.org/namespaces/inkscape"
   xmlns:sodipodi="http://sodipodi.sourceforge.net/DTD/sodipodi-0.dtd"
   xmlns="http://www.w3.org/2000/svg"
   xmlns:svg="http://www.w3.org/2000/svg">
  <defs
     id="defs6" />
  <sodipodi:namedview
     id="namedview4"
     pagecolor="#ffffff"
     bordercolor="#000000"
     borderopacity="0.25"
     inkscape:showpageshadow="2"
     inkscape:pageopacity="0.0"
     inkscape:pagecheckerboard="0"
     inkscape:deskcolor="#d1d1d1" />
  <g
     id="g8"
     inkscape:groupmode="layer"
     inkscape:label="ink_ext_XXXXXX"
     transform="matrix(1.3333333,0,0,-1.3333333,0,99.293333)">
    <g
       id="g10"
       transform="scale(0.1)">
      <path
         d="m 1239.21,448.598 c 0,0 0.52,12.355 -6.69,17.5 -7.19,5.14 -31.37,30.863 -5.65,54.523 0,0 37.54,16.465 34.97,-40.637 0,0 -6.67,-34.976 -22.63,-31.386"
         style="fill:#231f20;fill-opacity:1;fill-rule:nonzero;stroke:none"
         id="path12" />
      <path
         d="M 62.7656,152.824 186.734,197.57 c 0,0 5.661,-77.675 -67.898,-78.699 0,0 -43.2149,-4.629 -56.0704,33.953 z M 588.359,303.938 c 0,0 -6.554,107.25 84.493,116.898 0,0 33.179,2.305 13.375,-54.023 0,0 -12.864,-48.352 -22.122,-63.266 -9.257,-14.922 -13.503,-33.563 -39.089,-36.27 -26.871,-2.839 -36.657,36.661 -36.657,36.661 z m 471.461,28.546 c 0,0 -18.14,24.305 32.02,57.871 0,0 22.38,8.872 26.62,-16.207 0,0 6.17,-17.359 -29.32,-39.73 0,0 -20.97,-14.805 -29.32,-1.934 z M 121.418,78.2461 C 260.836,77.0938 297.855,255.707 297.855,255.707 l 4.118,1.543 c 15.429,4.121 61.722,28.289 61.722,28.289 l 0.52,-3.594 c -8.746,-77.683 28.808,-83.847 28.808,-83.847 C 441.371,182.66 527.789,248 527.789,248 c -1.031,-20.586 21.094,-52.469 49.379,-52.469 28.297,0 67.906,34.453 67.906,34.453 0,0 -1.023,-36.523 42.184,-34.98 43.211,1.551 82.82,52.996 85.137,58.387 2.312,5.402 5.398,0.773 5.398,0.773 0,-3.848 13.121,-55.547 77.16,-52.461 64.043,3.074 116.512,73.301 120.371,77.93 3.856,4.629 6.176,0 6.176,0 l -23.922,-77.93 h 48.622 l 28.54,79.473 h 22.38 c 0,-87.969 77.15,-74.856 77.15,-74.856 131.18,14.668 168.22,150.469 174.39,174.391 6.17,23.922 9.26,23.144 13.12,22.379 3.86,-0.777 10.03,-21.867 3.08,-78.184 -7.46,-60.547 -67.9,-78.457 -75.62,-79.23 -7.71,-0.77 -3.85,-15.43 -3.85,-15.43 81.79,-61.992 125.05,15.781 134.79,45.527 10.27,31.368 -0.01,112.133 -20.58,149.165 -13.03,23.453 -9.79,90.542 -9.79,90.542 l -8.74,3.598 c -36.02,-10.805 -25.71,-43.73 -49.37,-120.89 -23.66,-77.149 -44.24,-96.7 -82.29,-130.657 -38.08,-33.945 -64.82,-13.367 -72.04,-8.23 -7.19,5.156 -6.17,29.844 -9.25,36.015 -3.09,6.172 -6.19,8.231 -6.19,8.231 82.31,63.781 63.79,132.719 60.71,143.004 -3.09,10.281 -6.18,10.281 -6.18,10.281 0,0 -77.16,-41.152 -82.31,-42.176 -5.15,-1.031 -8.22,3.09 -8.22,3.09 l 95.68,292.184 -2.06,6.172 -54.53,-1.032 c 0,0 -47.07,-139.656 -87.19,-270.316 -40.135,-130.668 -85.654,-173.102 -135.037,-183.383 -49.383,-10.305 -55.551,18.516 -55.551,18.516 -19.547,86.414 38.071,126.543 38.071,126.543 48.343,26.738 42.171,-17.496 42.171,-17.496 -48.355,-1.028 -44.23,-40.121 -44.23,-40.121 11.293,-43.215 50.199,-26.653 67.367,-7.715 8.391,9.257 13.891,23.144 13.891,23.144 26.769,93.621 -52.461,96.711 -52.461,96.711 -101.852,-6.176 -138.383,-176.449 -138.383,-176.449 0,0 2.582,5.664 -11.824,-11.836 -14.399,-17.48 -35.11,-22.215 -46.285,-9.238 -12.871,14.914 51.429,174.879 51.429,174.879 v 5.156 h -46.289 l -3.086,-8.238 -6.175,3.082 C 575.637,503.133 529.848,299.945 523.68,289.66 c -6.172,-10.293 -38.582,-43.719 -67.391,-39.617 -20.285,2.91 -16.453,27.781 -15.43,45.273 1.032,17.489 43.204,134.774 43.204,134.774 h 34.98 l 11.32,30.863 h -40.129 l 25.723,76.133 H 447.023 L 421.305,459.918 H 381.184 L 371.93,433.18 h 41.148 c 0,0 -7.203,-26.75 -27.777,-85.395 -20.578,-58.64 -82.309,-62.754 -82.309,-62.754 4.121,18.516 8.231,175.922 12.352,238.684 4.117,62.758 15.429,139.914 51.433,159.461 36.012,19.551 88.485,-6.172 95.684,-8.231 7.203,-2.058 7.203,4.121 7.203,4.121 C 447.031,736.684 358.551,730.5 358.551,730.5 224.805,711.984 214.516,578.246 212.457,487.691 210.402,397.164 192.91,229.477 192.91,229.477 166.676,214.047 0.00390625,167.746 0.00390625,167.746 c 0,0 -3.07812625,-88.4843 121.41409375,-89.4999"
         style="fill:#231f20;fill-opacity:1;fill-rule:nonzero;stroke:none"
         id="path14" />
      <path
         d="m 3173.77,390.633 c 6.48,27.836 -9.82,29.453 -9.82,29.453 -43.19,2.934 -52.04,-83.434 -52.04,-83.434 33.38,0 54.99,24.536 61.86,53.981 z M 2502.66,268.441 c 61.21,2.618 75.35,75.086 75.35,75.086 10.92,55.024 -8.54,74.321 -24.51,81.067 -9.48,3.992 -17.72,3.586 -17.72,3.586 -100.84,-13.985 -89.8,-111.157 -89.8,-111.157 0,0 5.15,-50.789 56.68,-48.582 z m -230.9,46.629 c 37.28,153.664 -105,122.68 -105,122.68 -25.53,-152.133 -102.09,-197.289 -102.09,-197.289 0,0 174.71,-58.887 207.09,74.609 z m 18.16,249.293 c 47.01,124.696 -66.25,113.36 -66.25,113.36 l -42.71,-186.969 c 0,0 75.1,-16.199 108.96,73.609 z m -53.49,167.836 v 0 c 0,0 161.95,6.871 154.1,-113.855 0,0 -4.9,-90.305 -96.19,-132.508 l -1.98,-4.906 c 0,0 118.77,-36.309 63.81,-167.832 0,0 39.26,29.445 49.08,44.164 9.81,14.722 37.31,95.203 137.43,95.203 100.09,0 117.77,-89.313 100.09,-140.352 0,0 37.31,41.231 40.26,47.114 2.93,5.886 56.91,86.367 68.69,90.289 11.78,3.933 41.23,0.988 33.38,-16.676 -7.85,-17.672 -86.39,-135.445 -30.43,-162.934 0,0 31.41,-20.617 105.02,173.723 0,0 53.98,11.789 59.88,1.969 5.88,-9.813 -56.93,-128.575 -55.96,-144.278 0.98,-15.703 5.88,-45.144 46.14,-20.613 40.25,24.531 37.3,95.195 37.3,106.977 0,11.777 -0.97,46.132 5.9,52.027 6.86,5.887 34.34,30.43 54.94,-23.563 20.61,-53.976 30.43,-51.035 30.43,-51.035 0,0 1.95,-1.961 5.9,2.942 3.93,4.906 56.91,93.242 130.53,91.285 73.61,-1.969 78.53,-84.41 41.23,-116.797 0,0 -29.44,-34.355 -106,-33.371 0,0 -11.8,-78.524 43.18,-69.688 54.97,8.829 146.24,157.047 167.82,207.09 0,0 1.99,1.969 10.8,-2.933 8.83,-4.914 52.03,-20.621 98.16,-26.5 0,0 4.9,-0.993 5.9,-5.899 0.96,-4.898 3.91,-32.39 0,-39.258 -3.94,-6.863 -65.76,-46.132 -56.95,-102.07 0,0 23.57,-27.488 54.96,13.742 31.42,41.219 55.98,91.274 59.88,159.985 3.93,68.707 22.58,75.566 31.43,76.558 8.81,0.981 12.75,-8.84 12.75,-17.672 0,-8.828 1.97,-40.25 5.88,-53.984 3.93,-13.734 60.84,-118.754 45.16,-166.852 0,0 -9.83,-78.515 -69.69,-81.464 0,0 -55.96,2.949 -69.69,31.406 0,0 -0.99,9.816 6.86,10.793 7.87,0.984 78.53,13.75 68.73,121.707 0,0 -3.95,36.32 -9.83,36.32 -5.9,0 -4.92,0.985 -5.9,-14.723 -0.97,-15.707 -29.43,-153.109 -142.3,-185.503 0,0 -59.88,-14.715 -43.18,70.664 0,0 17.65,70.675 33.36,77.539 0,0 1.95,5.89 -2.95,6.867 -4.91,0.988 -27.48,3.93 -27.48,10.801 0,0 -6.88,0.988 -7.86,-3.922 -0.97,-4.914 -88.34,-170.778 -200.21,-162.934 -111.9,7.852 -100.12,109.93 -91.29,135.449 l -26.5,43.184 c 0,0 -54.01,-176.672 -149.2,-181.574 0,0 -46.14,-0.985 -52.03,57.91 0,0 -49.05,-66.758 -82.45,-55.945 -33.34,10.8 -46.11,42.195 -33.34,109.922 0,0 -0.99,3.933 -6.89,0 -5.88,-3.926 -54.96,-48.086 -66.74,-57.903 -11.78,-9.824 -28.46,-51.043 -123.65,-49.082 -95.22,1.973 -95.22,101.094 -90.31,114.836 0,0 -106.02,-127.598 -267.95,-140.351 l -223.79,2.949 53,61.824 c 0,0 19.26,-5.887 29.45,2.949 10.19,8.84 49.07,74.602 64.78,134.465 15.72,59.875 62.83,292.488 62.83,292.488 l -34.36,-2.945 c 0,0 34.36,40.246 51.04,45.148 16.68,4.911 73.61,18.657 105.02,19.633"
         style="fill:#231f20;fill-opacity:1;fill-rule:nonzero;stroke:none"
         id="path16" />
      <path
         d="m 1302.15,290.227 -3.19,2.461 3.19,-2.461"
         style="fill:#eeedab;fill-opacity:1;fill-rule:nonzero;stroke:none"
         id="path18" />
      <path
         d="m 1300.76,291.176 -0.03,0.047 -1.78,1.445 -0.02,-0.047 1.83,-1.445"
         style="fill:#eeedab;fill-opacity:1;fill-rule:nonzero;stroke:none"
         id="path20" />
      <path
         d="m 1725.03,734.059 c 7.82,3.75 16.44,10.625 22.82,10.625 0,-7.211 -3.81,-23.875 -4.32,-29.75 -1.14,-12.575 -0.96,-26.914 0,-39.539 2.11,-28.379 7.44,-56.903 12.76,-82.278 1.85,-8.91 2.77,-16.211 5.1,-24.859 3.39,-12.707 6.97,-26.473 11.46,-38.891 3.56,-9.82 8.99,-18.504 10.86,-29.996 0.5,-3.32 1.53,-10.637 0,-14.012 -2.54,-5.492 -18.56,-6.382 -24.88,-8.929 -8.17,-3.289 -15.85,-10.34 -19.77,-17.852 -15.27,-29.051 -1.31,-77.957 26.79,-82.902 5.25,-0.922 13.37,-1.172 17.21,1.269 4.31,2.793 7.57,12.688 3.83,19.121 -1.46,2.543 -4.75,4.563 -7.01,6.383 -6.03,4.852 -13.08,11.485 -26.15,8.93 -1.05,-0.184 -3.45,-2.211 -4.47,-2.547 -1.77,-0.578 -2.54,-0.125 -4.45,-0.633 2.48,9.508 8.73,23.172 18.49,24.864 6.04,1.066 11.6,-0.301 17.21,0.636 1.14,0.203 5.09,1.227 6.38,1.914 2.21,1.266 3.19,4.785 5.74,5.742 3.04,1.211 8.03,0.274 10.85,0 14.59,-1.3 25.06,-4.468 33.79,-11.484 11.02,-8.82 17.05,-22.297 19.12,-40.168 1.25,-10.519 0.66,-24.105 0.66,-35.695 0,-6.828 0.39,-13.731 -0.66,-19.785 -2.32,-13.34 -7.4,-27.239 -13.37,-37.618 -3.57,-6.113 -9.66,-10.089 -14.04,-15.312 -2.85,-3.371 -5.02,-7.285 -8.29,-10.195 -5.92,-5.215 -21.57,-14.356 -29.98,-16.582 -3.63,-0.957 -6.78,-1.036 -10.2,-1.914 -0.42,-3.672 -0.53,-7.461 0,-12.122 2.26,-19.55 15.82,-31.082 35.72,-33.152 12.44,-1.281 25.92,1.727 34.43,-3.203 5.14,-2.949 6.87,-7.676 8.3,-14.66 -1.4,0.879 -2.68,0.988 -3.83,1.914 -3.98,3.32 -6.13,6.562 -11.48,7.031 0.53,-3.113 2.31,-7.351 1.28,-11.472 l -1.28,-1.926 h -1.27 c -1.59,0.558 -3.19,4.59 -4.46,5.734 -4.33,3.809 -13.57,8.719 -20.42,9.57 -6.87,0.86 -14.3,-0.5 -20.4,0.645 -8.35,1.562 -17.12,5.391 -28.7,3.828 -4.98,-0.664 -12.45,-3.613 -15.95,-6.379 l -2.55,-4.472 h -3.18 c -10.21,14.394 19.63,13.066 21.68,21.679 1.21,5.117 -3.91,15.176 -5.1,19.121 -2.91,9.492 -5.61,17.285 -8.94,25.508 -1.07,2.637 -1.17,4.766 -2.55,7.024 -3.42,5.585 -9.96,9.609 -14.03,14.668 -2.77,3.445 -4.44,7.226 -7.01,10.828 -0.93,1.3 -2.88,2.558 -3.83,3.839 -7.67,10.379 -13.99,19.032 -25.5,25.516 h -2.54 c 0,-8.992 1.33,-19.199 0,-28.055 -2.04,-13.429 -15.31,-24.23 -26.16,-29.347 -1.78,-0.848 -4.68,-2.84 -7,-3.184 -5.63,-0.84 -12.21,0 -17.87,0 2.07,-14.062 7.09,-23.875 10.84,-35.711 1.49,-4.765 1.68,-9.836 3.83,-14.035 0.61,-1.172 3.88,-5.184 5.09,-5.742 4.75,-2.176 16.15,-0.567 21.05,0 13.4,1.562 22.61,3.996 33.16,-1.258 5.45,-2.734 7.32,-3.312 7.66,-11.496 l -2.56,0.645 c -0.92,0.578 -1.71,2.531 -2.54,3.183 -2.84,2.258 -8.55,5.481 -12.76,5.734 -5.79,0.391 -6.5,-3.253 -6.37,-3.183 l 0.63,-1.262 c 3.78,-3.015 5,-3.711 5.74,-10.222 -7.49,3.484 -14.64,8.378 -24.22,9.578 -8.62,1.105 -18.21,-0.508 -27.42,0.644 -4.19,0.528 -8.88,3.43 -12.78,3.82 -7.84,0.79 -15.77,-3.429 -19.76,-7.011 -1.04,-0.91 -2.01,-2.317 -3.18,-3.196 -0.65,-0.437 -0.36,-0.996 -0.65,-1.914 l -3.18,1.27 -1.92,1.269 c -5.58,12.422 27.27,1.633 24.24,21.68 -1.08,7.129 -6.3,13.879 -8.92,19.777 -4.93,10.977 -9.69,20.43 -14.04,31.883 -1.23,3.274 -3.61,7.082 -4.46,10.852 -2.28,9.902 2.31,14.226 8.28,17.851 -2.21,8.465 -5.62,15.282 -7.64,22.969 -1.36,5.106 -1.79,9.852 -3.18,14.012 h -1.94 c -1.52,-0.586 -2.77,-3.789 -3.8,-5.098 -8.95,-11.113 -15.54,-23.465 -22.97,-36.355 -2.11,-3.586 -5.31,-6.836 -7.65,-10.188 -2.98,-4.16 -5.06,-8.261 -8.29,-12.129 -1.05,-1.211 -2.79,-1.953 -3.83,-3.183 -1.29,-1.531 -1.65,-3.164 -3.19,-4.473 -16.93,-14.246 -47.15,-29.5 -79.07,-22.312 -17.44,3.945 -29.03,10.996 -38.27,22.968 -0.86,1.075 -2.49,2.02 -3.18,3.172 -4.84,7.93 -8.57,27.168 -5.1,40.821 4.65,18.351 23.93,56.984 49.1,50.996 1.83,-0.418 8.66,-2.703 10.2,-3.809 l 1.27,-2.547 c -7.79,-5.469 -15.04,-11.836 -23.59,-16.574 -7.68,-4.246 -16.29,-6.316 -23.6,-10.84 l -1.27,-1.922 c -1.15,-0.851 -2.3,-0.781 -3.19,-1.914 -3.21,-4.035 -3.79,-8.586 -4.47,-15.312 -2.32,-22.512 3.8,-33.75 15.95,-43.996 3.66,-3.086 7.44,-6.856 12.11,-8.934 10.85,-4.797 27.84,-6.262 43.37,-4.453 58.84,6.816 60.68,79.246 91.19,115.41 9.54,11.328 23.74,20.668 40.82,24.246 5.26,1.117 10.47,2.043 15.3,2.543 1.32,0.176 3.2,-0.476 4.47,0 l 0.63,1.266 c -11.71,8.316 -27.32,11.402 -35.7,22.965 -3.42,4.675 -5.57,8.57 -6.39,15.945 9.19,-2.695 17.09,-5.07 26.15,-8.281 1.9,-0.668 4.97,-2.942 7.01,-3.184 4.05,-0.512 3.83,1.262 3.83,1.262 -13.05,7.621 -27.24,13.992 -37.62,24.234 -1.28,1.281 -3.75,2.793 -4.47,4.465 -0.64,1.5 -0.2,2.258 -0.63,3.809 -1.34,4.625 -2.32,8.066 -2.55,14.05 8.21,-2.656 14.93,-6.445 22.31,-9.582 2.54,-1.043 3.86,-0.765 6.38,-1.91 2.82,-1.242 6.97,-4.551 10.2,-5.098 4.11,-0.648 2.78,1.184 1.26,2.54 -3.14,2.929 -6.96,4.179 -10.82,6.394 -8.07,4.68 -19.07,12.234 -24.88,19.121 -4.61,5.481 -8.91,11.762 -8.91,21.688 2.46,-0.727 3.43,-1.114 5.08,-1.922 9.04,-4.235 17.19,-8.242 26.16,-12.731 2.28,-1.152 5.23,-3.843 7.65,-4.484 1.12,-0.277 2.04,0.305 3.2,0 -1.49,1.203 -2.9,3.418 -4.48,4.484 -13.04,8.77 -29.12,14.828 -36.34,29.325 l -1.92,2.535 c -1.4,4.418 0.8,7.871 0.65,10.851 -0.06,0.442 1.38,1.946 1.19,2.903 1.58,-0.118 1.11,0.773 2.64,0.289 1.1,-0.34 2.8,-3.114 3.81,-3.825 2.15,-1.515 4.02,-1.843 6.37,-3.183 1.11,-0.637 2.72,-2.578 3.84,-3.192 9.97,-5.527 20.13,-10.566 31.88,-14.039 -1.36,1.309 -2.41,3.336 -3.83,4.469 -2.1,1.68 -4.2,2.227 -6.37,3.828 -10.97,8.086 -22.74,16.821 -31.25,27.426 -2.51,3.121 -6.56,6.481 -7.01,11.469 -0.46,4.566 1.5,9.941 2.56,14.035 l 2.54,1.269 c 8.87,-6.683 17.24,-13.492 26.78,-19.765 6.66,-4.36 12.63,-9.215 21.68,-11.485 v 1.278 c -4.18,2.351 -6.74,6.023 -10.22,8.933 -11.04,9.329 -21.59,17.961 -29.96,29.969 -1.86,2.688 -5.43,6.188 -5.74,10.199 -0.34,4.395 3.64,12.821 5.1,16.582 7.97,-6.242 14.09,-13.378 21.68,-19.765 5.78,-4.871 12.07,-8.535 18.51,-12.754 1.69,-1.117 7.26,-5.965 8.94,-6.371 h 1.89 c -4.86,6.867 -11.33,11.617 -16.57,17.851 -6.11,7.258 -12.16,13.942 -17.86,21.672 -3.09,4.184 -8.3,9.692 -8.91,15.949 -0.72,6.915 4.62,14.68 7.29,19.036 l 1.62,0.097 c 0.5,-1.441 3.52,-3.207 4.45,-4.465 0.92,-1.234 0.94,-2.625 1.93,-3.836 2.87,-3.578 6.58,-6.656 9.55,-10.195 8.96,-10.621 17.33,-22.433 31.27,-28.051 -7.02,9.911 -13.69,19.696 -21.04,29.317 -5.63,7.336 -20.42,20.976 -18.52,34.453 0.43,3.008 3.17,6.055 4.48,8.281 2.94,5.098 5.65,9.969 10.21,13.391 h 1.27 c 0.94,-1.817 2.39,-3.613 3.19,-5.098 4.05,-7.715 6.01,-16.066 10.18,-23.601 3.91,-7.008 8.62,-14.563 13.41,-21.039 0.93,-1.266 2.89,-2.528 3.82,-3.829 3.83,-5.398 4.93,-7.964 10.21,-12.121 -9.97,21.489 -22.31,44.707 -26.13,71.426 -0.58,3.82 -2.04,8.488 -0.67,12.758 2.4,7.355 14.28,16.383 21.06,19.773 h 1.29 l 0.61,-1.922 c 0.56,-2.363 -0.18,-5.214 0,-7.656 0.49,-6.547 1.84,-14.199 3.2,-21.047 3.62,-18.316 11.47,-41.519 21.05,-54.187 -3.33,12.527 -6.74,27.551 -8.3,40.812 -1.92,16.235 -3.62,60.035 8.93,62.489"
         style="fill:#781c1e;fill-opacity:1;fill-rule:nonzero;stroke:none"
         id="path22" />
      <path
         d="m 2655.73,71.3125 c -0.3,3.5742 -0.75,8.9258 -7.2,14.668 -10.36,8.9258 -23.4,9.8242 -31.95,9.8242 -5.4,0 -19.5,-0.3828 -30.15,-6.5039 -20.55,-11.7383 -23.25,-33.4297 -23.25,-42.6094 0,-13.0156 4.51,-25.8984 15.15,-35.0781 7.65,-6.64064 19.35,-11.484394 39.3,-11.484394 18.45,0 32.25,3.828124 38.55,5.617184 V 51.1563 h -39.75 v -10.586 h 24.75 V 13.2656 c -3.45,-0.8906 -11.25,-2.9297 -23.55,-2.9297 -10.8,0 -21.75,2.168 -28.8,9.0508 -7.95,8.0391 -9.89,21.1836 -9.89,28.9649 0,8.6718 2.1,20.664 11.54,29.5898 5.7,5.4883 14.25,7.7852 24.45,7.7852 14.7,0 22.8,-5.8711 24.45,-14.4141 z m 41.4,-69.14062 h 15.45 l 11.7,23.98442 h 50.25 l 11.7,-23.98442 h 16.35 l -43.8,92.09762 h -16.05 z m 52.95,79.47262 19.95,-45.1562 h -40.95 z m 94.2,-79.47262 h 65.25 V 13.5273 h -50.4 v 80.7422 h -14.85 z m 109.65,0 h 65.25 V 13.5273 h -50.4 v 80.7422 h -14.85 z m 107.1,0 h 69.15 V 13.4023 h -54.15 v 30.6055 h 50.4 v 10.7227 h -50.4 v 28.6992 h 52.95 v 10.8398 h -67.95 z m 119.4,0 h 14.84 V 43.7539 h 18.91 c 18.15,0 21.9,-3.8281 23.7,-17.2187 1.05,-7.0196 2.55,-18.24223 4.94,-24.36332 h 16.06 c -4.2,10.20312 -5.26,18.11332 -6.75,28.95312 -1.5,11.4844 -6.15,15.4414 -16.5,17.7344 3.3,0.7617 8.1,2.0429 12.75,5.9961 4.79,4.082 7.65,9.8242 7.65,16.3281 0,7.3945 -3.9,14.4141 -12.01,18.75 -7.94,4.3359 -19.34,4.3359 -24.89,4.3359 h -38.7 z m 14.55,81.38672 h 23.7 c 6,0 21.59,0 21.59,-14.9219 0,-7.6562 -5.24,-10.9765 -7.34,-11.9922 -4.05,-2.0429 -12.6,-2.0429 -14.25,-2.0429 h -23.7 z M 3307.03,2.17188 h 15 V 94.2695 h -15 z m 66.14,0 h 69.16 V 13.4023 h -54.16 v 30.6055 h 50.41 v 10.7227 h -50.41 v 28.6992 h 52.95 v 10.8398 h -67.95 z m 114.91,26.91402 c 0,-4.4648 0.14,-11.8671 6.3,-18.625 8.55,-9.30465 25.35,-10.45699375 33.6,-10.45699375 27.74,0 42.74,12.37109375 42.74,28.69919375 0,3.8282 -0.75,12.7539 -10.8,18.3711 -6.3,3.5742 -9.15,4.0821 -34.94,9.6953 -13.2,2.6758 -19.5,5.4805 -19.5,13.6446 0,9.1875 8.99,14.9297 23.99,14.9297 10.66,0 22.05,-2.5469 22.81,-14.0313 h 15.59 c -0.29,3.8281 -0.59,10.0781 -6.6,15.6914 -8.69,8.0391 -23.24,9.0547 -30.44,9.0547 -20.4,0 -41.25,-8.1641 -41.25,-26.9141 0,-6.125 2.39,-13.0195 11.25,-18.1172 5.55,-3.1914 12.9,-4.7148 29.4,-8.164 15.14,-3.1914 24.9,-5.2344 24.9,-15.5664 0,-4.5899 -2.85,-16.4531 -25.35,-16.4531 -24.91,0 -25.8,11.8632 -26.11,18.2421 h -15.59"
         style="fill:#231f20;fill-opacity:1;fill-rule:nonzero;stroke:none"
         id="path24" />
    </g>
  </g>
</svg>
