<svg xmlns="http://www.w3.org/2000/svg" viewBox="0 0 623.85 80.12"><defs><style>.cls-1{fill:#020a0a;}</style></defs><title>Asset 1</title><g id="Layer_2" data-name="Layer 2"><g id="MD_JANISKA"><path class="cls-1" d="M89.53,49.52c-.2-4.13-1.53-8-5.25-10.33a14.33,14.33,0,0,0-2.34-1.11s.52-.38.8-.62a32.85,32.85,0,0,0,3.09-3.34,13.42,13.42,0,0,0,2.36-7.78c0-4.78,0-6.1,0-10.61S86.63,9.09,84.33,6.5C80.14,1.8,74.29.34,68.51.26,53.52,0,3.42.08,3.42.08A3.42,3.42,0,0,0,0,3.49V76.71a3.42,3.42,0,0,0,3.42,3.41h54c7.2,0,13-.38,19.28-2.05,8.09-2.15,12.18-7.53,12.81-15.23A100.34,100.34,0,0,0,89.53,49.52ZM17,16.21a1.76,1.76,0,0,1,1.76-1.77H68.3A3.53,3.53,0,0,1,71.83,18v10.2A3.53,3.53,0,0,1,68.3,31.7H18.77A1.76,1.76,0,0,1,17,29.94ZM72.59,61.78a3.53,3.53,0,0,1-3.53,3.53H18.77A1.76,1.76,0,0,1,17,63.54V47.15a1.76,1.76,0,0,1,1.76-1.76H69.06a3.53,3.53,0,0,1,3.53,3.53Z"/><path class="cls-1" d="M133.18,0a1.64,1.64,0,0,0-1.64,1.63V12.8a1.65,1.65,0,0,0,1.64,1.64s33.42,0,36,0c2.14,0,2.34.27,2.41,2.46,0,.65,0,61.25,0,61.25a1.65,1.65,0,0,0,1.64,1.64h13.54a1.65,1.65,0,0,0,1.64-1.64V17.52c0-3,.08-3.07,3-3.07,4.3,0,34.8.06,34.8.06a1.64,1.64,0,0,0,1.64-1.63V1.71A1.65,1.65,0,0,0,226.2.07Z"/><rect class="cls-1" x="103.94" y="0.12" width="16.82" height="79.69" rx="1.77"/><rect class="cls-1" x="487.77" y="0.12" width="16.82" height="79.69" rx="2.82"/><path class="cls-1" d="M355.47.12H342.19a1.31,1.31,0,0,0-1.33.61L297.48,60S254.53,1.34,254.1.73a1.32,1.32,0,0,0-1.33-.61H239.48a1.78,1.78,0,0,0-1.77,1.77V78a1.78,1.78,0,0,0,1.77,1.77h13.29A1.77,1.77,0,0,0,254.53,78V30.91l.86,1.18,34.4,47a1.87,1.87,0,0,0,1.69.73h12a1.9,1.9,0,0,0,1.69-.73l34.39-47,.86-1.18V78a1.78,1.78,0,0,0,1.77,1.77h13.28A1.77,1.77,0,0,0,357.24,78V1.89A1.77,1.77,0,0,0,355.47.12Z"/><path class="cls-1" d="M429.43.82a1.69,1.69,0,0,0-1.55-.73h-11a1.69,1.69,0,0,0-1.55.73S364.39,76.34,364.39,78c-.32,1.22.73,1.77,1.62,1.77h15.33a1.17,1.17,0,0,0,1.22-.61c.4-.61,37.88-56.34,38.41-57.12l1.41-2.11,1.42,2.11c.52.78,38,56.51,38.4,57.12a1.17,1.17,0,0,0,1.22.61h15.33c.89,0,1.94-.55,1.62-1.77C480.37,76.34,429.43.82,429.43.82Z"/><path class="cls-1" d="M622.08.12H608.8A1.77,1.77,0,0,0,607,1.89V56.06c-.44-.35-70.91-54.81-71.52-55.27A2.53,2.53,0,0,0,533.7.12H522.39a2.76,2.76,0,0,0-2.76,2.75V77.06a2.76,2.76,0,0,0,2.76,2.75H533.7a2.76,2.76,0,0,0,2.75-2.75V22.91c.58.44,1.18.89,1.62,1.24l69.48,55.14h0a1.74,1.74,0,0,0,1.25.52h13.28A1.78,1.78,0,0,0,623.85,78V1.89A1.78,1.78,0,0,0,622.08.12Z"/></g></g></svg>