<svg width="292" height="37" viewBox="0 0 292 37" fill="none" xmlns="http://www.w3.org/2000/svg">
<g clip-path="url(#clip0_137_72)">
<mask id="mask0_137_72" style="mask-type:luminance" maskUnits="userSpaceOnUse" x="0" y="0" width="292" height="37">
<path d="M292 0H0V37H292V0Z" fill="white"/>
</mask>
<g mask="url(#mask0_137_72)">
<path d="M35.7126 22.7009C33.2916 32.4927 23.4543 38.4523 13.7409 36.0103C4.03114 33.5688 -1.87955 23.6507 0.543025 13.8594C2.96355 4.06608 12.8004 -1.89396 22.5112 0.54753C32.2235 2.98852 38.1337 12.9081 35.7126 22.7009ZM26.1212 15.675C26.4818 13.2431 24.6453 11.9354 22.1336 11.0631L22.9486 7.76861L20.9595 7.26886L20.1659 10.4767C19.6429 10.3449 19.106 10.2213 18.5722 10.0986L19.3714 6.86946L17.3832 6.36971L16.5677 9.66322C16.1353 9.56387 15.7101 9.46554 15.2977 9.36215L15.2998 9.35201L12.5565 8.66117L12.0273 10.8031C12.0273 10.8031 13.5037 11.1442 13.4725 11.1655C14.2778 11.3683 14.4238 11.9055 14.3992 12.3318L13.4709 16.085C13.5268 16.0992 13.5985 16.12 13.6779 16.1519C13.6118 16.1352 13.5406 16.1169 13.4679 16.0992L12.1672 21.3572C12.0683 21.6041 11.8183 21.9741 11.2553 21.8337C11.2753 21.8631 9.80967 21.4698 9.80967 21.4698L8.82199 23.7653L11.4105 24.4161C11.8921 24.5377 12.3639 24.6649 12.8285 24.7851L12.0053 28.1176L13.9924 28.6174L14.8075 25.3203C15.3505 25.4688 15.8771 25.6057 16.393 25.7349L15.5805 29.0168L17.5697 29.5165L18.3929 26.1901C21.7847 26.8373 24.3354 26.5763 25.4091 23.4835C26.2739 20.9928 25.3661 19.5564 23.5813 18.6198C24.881 18.3177 25.8594 17.4555 26.1212 15.675ZM21.5762 22.1003C20.9615 24.5909 16.8023 23.2448 15.454 22.9072L16.5462 18.492C17.895 18.8316 22.2186 19.5032 21.5762 22.1003ZM22.1915 15.639C21.6305 17.9046 18.1691 16.7535 17.0461 16.4712L18.0364 12.4671C19.1593 12.7494 22.7755 13.276 22.1915 15.639Z" fill="#FF9500"/>
<path d="M53.1237 11.0624C54.5934 11.0624 55.8639 11.328 56.9309 11.8496C58.0037 12.3762 58.8889 13.0858 59.5984 13.9778C60.2987 14.8749 60.8202 15.9231 61.1567 17.1243C61.4913 18.3286 61.6588 19.6236 61.6588 21.0098C61.6588 23.1396 61.2715 25.1513 60.4903 27.0474C59.709 28.9471 58.6491 30.5944 57.3008 31.9994C55.9535 33.4028 54.3624 34.5093 52.5279 35.3268C50.6965 36.1444 48.7052 36.5534 46.567 36.5534C46.2903 36.5534 45.8042 36.5458 45.1177 36.5311C44.4308 36.5169 43.6419 36.4454 42.7577 36.3248C41.8683 36.2001 40.9278 36.0151 39.935 35.7668C38.9422 35.5235 37.9996 35.1829 37.1118 34.7495L45.0501 1.11956L52.1601 0.00854492L49.3179 11.9428C49.9265 11.6666 50.5397 11.4522 51.1514 11.2961C51.7641 11.1425 52.4208 11.0624 53.1237 11.0624ZM47.1592 30.8665C48.2304 30.8665 49.2396 30.601 50.1868 30.0794C51.1381 29.5574 51.9582 28.8528 52.6452 27.9745C53.3327 27.0925 53.8767 26.0996 54.2732 24.9896C54.6692 23.8796 54.8705 22.722 54.8705 21.5172C54.8705 20.0372 54.6246 18.8831 54.1359 18.0483C53.6467 17.2171 52.742 16.7989 51.4285 16.7989C50.9982 16.7989 50.4429 16.8821 49.7554 17.0301C49.0654 17.1872 48.4476 17.5131 47.8943 18.0037L44.8677 30.6775C45.0501 30.7099 45.2115 30.7408 45.3493 30.7702C45.484 30.8017 45.6331 30.824 45.7817 30.8392C45.9384 30.8569 46.1182 30.866 46.3349 30.866C46.5521 30.866 46.8236 30.8665 47.1592 30.8665Z" fill="white"/>
<path d="M69.034 35.9087H62.2427L67.9777 11.5774H74.8156L69.034 35.9087ZM72.3387 8.61288C71.3905 8.61288 70.5309 8.32854 69.7686 7.75833C68.9997 7.19168 68.619 6.31939 68.619 5.144C68.619 4.49727 68.7492 3.89107 69.0079 3.31833C69.2701 2.74711 69.6129 2.25547 70.0421 1.83732C70.4709 1.42272 70.9678 1.09124 71.5324 0.841868C72.1 0.596046 72.704 0.473389 73.3474 0.473389C74.2946 0.473389 75.1496 0.757731 75.9149 1.32794C76.6772 1.90068 77.0614 2.77296 77.0614 3.94227C77.0614 4.59103 76.9318 5.20027 76.6705 5.77148C76.4118 6.3427 76.0691 6.83435 75.6393 7.2525C75.2141 7.66761 74.7126 7.99757 74.1496 8.24491C73.5815 8.49479 72.9796 8.61288 72.3387 8.61288Z" fill="white"/>
<path d="M80.7645 5.51458L87.8776 4.40356L86.1312 11.576H93.7488L92.3733 17.2182H84.8008L82.7845 25.7287C82.5985 26.4383 82.493 27.1008 82.4633 27.7166C82.4305 28.3355 82.5078 28.8666 82.6912 29.3137C82.8736 29.7623 83.202 30.1079 83.6779 30.3522C84.1512 30.6006 84.8295 30.7258 85.7188 30.7258C86.4514 30.7258 87.1655 30.6553 87.8555 30.5159C88.5415 30.3791 89.2372 30.1885 89.9405 29.9386L90.4467 35.2144C89.5292 35.5535 88.5353 35.8455 87.4647 36.0913C86.3919 36.3401 85.1225 36.4603 83.6548 36.4603C81.5453 36.4603 79.9095 36.1445 78.7446 35.5155C77.5807 34.8819 76.758 34.0167 76.2657 32.9209C75.7801 31.8292 75.5628 30.5712 75.6238 29.1535C75.6863 27.7323 75.8989 26.2386 76.2657 24.6654L80.7645 5.51458Z" fill="white"/>
<path d="M93.4502 26.1934C93.4502 24.0976 93.7868 22.1214 94.4594 20.2714C95.1305 18.4193 96.0977 16.8 97.3527 15.4102C98.6027 14.0275 100.126 12.9317 101.92 12.1273C103.704 11.328 105.702 10.9246 107.905 10.9246C109.283 10.9246 110.514 11.0558 111.597 11.3194C112.685 11.585 113.669 11.9281 114.56 12.3589L112.217 17.728C111.605 17.4781 110.97 17.2576 110.313 17.0574C109.657 16.8537 108.854 16.7554 107.905 16.7554C105.638 16.7554 103.846 17.543 102.512 19.1132C101.184 20.685 100.515 22.8 100.515 25.4529C100.515 27.0256 100.852 28.2973 101.527 29.27C102.199 30.2426 103.44 30.7267 105.242 30.7267C106.132 30.7267 106.99 30.6329 107.812 30.4499C108.641 30.2649 109.372 30.0318 110.016 29.7565L110.523 35.2604C109.664 35.5965 108.717 35.8996 107.678 36.1657C106.637 36.4221 105.397 36.5549 103.96 36.5549C102.062 36.5549 100.456 36.2751 99.1421 35.7237C97.8276 35.1641 96.7416 34.4211 95.8866 33.4799C95.0265 32.5361 94.4092 31.4342 94.027 30.1696C93.6449 28.9061 93.4502 27.5786 93.4502 26.1934Z" fill="white"/>
<path d="M123.618 36.5549C121.997 36.5549 120.589 36.3061 119.395 35.8129C118.204 35.3202 117.217 34.6284 116.437 33.7313C115.656 32.8392 115.072 31.7819 114.671 30.5634C114.27 29.346 114.078 27.9973 114.078 26.5198C114.078 24.6663 114.373 22.8132 114.97 20.9652C115.563 19.1132 116.444 17.4492 117.61 15.9708C118.767 14.4892 120.194 13.2784 121.875 12.3346C123.553 11.3964 125.484 10.9246 127.653 10.9246C129.244 10.9246 130.645 11.1744 131.855 11.6671C133.061 12.1592 134.053 12.8567 134.838 13.7487C135.614 14.6453 136.204 15.6981 136.601 16.9181C137 18.134 137.197 19.4858 137.197 20.9647C137.197 22.8122 136.906 24.6652 136.328 26.5188C135.749 28.3632 134.891 30.0313 133.758 31.5138C132.627 32.9923 131.213 34.2026 129.515 35.1428C127.819 36.083 125.851 36.5549 123.618 36.5549ZM127.012 16.7559C126.006 16.7559 125.116 17.0508 124.353 17.6327C123.589 18.2217 122.946 18.9622 122.428 19.8547C121.905 20.7514 121.516 21.7296 121.254 22.7924C120.994 23.8578 120.867 24.8649 120.867 25.8214C120.867 27.3657 121.114 28.568 121.599 29.4332C122.092 30.2943 122.976 30.7272 124.262 30.7272C125.271 30.7272 126.157 30.4347 126.924 29.8463C127.684 29.2619 128.327 28.5208 128.849 27.6268C129.369 26.7342 129.761 25.7534 130.023 24.6891C130.28 23.6267 130.411 22.614 130.411 21.6591C130.411 20.1193 130.165 18.914 129.675 18.0498C129.185 17.1892 128.296 16.7559 127.012 16.7559Z" fill="white"/>
<path d="M144.598 35.9087H137.801L143.536 11.5774H150.377L144.598 35.9087ZM147.898 8.61288C146.95 8.61288 146.092 8.32854 145.33 7.75833C144.565 7.19168 144.181 6.31939 144.181 5.144C144.181 4.49727 144.313 3.89107 144.572 3.31833C144.831 2.74711 145.176 2.25547 145.605 1.83732C146.032 1.42272 146.533 1.09124 147.096 0.841868C147.661 0.596046 148.265 0.473389 148.905 0.473389C149.856 0.473389 150.713 0.757731 151.477 1.32794C152.241 1.90068 152.627 2.77296 152.627 3.94227C152.627 4.59103 152.49 5.20027 152.233 5.77148C151.977 6.3427 151.631 6.83435 151.204 7.2525C150.773 7.66761 150.278 7.99757 149.714 8.24491C149.145 8.49479 148.542 8.61288 147.898 8.61288Z" fill="white"/>
<path d="M155.274 12.6849C155.79 12.5328 156.365 12.3498 156.991 12.1512C157.619 11.9525 158.321 11.7675 159.105 11.6007C159.881 11.4289 160.756 11.289 161.719 11.1816C162.682 11.0711 163.778 11.0173 164.997 11.0173C168.579 11.0173 171.048 12.069 172.411 14.1659C173.773 16.2627 174.009 19.1325 173.125 22.7696L170 35.9072H163.165L166.192 23.0464C166.377 22.243 166.523 21.467 166.63 20.7083C166.738 19.9566 166.732 19.2942 166.605 18.7204C166.485 18.1538 166.2 17.69 165.758 17.3306C165.311 16.9774 164.634 16.7995 163.715 16.7995C162.83 16.7995 161.928 16.8958 161.009 17.0808L156.558 35.9067H149.719L155.274 12.6849Z" fill="white"/>
<path d="M26.2019 15.6288C26.5661 13.1893 24.7127 11.8781 22.179 11.0033L23.0012 7.6991L20.9941 7.19783L20.1939 10.4148C19.6662 10.283 19.1242 10.1588 18.5858 10.0357L19.3922 6.79742L17.3861 6.29614L16.5639 9.59928C16.1269 9.49943 15.6986 9.4011 15.2821 9.2972L15.2847 9.28706L12.5168 8.5942L11.9831 10.7427C11.9831 10.7427 13.4723 11.0849 13.4405 11.1061C14.2535 11.3094 14.4005 11.8482 14.3759 12.2759L13.4395 16.0403C13.4953 16.0545 13.568 16.0753 13.648 16.1072C13.5814 16.0905 13.5096 16.0723 13.4359 16.0545L12.1239 21.3278C12.024 21.5756 11.772 21.9466 11.2039 21.8057C11.2239 21.8351 9.74541 21.4408 9.74541 21.4408L8.74902 23.7434L11.3606 24.3957C11.8463 24.5179 12.3227 24.6456 12.7914 24.7657L11.961 28.1079L13.9656 28.6092L14.7878 25.3025C15.3354 25.4515 15.8672 25.5894 16.3871 25.7186L15.5675 29.0101L17.5746 29.5114L18.405 26.1753C21.827 26.824 24.4002 26.5625 25.4832 23.4601C26.3561 20.9623 25.4402 19.5219 23.6395 18.5822C24.9504 18.2791 25.9376 17.4144 26.2019 15.6288ZM21.6165 22.0733C20.9966 24.5711 16.8005 23.2209 15.4399 22.8823L16.5418 18.4544C17.9025 18.7945 22.2645 19.4681 21.6165 22.0733ZM22.2374 15.5928C21.6713 17.865 18.1791 16.7104 17.0464 16.4276L18.0454 12.4118C19.178 12.6946 22.8265 13.2227 22.2374 15.5928Z" fill="white"/>
<path d="M289.852 25.8314C289.416 27.5871 289.291 29.3582 289.478 31.1446C289.665 32.9004 290.023 34.4715 290.552 35.8576L284.341 36.7352C284.155 36.3656 283.983 36.0114 283.828 35.6726C283.672 35.3337 283.516 34.9488 283.36 34.5177C282.489 35.2261 281.524 35.8115 280.465 36.2734C279.407 36.7352 278.224 36.9664 276.916 36.9664C275.359 36.9664 274.021 36.7045 272.9 36.1811C271.81 35.6264 270.908 34.9026 270.192 34.0091C269.507 33.0854 269.008 32.0227 268.697 30.8212C268.386 29.5894 268.23 28.2801 268.23 26.894C268.23 24.7687 268.604 22.7664 269.351 20.8872C270.129 19.0084 271.188 17.3757 272.526 15.9896C273.896 14.5727 275.5 13.464 277.336 12.6632C279.173 11.862 281.166 11.4617 283.314 11.4617C283.594 11.4617 284.076 11.477 284.761 11.5078C285.477 11.5386 286.287 11.616 287.19 11.739C288.093 11.8313 289.042 12.0009 290.038 12.247C291.035 12.4936 291.984 12.8324 292.887 13.2635L289.852 25.8314ZM284.995 17.3296C284.59 17.2681 284.217 17.2219 283.874 17.1912C283.563 17.1604 283.174 17.1451 282.707 17.1451C281.648 17.1451 280.652 17.4065 279.718 17.9304C278.815 18.4538 278.021 19.1468 277.336 20.0096C276.651 20.841 276.107 21.8114 275.702 22.9202C275.328 24.0295 275.142 25.1844 275.142 26.3855C275.142 27.8644 275.391 29.0347 275.889 29.8969C276.387 30.7597 277.305 31.1908 278.644 31.1908C279.36 31.1908 279.998 31.0524 280.558 30.775C281.15 30.4977 281.773 30.0358 282.427 29.3889C282.489 28.619 282.582 27.8177 282.707 26.9863C282.862 26.1241 283.018 25.3382 283.174 24.6298L284.995 17.3296Z" fill="#FF9500"/>
<path d="M245.984 13.1251C246.513 12.9713 247.089 12.8017 247.711 12.6166C248.365 12.4013 249.081 12.2162 249.86 12.0625C250.669 11.8774 251.556 11.739 252.521 11.6467C253.517 11.5232 254.639 11.4617 255.884 11.4617C259.558 11.4617 262.079 12.5089 263.449 14.6035C264.819 16.6981 265.052 19.5631 264.15 23.1975L260.974 36.3195H254.016L257.098 23.4749C257.285 22.6741 257.424 21.9037 257.518 21.1645C257.643 20.3945 257.643 19.7322 257.518 19.1781C257.393 18.5927 257.098 18.1303 256.631 17.792C256.195 17.4219 255.51 17.2373 254.576 17.2373C253.673 17.2373 252.755 17.3296 251.821 17.5147L247.291 36.3195H240.333L245.984 13.1251Z" fill="#FF9500"/>
<path d="M216.97 26.8017C216.97 24.8302 217.313 22.9202 217.998 21.0722C218.714 19.2242 219.71 17.5915 220.987 16.1747C222.263 14.727 223.804 13.5716 225.61 12.7094C227.446 11.8159 229.47 11.3694 231.681 11.3694C232.771 11.3694 233.782 11.5232 234.716 11.8313C235.65 12.1393 236.459 12.5863 237.144 13.1712C237.86 13.7566 238.405 14.4805 238.779 15.3432C239.184 16.1747 239.386 17.1297 239.386 18.2077C239.386 19.9327 238.997 21.3957 238.218 22.5967C237.44 23.7983 236.351 24.7841 234.95 25.554C233.58 26.2932 231.945 26.8325 230.046 27.1713C228.147 27.5102 226.077 27.6793 223.835 27.6793C224.053 28.9732 224.52 29.8974 225.236 30.4516C225.983 30.9755 227.151 31.2369 228.739 31.2369C229.735 31.2369 230.747 31.16 231.774 31.0062C232.802 30.8212 233.767 30.5592 234.669 30.2209L235.183 35.6264C234.311 35.9653 233.191 36.2734 231.821 36.5507C230.482 36.828 229.019 36.9664 227.431 36.9664C225.501 36.9664 223.866 36.7045 222.527 36.1811C221.22 35.6264 220.146 34.8872 219.305 33.963C218.496 33.0393 217.904 31.9612 217.531 30.7289C217.157 29.4966 216.97 28.1878 216.97 26.8017ZM230.56 16.8216C228.972 16.8216 227.571 17.3911 226.357 18.5312C225.174 19.64 224.396 21.1183 224.022 22.9668C225.952 22.9048 227.509 22.751 228.692 22.5045C229.875 22.2271 230.793 21.9037 231.447 21.5341C232.101 21.1645 232.537 20.7641 232.755 20.333C232.973 19.9019 233.082 19.4703 233.082 19.0392C233.082 17.5608 232.241 16.8216 230.56 16.8216Z" fill="#FF9500"/>
<path d="M181.726 12.7291C182.256 12.5753 182.816 12.4057 183.407 12.2206C184.03 12.0053 184.715 11.8202 185.462 11.6665C186.24 11.4814 187.097 11.343 188.031 11.2507C188.996 11.1272 190.101 11.0657 191.346 11.0657C192.841 11.0657 194.07 11.2507 195.035 11.6203C196.032 11.9899 196.935 12.5441 197.744 13.2838C198.896 12.6368 200.033 12.113 201.153 11.7126C202.305 11.2815 203.644 11.0657 205.169 11.0657C206.632 11.0657 207.878 11.2661 208.905 11.6665C209.964 12.0361 210.835 12.5907 211.52 13.3299C212.205 14.0383 212.703 14.9006 213.015 15.9171C213.326 16.9028 213.482 17.9963 213.482 19.1978C213.482 19.752 213.435 20.3374 213.342 20.9535C213.279 21.5692 213.17 22.1854 213.015 22.8015L209.839 35.9235H202.881L205.963 23.0789C206.057 22.6477 206.15 22.17 206.243 21.6466C206.368 21.092 206.43 20.5532 206.43 20.0293C206.43 19.1671 206.228 18.4274 205.823 17.8117C205.418 17.1648 204.625 16.8413 203.441 16.8413C202.787 16.8413 202.165 16.9644 201.573 17.2109C200.982 17.4267 200.453 17.6574 199.985 17.904C200.048 18.1506 200.079 18.3812 200.079 18.597V19.1978C200.079 19.752 200.033 20.3374 199.939 20.9535C199.877 21.5692 199.768 22.1854 199.612 22.8015L196.436 35.9235H189.478L192.56 23.0789C192.654 22.6477 192.747 22.17 192.841 21.6466C192.965 21.092 193.027 20.5532 193.027 20.0293C193.027 19.1671 192.825 18.4274 192.421 17.8117C192.016 17.1648 191.222 16.8413 190.039 16.8413C189.54 16.8413 189.12 16.8721 188.778 16.9336C188.435 16.9644 188.031 17.0259 187.564 17.1187L183.034 35.9235H176.076L181.726 12.7291Z" fill="#FF9500"/>
</g>
</g>
<defs>
<clipPath id="clip0_137_72">
<rect width="292" height="37" fill="white"/>
</clipPath>
</defs>
</svg>
