<svg width="12" height="12" viewBox="0 0 12 12" fill="none" xmlns="http://www.w3.org/2000/svg"><path d="M11.5781 5.53105L5.675 0.407617C5.62969 0.368555 5.57188 0.34668 5.51094 0.34668H4.12813C4.0125 0.34668 3.95938 0.49043 4.04688 0.56543L9.51875 5.31543H0.375C0.30625 5.31543 0.25 5.37168 0.25 5.44043V6.37793C0.25 6.44668 0.30625 6.50293 0.375 6.50293H9.51719L4.04531 11.2529C3.95781 11.3295 4.01094 11.4717 4.12656 11.4717H5.55625C5.58594 11.4717 5.61562 11.4607 5.6375 11.4404L11.5781 6.2873C11.6322 6.24027 11.6756 6.18217 11.7053 6.11694C11.735 6.05171 11.7504 5.98086 11.7504 5.90918C11.7504 5.8375 11.735 5.76665 11.7053 5.70142C11.6756 5.63619 11.6322 5.57809 11.5781 5.53105V5.53105Z" fill="currentColor"/></svg>