<svg width="184" height="33" viewBox="0 0 184 33" fill="none" xmlns="http://www.w3.org/2000/svg">
<path d="M179.424 13.018C179.124 13.018 178.846 12.964 178.59 12.856C178.334 12.748 178.11 12.598 177.918 12.406C177.726 12.21 177.576 11.984 177.468 11.728C177.364 11.472 177.312 11.196 177.312 10.9C177.312 10.604 177.366 10.328 177.474 10.072C177.582 9.816 177.732 9.592 177.924 9.4C178.116 9.204 178.34 9.052 178.596 8.944C178.856 8.836 179.136 8.782 179.436 8.782C179.736 8.782 180.014 8.836 180.27 8.944C180.53 9.048 180.754 9.196 180.942 9.388C181.134 9.58 181.282 9.804 181.386 10.06C181.494 10.312 181.548 10.588 181.548 10.888C181.548 11.188 181.494 11.468 181.386 11.728C181.278 11.984 181.126 12.21 180.93 12.406C180.738 12.598 180.514 12.748 180.258 12.856C180.002 12.964 179.724 13.018 179.424 13.018ZM180.198 12.112L179.592 11.176H179.916L180.522 12.112H180.198ZM179.418 12.796C179.69 12.796 179.94 12.748 180.168 12.652C180.396 12.552 180.596 12.416 180.768 12.244C180.944 12.072 181.08 11.87 181.176 11.638C181.272 11.402 181.32 11.152 181.32 10.888C181.32 10.62 181.272 10.372 181.176 10.144C181.084 9.916 180.952 9.716 180.78 9.544C180.612 9.372 180.412 9.24 180.18 9.148C179.952 9.052 179.704 9.004 179.436 9.004C179.164 9.004 178.912 9.052 178.68 9.148C178.448 9.244 178.246 9.38 178.074 9.556C177.906 9.728 177.774 9.928 177.678 10.156C177.582 10.384 177.534 10.632 177.534 10.9C177.534 11.164 177.582 11.412 177.678 11.644C177.774 11.872 177.906 12.074 178.074 12.25C178.246 12.422 178.446 12.556 178.674 12.652C178.906 12.748 179.154 12.796 179.418 12.796ZM178.602 12.112V9.688H179.538C179.838 9.688 180.072 9.762 180.24 9.91C180.412 10.054 180.498 10.248 180.498 10.492C180.498 10.748 180.412 10.948 180.24 11.092C180.072 11.236 179.838 11.308 179.538 11.308H178.914V12.112H178.602ZM178.908 11.044H179.52C179.732 11.044 179.896 10.996 180.012 10.9C180.132 10.804 180.192 10.668 180.192 10.492C180.192 10.32 180.132 10.188 180.012 10.096C179.896 10 179.732 9.952 179.52 9.952H178.908V11.044Z" fill="url(#paint0_linear_201_648)"/>
<path d="M115.89 13.4892H113.458C113.28 13.4892 113.154 13.6182 113.154 13.7989C113.154 13.7989 113.128 13.8247 113.128 13.8505C112.748 15.7082 111.38 17.2306 109.481 17.2306C108.138 17.2306 106.871 17.6434 105.807 18.3401V6.98701C105.807 6.8064 105.655 6.65158 105.478 6.65158H103.046C102.869 6.65158 102.717 6.8064 102.717 6.98701V26.9065C102.717 27.0871 102.869 27.242 103.046 27.242H105.478C105.655 27.242 105.807 27.0871 105.807 26.9065V24.094C105.807 22.0299 107.454 20.3527 109.481 20.3527C111.507 20.3527 113.154 22.0299 113.154 24.094V26.9065C113.154 27.0871 113.306 27.242 113.483 27.242H115.915C116.092 27.242 116.244 27.0871 116.244 26.9065V24.0682C116.244 21.9524 115.282 20.0431 113.787 18.8045C115.18 17.6176 116.118 15.8889 116.219 13.9279C116.219 13.9021 116.219 13.8763 116.219 13.8505C116.219 13.8763 116.219 13.9021 116.219 13.8505C116.219 13.8505 116.219 13.8505 116.219 13.8247C116.194 13.644 116.067 13.4892 115.89 13.4892Z" fill="url(#paint1_linear_201_648)"/>
<path d="M64.1368 13.515C62.7942 13.515 61.5276 13.9279 60.4636 14.6245V6.98701C60.4636 6.8064 60.3116 6.65158 60.1343 6.65158H57.7024C57.525 6.65158 57.373 6.8064 57.373 6.98701V26.9065C57.373 27.0871 57.525 27.242 57.7024 27.242H60.1343C60.3116 27.242 60.4636 27.0871 60.4636 26.9065V26.1324C61.5276 26.8291 62.7689 27.242 64.1368 27.242C67.8607 27.242 70.8753 24.1715 70.8753 20.3785C70.8753 16.5855 67.8607 13.515 64.1368 13.515ZM64.1368 24.094C62.1102 24.094 60.4636 22.4169 60.4636 20.3527C60.4636 18.2885 62.1102 16.6113 64.1368 16.6113C66.1634 16.6113 67.81 18.2885 67.81 20.3527C67.7847 22.4427 66.1634 24.094 64.1368 24.094Z" fill="url(#paint2_linear_201_648)"/>
<path d="M156.067 13.4892H153.635C153.458 13.4892 153.306 13.644 153.306 13.8247V14.5987C152.242 13.9021 151.001 13.4892 149.633 13.4892C145.909 13.4892 142.895 16.5597 142.895 20.3527C142.895 24.1456 145.909 27.2161 149.633 27.2161C150.976 27.2161 152.242 26.8033 153.306 26.1066V26.9065C153.306 27.0871 153.458 27.2419 153.635 27.2419H156.067C156.245 27.2419 156.397 27.0871 156.397 26.9065V13.7989C156.371 13.6182 156.245 13.4892 156.067 13.4892ZM149.633 24.0682C147.606 24.0682 145.96 22.3911 145.96 20.3269C145.96 18.2627 147.606 16.5855 149.633 16.5855C151.66 16.5855 153.306 18.2627 153.306 20.3269C153.306 22.3911 151.66 24.0682 149.633 24.0682Z" fill="url(#paint3_linear_201_648)"/>
<path d="M160.917 13.4892H158.486C158.308 13.4892 158.156 13.644 158.156 13.8247V26.9323C158.156 27.1129 158.308 27.2677 158.486 27.2677H160.917C161.095 27.2677 161.247 27.1129 161.247 26.9323V13.7989C161.221 13.6182 161.095 13.4892 160.917 13.4892Z" fill="url(#paint4_linear_201_648)"/>
<path d="M75.2192 6.65158H72.7873C72.61 6.65158 72.458 6.8064 72.458 6.98701V26.9065C72.458 27.0871 72.61 27.242 72.7873 27.242H75.2192C75.3966 27.242 75.5486 27.0871 75.5486 26.9065V6.98701C75.5232 6.8064 75.3966 6.65158 75.2192 6.65158Z" fill="url(#paint5_linear_201_648)"/>
<path d="M83.8439 13.515C80.12 13.515 77.1055 16.5855 77.1055 20.3784C77.1055 24.1714 80.12 27.2419 83.8439 27.2419C87.5678 27.2419 90.5823 24.1714 90.5823 20.3784C90.5823 16.5855 87.5678 13.515 83.8439 13.515ZM83.8439 24.094C81.8173 24.094 80.1707 22.4168 80.1707 20.3526C80.1707 18.2884 81.8173 16.6113 83.8439 16.6113C85.8705 16.6113 87.5171 18.2884 87.5171 20.3526C87.5171 22.4426 85.8705 24.094 83.8439 24.094Z" fill="url(#paint6_linear_201_648)"/>
<path d="M97.9035 16.6371C98.5875 16.6371 99.2208 16.8177 99.7781 17.1532C99.8541 17.179 99.9048 17.179 99.9808 17.1274L102.007 15.1406C102.083 15.0632 102.083 14.96 102.007 14.8826C100.867 14.0053 99.4741 13.4892 97.9289 13.4892C94.205 13.4892 91.1904 16.5597 91.1904 20.3527C91.1904 24.1456 94.205 27.2161 97.9289 27.2161C99.4488 27.2161 100.867 26.7001 101.982 25.8228C102.058 25.7454 102.083 25.668 102.007 25.5648L100.031 23.5522C99.9808 23.5006 99.9048 23.5006 99.8288 23.5264C99.2715 23.8618 98.6382 24.0682 97.9289 24.0682C95.9023 24.0682 94.2557 22.3911 94.2557 20.3269C94.2557 18.3143 95.8769 16.6371 97.9035 16.6371Z" fill="url(#paint7_linear_201_648)"/>
<path d="M135.37 13.5408C134.028 13.5408 132.761 13.9537 131.722 14.6503V6.98701C131.722 6.8064 131.57 6.65158 131.393 6.65158H128.961C128.784 6.65158 128.632 6.8064 128.632 6.98701V20.0947C128.632 20.1979 128.632 20.3011 128.632 20.3785V26.9065C128.632 27.0871 128.784 27.242 128.961 27.242H131.393C131.57 27.242 131.722 27.0871 131.722 26.9065V20.1721C131.849 18.2111 133.42 16.6629 135.37 16.6629C137.397 16.6629 139.043 18.3401 139.043 20.4043V26.9323C139.043 27.1129 139.195 27.2678 139.373 27.2678H141.805C141.982 27.2678 142.134 27.1129 142.134 26.9323V20.2753C142.134 20.2495 142.134 20.2495 142.134 20.2237C142.033 16.5081 139.043 13.5408 135.37 13.5408Z" fill="url(#paint8_linear_201_648)"/>
<path d="M176.433 20.0947C176.281 16.4308 173.317 13.5151 169.694 13.5151C168.352 13.5151 167.085 13.9279 166.021 14.6246V13.7989C166.021 13.6183 165.869 13.4635 165.692 13.4635H163.26C163.083 13.4635 162.931 13.6183 162.931 13.7989V26.9066C162.931 27.0872 163.083 27.242 163.26 27.242H165.692C165.869 27.242 166.021 27.0872 166.021 26.9066V20.3785C166.021 18.3143 167.668 16.6372 169.694 16.6372C171.721 16.6372 173.368 18.3143 173.368 20.3785V26.9066C173.368 27.0872 173.52 27.242 173.697 27.242H176.129C176.306 27.242 176.458 27.0872 176.458 26.9066V20.1721C176.433 20.1463 176.433 20.1205 176.433 20.0947Z" fill="url(#paint9_linear_201_648)"/>
<path d="M123.768 16.6371C124.452 16.6371 125.085 16.8177 125.642 17.1532C125.718 17.179 125.769 17.179 125.845 17.1274L127.872 15.1406C127.948 15.0632 127.948 14.96 127.872 14.8826C126.732 14.0053 125.338 13.4892 123.793 13.4892C120.069 13.4892 117.055 16.5597 117.055 20.3527C117.055 24.1456 120.069 27.2161 123.793 27.2161C125.313 27.2161 126.732 26.7001 127.846 25.8228C127.922 25.7454 127.948 25.668 127.872 25.5648L125.896 23.5522C125.845 23.5006 125.769 23.5006 125.693 23.5264C125.136 23.8618 124.502 24.0682 123.793 24.0682C121.767 24.0682 120.12 22.3911 120.12 20.3269C120.095 18.2885 121.741 16.6371 123.768 16.6371Z" fill="url(#paint10_linear_201_648)"/>
<path d="M160.689 12.7152H158.638C158.359 12.7152 158.131 12.483 158.131 12.1992V10.1092C158.131 9.82533 158.359 9.59311 158.638 9.59311H160.689C160.968 9.59311 161.196 9.82533 161.196 10.1092V12.1992C161.221 12.483 160.968 12.7152 160.689 12.7152Z" fill="url(#paint11_linear_201_648)"/>
<path d="M47.9966 25.6666C47.9966 25.4072 47.9199 25.3035 47.6388 25.3035C37.4854 25.3035 27.3322 25.3288 17.1787 25.2973L17.1787 32.7625C27.3153 32.7625 37.4506 32.6925 47.5877 32.6925C47.8688 32.6925 47.9966 32.6406 47.9966 32.3034C47.9966 30.2027 47.9966 27.8451 47.9966 25.6666Z" fill="url(#paint12_linear_201_648)"/>
<path d="M47.997 32.7267H17.1787V25.3226L47.997 25.3043V32.7267Z" fill="url(#paint13_linear_201_648)"/>
<path d="M36.5742 9.42512C35.7309 10.255 34.8621 11.1109 34.0188 11.9408C31.2079 14.7418 28.397 17.5687 25.5861 20.3697C24.615 21.3552 23.644 22.3407 22.5963 23.2744C21.1397 24.5452 19.4021 25.1158 17.4855 25.1417C15.9012 25.1417 14.4446 24.7008 13.1158 23.819C10.8415 22.2889 9.58941 20.1103 9.43609 17.3353C9.33387 15.6495 9.74273 14.0934 10.586 12.667C11.5571 11.0331 12.937 9.89195 14.7002 9.21764C15.9779 8.72488 17.3067 8.5952 18.661 8.80268C18.891 8.82862 19.121 8.90642 19.351 8.95829C19.6576 9.03609 19.7343 9.37325 19.5298 9.60666C18.3544 10.7997 17.1533 12.0186 15.9779 13.2116C15.0324 14.1712 14.138 15.1049 13.2181 16.0645L10.9949 18.3208C10.8927 18.4245 10.8671 18.5542 10.9182 18.6839C11.5315 21.1477 13.448 23.0928 15.8756 23.7153C16.0034 23.7412 16.1056 23.7153 16.2078 23.6375L29.9302 9.68447C30.1091 9.50292 30.288 9.32138 30.4669 9.13983C30.7224 8.88049 30.7224 8.69894 30.518 8.46553C29.8791 7.66154 29.2914 6.80569 28.6014 6.07951C26.9404 4.29 24.9472 3.04512 22.6985 2.2152C21.3953 1.74837 20.0409 1.43715 18.661 1.35935C16.6167 1.20374 14.598 1.46309 12.6303 2.1374C10.4582 2.86358 8.51615 4.03065 6.88071 5.63862C4.88751 7.5578 3.48205 9.86601 2.71544 12.5632C2.48545 13.3413 2.33213 14.1193 2.22992 14.9233C1.99993 16.4276 2.02549 17.9577 2.28102 19.5138C2.40879 20.629 2.74099 21.6924 3.1243 22.7557C4.19756 25.6085 5.98632 27.9167 8.38838 29.7322C10.2794 31.1586 12.3748 32.0663 14.6746 32.4813C16.1823 32.7666 17.7155 32.8444 19.2487 32.6369C20.8331 32.4294 22.3663 32.0923 23.8484 31.4698C24.845 31.0549 25.765 30.5362 26.5316 29.7581C28.0904 28.1761 29.6491 26.5941 31.2335 25.038C33.1756 23.1447 35.1432 21.2515 37.0853 19.3841C39.0274 17.5168 40.995 15.6495 42.9371 13.8081C44.5215 12.278 46.1313 10.7478 47.7157 9.1917C47.869 9.06203 47.9712 8.80268 47.9712 8.5952C47.9968 6.36479 47.9712 4.10845 47.9968 1.87805C47.9968 1.59276 47.9201 1.48902 47.639 1.48902C47.4601 1.48902 47.2813 1.48902 47.0768 1.48902H46.4635C46.4124 1.48902 46.3869 1.48902 46.3358 1.48902H43.2182H43.1927H42.426C42.3494 1.46309 42.2727 1.48902 42.1961 1.48902H40.9184C40.8928 1.48902 40.8928 1.48902 40.8673 1.48902C38.9507 1.48902 37.0342 1.48902 35.1177 1.48902H31.6423C29.6747 1.48902 27.7326 1.48902 25.765 1.48902C25.3561 1.48902 25.2028 1.98179 25.5605 2.2152C26.0716 2.50049 26.6082 2.78577 27.0938 3.14886C29.1381 4.57528 30.7735 6.29365 32.0256 8.47219C32.1534 8.70561 32.3067 8.78341 32.5623 8.78341C33.8144 8.78341 36.2931 8.80935 36.2931 8.80935C36.5742 8.80935 36.7946 9.102 36.5742 9.42512Z" fill="url(#paint14_linear_201_648)"/>
<path d="M36.301 8.79999C36.6076 8.82592 36.812 9.16308 36.5309 9.4743C35.6877 10.3042 34.8188 11.1601 33.9756 11.99C32.3912 13.572 26.9994 19.0184 25.415 20.6004H35.8098C36.8575 19.5889 41.996 14.7132 43.0437 13.7017C44.6281 12.1715 46.2295 10.6414 47.8138 9.08527C47.8905 9.00747 47.8976 8.90373 47.9487 8.79999L36.301 8.79999Z" fill="url(#paint15_linear_201_648)"/>
<defs>
<linearGradient id="paint0_linear_201_648" x1="179.97" y1="13.1304" x2="176.205" y2="8.47443" gradientUnits="userSpaceOnUse">
<stop offset="0.00520833" stop-color="#398BF5"/>
<stop offset="1" stop-color="#45B7F4"/>
</linearGradient>
<linearGradient id="paint1_linear_201_648" x1="110.752" y1="27.6896" x2="97.543" y2="14.8117" gradientUnits="userSpaceOnUse">
<stop offset="0.00520833" stop-color="#398BF5"/>
<stop offset="1" stop-color="#45B7F4"/>
</linearGradient>
<linearGradient id="paint2_linear_201_648" x1="65.3933" y1="27.6896" x2="52.1849" y2="14.8364" gradientUnits="userSpaceOnUse">
<stop offset="0.00520833" stop-color="#398BF5"/>
<stop offset="1" stop-color="#45B7F4"/>
</linearGradient>
<linearGradient id="paint3_linear_201_648" x1="150.915" y1="27.5409" x2="142.679" y2="15.5427" gradientUnits="userSpaceOnUse">
<stop offset="0.00520833" stop-color="#398BF5"/>
<stop offset="1" stop-color="#45B7F4"/>
</linearGradient>
<linearGradient id="paint4_linear_201_648" x1="159.992" y1="27.5673" x2="154.693" y2="25.8035" gradientUnits="userSpaceOnUse">
<stop offset="0.00520833" stop-color="#398BF5"/>
<stop offset="1" stop-color="#45B7F4"/>
</linearGradient>
<linearGradient id="paint5_linear_201_648" x1="74.2938" y1="27.6896" x2="68.6858" y2="26.4405" gradientUnits="userSpaceOnUse">
<stop offset="0.00520833" stop-color="#398BF5"/>
<stop offset="1" stop-color="#45B7F4"/>
</linearGradient>
<linearGradient id="paint6_linear_201_648" x1="85.1106" y1="27.5403" x2="76.8907" y2="15.5646" gradientUnits="userSpaceOnUse">
<stop offset="0.00520833" stop-color="#398BF5"/>
<stop offset="1" stop-color="#45B7F4"/>
</linearGradient>
<linearGradient id="paint7_linear_201_648" x1="97.6495" y1="27.5146" x2="88.9546" y2="17.2934" gradientUnits="userSpaceOnUse">
<stop offset="0.00520833" stop-color="#398BF5"/>
<stop offset="1" stop-color="#45B7F4"/>
</linearGradient>
<linearGradient id="paint8_linear_201_648" x1="136.652" y1="27.7159" x2="123.428" y2="14.8633" gradientUnits="userSpaceOnUse">
<stop offset="0.00520833" stop-color="#398BF5"/>
<stop offset="1" stop-color="#45B7F4"/>
</linearGradient>
<linearGradient id="paint9_linear_201_648" x1="170.966" y1="27.5415" x2="162.715" y2="15.5208" gradientUnits="userSpaceOnUse">
<stop offset="0.00520833" stop-color="#398BF5"/>
<stop offset="1" stop-color="#45B7F4"/>
</linearGradient>
<linearGradient id="paint10_linear_201_648" x1="123.514" y1="27.5146" x2="114.819" y2="17.2934" gradientUnits="userSpaceOnUse">
<stop offset="0.00520833" stop-color="#398BF5"/>
<stop offset="1" stop-color="#45B7F4"/>
</linearGradient>
<linearGradient id="paint11_linear_201_648" x1="159.953" y1="12.7831" x2="158.083" y2="10.0583" gradientUnits="userSpaceOnUse">
<stop offset="0.00520833" stop-color="#398BF5"/>
<stop offset="1" stop-color="#45B7F4"/>
</linearGradient>
<linearGradient id="paint12_linear_201_648" x1="35.4843" y1="32.9248" x2="33.9609" y2="23.5923" gradientUnits="userSpaceOnUse">
<stop offset="0.00520833" stop-color="#398BF5"/>
<stop offset="1" stop-color="#45B7F4"/>
</linearGradient>
<linearGradient id="paint13_linear_201_648" x1="35.4845" y1="32.8881" x2="33.9781" y2="23.6063" gradientUnits="userSpaceOnUse">
<stop offset="0.00520833" stop-color="#398BF5"/>
<stop offset="1" stop-color="#45B7F4"/>
</linearGradient>
<linearGradient id="paint14_linear_201_648" x1="29.3511" y1="33.4376" x2="14.0033" y2="0.168148" gradientUnits="userSpaceOnUse">
<stop offset="0.00520833" stop-color="#398BF5"/>
<stop offset="1" stop-color="#45B7F4"/>
</linearGradient>
<linearGradient id="paint15_linear_201_648" x1="38.7999" y1="20.8569" x2="34.0471" y2="7.389" gradientUnits="userSpaceOnUse">
<stop offset="0.00520833" stop-color="#398BF5"/>
<stop offset="1" stop-color="#45B7F4"/>
</linearGradient>
</defs>
</svg>
