<svg width="405" height="45" viewBox="0 0 405 45" fill="none" xmlns="http://www.w3.org/2000/svg">
<path d="M13.4662 33.925H5.77629C2.59156 33.925 0 31.3319 0 28.1454C0 27.3682 0.635533 26.7323 1.4123 26.7323C2.18906 26.7323 2.82459 27.3682 2.82459 28.1454C2.82459 29.7704 4.14509 31.0988 5.77629 31.0988H13.4662C15.0904 31.0988 16.4179 29.7775 16.4179 28.1454V3.79766C16.4179 3.02045 17.0535 2.38456 17.8302 2.38456C18.607 2.38456 19.2425 3.02045 19.2425 3.79766V28.1454C19.2425 31.3319 16.651 33.925 13.4662 33.925Z" fill="#3D82C0"/>
<path d="M13.4662 33.2184H5.77629C2.97995 33.2184 0.70615 30.9433 0.70615 28.1454C0.70615 27.7568 1.02392 27.4388 1.4123 27.4388C1.80068 27.4388 2.11845 27.7568 2.11845 28.1454C2.11845 30.1591 3.75671 31.8053 5.77629 31.8053H13.4662C15.4788 31.8053 17.1241 30.1661 17.1241 28.1454V3.79766C17.1241 3.40906 17.4419 3.09111 17.8302 3.09111C18.2186 3.09111 18.5364 3.40906 18.5364 3.79766V28.1454C18.5364 30.9433 16.2626 33.2184 13.4662 33.2184Z" fill="url(#paint0_linear_1626_5965)"/>
<path d="M45.5254 33.925H41.578C36.1619 33.925 31.7485 29.5161 31.7485 24.0898V4.36997C31.7485 3.59277 32.384 2.95687 33.1608 2.95687C33.9375 2.95687 34.5731 3.59277 34.5731 4.36997V24.0898C34.5731 27.9546 37.7154 31.0988 41.578 31.0988H45.5254C49.388 31.0988 52.5304 27.9546 52.5304 24.0898V4.36997C52.5304 3.59277 53.1659 2.95687 53.9427 2.95687C54.7194 2.95687 55.355 3.59277 55.355 4.36997V24.0898C55.355 29.509 50.9486 33.925 45.5254 33.925Z" fill="#3D82C0"/>
<path d="M45.5254 33.2184H41.578C36.5503 33.2184 32.4546 29.1275 32.4546 24.0898V4.36998C32.4546 3.98138 32.7724 3.66343 33.1607 3.66343C33.5491 3.66343 33.8669 3.98138 33.8669 4.36998V24.0898C33.8669 28.3432 37.327 31.8053 41.578 31.8053H45.5254C49.7764 31.8053 53.2365 28.3432 53.2365 24.0898V4.36998C53.2365 3.98138 53.5543 3.66343 53.9427 3.66343C54.3311 3.66343 54.6488 3.98138 54.6488 4.36998V24.0898C54.6488 29.1204 50.5602 33.2184 45.5254 33.2184Z" fill="url(#paint1_linear_1626_5965)"/>
<path d="M87.4989 33.925H74.5693C71.4905 33.925 68.9837 31.4167 68.9837 28.3362V4.37704C68.9837 3.59984 69.6192 2.96394 70.396 2.96394C71.1727 2.96394 71.8083 3.59984 71.8083 4.37704V28.3362C71.8083 29.8623 73.044 31.0988 74.5693 31.0988H87.4989C88.2756 31.0988 88.9112 31.7347 88.9112 32.5119C88.9112 33.2891 88.2756 33.925 87.4989 33.925Z" fill="#3D82C0"/>
<path d="M87.4989 33.2184H74.5693C71.8789 33.2184 69.6898 31.0281 69.6898 28.3362V4.37705C69.6898 3.98844 70.0076 3.6705 70.396 3.6705C70.7844 3.6705 71.1021 3.98844 71.1021 4.37705V28.3362C71.1021 30.2509 72.6557 31.8053 74.5693 31.8053H87.4989C87.8873 31.8053 88.205 32.1233 88.205 32.5119C88.205 32.9005 87.8873 33.2184 87.4989 33.2184Z" fill="url(#paint2_linear_1626_5965)"/>
<path d="M99.7788 33.925C99.002 33.925 98.3665 33.2891 98.3665 32.5119V21.5957C98.3665 20.7761 98.1122 19.9989 97.625 19.3418L87.167 5.21784C86.7009 4.58901 86.8351 3.70583 87.4635 3.23951C88.092 2.77318 88.9747 2.90742 89.4408 3.53625L99.8988 17.6602C100.739 18.7907 101.198 20.1896 101.198 21.5957V32.5119C101.198 33.2891 100.563 33.925 99.7858 33.925H99.7788Z" fill="#3D82C0"/>
<path d="M102.547 18.7271C102.264 18.7271 101.982 18.6423 101.735 18.4727C101.099 18.0276 100.944 17.1444 101.389 16.5014L110.442 3.55744C110.886 2.91448 111.769 2.76611 112.412 3.21124C113.047 3.65637 113.203 4.53956 112.758 5.18252L103.705 18.1265C103.43 18.5222 102.992 18.7271 102.547 18.7271Z" fill="#3D82C0"/>
<path d="M99.7788 33.2184C99.3904 33.2184 99.0726 32.9005 99.0726 32.5119V21.5957C99.0726 20.6418 98.7619 19.688 98.1899 18.9249L87.7319 4.80097C87.4989 4.49009 87.5624 4.04496 87.8802 3.8118C88.1909 3.57864 88.6358 3.64222 88.8688 3.96017L99.3268 18.0841C100.075 19.0945 100.485 20.3451 100.485 21.6027V32.5189C100.485 32.9075 100.167 33.2255 99.7788 33.2255V33.2184Z" fill="url(#paint3_linear_1626_5965)"/>
<path d="M102.547 18.0205C102.406 18.0205 102.264 17.9781 102.144 17.8934C101.827 17.6673 101.749 17.2292 101.968 16.9112L111.021 3.96726C111.247 3.64931 111.684 3.57159 112.002 3.79062C112.32 4.01672 112.398 4.45477 112.179 4.77271L103.126 17.7167C102.992 17.9145 102.773 18.0205 102.547 18.0205Z" fill="url(#paint4_linear_1626_5965)"/>
<path d="M152.909 34.582H136.202C135.206 34.582 134.324 33.9815 133.956 33.063C133.589 32.1374 133.815 31.0988 134.535 30.4134L146.046 19.4619C146.081 19.4265 150.12 15.9079 150.862 11.1175C151.144 9.30169 150.741 7.69781 149.696 6.47548C148.475 5.04825 146.413 4.19332 144.181 4.19332C140.29 4.19332 136.873 8.44676 136.837 8.48915L136.64 8.73645L134.316 9.90226C133.617 10.2485 132.77 9.96583 132.424 9.27342C132.078 8.57393 132.36 7.72608 133.052 7.37987L134.832 6.48961C135.757 5.40858 139.521 1.37419 144.181 1.37419C147.274 1.37419 150.064 2.56826 151.843 4.63845C153.439 6.50374 154.067 8.89188 153.658 11.5485C152.782 17.2009 148.376 21.1788 147.917 21.5815L137.219 31.7629H152.909C153.686 31.7629 154.322 32.3988 154.322 33.176C154.322 33.9532 153.686 34.5891 152.909 34.5891V34.582Z" fill="#3D82C0"/>
<path d="M152.909 33.8755H136.202C135.496 33.8755 134.874 33.4516 134.613 32.7945C134.352 32.1374 134.514 31.4026 135.023 30.915L146.483 20.013C146.554 19.9494 150.784 16.2753 151.568 11.2164C151.878 9.18863 151.419 7.38693 150.24 6.00916C148.884 4.42648 146.625 3.47972 144.188 3.47972C139.937 3.47972 136.329 7.99457 136.287 8.04402L136.188 8.1712L134.006 9.26636C133.653 9.443 133.236 9.30168 133.059 8.94841C132.883 8.59513 133.024 8.17827 133.377 8.00163L135.284 7.04779C135.955 6.24232 139.634 2.07367 144.188 2.07367C147.077 2.07367 149.668 3.17589 151.313 5.0977C152.775 6.80049 153.347 8.99786 152.966 11.4425C152.097 17.0313 147.62 20.9103 147.43 21.0728L135.997 31.9537C135.87 32.0738 135.898 32.2151 135.926 32.2858C135.955 32.3564 136.025 32.4765 136.209 32.4765H152.916C153.305 32.4765 153.623 32.7945 153.623 33.1831C153.623 33.5717 153.305 33.8896 152.916 33.8896L152.909 33.8755Z" fill="url(#paint5_linear_1626_5965)"/>
<path d="M313.339 34.9372H296.632C295.636 34.9372 294.753 34.3366 294.386 33.411C294.019 32.4854 294.245 31.4468 294.965 30.7614L306.475 19.8099C306.511 19.7746 310.55 16.256 311.291 11.4656C311.574 9.64973 311.171 8.04585 310.126 6.82352C308.904 5.39629 306.842 4.54136 304.604 4.54136C300.713 4.54136 297.295 8.7948 297.26 8.83719L297.062 9.08449L294.739 10.2503C294.04 10.6036 293.193 10.3139 292.847 9.62145C292.501 8.92904 292.783 8.07412 293.475 7.72791L295.255 6.83765C296.18 5.75662 299.943 1.72223 304.604 1.72223C307.697 1.72223 310.486 2.9163 312.266 4.98649C313.862 6.85178 314.49 9.23992 314.08 11.8965C313.205 17.5489 308.799 21.5268 308.34 21.9296L297.641 32.111H313.332C314.109 32.111 314.744 32.7468 314.744 33.5241C314.744 34.3013 314.109 34.9372 313.332 34.9372H313.339Z" fill="#3D82C0"/>
<path d="M313.339 34.2306H296.632C295.925 34.2306 295.304 33.8067 295.043 33.1496C294.781 32.4925 294.944 31.7577 295.452 31.2702L306.906 20.3681C306.977 20.3045 311.206 16.6304 311.99 11.5716C312.301 9.54375 311.842 7.74205 310.663 6.36428C309.307 4.78161 307.047 3.83482 304.611 3.83482C300.36 3.83482 296.752 8.34969 296.716 8.39915L296.617 8.52632L294.435 9.62147C294.082 9.79104 293.666 9.65681 293.489 9.30353C293.313 8.95732 293.454 8.53339 293.807 8.35676L295.714 7.40291C296.384 6.59744 300.063 2.42879 304.618 2.42879C307.506 2.42879 310.098 3.53101 311.743 5.45283C313.205 7.15561 313.777 9.35299 313.396 11.7977C312.527 17.3794 308.05 21.2654 307.859 21.4279L296.434 32.3017C296.307 32.4218 296.335 32.5631 296.363 32.6338C296.391 32.7045 296.462 32.8246 296.646 32.8246H313.353C313.742 32.8246 314.059 33.1425 314.059 33.5311C314.059 33.9197 313.742 34.2377 313.353 34.2377L313.339 34.2306Z" fill="url(#paint6_linear_1626_5965)"/>
<path d="M370.043 34.1793H353.335C352.34 34.1793 351.457 33.5788 351.09 32.6532C350.722 31.7276 350.948 30.689 351.669 30.0036L363.179 19.0521C363.214 19.0168 367.253 15.4981 367.995 10.7077C368.277 8.89191 367.875 7.28805 366.83 6.06572C365.608 4.63849 363.546 3.78356 361.315 3.78356C357.424 3.78356 354.006 8.03698 353.971 8.07937L353.773 8.32667L351.45 9.49247C350.751 9.84575 349.903 9.55607 349.557 8.86365C349.211 8.17123 349.494 7.31631 350.186 6.97011L351.965 6.07984C352.89 4.99882 356.654 0.964431 361.315 0.964431C364.408 0.964431 367.197 2.1585 368.976 4.22869C370.572 6.09398 371.201 8.48918 370.791 11.1387C369.916 16.7911 365.509 20.769 365.05 21.1717L354.352 31.3531H370.043C370.819 31.3531 371.455 31.989 371.455 32.7662C371.455 33.5434 370.819 34.1793 370.043 34.1793Z" fill="#3D82C0"/>
<path d="M353.335 33.4728C352.629 33.4728 352.008 33.0488 351.746 32.3918C351.485 31.7347 351.648 30.9999 352.156 30.5123L363.61 19.6103C363.68 19.5467 367.91 15.8726 368.694 10.8137C369.012 8.78594 368.546 6.98422 367.366 5.60644C366.011 4.02377 363.751 3.07701 361.315 3.07701C357.078 3.07701 353.455 7.59892 353.42 7.64131L353.321 7.76143L351.139 8.85658C350.793 9.03322 350.362 8.89192 350.193 8.53864C350.016 8.19243 350.158 7.76851 350.511 7.59187L352.417 6.63802C353.088 5.83256 356.767 1.66391 361.322 1.66391C364.21 1.66391 366.802 2.76612 368.447 4.68794C369.909 6.39072 370.481 8.5881 370.099 11.0328C369.231 16.6145 364.754 20.5005 364.563 20.663L353.138 31.5368C353.01 31.6569 353.039 31.7983 353.067 31.8689C353.095 31.9396 353.166 32.0597 353.342 32.0597H370.05C370.438 32.0597 370.756 32.3776 370.756 32.7662C370.756 33.1548 370.438 33.4728 370.05 33.4728H353.335Z" fill="url(#paint7_linear_1626_5965)"/>
<path d="M163.41 19.3842C162.633 19.3842 161.997 18.7483 161.997 17.9711V7.47175C161.997 4.98469 164.024 2.95688 166.51 2.95688H179.573C180.35 2.95688 180.986 3.59278 180.986 4.36998C180.986 5.14719 180.35 5.78308 179.573 5.78308H166.51C165.577 5.78308 164.822 6.5391 164.822 7.47175V17.9711C164.822 18.7483 164.186 19.3842 163.41 19.3842Z" fill="#3D82C0"/>
<path d="M172.102 35.2674C169.857 35.2674 167.851 34.8294 166.849 34.6174L166.552 34.5538C163.939 34.0097 160.797 31.6357 159.928 30.0319C159.561 29.3465 159.815 28.4845 160.5 28.1171C161.185 27.7497 162.047 28.0041 162.414 28.6894C162.845 29.4949 165.246 31.3955 167.124 31.7841L167.442 31.8548C169.115 32.2222 174.221 33.3244 177.031 31.0564C178.451 29.9118 179.171 27.9617 179.171 25.2697C179.171 22.7756 178.458 21.0022 176.989 19.8505C173.578 17.1727 167.237 18.6776 167.173 18.6918C166.418 18.8755 165.655 18.4162 165.465 17.6531C165.281 16.8971 165.74 16.134 166.495 15.9433C166.806 15.8655 174.228 14.0921 178.726 17.6178C180.894 19.3206 181.995 21.8924 181.995 25.2697C181.995 28.8661 180.922 31.551 178.804 33.2608C176.862 34.8293 174.355 35.2745 172.095 35.2745L172.102 35.2674Z" fill="#3D82C0"/>
<path d="M163.41 18.6776C163.021 18.6776 162.703 18.3597 162.703 17.9711V7.47175C162.703 5.37329 164.412 3.66343 166.51 3.66343H179.573C179.962 3.66343 180.279 3.98138 180.279 4.36998C180.279 4.75858 179.962 5.07653 179.573 5.07653H166.51C165.189 5.07653 164.116 6.1505 164.116 7.47175V17.9711C164.116 18.3597 163.798 18.6776 163.41 18.6776Z" fill="url(#paint8_linear_1626_5965)"/>
<path d="M172.109 34.5609C169.934 34.5609 167.971 34.1369 167.004 33.925L166.7 33.8614C164.335 33.3668 161.348 31.1553 160.557 29.6928C160.373 29.3465 160.5 28.9226 160.846 28.7318C161.192 28.5481 161.616 28.6753 161.8 29.0215C162.357 30.0531 164.956 32.0526 166.99 32.4765L167.308 32.5472C169.066 32.9287 174.411 34.0875 177.49 31.6075C179.079 30.3216 179.891 28.1878 179.891 25.2697C179.891 22.5849 179.065 20.5712 177.441 19.2923C173.755 16.4025 167.089 17.9852 167.025 18.0064C166.644 18.0983 166.262 17.8651 166.171 17.4906C166.079 17.1091 166.312 16.7276 166.686 16.6357C166.99 16.565 174.08 14.8623 178.309 18.183C180.301 19.7445 181.31 22.1327 181.31 25.2768C181.31 28.6471 180.329 31.1482 178.387 32.7168C176.6 34.1581 174.263 34.5679 172.123 34.5679L172.109 34.5609Z" fill="url(#paint9_linear_1626_5965)"/>
<path d="M235.119 34.582H218.412C217.416 34.582 216.533 33.9815 216.166 33.063C215.799 32.1374 216.025 31.0988 216.745 30.4134L228.255 19.4619C228.291 19.4265 232.33 15.9079 233.071 11.1175C233.354 9.30169 232.951 7.69781 231.906 6.47548C230.684 5.04825 228.623 4.19332 226.391 4.19332C222.5 4.19332 219.082 8.44676 219.047 8.48915L218.849 8.73645L216.526 9.90226C215.827 10.2555 214.98 9.96583 214.634 9.27342C214.288 8.57393 214.57 7.72608 215.262 7.37987L217.042 6.48961C217.967 5.40858 221.731 1.37419 226.391 1.37419C229.484 1.37419 232.273 2.56826 234.053 4.64552C235.649 6.51081 236.277 8.89895 235.868 11.5556C234.992 17.208 230.586 21.1859 230.127 21.5886L219.428 31.77H235.119C235.896 31.77 236.531 32.4059 236.531 33.1831C236.531 33.9603 235.896 34.5962 235.119 34.5962V34.582Z" fill="#3D82C0"/>
<path d="M248.077 36.3272C247.865 36.3272 247.646 36.2778 247.441 36.1718C246.749 35.8185 246.467 34.9636 246.82 34.2712L260.611 7.13257C260.922 6.52494 260.675 6.00916 260.562 5.81132C260.442 5.62055 260.088 5.16836 259.411 5.16836H242.986C242.209 5.16836 241.573 4.53247 241.573 3.75526C241.573 2.97806 242.209 2.34216 242.986 2.34216H259.411C260.872 2.34216 262.207 3.08404 262.97 4.33464C263.732 5.58523 263.796 7.1043 263.132 8.41142L249.341 35.55C249.094 36.0375 248.592 36.3201 248.077 36.3201V36.3272Z" fill="#3D82C0"/>
<path d="M235.119 33.8755H218.412C217.705 33.8755 217.084 33.4516 216.823 32.7945C216.561 32.1374 216.724 31.4026 217.232 30.915L228.693 20.013C228.764 19.9494 232.994 16.2753 233.777 11.2164C234.095 9.18863 233.629 7.38693 232.45 6.00916C231.094 4.42648 228.834 3.47972 226.398 3.47972C222.161 3.47972 218.539 8.00163 218.496 8.04402L218.397 8.16415L216.215 9.25929C215.869 9.43593 215.446 9.29461 215.269 8.94133C215.093 8.58806 215.234 8.1712 215.587 7.99456L217.494 7.04071C218.164 6.23525 221.851 2.06662 226.398 2.06662C229.286 2.06662 231.878 3.16883 233.523 5.09065C234.985 6.79344 235.557 8.99079 235.176 11.4355C234.307 17.0243 229.83 20.9032 229.639 21.0657L218.207 31.9466C218.08 32.0667 218.108 32.208 218.136 32.2787C218.164 32.3493 218.235 32.4695 218.419 32.4695H235.126C235.515 32.4695 235.832 32.7874 235.832 33.176C235.832 33.5646 235.515 33.8826 235.126 33.8826L235.119 33.8755Z" fill="url(#paint10_linear_1626_5965)"/>
<path d="M248.077 35.6207C247.971 35.6207 247.858 35.5924 247.759 35.543C247.413 35.3663 247.272 34.9424 247.448 34.5962L261.239 7.4576C261.564 6.81464 261.536 6.06567 261.162 5.45098C260.788 4.83628 260.131 4.46888 259.411 4.46888H242.986C242.597 4.46888 242.279 4.15094 242.279 3.76233C242.279 3.37373 242.597 3.05578 242.986 3.05578H259.411C260.625 3.05578 261.734 3.67754 262.369 4.70911C263.005 5.74067 263.054 7.01245 262.503 8.10054L248.712 35.2391C248.585 35.4864 248.338 35.6277 248.084 35.6277L248.077 35.6207Z" fill="url(#paint11_linear_1626_5965)"/>
<path fill-rule="evenodd" clip-rule="evenodd" d="M272.149 30.0961C272.779 29.6855 273.595 29.9074 273.973 30.5917L274.787 32.0669C275.735 33.785 275.946 35.8677 275.363 37.7684L273.596 43.5318C273.363 44.2888 272.611 44.698 271.914 44.4456C271.218 44.1933 270.841 43.375 271.074 42.618L272.841 36.8546C273.178 35.7542 273.057 34.5484 272.508 33.5537L271.693 32.0784C271.316 31.3942 271.52 30.5066 272.149 30.0961Z" fill="#3D82C0"/>
<path fill-rule="evenodd" clip-rule="evenodd" d="M191.007 18.113C191.007 17.461 191.536 16.9324 192.188 16.9324H205.171C205.823 16.9324 206.351 17.461 206.351 18.113C206.351 18.765 205.823 19.2935 205.171 19.2935H192.188C191.536 19.2935 191.007 18.765 191.007 18.113Z" fill="#3D82C0"/>
<path fill-rule="evenodd" clip-rule="evenodd" d="M272.45 30.5803C272.78 30.3708 273.208 30.484 273.405 30.8333L274.258 32.3394C275.147 33.9086 275.344 35.8109 274.798 37.547L272.947 43.4305C272.825 43.8169 272.431 44.0257 272.066 43.8969C271.702 43.7681 271.505 43.3504 271.626 42.964L273.477 37.0806C273.895 35.7529 273.744 34.2982 273.065 33.0982L272.212 31.5922C272.014 31.2429 272.121 30.7899 272.45 30.5803Z" fill="url(#paint12_linear_1626_5965)"/>
<path fill-rule="evenodd" clip-rule="evenodd" d="M191.513 17.7757C191.513 17.4031 191.815 17.1011 192.188 17.1011H205.171C205.543 17.1011 205.845 17.4031 205.845 17.7757C205.845 18.1483 205.543 18.4503 205.171 18.4503H192.188C191.815 18.4503 191.513 18.1483 191.513 17.7757Z" fill="#DFF3FD"/>
<path d="M336.013 35.9899C335.463 35.9899 334.94 35.6649 334.714 35.1279C334.41 34.4072 334.742 33.5806 335.463 33.2768C335.752 33.1496 342.686 29.9348 342.686 17.6832C342.686 4.47073 334.53 3.44623 332.024 3.44623C330.188 3.44623 321.05 4.11745 321.05 17.3723C321.05 29.2424 329.983 33.1143 330.364 33.2768C331.084 33.5735 331.423 34.4002 331.127 35.1209C330.83 35.8415 330.004 36.1807 329.291 35.891C328.839 35.7073 318.233 31.1925 318.233 17.3794C318.233 5.01478 325.668 0.627107 332.031 0.627107C334.283 0.627107 345.518 1.4467 345.518 17.6903C345.518 31.9061 336.938 35.7285 336.578 35.8839C336.395 35.9617 336.211 35.997 336.027 35.997L336.013 35.9899Z" fill="#3D82C0"/>
<path d="M336.013 35.2834C335.738 35.2834 335.477 35.1209 335.364 34.8524C335.208 34.492 335.378 34.0822 335.738 33.9268C336.049 33.7926 343.393 30.4506 343.393 17.6832C343.393 3.81363 334.693 2.73968 332.024 2.73968C330.075 2.73968 320.344 3.44622 320.344 17.3723C320.344 29.744 329.693 33.7643 330.089 33.9268C330.449 34.0752 330.618 34.492 330.47 34.8524C330.322 35.2127 329.912 35.3893 329.552 35.2339C329.446 35.1915 318.932 30.7191 318.932 17.3723C318.932 11.4726 320.598 7.07082 323.882 4.27995C327.017 1.61626 330.626 1.32658 332.031 1.32658C334.163 1.32658 344.812 2.11791 344.812 17.6832C344.812 31.4397 336.649 35.0785 336.296 35.2269C336.204 35.2622 336.112 35.2834 336.02 35.2834H336.013Z" fill="url(#paint13_linear_1626_5965)"/>
<path d="M376.744 25.6301C376.419 25.6301 376.102 25.5241 375.833 25.298C375.24 24.7964 375.162 23.9061 375.664 23.3055L394.419 1.06333C395.231 0.0953581 396.53 -0.250845 397.717 0.187216C398.903 0.618212 399.673 1.72042 399.673 2.98515V20.7549C399.673 21.5321 399.037 22.168 398.26 22.168C397.484 22.168 396.848 21.5321 396.848 20.7549V2.98515C396.848 2.94276 396.848 2.87917 396.749 2.83678C396.65 2.80145 396.608 2.85091 396.58 2.87917L377.825 25.1214C377.542 25.4535 377.147 25.623 376.744 25.623V25.6301Z" fill="#3D82C0"/>
<path d="M403.196 26.0611H385.14C384.363 26.0611 383.728 25.4252 383.728 24.648C383.728 23.8708 384.363 23.2349 385.14 23.2349H403.196C403.973 23.2349 404.609 23.8708 404.609 24.648C404.609 25.4252 403.973 26.0611 403.196 26.0611Z" fill="#3D82C0"/>
<path d="M398.26 34.1793C397.484 34.1793 396.848 33.5434 396.848 32.7662V28.322C396.848 27.5448 397.484 26.9089 398.26 26.9089C399.037 26.9089 399.673 27.5448 399.673 28.322V32.7662C399.673 33.5434 399.037 34.1793 398.26 34.1793Z" fill="#3D82C0"/>
<path d="M376.744 24.9235C376.582 24.9235 376.419 24.867 376.292 24.7539C375.996 24.4996 375.953 24.0545 376.207 23.7577L394.963 1.51553C395.584 0.780721 396.573 0.512223 397.484 0.844302C398.388 1.17638 398.974 2.01717 398.974 2.97807V20.7478C398.974 21.1364 398.656 21.4544 398.267 21.4544C397.879 21.4544 397.561 21.1364 397.561 20.7478V2.97807C397.561 2.4199 397.131 2.21501 396.996 2.16555C396.862 2.11609 396.403 1.98892 396.043 2.41992L377.288 24.6621C377.147 24.8246 376.949 24.9165 376.744 24.9165V24.9235Z" fill="url(#paint14_linear_1626_5965)"/>
<path d="M403.196 25.3545H385.14C384.752 25.3545 384.434 25.0366 384.434 24.648C384.434 24.2594 384.752 23.9414 385.14 23.9414H403.196C403.585 23.9414 403.903 24.2594 403.903 24.648C403.903 25.0366 403.585 25.3545 403.196 25.3545Z" fill="url(#paint15_linear_1626_5965)"/>
<path d="M398.26 33.4728C397.872 33.4728 397.554 33.1548 397.554 32.7662V28.322C397.554 27.9334 397.872 27.6155 398.26 27.6155C398.649 27.6155 398.967 27.9334 398.967 28.322V32.7662C398.967 33.1548 398.649 33.4728 398.26 33.4728Z" fill="url(#paint16_linear_1626_5965)"/>
<defs>
<linearGradient id="paint0_linear_1626_5965" x1="202.224" y1="0" x2="202.224" y2="44.5202" gradientUnits="userSpaceOnUse">
<stop stop-color="white"/>
<stop offset="0.39" stop-color="#BCE5F9"/>
<stop offset="0.61" stop-color="#96D7F6"/>
</linearGradient>
<linearGradient id="paint1_linear_1626_5965" x1="202.369" y1="0" x2="202.369" y2="44.5202" gradientUnits="userSpaceOnUse">
<stop stop-color="white"/>
<stop offset="0.39" stop-color="#BCE5F9"/>
<stop offset="0.61" stop-color="#96D7F6"/>
</linearGradient>
<linearGradient id="paint2_linear_1626_5965" x1="171.375" y1="-0.0924362" x2="171.392" y2="44.6318" gradientUnits="userSpaceOnUse">
<stop stop-color="white"/>
<stop offset="0.355254" stop-color="#BCE5F9"/>
<stop offset="0.61" stop-color="#96D7F6"/>
</linearGradient>
<linearGradient id="paint3_linear_1626_5965" x1="446.259" y1="-0.0942787" x2="446.259" y2="48.4305" gradientUnits="userSpaceOnUse">
<stop stop-color="white"/>
<stop offset="0.39" stop-color="#BCE5F9"/>
<stop offset="0.61" stop-color="#96D7F6"/>
</linearGradient>
<linearGradient id="paint4_linear_1626_5965" x1="202.577" y1="-0.00908026" x2="202.577" y2="44.5202" gradientUnits="userSpaceOnUse">
<stop stop-color="white"/>
<stop offset="0.39" stop-color="#BCE5F9"/>
<stop offset="0.61" stop-color="#96D7F6"/>
</linearGradient>
<linearGradient id="paint5_linear_1626_5965" x1="202.219" y1="-0.00988678" x2="202.219" y2="44.5004" gradientUnits="userSpaceOnUse">
<stop stop-color="white"/>
<stop offset="0.39" stop-color="#BCE5F9"/>
<stop offset="0.61" stop-color="#96D7F6"/>
</linearGradient>
<linearGradient id="paint6_linear_1626_5965" x1="202.011" y1="0" x2="202.011" y2="44.5103" gradientUnits="userSpaceOnUse">
<stop stop-color="white"/>
<stop offset="0.39" stop-color="#BCE5F9"/>
<stop offset="0.61" stop-color="#96D7F6"/>
</linearGradient>
<linearGradient id="paint7_linear_1626_5965" x1="202.219" y1="0" x2="202.219" y2="44.5202" gradientUnits="userSpaceOnUse">
<stop stop-color="white"/>
<stop offset="0.39" stop-color="#BCE5F9"/>
<stop offset="0.61" stop-color="#96D7F6"/>
</linearGradient>
<linearGradient id="paint8_linear_1626_5965" x1="202.223" y1="0" x2="202.223" y2="44.5202" gradientUnits="userSpaceOnUse">
<stop stop-color="white"/>
<stop offset="0.39" stop-color="#BCE5F9"/>
<stop offset="0.61" stop-color="#96D7F6"/>
</linearGradient>
<linearGradient id="paint9_linear_1626_5965" x1="202.228" y1="-0.0240102" x2="202.228" y2="44.5031" gradientUnits="userSpaceOnUse">
<stop stop-color="white"/>
<stop offset="0.39" stop-color="#BCE5F9"/>
<stop offset="0.61" stop-color="#96D7F6"/>
</linearGradient>
<linearGradient id="paint10_linear_1626_5965" x1="202.08" y1="0" x2="202.08" y2="44.5103" gradientUnits="userSpaceOnUse">
<stop stop-color="white"/>
<stop offset="0.39" stop-color="#BCE5F9"/>
<stop offset="0.61" stop-color="#96D7F6"/>
</linearGradient>
<linearGradient id="paint11_linear_1626_5965" x1="202.036" y1="0" x2="202.036" y2="44.5105" gradientUnits="userSpaceOnUse">
<stop stop-color="white"/>
<stop offset="0.39" stop-color="#BCE5F9"/>
<stop offset="0.61" stop-color="#96D7F6"/>
</linearGradient>
<linearGradient id="paint12_linear_1626_5965" x1="230.627" y1="2.43978" x2="230.627" y2="42.0801" gradientUnits="userSpaceOnUse">
<stop stop-color="#FDFFFF"/>
<stop offset="1" stop-color="#FDFFFF" stop-opacity="0.35"/>
</linearGradient>
<linearGradient id="paint13_linear_1626_5965" x1="202.249" y1="0" x2="202.249" y2="44.5107" gradientUnits="userSpaceOnUse">
<stop stop-color="white"/>
<stop offset="0.39" stop-color="#BCE5F9"/>
<stop offset="0.61" stop-color="#96D7F6"/>
</linearGradient>
<linearGradient id="paint14_linear_1626_5965" x1="202.282" y1="0.0118517" x2="202.282" y2="44.5202" gradientUnits="userSpaceOnUse">
<stop stop-color="white"/>
<stop offset="0.39" stop-color="#BCE5F9"/>
<stop offset="0.61" stop-color="#96D7F6"/>
</linearGradient>
<linearGradient id="paint15_linear_1626_5965" x1="202.378" y1="0" x2="202.378" y2="44.5202" gradientUnits="userSpaceOnUse">
<stop stop-color="white"/>
<stop offset="0.39" stop-color="#BCE5F9"/>
<stop offset="0.61" stop-color="#96D7F6"/>
</linearGradient>
<linearGradient id="paint16_linear_1626_5965" x1="398.26" y1="27.6084" x2="398.26" y2="33.4728" gradientUnits="userSpaceOnUse">
<stop stop-color="white"/>
<stop offset="0.39" stop-color="#BCE5F9"/>
<stop offset="0.61" stop-color="#96D7F6"/>
</linearGradient>
</defs>
</svg>
