<?xml version="1.0" encoding="UTF-8" standalone="no"?>
<svg
   version="1.1"
   id="svg2"
   xml:space="preserve"
   width="603"
   height="666"
   viewBox="0 0 603 666"
   sodipodi:docname="Rocket Logo with text - black.svg"
   inkscape:version="1.1.2 (b8e25be833, 2022-02-05)"
   inkscape:export-filename="G:\.shortcut-targets-by-id\1dMDtmi0Fzm9SFWbhR1Y8-dC0DC2hm5o5\Moonshot Pods\Marketing\Rocket Logo with text - black.png"
   inkscape:export-xdpi="159.2"
   inkscape:export-ydpi="159.2"
   xmlns:inkscape="http://www.inkscape.org/namespaces/inkscape"
   xmlns:sodipodi="http://sodipodi.sourceforge.net/DTD/sodipodi-0.dtd"
   xmlns="http://www.w3.org/2000/svg"
   xmlns:svg="http://www.w3.org/2000/svg"
   xmlns:rdf="http://www.w3.org/1999/02/22-rdf-syntax-ns#"
   xmlns:cc="http://creativecommons.org/ns#"
   xmlns:dc="http://purl.org/dc/elements/1.1/"><metadata
     id="metadata8"><rdf:RDF><cc:Work
         rdf:about=""><dc:format>image/svg+xml</dc:format><dc:type
           rdf:resource="http://purl.org/dc/dcmitype/StillImage" /></cc:Work></rdf:RDF></metadata><defs
     id="defs6" /><sodipodi:namedview
     pagecolor="#ffffff"
     bordercolor="#666666"
     borderopacity="1"
     objecttolerance="10"
     gridtolerance="10"
     guidetolerance="10"
     inkscape:pageopacity="0"
     inkscape:pageshadow="2"
     inkscape:window-width="2560"
     inkscape:window-height="1369"
     id="namedview4"
     inkscape:pagecheckerboard="true"
     showgrid="false"
     inkscape:zoom="1.174362"
     inkscape:cx="83.023801"
     inkscape:cy="387.4444"
     inkscape:window-x="-8"
     inkscape:window-y="-8"
     inkscape:window-maximized="1"
     inkscape:current-layer="g12"
     height="800px" /><g
     id="g10"
     inkscape:groupmode="layer"
     inkscape:label="ink_ext_XXXXXX"
     transform="matrix(1.3333333,0,0,-1.3333333,0,628)"><g
       id="g12"
       transform="scale(0.1)"><path
         id="path18"
         style="fill:#000000;fill-opacity:1;fill-rule:nonzero;stroke:none;stroke-width:0.999997"
         d="m 4156.1805,4568.7263 c -12,-3.9 -24.1084,-7.792 -36.1084,-11.792 -256.2,-90.4 -502.4926,-222.709 -732.3926,-366.709 63,-182.1001 207.8974,-324.8022 389.8975,-387.2022 151.7,240.2 286.2035,496.7031 378.6035,765.7032 z m -328.7109,-250.503 c -118.6,-73.9 -234.5919,-151.5978 -351.5919,-227.7979 -2.7999,19.4001 -6.3091,19.5096 10.5909,29.8096 111.6999,69.5 224.101,137.3883 341.001,197.9883 z m 77.2998,-78.5889 c -64.1,-121.6 -134.5982,-239.5029 -208.1983,-355.5029 -5.4,4 -10.7986,7.9971 -16.0986,11.9971 69.7,104.1 138.6055,208.7045 205.6055,314.6045 6.2,9.7 12.3914,19.3013 18.6914,28.9013 z" /><path
         id="path16"
         style="fill:#000000;fill-opacity:1;fill-rule:nonzero;stroke:none;stroke-width:0.999997"
         d="m 1824.8816,4694.1315 c -364.5,-75.7 -707.7996,-247.8014 -987.09961,-493.9013 C 570.18096,3965.7301 361.67974,3663.9237 236.08274,3331.1237 106.78175,2990.7237 65.974349,2617.8224 117.47435,2257.4225 c 47,-337.9 173.89462,-661.9996 368.59864,-942.0997 80.199,92.2 160.30675,184.6014 241.01072,276.4014 -59.403,38.1 -102.102,94.3026 -112.5,165.1026 -9.49995,56.5 6.99022,107.5019 32.49023,157.0019 -2.90295,-110.4 40.5999,-200.4988 126.29887,-268.7988 189.80198,220.3 390.20179,442.3936 571.80179,668.3936 30.2,125.1 -35.8057,266.3021 -143.3057,334.7021 -53.4,34.7 -115.3892,51.9975 -178.9892,52.3975 -46.3001,199.9 -61.10493,406.7131 -40.005,610.9131 63.4,6.6 121.6981,31.6888 165.4981,78.5888 70.9,72.8 89.4,183.8026 52.5,277.6026 -20.3,53 -58.5937,91.8072 -103.5937,124.9072 130.6999,342.2001 363.9902,643.5911 662.4902,855.7911 21.7,15.3 43.5123,30.4056 65.1123,45.8056 z m -847.6904,-973.667 c 7.9953,0.2708 15.8251,-0.4282 23.4228,-1.9775 45.5859,-9.2953 82.9143,-49.1801 98.3643,-93.9551 28.4,-70.5 0.9953,-173.3034 -79.8047,-193.4034 -70.10001,-15.6 -128.89341,44.7954 -145.69341,107.6954 -17.7,68.4 5.69205,154.7027 79.29203,177.8027 8.26252,2.325 16.4235,3.5667 24.41898,3.8379 z M 553.36791,3241.7243 c -13.296,-23.1 -26.69021,-45.0953 -35.99121,-70.1954 -45.199,-130.5999 -1.50606,-279.9025 112.29491,-360.1025 -46.89795,9.3 -90.70236,23.6066 -126.40136,56.8067 -69.801,60 -96.58865,163.2966 -61.88965,249.0966 20.20401,56.1 62.28831,94.0946 111.98731,124.3946 z M 1036.532,2598.2477 c 20.225,-1.7875 40.1453,-7.2229 58.9453,-15.9229 85.5,-37.3 134.2978,-134.5885 122.7979,-225.6884 -10.9,-89.8001 -82.3979,-169.1069 -175.2979,-174.5069 -106.39998,-5.3 -193.50356,82.6047 -206.10356,184.8047 -13.69995,97.3 41.5965,198.6955 138.89656,225.3955 19.9999,5.85 40.5367,7.7054 60.7617,5.918 z" /><path
         id="path24"
         style="fill:#000000;fill-opacity:1;fill-rule:nonzero;stroke:none;stroke-width:0.999997"
         d="m 3356.3758,4169.4245 c -313.9,-202.6 -604.7047,-445.0932 -867.3047,-710.4932 -40,-38.5 -75.7902,-79.6074 -99.9903,-130.1074 -55.2999,-112.6001 -52.9056,-249.295 6.6944,-359.795 115.1,75.1 234.4949,143.3073 359.795,199.9073 -54.9,-125.9 -126.2003,-245.9037 -200.2003,-361.3037 77.3,-36.8001 160.711,-54.9081 246.211,-40.708 86.4,12.7999 163.1988,52.8029 223.7988,115.5029 275.4,269.6 522.592,564.9086 731.792,888.8086 -185.2,66.3 -335.8959,211.5885 -400.7959,398.1885 z m 10.6934,-126.4893 12.4072,-19.3066 c -299,-207.6 -592.5059,-430.6922 -861.0059,-676.9922 244.6,257.9 529.1008,480.3939 823.3008,678.794 8.4,5.7999 16.7979,11.6048 25.2979,17.5048 z m 243.999,-250.0048 20.2002,-9.0967 c -201.3,-302.3001 -429.1967,-594.704 -691.5967,-846.504 237.2,263.2 454.1106,543.4973 655.8106,834.6973 5.1,7 10.2859,14.0034 15.5859,20.9034 z m -450.6885,-81.1964 c 18.1,-13.4999 36.0967,-27.0029 54.0967,-40.5029 21.8,7.2 43.6957,14.0963 65.5957,21.1963 -7.3,-21.5 -14.5898,-42.9945 -22.0898,-64.3945 13.9999,-18.6 27.4989,-37.6061 41.499,-56.2061 -22.9,1.1 -45.7986,2.0055 -68.5986,3.1055 -13.1001,-19 -26.8075,-37.5965 -40.1075,-56.3965 -6.8,21.8 -14.1007,43.4906 -20.8008,65.3906 -21.7,6.6 -43.3976,13.1047 -65.0976,19.8047 19.1,13.3 37.892,27.0055 56.792,40.6055 -0.3998,22.4 -0.7891,44.8975 -1.2891,67.3974 z" /><path
         d="m 2265.9753,3838.7293 c -98.5,-189 -217.9,-375.8 -369.5,-526.7 -39.9,-35.9 -77.8,-81.8 -134.3,-88.9 -58.4,-9 -113.1,33.1 -111.8,93.7 -3.4,61.5 46,104.9 83.6,146.7 144.9,147.4 325.9,265 507.3,362.3 8.2,4.4 16.5,8.7 24.7,12.9"
         style="fill:#000000;fill-opacity:1;fill-rule:nonzero;stroke:none"
         id="path28" /><path
         d="m 2617.4753,3635.2293 c -62.3,-59.3 -122.6,-120.7 -183.7,-181.4 -52.8,-52.7 -87,-118.6 -108,-189.7 -116.8,23.3 -233.7,47.7 -350.3,72.6 69.9,78.4 133.1,161.3 190.1,249.6 150.6,16.7 301.3,32.2 451.9,48.9"
         style="fill:#000000;fill-opacity:1;fill-rule:nonzero;stroke:none"
         id="path36" /><path
         d="m 2670.7753,3084.1293 c -102,-194.1 -225.8,-389.8 -385.6,-541.6 -32.9,-31.4 -68.4,-65.5 -114.9,-73.8 -44.9,-8.7 -93,12.2 -109.4,56.5 -20.1,51.9 4.8,103.7 39.9,142.1 144.8,164.3 340.8,291.7 531.6,396.5 l 6.9,3.7 c 10.5,5.5 21,11 31.5,16.6"
         style="fill:#000000;fill-opacity:1;fill-rule:nonzero;stroke:none"
         id="path40" /><path
         d="m 3221.9753,3031.5293 c -17,-150.8 -32.1,-301.9 -49.3,-452.6 -87.9,-57.2 -172,-119.8 -249.4,-190.6 -24.8,116.7 -48.5,233.7 -73,350.5 60,17.8 116.4,43.6 164.2,84.8 72.9,63.2 140,137.9 207.5,207.9"
         style="fill:#000000;fill-opacity:1;fill-rule:nonzero;stroke:none"
         id="path42" /><path
         d="m 2326.4753,2921.3293 c -116.6,-87.5 -239.1,-188.4 -316.2,-313.7 -153.3,-208.6 -300.9,-421.8 -449.8,-633.6 241.7,166.9 478,335.7 716,507.5 89.1,74.8 162.2,166.1 232,258.5 54.6,-133.7 28.2,-291.7 -78,-391.8 -159.3,-144.3 -319.9,-287.5 -480.9,-429.8 -207.6,-181.6 -414.7,-364.9 -629.5,-537.8 109.6,140.3 221.2,279.1 332.6,418 -321.5,-225.8 -638.7,-457.5 -955.30199,-690.098 251.602,331.698 499.80199,665.798 740.50199,1005.498 -92.3,-67.3 -183.2,-136.6 -276.6,-202.3 251.6,294.4 494.7,595.3 741.1,894.1 42.3,53.2 93.9,96.8 158.3,120.4 86.2,33.3 180.6,29.3 265.8,-4.9"
         style="fill:#000000;fill-opacity:1;fill-rule:nonzero;stroke:none"
         id="path44" /><path
         d="m 3425.3753,2680.1293 c -38.2,-75.8 -81.2,-149.1 -127.1,-220.4 -82.8,-127.8 -179.6,-255.9 -295.7,-355.3 -28.9,-25 -61.7,-42.7 -101.1,-40.9 -44,0.4 -81.3,30.9 -90.5,73.9 -9.7,48.7 12.4,90.2 44.1,125.3 154.6,174.6 365.4,308.9 570.3,417.4"
         style="fill:#000000;fill-opacity:1;fill-rule:nonzero;stroke:none"
         id="path46" /><path
         id="path50"
         style="fill:#000000;fill-opacity:1;fill-rule:nonzero;stroke:none;stroke-width:0.999997"
         d="m 4406.8738,2097.2272 c -143.5999,-216.3 -332.0984,-405.1028 -550.8984,-545.3028 -244.6,-158.7 -525.7027,-255.4998 -815.3027,-287.2998 -28.5,58.1 -71.992,104.1099 -131.792,130.2099 -89.3,40.2 -200.1094,23.4993 -272.1094,-43.3007 -25.3,-22.4 -43.5891,-49.9105 -61.2891,-78.3106 -292.8999,43.4001 -572.106,155.7042 -813.706,326.7042 -116.2001,-101.0001 -234.1057,-201.0913 -353.3057,-298.4913 96.1,-120.3 262.1027,-176.7033 410.3028,-129.4043 -67.9001,-68.7019 -165.6034,-102.5078 -260.9034,-80.5078 -90.8,19.796 -162.499,84.7016 -198.9991,169.1016 -156.9,-126.899 -312.7969,-254.8908 -469.49706,-382.08987 308.60016,-253.90298 686.19736,-421.49956 1082.19736,-476.60161 275.9,-38.30101 559.9027,-24.00015 830.3027,43.3008 369.4001,90.09697 712.9965,280.08803 986.3966,544.29204 308.8999,296.89804 529.5035,688.40014 618.6034,1107.70024 z M 2808.5389,1302.4176 c 53.7609,-0.068 106.1426,-28.3131 128.6426,-80.2881 29.7999,-67.399 -8.8104,-141.5012 -73.1104,-170.2002 -72,-34.602 -165.2994,-2.8988 -194.3994,73.1983 -25.4,69.9009 18.408,143.4978 85.708,167.7978 17.175,6.4 35.2389,9.5156 53.1592,9.4922 z m -253.667,-391.28912 c 17.1,-44.49998 35.1982,-87.29805 65.6982,-124.49708 96.9001,-120.597 261.3047,-171.99585 409.8047,-126.79688 -43.6999,-39.79597 -92.7992,-70.79685 -151.6992,-81.79687 -114.2,-23.10196 -234.6995,33.89137 -291.8994,134.69242 -35.8001,61.19896 -41.7044,129.19943 -31.9043,198.39841 z" /><path
         d="m 897.37531,1569.9293 c -97.798,-134.9 -199.599,-266.9 -300.4,-399.6 -31.199,37.2 -60.801,75.4 -89.199,114.7 122.199,89.1 243.597,179.5 365.799,268.7 7.9,5.5 15.8,10.8 23.8,16.2"
         style="fill:#000000;fill-opacity:1;fill-rule:nonzero;stroke:none"
         id="path52" /><path
         d="m 1030.2753,1206.4293 c -69.69999,-89.801 -141.29999,-178.199 -212.10099,-267.10201 -22.5,20.903 -44.898,41.903 -66.699,63.50001 80.8,60 161.7,119.801 242.99999,179.002 l 6.1,4.2 c 9.9,6.8 19.8,13.6 29.7,20.4"
         style="fill:#000000;fill-opacity:1;fill-rule:nonzero;stroke:none"
         id="path56" /><path
         d="m 8.7323746,117.18154 c 27.4526804,0 54.7968204,0 82.2495054,-0.21174 C 166.527,7.2676388 241.4316,-102.74949 317.297,-212.23992 c 75.75687,109.49043 150.87853,219.6160888 226.42366,329.31293 27.34415,0.10853 54.79682,0.10853 82.14097,0.10853 -0.10853,-131.194222 0.10853,-262.38846 -0.10853,-393.6859 -17.65947,0 -35.32427,0 -53.09227,0 -0.10853,116.08627 0.10853,232.275748 -0.10853,348.356701 C 494.34713,-44.869152 414.65446,-160.41809 335.4938,-276.50436 c -12.13297,0 -24.26063,0 -36.3936,0 -79.16066,116.18948 -159.07038,231.846948 -237.275555,348.7855 0.21706,-116.298012 -0.10321,-232.59602 0.21706,-348.7855 -17.77332,0 -35.54133,0 -53.3093304,0 0,131.19423 0.10853,262.491678 0,393.6859"
         style="fill:#000000;fill-opacity:1;fill-rule:nonzero;stroke:none;stroke-width:1.06402"
         id="path16-7" /><path
         id="path18-5"
         style="fill:#000000;fill-opacity:1;fill-rule:nonzero;stroke:none;stroke-width:1.06401"
         d="m 923.36531,117.29066 c -28.5156,0.16015 -57.0358,0.21378 -85.5525,-0.52997 -37.5608,-2.12803 -81.717,-9.69333 -103.6325,-44.062105 -27.1324,-40.535817 -22.7752,-100.223227 -23.4104,-147.039945 1.064,-47.24018 -4.6818,-108.64024 19.1554,-151.09235 22.4475,-39.9006 66.2862,-49.04934 108.5265,-50.74857 70.9688,-1.17255 142.04639,0.21378 213.01619,-0.52997 41.2839,0.63522 87.5623,10e-4 121.2916,27.66546 31.3885,27.23562 36.603,71.70702 38.0926,110.75534 0.1064,49.6938 2.3539,100.025818 -2.5405,149.502559 -4.2561,37.240559 -18.8454,74.365442 -55.1283,90.960891 -42.0286,19.68436 -98.7413,14.36901 -144.2812,15.00955 -28.5156,-0.32024 -57.02129,-0.0511 -85.53689,0.10909 z M 1030.1928,74.833927 c 28.4093,-0.423511 61.3836,2.558915 87.984,-8.510049 23.4084,-10.3199 37.2394,-30.54324 38.6226,-56.188139 2.8728,-45.752701 0.1077,-91.811439 1.278,-137.672669 -1.1704,-29.26044 3.5117,-64.17011 -20.8542,-85.7707 -22.4508,-21.49206 -56.8139,-20.75166 -85.7552,-20.9634 -71.0762,1.38428 -142.35909,-1.1617 -213.32789,0.96634 -31.0682,1.80776 -59.5997,15.31681 -69.9196,46.49355 -7.6598,32.45249 -2.9727,68.5197 -4.0368,101.82446 1.2758,36.920288 -3.8401,76.4017984 4.0368,112.469818 9.9997,31.497 38.7365,44.474051 69.7014,46.493554 64.0528,2.128031 128.2173,-0.418478 192.27089,0.857235 z" /><path
         id="path20"
         style="fill:#000000;fill-opacity:1;fill-rule:nonzero;stroke:none;stroke-width:1.06401"
         d="m 1498.3548,117.18155 c -45.5399,-0.64057 -102.2526,4.67481 -144.2813,-15.00948 -36.2828,-16.275187 -50.8593,-53.823542 -55.2217,-90.960891 -4.6817,-49.476751 -2.6599,-99.808769 -2.4471,-149.502569 1.8089,-39.15153 6.0631,-83.42087 37.9835,-110.66181 33.9422,-27.76763 79.7977,-27.54724 121.4008,-27.75898 71.0762,0.85227 142.2671,-0.84846 213.3434,0.63905 37.9854,1.91629 81.6128,9.46543 103.8507,43.93742 28.9413,43.94492 22.5464,107.46539 23.504,157.79441 -0.8513,47.560448 3.9348,105.543318 -23.4104,147.039938 -23.0892,34.477302 -65.4268,42.037272 -103.9443,44.062112 -56.9247,1.37894 -113.8528,-0.11121 -170.7776,0.4208 z M 1434.093,74.506625 c 74.6939,0.217059 149.4846,0.320237 224.285,0 34.0485,-0.743747 66.3919,-9.669207 79.6921,-44.358247 9.5761,-40.1123396 3.4097,-84.58848 5.1123,-125.764828 -1.0641,-32.13222 4.2587,-70.54868 -7.8711,-100.7646 -15.7474,-29.79245 -45.7577,-36.60718 -76.9333,-37.56267 -74.8004,-0.21172 -149.7029,0 -224.5033,0 -34.7933,0.53203 -68.2039,11.1769 -80.4402,46.92996 -7.8736,36.17655 -2.7599,75.75214 -4.0368,112.67243 1.4897,35.112528 -5.2123,76.0848884 6.8112,109.492868 15.2155,31.17673 45.8572,38.61134 77.8841,39.355087 z" /><path
         d="m 1870.6539,117.18154 c 26.7068,0.10853 53.3072,0 80.014,-0.85227 118.1058,-115.86921162 238.2332,-229.93066 356.1262,-346.01693 0.532,115.65748 0.1064,231.2117384 0.2128,346.8692 17.7691,0 35.4317,0 53.2008,0 0.1064,-131.297432 -0.2128,-262.49167 0.1064,-393.79443 -26.6004,0 -53.2008,0.10853 -79.8012,0.85228 -118.425,115.55426 -238.2332,230.359448 -356.5518,346.125457 -0.1064,-115.554269 0.1064,-231.211737 0,-346.869207 -17.769,0 -35.5381,0 -53.3072,0 0.1064,131.19423 0.2128,262.388468 0,393.6859"
         style="fill:#000000;fill-opacity:1;fill-rule:nonzero;stroke:none;stroke-width:1.06402"
         id="path22" /><path
         d="m 2541.1968,113.56602 c 59.7977,6.69904 120.7658,2.66004 180.7763,3.61552 40.9646,-1.38428 96.2935,-2.87178 129.5972,-30.215916 26.0683,-24.580896 24.2595,-53.949866 25.1107,-87.03756562 -15.641,0 -31.282,0.10321 -46.8167,0.10321 -3.8304,26.28544962 0.9576,57.14190962 -31.1756,65.65403962 -57.9889,14.679161 -123.4259,7.01931 -183.1172,9.044132 -32.6653,-0.960806 -80.7588,1.487495 -107.2528,-20.536572 -27.1324,-32.34928 -22.9827,-109.17017 31.8141,-110.12566 52.7752,-6.59583 107.3592,-1.17254 160.56,-2.66004 50.86,-0.74374 116.0841,4.46781 158.964,-27.452668 32.6653,-25.53638 29.154,-79.69267 24.5787,-116.50975 -5.5328,-40.11234 -41.7094,-62.66841 -78.9499,-68.5205 -65.6498,-9.89641 -134.0661,-3.83258 -200.3542,-5.74888 -41.8159,0.64054 -98.1023,0 -132.47,27.77295 -28.1965,24.1521 -25.7492,60.86065 -28.3029,94.69742 15.8539,-0.10853 31.7077,-0.10853 47.4552,-0.21174 2.5536,-26.28545 -2.3409,-56.82165 26.7068,-70.01332 35.3253,-14.47274 80.7588,-8.19185 118.5313,-9.47293 54.2648,2.23656 112.4665,-5.53182 165.4545,6.60116 38.5174,9.14734 40.9646,55.43203 34.1549,87.14077 -5.1072,25.64492 -28.5156,31.06821 -50.9663,33.09303 -81.5037,3.82726 -170.7746,-4.15286 -252.8102,7.65985 -30.0053,5.42329 -65.7562,15.3197 -76.9284,47.348708 -14.3642,38.09284 -15.5346,86.07677 3.7241,122.682108 16.9178,30.004184 49.9023,38.836574 81.7164,43.092644"
         style="fill:#000000;fill-opacity:1;fill-rule:nonzero;stroke:none;stroke-width:1.06402"
         id="path24-6" /><path
         d="m 2987.9771,117.18154 c 17.7691,0 35.4317,0 53.2008,0 0,-56.713102 -0.1064,-113.5294316 0,-170.242552 113.5305,0 226.9546,0 340.4851,0 0,56.8163304 -0.1064,113.52945 0,170.242552 17.7691,0 35.4317,0 53.2008,0 0,-131.194222 0.1064,-262.49167 0,-393.6859 -17.6627,-0.10853 -35.4317,-0.21174 -53.0944,-0.32027 -0.4256,60.43717 0,120.76581 -0.2128,181.09446 -113.3177,0.21705 -226.7418,0 -340.1659,0 -0.532,-60.32865 0,-120.65729 -0.3192,-180.98593 -17.7691,0.10321 -35.5381,0.21174 -53.3072,0.32027 0.3192,131.18891 0,262.383148 0.2128,393.57737"
         style="fill:#000000;fill-opacity:1;fill-rule:nonzero;stroke:none;stroke-width:1.06402"
         id="path26" /><path
         id="path28-4"
         style="fill:#000000;fill-opacity:1;fill-rule:nonzero;stroke:none;stroke-width:1.06401"
         d="m 3699.6833,117.36859 c -46.2548,0.56922 -97.5046,-0.45216 -130.8615,-27.743384 -38.7302,-34.048508 -38.1942,-95.3426976 -38.5134,-142.691408 1.4896,-52.348518 -5.6372,-116.610428 15.4303,-165.338108 18.9395,-41.07314 60.1076,-54.15859 102.1362,-57.13891 67.1394,-2.87177 134.7042,-0.002 201.95,-1.16896 41.3902,0.32025 93.314,-2.66338 130.1291,18.9372 27.9835,14.99944 41.7081,47.56763 46.6026,77.46327 6.7033,45.22069 3.7258,92.24671 4.3642,137.890858 -0.7446,43.7332004 -1.5894,92.78265 -32.8714,127.042895 -27.6643,27.240927 -68.519,31.174637 -105.4404,32.450407 -49.6895,0.74909 -99.4857,-0.31434 -149.1753,0.10908 -13.4597,-0.37187 -28.332,-0.003 -43.7504,0.18706 z m 193.1283,-42.861965 c 32.7717,-0.53204 67.7778,-10.309737 79.8012,-44.358247 8.1929,-33.3047696 4.0428,-70.33265 4.8941,-104.489708 -1.0641,-37.66403 3.7271,-78.3077 -4.7849,-115.11946 -13.0874,-34.26025 -46.1811,-43.95035 -79.9104,-44.37383 -71.0763,-0.64057 -142.1453,0.20469 -213.328,-0.32734 -28.5156,0.53203 -61.189,2.02469 -80.1285,26.6056 -19.1522,21.17178 -14.678,53.52753 -15.742,80.0194 1.5961,48.83621 -2.663,98.409008 2.338,146.821739 5.852,35.964809 37.9826,53.096421 71.7119,54.800974 78.3116,1.275766 156.837,0.209079 235.1486,0.420797 z" /><path
         d="m 4070.7197,117.18154 c 147.1535,0 294.3069,0 441.5667,0 -0.1064,-14.25568 -0.2128,-28.516683 -0.3192,-42.772369 -64.6922,0.21174 -129.3844,0.10321 -194.0765,0.10321 0,-117.041763 0.2128,-234.186721 0,-351.228481 -17.7691,0.10321 -35.5382,0.21174 -53.3072,0.32027 0.2128,117.04176 0.3192,234.083508 0,351.12527 -64.6922,-0.217059 -129.278,-0.217059 -193.8638,-0.108529 0,14.152476 0,28.304949 0,42.560629"
         style="fill:#000000;fill-opacity:1;fill-rule:nonzero;stroke:none;stroke-width:1.06402"
         id="path30" /></g></g></svg>
