<svg width="920" height="920" viewBox="0 0 920 920" fill="none" xmlns="http://www.w3.org/2000/svg">
<g id="B24_record_0_low_glare">
<g id="VinylShadowX" opacity="0.22" filter="url(#filter0_f_3448_31827)">
<path id="Vector" d="M460.022 879.029C692.235 879.029 880.481 690.783 880.481 458.569C880.481 226.356 692.235 38.1104 460.022 38.1104C227.808 38.1104 39.5625 226.356 39.5625 458.569C39.5625 690.783 227.808 879.029 460.022 879.029Z" fill="white"/>
</g>
<g id="RotateVinyNumbers">
<g id="_Vinyl">
<path id="Vector_2" d="M460.021 878.026C691.681 878.026 879.478 690.229 879.478 458.57C879.478 226.91 691.681 39.1133 460.021 39.1133C228.362 39.1133 40.5649 226.91 40.5649 458.57C40.5649 690.229 228.362 878.026 460.021 878.026Z" fill="black"/>
</g>
<g id="_Numbers">
<g id="Group">
<g id="Group_2">
<g id="Group_3" opacity="0.99">
<path id="Vector_3" d="M251.262 480.844L451.121 403.442L478.493 293.356C497.682 216.217 450.69 138.12 373.551 118.931L329.813 108.045C252.674 88.8555 174.578 135.847 155.389 212.987L142.014 266.749L271.409 298.931L282.917 254.164C286.363 240.765 299.977 232.654 313.4 236.004C326.894 239.354 335.125 253.04 331.775 266.534C327.851 282.35 318.64 296.371 305.671 306.276L91.5287 469.766L64.3003 579.254L387.404 659.6L421.763 521.424L251.262 480.844Z" fill="white"/>
</g>
</g>
<g id="Group_4" opacity="0.99">
<path id="Vector_4" d="M672.297 285.006L445.474 529.822L411.498 666.395L592.048 711.305L573.624 785.43L687.012 813.615C697.708 806.724 708.092 799.355 718.141 791.555L718.069 791.794C718.093 791.77 718.117 791.77 718.141 791.746L729.195 747.291L759.486 754.828C765.826 748.415 771.976 741.836 777.885 735.04L803.248 633.089L760.252 622.394L834.137 325.25L672.297 285.006ZM632.819 593.108L579.941 579.948L665.239 462.78L632.819 593.108Z" fill="white"/>
</g>
</g>
</g>
</g>
<g id="EdgeGlare">
<path id="Vector_5" d="M258.981 828.555C111.574 751.305 21.5768 581.375 40.434 415.973C62.2623 186.812 274.508 14.9166 503.166 40.5307C877.027 83.3009 1014.68 547.926 724.037 787.127C595.583 892.986 404.064 910.118 258.981 828.555C355.567 881.053 472.808 892.962 577.9 860.974C737.048 815.401 858.721 668.281 874.2 503.574C899.55 277.24 729.261 67.3429 502.687 45.0593C276.353 19.3733 65.9523 189.687 43.4291 416.285C24.2125 580.848 112.604 750.539 258.981 828.555Z" fill="url(#paint0_linear_3448_31827)"/>
</g>
</g>
<defs>
<filter id="filter0_f_3448_31827" x="9.5625" y="8.11035" width="900.918" height="900.918" filterUnits="userSpaceOnUse" color-interpolation-filters="sRGB">
<feFlood flood-opacity="0" result="BackgroundImageFix"/>
<feBlend mode="normal" in="SourceGraphic" in2="BackgroundImageFix" result="shape"/>
<feGaussianBlur stdDeviation="15" result="effect1_foregroundBlur_3448_31827"/>
</filter>
<linearGradient id="paint0_linear_3448_31827" x1="171.088" y1="161.471" x2="870.589" y2="515.979" gradientUnits="userSpaceOnUse">
<stop stop-color="white" stop-opacity="0.08"/>
<stop offset="0.651054" stop-color="white" stop-opacity="0.15"/>
<stop offset="1" stop-color="white" stop-opacity="0"/>
</linearGradient>
</defs>
</svg>
