<?xml version="1.0" encoding="UTF-8" standalone="no"?>
<!-- Created with Inkscape (http://www.inkscape.org/) -->

<svg
   version="1.1"
   id="svg2"
   width="412.02667"
   height="120.61333"
   viewBox="0 0 412.02667 120.61333"
   sodipodi:docname="Weaver Logo - Tim Savage.eps"
   xmlns:inkscape="http://www.inkscape.org/namespaces/inkscape"
   xmlns:sodipodi="http://sodipodi.sourceforge.net/DTD/sodipodi-0.dtd"
   xmlns="http://www.w3.org/2000/svg"
   xmlns:svg="http://www.w3.org/2000/svg">
  <defs
     id="defs6" />
  <sodipodi:namedview
     id="namedview4"
     pagecolor="#ffffff"
     bordercolor="#000000"
     borderopacity="0.25"
     inkscape:showpageshadow="2"
     inkscape:pageopacity="0.0"
     inkscape:pagecheckerboard="0"
     inkscape:deskcolor="#d1d1d1" />
  <g
     id="g8"
     inkscape:groupmode="layer"
     inkscape:label="ink_ext_XXXXXX"
     transform="matrix(1.3333333,0,0,-1.3333333,0,120.61333)">
    <g
       id="g10"
       transform="scale(0.1)">
      <path
         d="m 181.695,80.9961 -3.047,26.8949 c -0.48,5.761 -1.125,14.082 -1.601,20.488 h -0.324 c -2.879,-6.406 -5.762,-14.086 -8.797,-20.488 L 154.801,80.9961 Z M 148.871,66.5938 134.156,35.8594 h -19.855 l 54.101,107.8866 h 23.371 L 205.375,35.8594 h -19.52 l -3.046,30.7344 h -33.938"
         style="fill:#6bc856;fill-opacity:1;fill-rule:nonzero;stroke:none"
         id="path12" />
      <path
         d="m 222.945,53.3125 c 4.004,-2.2461 11.688,-5.2852 18.731,-5.2852 7.527,0.1563 12.012,4.4844 12.012,9.6016 0,4.9609 -2.571,8.0078 -10.254,12 -8.957,4.6484 -15.364,11.3672 -15.364,20.332 0,15.0511 13.125,25.6091 31.535,25.6091 8.165,0 14.883,-1.918 18.407,-4 l -4.805,-13.445 c -2.879,1.6016 -8.164,3.523 -14.559,3.523 -7.05,0 -11.847,-3.8433 -11.847,-9.1285 0,-4.3164 3.515,-7.3632 10.078,-10.7226 8.488,-4.6406 16.172,-11.043 16.172,-20.9688 0,-17.1289 -14.403,-26.5703 -33.133,-26.5703 -9.121,0 -17.609,2.5586 -21.77,5.6055 l 4.797,13.4492"
         style="fill:#6bc856;fill-opacity:1;fill-rule:nonzero;stroke:none"
         id="path14" />
      <path
         d="m 289.664,53.3125 c 3.992,-2.2461 11.68,-5.2852 18.719,-5.2852 7.531,0.1563 12.004,4.4844 12.004,9.6016 0,4.9609 -2.559,8.0078 -10.235,12 -8.964,4.6484 -15.371,11.3672 -15.371,20.332 0,15.0511 13.125,25.6091 31.532,25.6091 8.164,0 14.882,-1.918 18.41,-4 l -4.805,-13.445 c -2.883,1.6016 -8.164,3.523 -14.563,3.523 -7.05,0 -11.843,-3.8433 -11.843,-9.1285 0,-4.3164 3.515,-7.3632 10.078,-10.7226 8.484,-4.6406 16.172,-11.043 16.172,-20.9688 0,-17.1289 -14.407,-26.5703 -33.137,-26.5703 -9.121,0 -17.605,2.5586 -21.766,5.6055 l 4.805,13.4492"
         style="fill:#6bc856;fill-opacity:1;fill-rule:nonzero;stroke:none"
         id="path16" />
      <path
         d="M 435.133,113.809 424.887,60.0273 c -1.766,-9.2851 -2.879,-17.4492 -3.848,-24.1679 h -16.484 l 1.601,13.6054 h -0.32 c -7.52,-10.0781 -17.285,-15.3632 -27.051,-15.3632 -11.367,0 -20.324,6.0859 -20.324,22.0898 0,4.1602 0.48,8.6445 1.594,13.9258 l 8.328,43.6918 h 18.566 l -8,-42.5785 c -0.801,-3.836 -1.289,-7.6758 -1.289,-10.7227 0,-6.3984 2.57,-11.043 9.934,-11.043 8.64,0 18.719,10.2422 21.765,26.4141 l 7.2,37.9301 h 18.574"
         style="fill:#6bc856;fill-opacity:1;fill-rule:nonzero;stroke:none"
         id="path18" />
      <path
         d="m 444.859,35.8594 9.121,48.0195 c 2.079,11.043 3.047,22.8911 4.004,29.9301 h 16.161 c -0.477,-5.286 -0.957,-10.723 -1.758,-16.4848 h 0.48 c 5.281,10.5668 13.77,18.2458 24.492,18.2458 1.278,0 2.723,-0.16 4.004,-0.316 L 497.68,97.0039 c -0.965,0.1641 -2.246,0.3203 -3.524,0.3203 -13.281,0 -21.769,-13.4453 -24.804,-30.0898 l -5.93,-31.375 h -18.563"
         style="fill:#6bc856;fill-opacity:1;fill-rule:nonzero;stroke:none"
         id="path20" />
      <path
         d="m 560.563,100.359 c -1.926,0.493 -4.329,0.801 -7.688,0.801 -17.285,0 -30.574,-19.3631 -30.574,-37.1287 0,-8.1641 3.047,-14.8907 11.211,-14.8907 8.64,0 19.199,10.8867 22.879,30.7305 z m -7.688,-64.4996 c 0.156,4.6367 0.801,10.8867 1.438,17.6094 h -0.481 c -7.684,-14.4063 -17.93,-19.3672 -27.852,-19.3672 -13.925,0 -23.046,10.8789 -23.046,26.5742 0,26.5586 18.566,54.8942 54.902,54.8942 8.488,0 17.609,-1.601 23.527,-3.519 l -8,-40.6526 c -2.246,-11.6914 -3.523,-26.25 -3.203,-35.539 h -17.285"
         style="fill:#6bc856;fill-opacity:1;fill-rule:nonzero;stroke:none"
         id="path22" />
      <path
         d="m 591.734,35.8594 10.079,53.7812 c 1.921,9.2852 3.046,17.4494 4.003,24.1684 h 16.485 l -1.594,-14.0824 h 0.313 c 7.207,10.5624 17.128,15.8434 28.019,15.8434 11.043,0 19.844,-6.722 19.844,-21.4489 0,-3.5156 -0.637,-8.9648 -1.438,-12.9609 L 658.793,35.8594 H 640.23 l 8.321,44.0117 c 0.488,2.8828 0.965,6.25 0.965,9.2891 0,6.4062 -2.403,11.1988 -9.766,11.1988 -8.484,0 -19.363,-10.2418 -22.723,-28.484 l -6.73,-36.0156 h -18.563"
         style="fill:#6bc856;fill-opacity:1;fill-rule:nonzero;stroke:none"
         id="path24" />
      <path
         d="m 738.629,38.5859 c -4.484,-2.2461 -12.492,-4.3281 -22.414,-4.3281 -19.531,0 -31.531,12.4883 -31.531,31.0547 0,27.207 20.644,50.2575 49.617,50.2575 6.887,0 12.969,-1.761 15.851,-3.043 l -4.804,-14.5582 c -2.883,1.2773 -6.563,2.3902 -11.68,2.3902 -18.086,0 -29.453,-16.6363 -29.453,-32.8082 0,-11.6836 6.719,-18.2422 17.129,-18.2422 7.195,0 12.636,1.9219 16.64,3.6797 l 0.645,-14.4024"
         style="fill:#6bc856;fill-opacity:1;fill-rule:nonzero;stroke:none"
         id="path26" />
      <path
         d="m 796.703,101.648 c -11.687,0 -19.375,-10.4097 -21.609,-19.8511 19.207,-0.3203 31.531,2.4023 31.531,11.6875 0,5.1211 -4.004,8.1636 -9.922,8.1636 z m 17.766,-61.3042 c -7.688,-4.004 -18.086,-6.086 -27.531,-6.086 -21.61,0 -32.012,13.125 -32.012,32.1797 0,23.5234 17.285,49.1325 44.179,49.1325 15.364,0 25.129,-8.961 25.129,-21.9255 0,-20.0117 -20.968,-26.4101 -51.066,-25.7734 -0.32,-2.7227 0.324,-8 2.082,-11.0469 3.047,-5.2812 8.641,-7.9961 16.004,-7.9961 8.809,0 15.851,2.2383 21.457,5.1172 l 1.758,-13.6015"
         style="fill:#6bc856;fill-opacity:1;fill-rule:nonzero;stroke:none"
         id="path28" />
      <path
         d="m 868.051,72.8438 c -0.281,9.3828 7.422,16.8046 16.523,16.8046 9.25,0 16.817,-7.2851 16.817,-16.8046 0,-9.25 -7.43,-16.6719 -16.817,-16.6719 -9.101,0 -16.523,7.2851 -16.523,16.6719"
         style="fill:#6bc856;fill-opacity:1;fill-rule:nonzero;stroke:none"
         id="path30" />
      <path
         d="m 981.488,127.418 h -29.929 l 3.203,16.328 h 78.578 l -3.19,-16.328 h -30.1 L 982.77,35.8594 h -18.731 l 17.449,91.5586"
         style="fill:#6bc856;fill-opacity:1;fill-rule:nonzero;stroke:none"
         id="path32" />
      <path
         d="m 1074.29,100.359 c -1.92,0.493 -4.32,0.801 -7.68,0.801 -17.29,0 -30.58,-19.3631 -30.58,-37.1287 0,-8.1641 3.05,-14.8907 11.21,-14.8907 8.64,0 19.2,10.8867 22.88,30.7305 z m -7.68,-64.4996 c 0.15,4.6367 0.8,10.8867 1.43,17.6094 h -0.48 c -7.68,-14.4063 -17.93,-19.3672 -27.85,-19.3672 -13.92,0 -23.04,10.8789 -23.04,26.5742 0,26.5586 18.56,54.8942 54.9,54.8942 8.48,0 17.6,-1.601 23.52,-3.519 l -8,-40.6526 c -2.24,-11.6914 -3.52,-26.25 -3.2,-35.539 h -17.28"
         style="fill:#6bc856;fill-opacity:1;fill-rule:nonzero;stroke:none"
         id="path34" />
      <path
         d="M 1130.91,113.809 1137,99.7266 c 2.23,-5.6055 3.68,-9.6094 4.96,-12.8008 h 0.48 c 2.88,4.1601 4.96,7.3594 8.48,12.1562 l 11.2,14.727 h 21.46 l -32.98,-37.9301 18.25,-40.0195 h -20.33 l -6.24,14.7265 c -2.4,5.7618 -3.68,9.2852 -5.28,14.0821 h -0.48 c -2.25,-3.6836 -4.48,-7.5196 -7.84,-12.6446 l -12.33,-16.164 h -21.45 l 33.93,40.1758 -18.25,37.7738 h 20.33"
         style="fill:#6bc856;fill-opacity:1;fill-rule:nonzero;stroke:none"
         id="path36" />
      <path
         d="m 1218.58,72.8438 c -0.28,9.3828 7.42,16.8046 16.52,16.8046 9.25,0 16.82,-7.2851 16.82,-16.8046 0,-9.25 -7.43,-16.6719 -16.82,-16.6719 -9.1,0 -16.52,7.2851 -16.52,16.6719"
         style="fill:#6bc856;fill-opacity:1;fill-rule:nonzero;stroke:none"
         id="path38" />
      <path
         d="m 1354.43,80.9961 -3.05,26.8949 c -0.48,5.761 -1.12,14.082 -1.6,20.488 h -0.32 c -2.88,-6.406 -5.76,-14.086 -8.8,-20.488 l -13.13,-26.8949 z m -32.82,-14.4023 -14.72,-30.7344 h -19.85 l 54.1,107.8866 h 23.37 l 13.6,-107.8866 h -19.52 l -3.05,30.7344 h -33.93"
         style="fill:#6bc856;fill-opacity:1;fill-rule:nonzero;stroke:none"
         id="path40" />
      <path
         d="m 1451.06,98.125 c -2.25,1.6016 -6.08,3.035 -10.72,3.035 -16.01,0 -27.85,-17.7616 -27.85,-35.2147 0,-9.4414 3.68,-16.8047 12.48,-16.8047 8.32,0 18.25,9.1328 21.44,25.293 z m 28.16,51.383 -16.31,-85.9533 c -1.77,-8.9649 -3.05,-19.207 -3.53,-27.6953 h -17.13 l 1.6,13.9258 h -0.32 c -7.04,-10.7227 -16.64,-15.6836 -26.73,-15.6836 -13.92,0 -23.69,11.3593 -23.69,28.9648 0,27.375 20.01,52.5036 48.66,52.5036 4.01,0 8.65,-0.8 12,-2.242 l 6.89,36.18 h 18.56"
         style="fill:#6bc856;fill-opacity:1;fill-rule:nonzero;stroke:none"
         id="path42" />
      <path
         d="m 1506.09,113.809 4.96,-38.7309 c 0.96,-9.2851 1.91,-15.207 2.24,-20.332 h 0.47 c 1.93,4.9609 4.17,10.5664 8.49,19.8555 l 19.37,39.2074 h 20.65 l -43.38,-77.9496 h -18.73 l -13.28,77.9496 h 19.21"
         style="fill:#6bc856;fill-opacity:1;fill-rule:nonzero;stroke:none"
         id="path44" />
      <path
         d="m 1581.12,134.941 c 0,6.719 5.13,11.364 11.21,11.364 5.76,0 9.92,-4.16 9.92,-10.082 -0.17,-6.887 -5.28,-11.207 -11.52,-11.207 -5.76,0 -9.77,4.16 -9.61,9.925 z m -17.77,-99.0816 14.73,77.9496 h 18.72 l -14.88,-77.9496 h -18.57"
         style="fill:#6bc856;fill-opacity:1;fill-rule:nonzero;stroke:none"
         id="path46" />
      <path
         d="m 1608.32,53.3125 c 3.99,-2.2461 11.68,-5.2852 18.72,-5.2852 7.53,0.1563 12,4.4844 12,9.6016 0,4.9609 -2.56,8.0078 -10.24,12 -8.96,4.6484 -15.37,11.3672 -15.37,20.332 0,15.0511 13.13,25.6091 31.54,25.6091 8.16,0 14.88,-1.918 18.4,-4 l -4.8,-13.445 c -2.88,1.6016 -8.16,3.523 -14.56,3.523 -7.05,0 -11.85,-3.8433 -11.85,-9.1285 0,-4.3164 3.52,-7.3632 10.08,-10.7226 8.49,-4.6406 16.17,-11.043 16.17,-20.9688 0,-17.1289 -14.4,-26.5703 -33.13,-26.5703 -9.12,0 -17.61,2.5586 -21.77,5.6055 l 4.81,13.4492"
         style="fill:#6bc856;fill-opacity:1;fill-rule:nonzero;stroke:none"
         id="path48" />
      <path
         d="m 1694.23,66.7461 c 0,-10.7227 5.77,-18.2383 15.21,-18.2383 13.92,0 23.21,19.207 23.21,34.7344 0,7.9961 -3.51,17.9178 -14.88,17.9178 -14.89,0 -23.54,-19.8436 -23.54,-34.4139 z m 57.79,16.4961 c 0,-26.418 -18.57,-49.1406 -45.14,-49.1406 -19.69,0 -31.85,13.6015 -31.85,32.1679 0,26.418 18.4,49.3005 44.97,49.3005 20.97,0 32.02,-15.043 32.02,-32.3278"
         style="fill:#6bc856;fill-opacity:1;fill-rule:nonzero;stroke:none"
         id="path50" />
      <path
         d="m 1763.19,35.8594 9.12,48.0195 c 2.08,11.043 3.04,22.8911 4,29.9301 h 16.17 c -0.48,-5.286 -0.96,-10.723 -1.76,-16.4848 h 0.48 c 5.28,10.5668 13.77,18.2458 24.49,18.2458 1.28,0 2.72,-0.16 4,-0.316 l -3.68,-18.2501 c -0.97,0.1641 -2.25,0.3203 -3.52,0.3203 -13.29,0 -21.77,-13.4453 -24.81,-30.0898 l -5.93,-31.375 h -18.56"
         style="fill:#6bc856;fill-opacity:1;fill-rule:nonzero;stroke:none"
         id="path52" />
      <path
         d="m 1848.78,113.809 6.09,-37.6176 c 1.44,-8.3203 2.4,-14.082 3.04,-19.3672 h 0.32 c 1.92,4.8086 3.85,10.0899 7.53,18.5664 l 16.8,38.4184 h 19.69 l -28.5,-57.4613 C 1864.31,37.3047 1855.67,23.5352 1845.27,13.4453 1836.3,4.64844 1826.06,0.96875 1821.25,0 l -4.32,16.0156 c 3.52,1.1133 8.96,3.1953 13.77,6.7188 5.28,3.8359 10.24,9.289 13.77,15.5273 0.63,1.2813 0.63,2.2344 0.31,3.6797 l -15.52,71.8676 h 19.52"
         style="fill:#6bc856;fill-opacity:1;fill-rule:nonzero;stroke:none"
         id="path54" />
      <path
         d="m 2143.35,607.246 c -15.95,15.82 -32.87,25.352 -49.08,25.481 -26.46,-0.09 -47.4,-15.286 -80.78,-56.028 v 46.992 h -72.05 v -355.82 h 72.05 v 210.645 c 30.49,54.589 59.08,83.086 72.62,81.562 3.16,0.149 7.67,-1.875 18.83,-11.66 l 7.05,-6.145 4.88,8.137 27.73,47.305 3.13,5.293 -4.38,4.238"
         style="fill:#231f20;fill-opacity:1;fill-rule:nonzero;stroke:none"
         id="path56" />
      <path
         d="M 439.863,624.316 359.59,368.809 274.641,624.316 h -76.282 l 25.489,-67.128 -68.426,-189.5 -77.2579,256.628 H 0 L 118.313,258.77 h 58.523 l 79.805,210.937 76.035,-210.937 h 56.902 l 1.75,5.253 121.438,360.293 h -72.903"
         style="fill:#231f20;fill-opacity:1;fill-rule:nonzero;stroke:none"
         id="path58" />
      <path
         d="m 843.633,483.75 c -0.125,88.086 -55.547,148.906 -139.16,149.031 -101.231,-0.125 -168.438,-76.082 -168.575,-187.312 0.137,-110.391 67.215,-187.11 166.329,-187.344 h 0.793 c 45.125,0 76.199,10.801 126.453,42.52 l 6.152,3.886 -25.789,50.696 -4.113,8.015 -7.41,-5.137 c -36.536,-25.3 -55.676,-32.285 -84.083,-32.546 -62.472,0.632 -100.07,42.183 -103.175,117.402 h 232.578 z m -77.664,16.914 H 617.891 c 13.906,43.66 41.828,65.098 82.824,65.43 40.484,-0.703 61.707,-20.906 65.254,-65.43"
         style="fill:#231f20;fill-opacity:1;fill-rule:nonzero;stroke:none"
         id="path60" />
      <path
         d="m 1181.64,317.258 c -16.5,2.898 -21.17,7.879 -21.4,11.512 v 207.539 c 0,57.722 -48.58,92.636 -118.85,92.754 -74.398,-0.118 -129.749,-31.668 -130.355,-83.77 -0.117,-8.633 1.504,-15.664 7.117,-24.922 l 2.754,-4.863 62.746,13.144 8.907,1.875 -3.282,8.516 c -2.109,5.996 -2.507,7.512 -2.507,10 0.156,13.273 9.031,20.684 44.09,21.562 42.73,-1.003 56.24,-11.894 56.72,-34.296 V 480.93 L 975.637,454.629 c -52.344,-12.258 -82.395,-49.832 -81.907,-102.293 0.149,-57.863 40.45,-97.082 98.829,-97.199 25.531,0 53.591,7.773 75.891,20.547 9.13,4.804 16.16,9.863 26.75,18.808 7.3,-26.094 30.83,-38.574 71.03,-40.117 l 6.27,-0.371 1.77,6.035 13.51,47.316 2.4,8.407 z m -94.06,100.039 v -56.406 c -46.47,-33.403 -61.12,-39.746 -83.77,-39.746 -24.408,0.515 -37.443,13.132 -38.087,36.445 0.254,12.117 0.925,16.988 7.402,30.176 l 114.455,29.531"
         style="fill:#231f20;fill-opacity:1;fill-rule:nonzero;stroke:none"
         id="path62" />
      <path
         d="m 1460.96,623.848 -87.83,-262.989 -89.5,262.989 h -78.29 l 133.31,-365.684 h 62.7 l 1.97,5.02 136.23,360.664 h -78.59"
         style="fill:#231f20;fill-opacity:1;fill-rule:nonzero;stroke:none"
         id="path64" />
      <path
         d="m 1871.97,483.723 c -0.12,88.035 -55.57,148.875 -139.2,149.004 -101.21,-0.129 -168.41,-76.164 -168.55,-187.383 0.14,-110.356 67.23,-187.082 166.28,-187.258 h 1.53 c 44.72,0 75.82,10.937 125.78,42.559 l 6.15,3.757 -25.86,50.664 -4.1,8.032 -7.31,-5.157 c -36.5,-25.175 -55.78,-32.207 -84.14,-32.461 -62.48,0.606 -100.03,42.129 -103.12,117.364 h 232.54 z m -77.58,16.804 h -148.14 c 13.82,43.672 41.79,65.11 82.77,65.469 40.55,-0.703 61.7,-20.937 65.37,-65.469"
         style="fill:#231f20;fill-opacity:1;fill-rule:nonzero;stroke:none"
         id="path66" />
      <path
         d="m 2021.42,904.629 h 279.98 c 0,0 289.02,-357.598 788.69,-434.473 h -640.6 l -428.07,434.473"
         style="fill:#6bc856;fill-opacity:1;fill-rule:nonzero;stroke:none"
         id="path68" />
      <path
         d="m 2021.58,35.6641 h 279.98 c 0,0 289.02,357.5979 788.69,434.4529 H 2449.64 L 2021.58,35.6641"
         style="fill:#396c4f;fill-opacity:1;fill-rule:nonzero;stroke:none"
         id="path70" />
    </g>
  </g>
</svg>
