<svg width="381" height="100" viewBox="0 0 381 100" fill="none" xmlns="http://www.w3.org/2000/svg">
<mask id="mask0_4026_4182" style="mask-type:luminance" maskUnits="userSpaceOnUse" x="0" y="0" width="381" height="100">
<path d="M380.316 0H0V100H380.316V0Z" fill="white"/>
</mask>
<g mask="url(#mask0_4026_4182)">
<path d="M73.321 13.179C73.5444 11.8248 72.623 10.5404 71.2549 10.3171C71.0036 10.2752 70.7383 10.2752 70.487 10.3171C69.091 10.331 67.7926 11.0011 66.9829 12.1319V22.4768H62.9343V7.10611H66.9829V9.11644C68.3371 7.56681 70.3055 6.70125 72.3578 6.72917C75.7362 6.72917 77.3557 8.64178 77.3557 11.6294V22.4907H73.3071V13.1929L73.321 13.179Z" fill="#5ABEBA"/>
<path d="M90.7719 20.8844C89.5015 22.2106 87.7285 22.9366 85.8997 22.8528C83.0796 22.9785 80.6784 20.7867 80.5527 17.9527C80.5527 17.8828 80.5527 17.813 80.5527 17.7572C80.5527 14.1554 83.4565 12.857 85.8997 12.857C87.7145 12.7314 89.5015 13.4294 90.7719 14.7417V12.6057C90.7719 11.0421 89.4317 10.023 87.3934 10.023C85.7182 10.023 84.1127 10.6792 82.8981 11.8379L81.3624 9.12953C83.2332 7.53802 85.6204 6.67246 88.0775 6.71434C91.5816 6.71434 94.7926 8.11041 94.7926 12.5359V22.4619H90.744V20.8704L90.7719 20.8844ZM90.7719 16.8777C89.9482 15.9563 88.7476 15.4677 87.5191 15.5375C85.9276 15.5375 84.6153 16.3611 84.6153 17.8549C84.6153 19.3487 85.9276 20.1165 87.5191 20.1165C88.7476 20.1864 89.9482 19.6977 90.7719 18.7763V16.8637V16.8777Z" fill="#5ABEBA"/>
<path d="M99.7764 18.6522V10.6248H97.2356V7.09277H99.7764V2.89062H103.853V7.09277H106.98V10.6248H103.853V17.5632C103.853 18.5126 104.356 19.2525 105.249 19.2525C105.752 19.2664 106.24 19.1129 106.645 18.8057L107.511 21.8631C106.547 22.5891 105.347 22.9381 104.132 22.8543C101.298 22.8543 99.7764 21.3885 99.7764 18.6522Z" fill="#5ABEBA"/>
<path d="M120.285 20.5362C118.889 22.0439 116.92 22.8955 114.868 22.8536C111.489 22.8536 109.898 21.0108 109.898 18.0093V7.09209H113.947V16.4178C113.723 17.772 114.645 19.0284 115.999 19.2518C116.264 19.2937 116.529 19.2937 116.781 19.2518C118.149 19.2239 119.447 18.5817 120.285 17.4928V7.07812H124.333V22.4488H120.285V20.5083V20.5362Z" fill="#5ABEBA"/>
<path d="M128.493 7.10585H132.542V9.21391C133.743 7.72012 135.53 6.82664 137.442 6.75684V10.7077C135.627 10.2889 133.743 10.9171 132.542 12.3271V22.4765H128.493V7.10585Z" fill="#5ABEBA"/>
<path d="M149.351 20.8844C148.08 22.2106 146.307 22.9366 144.479 22.8528C141.658 22.9785 139.257 20.7867 139.132 17.9527C139.132 17.8828 139.132 17.813 139.132 17.7572C139.132 14.1554 142.035 12.857 144.479 12.857C146.293 12.7314 148.08 13.4294 149.351 14.7417V12.6057C149.351 11.0421 148.011 10.023 145.972 10.023C144.297 10.023 142.692 10.6792 141.477 11.8379L139.955 9.12953C141.826 7.53802 144.213 6.67246 146.67 6.71434C150.174 6.71434 153.385 8.11041 153.385 12.5359V22.4619H149.337V20.8704L149.351 20.8844ZM149.351 16.8777C148.527 15.9563 147.326 15.4677 146.098 15.5375C144.506 15.5375 143.208 16.3611 143.208 17.8549C143.208 19.3487 144.506 20.1165 146.098 20.1165C147.326 20.1864 148.527 19.6977 149.351 18.7763V16.8637V16.8777Z" fill="#5ABEBA"/>
<path d="M161.622 1.24219H157.573V22.4763H161.622V1.24219Z" fill="#5ABEBA"/>
<path d="M183.331 20.8844C182.061 22.2106 180.288 22.9366 178.459 22.8528C175.625 22.9785 173.237 20.7867 173.126 17.9527C173.126 17.8828 173.126 17.827 173.126 17.7572C173.126 14.1554 176.03 12.857 178.473 12.857C180.288 12.7314 182.074 13.4294 183.345 14.7417V12.6057C183.345 11.0421 182.005 10.023 179.966 10.023C178.291 10.023 176.686 10.6792 175.471 11.8379L173.949 9.12953C175.82 7.53802 178.207 6.67246 180.664 6.71434C184.169 6.71434 187.38 8.11041 187.38 12.5359V22.4619H183.331V20.8704V20.8844ZM183.331 16.8777C182.507 15.9563 181.307 15.4677 180.078 15.5375C178.487 15.5375 177.174 16.3611 177.174 17.8549C177.174 19.3487 178.487 20.1165 180.078 20.1165C181.307 20.1864 182.507 19.6977 183.331 18.7763V16.8637V16.8777Z" fill="#5ABEBA"/>
<path d="M191.54 7.10585H195.588V9.21391C196.789 7.72012 198.576 6.82664 200.489 6.75684V10.7077C198.674 10.2889 196.789 10.9171 195.588 12.3271V22.4765H191.54V7.10585Z" fill="#5ABEBA"/>
<path d="M203.965 18.6522V10.6248H201.41V7.09277H203.965V2.89062H208.041V7.09277H211.169V10.6248H208.041V17.5632C208.041 18.5126 208.558 19.2525 209.438 19.2525C209.94 19.2664 210.429 19.1129 210.834 18.8057L211.699 21.8631C210.736 22.5891 209.535 22.9381 208.321 22.8543C205.487 22.8543 203.965 21.3885 203.965 18.6522Z" fill="#5ABEBA"/>
<path d="M221.053 6.71484C225.632 6.71484 228.759 10.1492 228.759 15.1889V16.0824H217.325C217.618 18.2603 219.559 19.8239 221.751 19.6424C223.258 19.6424 224.71 19.0979 225.855 18.1207L227.642 20.7313C225.855 22.1832 223.607 22.9371 221.304 22.8673C217.004 23.1046 213.332 19.8239 213.095 15.524C213.095 15.2727 213.081 15.0214 213.095 14.7841C212.969 10.4563 216.376 6.85445 220.69 6.7288C220.815 6.7288 220.927 6.7288 221.053 6.7288M217.269 13.3461H224.85C224.766 11.3777 223.105 9.85599 221.15 9.93975C221.122 9.93975 221.095 9.93975 221.067 9.93975C219.098 9.88391 217.437 11.3777 217.283 13.3461" fill="#5ABEBA"/>
<path d="M232.263 17.6465C233.757 18.9169 235.627 19.6568 237.582 19.7545C239.327 19.7545 240.165 19.1542 240.165 18.191C240.165 17.102 238.824 16.7251 237.079 16.3761C234.441 15.8735 231.034 15.2313 231.034 11.5736C231.034 8.9909 233.296 6.72928 237.345 6.72928C239.592 6.70136 241.784 7.44127 243.557 8.83733L241.938 11.6015C240.709 10.4428 239.076 9.80062 237.386 9.81458C235.921 9.81458 234.971 10.359 234.971 11.2525C234.971 12.2018 236.186 12.5648 237.903 12.9138C240.542 13.4164 244.074 14.1284 244.074 17.9397C244.074 20.7458 241.686 22.8678 237.414 22.8678C234.915 22.9376 232.458 22.086 230.532 20.4805L232.277 17.6605L232.263 17.6465Z" fill="#5ABEBA"/>
<path d="M246.782 2.41519C246.782 1.07497 247.871 0 249.197 0C250.538 0 251.613 1.08893 251.613 2.41519C251.613 3.74145 250.524 4.83038 249.197 4.83038C247.871 4.83038 246.782 3.74145 246.782 2.41519ZM247.201 7.092H251.25V22.4627H247.201V7.10596V7.092Z" fill="#5ABEBA"/>
<path d="M264.638 20.8844C263.367 22.2106 261.594 22.9366 259.765 22.8528C256.945 22.9785 254.544 20.7867 254.418 17.9527C254.418 17.8828 254.418 17.813 254.418 17.7572C254.418 14.1554 257.322 12.857 259.765 12.857C261.58 12.7314 263.367 13.4294 264.638 14.7417V12.6057C264.638 11.0421 263.297 10.023 261.259 10.023C259.584 10.023 257.978 10.6792 256.764 11.8379L255.242 9.12953C257.113 7.53802 259.5 6.67246 261.957 6.71434C265.461 6.71434 268.672 8.11041 268.672 12.5359V22.4619H264.624V20.8704L264.638 20.8844ZM264.638 16.8777C263.814 15.9563 262.613 15.4677 261.385 15.5375C259.793 15.5375 258.495 16.3611 258.495 17.8549C258.495 19.3487 259.793 20.1165 261.385 20.1165C262.613 20.1864 263.814 19.6977 264.638 18.7763V16.8637V16.8777Z" fill="#5ABEBA"/>
<path d="M283.233 13.179C283.457 11.8248 282.535 10.5404 281.167 10.3171C280.916 10.2752 280.65 10.2752 280.399 10.3171C279.003 10.331 277.705 11.0011 276.895 12.1319V22.4768H272.846V7.10611H276.895V9.11644C278.249 7.56681 280.218 6.70125 282.284 6.72917C285.662 6.72917 287.282 8.64178 287.282 11.6294V22.4907H283.233V13.1929V13.179Z" fill="#5ABEBA"/>
<path d="M310.009 12.0057L306.757 22.4761H302.429L297.752 7.10547H301.954L304.816 17.4503L308.195 7.10547H311.796L315.175 17.4503L318.037 7.10547H322.239L317.562 22.4761H313.262L310.009 12.0057Z" fill="#5ABEBA"/>
<path d="M333.631 20.8844C332.361 22.2106 330.588 22.9366 328.759 22.8528C325.939 22.9785 323.538 20.7867 323.412 17.9527C323.412 17.8828 323.412 17.813 323.412 17.7572C323.412 14.1554 326.316 12.857 328.759 12.857C330.574 12.7314 332.361 13.4294 333.631 14.7417V12.6057C333.631 11.0421 332.291 10.023 330.253 10.023C328.577 10.023 326.972 10.6792 325.757 11.8379L324.236 9.12953C326.106 7.53802 328.494 6.67246 330.951 6.71434C334.455 6.71434 337.666 8.11041 337.666 12.5359V22.4619H333.617V20.8704L333.631 20.8844ZM333.631 16.8777C332.807 15.9563 331.607 15.4677 330.378 15.5375C328.787 15.5375 327.474 16.3611 327.474 17.8549C327.474 19.3487 328.787 20.1165 330.378 20.1165C331.607 20.1864 332.807 19.6977 333.631 18.7763V16.8637V16.8777Z" fill="#5ABEBA"/>
<path d="M342.649 18.6522V10.6248H340.109V7.09277H342.649V2.89062H346.726V7.09277H349.853V10.6248H346.726V17.5632C346.726 18.5126 347.243 19.2525 348.122 19.2525C348.625 19.2664 349.113 19.1129 349.518 18.8057L350.384 21.8631C349.42 22.5891 348.22 22.9381 347.005 22.8543C344.171 22.8543 342.649 21.3885 342.649 18.6522Z" fill="#5ABEBA"/>
<path d="M359.738 6.71484C364.317 6.71484 367.444 10.1492 367.444 15.1889V16.0824H356.01C356.303 18.2603 358.244 19.8239 360.436 19.6424C361.943 19.6424 363.395 19.0979 364.54 18.1207L366.327 20.7313C364.54 22.1832 362.292 22.9371 359.989 22.8673C355.689 23.1046 352.017 19.8239 351.78 15.524C351.78 15.2727 351.766 15.0214 351.78 14.7841C351.654 10.4563 355.061 6.85445 359.375 6.7288C359.5 6.7288 359.612 6.7288 359.738 6.7288M355.954 13.3461H363.535C363.451 11.3777 361.79 9.85599 359.835 9.93975C359.807 9.93975 359.78 9.93975 359.752 9.93975C357.783 9.88391 356.122 11.3777 355.968 13.3461" fill="#5ABEBA"/>
<path d="M370.543 7.10585H374.592V9.21391C375.792 7.72012 377.579 6.82664 379.492 6.75684V10.7077C377.677 10.2889 375.792 10.9171 374.592 12.3271V22.4765H370.543V7.10585Z" fill="#5ABEBA"/>
<path d="M370.864 88.4125C368.728 88.3566 366.955 90.0459 366.885 92.1818C366.815 94.3178 368.518 96.0908 370.654 96.1606C372.79 96.2165 374.563 94.5272 374.633 92.3913C374.633 92.3633 374.633 92.3215 374.633 92.2935C374.661 90.1855 372.972 88.4544 370.864 88.4264M370.864 95.6022C369.035 95.658 367.513 94.2201 367.457 92.3913C367.402 90.5624 368.84 89.0407 370.668 88.9849C372.497 88.929 374.019 90.367 374.075 92.1958C374.075 92.2237 374.075 92.2656 374.075 92.2935C374.103 94.0945 372.665 95.5743 370.864 95.6022Z" fill="white"/>
<path d="M372.539 91.2747C372.539 90.479 372.162 90.0322 371.171 90.0322H369.496V94.4996H370.04V92.5451H370.822L372.12 94.4996H372.735L371.436 92.5451C372.093 92.4893 372.581 91.9309 372.525 91.2747M370.738 92.0426H370.04V90.5208H371.018C371.478 90.5208 371.995 90.6884 371.995 91.2608C371.995 92.0007 371.353 92.0286 370.752 92.0286" fill="white"/>
<path d="M154.418 33.8958C145.833 33.8958 136.744 37.372 131.272 42.7329L129.694 44.2825L136.912 52.966L138.671 51.4164C142.971 47.4935 148.611 45.3714 154.432 45.4412C163.451 45.4412 168.03 49.3781 168.03 57.1542V57.7406C167.081 57.7266 166.104 57.7126 165.098 57.7126C153.916 57.7126 138.182 58.7457 130.699 67.6945C127.125 71.9664 125.869 77.2854 126.944 83.5398C128.689 93.6892 136.87 99.9854 148.276 99.9854C149.225 99.9854 150.188 99.9435 151.152 99.8458C157.252 99.2734 163.074 97.0956 168.058 93.5216V98.2822H179.296V57.2799C179.296 42.1884 170.459 33.8818 154.432 33.8818M168.044 70.6262C168.044 72.0921 167.932 73.5579 167.709 75.0099L167.667 75.4007C165.838 83.0233 157.49 87.6861 150.174 88.3562C149.588 88.4121 148.988 88.44 148.401 88.44C144.967 88.44 139.048 87.5465 138.015 81.5295C137.428 79.3516 137.875 77.0341 139.229 75.2332C141.505 72.5109 147.871 69.272 165.294 69.272C166.243 69.272 167.165 69.272 168.044 69.286V70.6262Z" fill="white"/>
<path d="M376.853 34.0918C375.485 33.9243 374.103 33.8545 372.721 33.8545C364.945 33.8545 358.397 36.4372 353.818 41.3095C349.295 46.1119 346.894 52.8828 346.908 60.8683V98.0036H358.537V60.8962C358.676 50.5933 363.451 45.721 373.517 45.5675C374.368 45.5675 375.234 45.6093 376.085 45.6791L380.315 46.0421V34.4688L376.853 34.0779V34.0918Z" fill="white"/>
<path d="M246.67 33.8962C239.62 33.7846 232.905 36.8978 228.424 42.3564C223.914 36.8838 217.143 33.7706 210.038 33.8962C203.546 33.8125 197.291 36.3673 192.726 40.9882C188.175 45.7767 185.69 52.1707 185.816 58.788V98.157H197.571V58.802C197.613 51.2912 202.736 46.0001 210.024 45.9582C217.506 46.0141 222.56 51.1795 222.616 58.788V98.157H234.259V58.802C234.301 51.1655 239.327 46.0001 246.726 45.9582C254.209 46.0141 259.277 51.1795 259.319 58.788V98.157H270.948V58.788C271.073 52.1847 268.602 45.8047 264.093 41.0022C259.5 36.3533 253.19 33.7846 246.656 33.8962" fill="white"/>
<path d="M114.826 35.2783L94.9602 78.8494L75.0942 35.2783H62.1248L91.3723 99.4414H98.562L127.81 35.2783H114.826Z" fill="white"/>
<path d="M309.046 34.5107C291.498 34.5107 277.202 49.1973 277.202 67.2345C277.202 85.2716 291.484 99.9582 309.046 99.9582C326.609 99.9582 340.891 85.2716 340.891 67.2345C340.891 49.1973 326.609 34.5107 309.046 34.5107ZM309.046 88.4407C297.333 88.7618 287.589 79.5338 287.268 67.8208C286.947 56.1078 296.175 46.3633 307.888 46.0422C319.601 45.7211 329.345 54.9491 329.666 66.6621C329.666 66.8575 329.666 67.053 329.666 67.2484C329.806 78.7939 320.578 88.2731 309.046 88.4546" fill="white"/>
<path d="M48.1362 81.7393C40.1647 90.2692 26.7904 90.702 18.2605 82.7305C15.3985 80.05 13.3463 76.6436 12.3132 72.8603H65.0286C65.2799 70.9896 65.4334 69.1049 65.4614 67.2342C65.4893 49.1272 50.8446 34.4127 32.7376 34.3848C14.6167 34.3569 -0.0977713 49.0016 -0.125693 67.1225C-0.153614 85.2294 14.4911 99.9439 32.598 99.9719C45.0788 99.9998 56.4847 92.9357 62.041 81.7532H48.1362V81.7393ZM32.7237 46.028C42.552 46.028 51.0819 52.7989 53.3435 62.3619H12.1038C14.3515 52.7989 22.8954 46.028 32.7237 46.028Z" fill="white"/>
</g>
</svg>
