<?xml version="1.0" encoding="utf-8"?>
<!-- Generator: Adobe Illustrator 26.4.1, SVG Export Plug-In . SVG Version: 6.00 Build 0)  -->
<svg version="1.1" id="Ebene_1" xmlns="http://www.w3.org/2000/svg" xmlns:xlink="http://www.w3.org/1999/xlink" x="0px" y="0px"
	 viewBox="0 0 1900.8 270.7" style="enable-background:new 0 0 1900.8 270.7;" xml:space="preserve">
<style type="text/css">
	.st0{fill:#A2A3A2;}
	.st1{fill:#6AB986;}
	.st2{display:none;fill:#2FAC66;stroke:#000000;stroke-width:0.1;stroke-miterlimit:10;}
	.st3{fill:#252949;}
</style>
<image style="display:none;overflow:visible;" width="1020" height="165" xlink:href="../../logov7.png"  transform="matrix(1.7519 0 0 1.7519 227.9943 -48.4617)">
</image>
<g>
	<path class="st0" d="M152.9,128c-0.4,0.4-1,0.4-1.4,0l-65-65c-0.4-0.4-0.4-1,0-1.4l49.7-49.7c8.9-8.9,23.2-8.9,32.1,0l49.7,49.7
		c0.4,0.4,0.4,1,0,1.4L152.9,128z"/>
</g>
<g>
	<path class="st1" d="M226.9,201.9c-0.4,0.4-1,0.4-1.4,0l-65-65c-0.4-0.4-0.4-1,0-1.4l65-65c0.4-0.4,1-0.4,1.4,0l49.7,49.7
		c8.9,8.9,8.9,23.2,0,32.1L226.9,201.9z"/>
</g>
<g>
	<path class="st0" d="M136.2,260.6l-49.7-49.7c-0.4-0.4-0.4-1,0-1.4l65-65c0.4-0.4,1-0.4,1.4,0l65,65c0.4,0.4,0.4,1,0,1.4
		l-49.7,49.7C159.4,269.4,145,269.4,136.2,260.6z"/>
</g>
<rect x="203.2" y="62.9" transform="matrix(0.7071 0.7071 -0.7071 0.7071 117.5725 -124.0444)" class="st2" width="10.6" height="34.1"/>
<rect x="174.9" y="147.2" transform="matrix(0.7071 -0.7071 0.7071 0.7071 -63.3546 175.5484)" class="st2" width="10.6" height="34.1"/>
<rect x="99" y="71.3" transform="matrix(0.7071 -0.7071 0.7071 0.7071 -31.8895 99.5849)" class="st2" width="10.6" height="34.1"/>
<rect x="131.6" y="134.5" transform="matrix(0.7071 0.7071 -0.7071 0.7071 147.2301 -52.4448)" class="st2" width="10.6" height="34.1"/>
<g>
	<path class="st3" d="M79,201.9c-0.4,0.4-1,0.4-1.4,0l-49.7-49.7c-8.9-8.9-8.9-23.2,0-32.1l49.7-49.7c0.4-0.4,1-0.4,1.4,0l65,65
		c0.4,0.4,0.4,1,0,1.4L79,201.9z"/>
</g>
<rect x="283.5" y="119.2" class="st2" width="27.8" height="34.1"/>
<rect x="249.8" y="246.9" class="st2" width="10.6" height="34.1"/>
<g>
	<path class="st3" d="M381.8,5.7L449,195.6L515.9,5.7h70.9v261.8h-54.1V196l5.4-123.5l-70.7,195.1h-37L359.8,72.6l5.4,123.4v71.6
		h-54V5.7H381.8z"/>
	<path class="st3" d="M691.3,267.5h-54V5.7h54V267.5z"/>
	<path class="st3" d="M811.8,5.7L879,195.6L945.9,5.7h70.9v261.8h-54.1V196L968,72.4l-70.7,195.1h-37L789.8,72.6l5.4,123.4v71.6
		h-53.9V5.7H811.8z"/>
</g>
<rect x="1016.8" y="57.6" class="st2" width="27.8" height="34.1"/>
<g>
	<path class="st3" d="M1065.3,5.8l19.5,55.1l19.4-55.1h20.6v76h-15.7V61.1l1.6-35.9l-20.5,56.7h-10.8l-20.5-56.6l1.6,35.8v20.8
		h-15.7v-76H1065.3z"/>
	<path class="st3" d="M1197.7,5.8v50.1c0,8.3-2.6,14.9-7.8,19.7c-5.2,4.8-12.3,7.3-21.3,7.3c-8.9,0-15.9-2.3-21.1-7
		c-5.2-4.7-7.9-11.2-8-19.4V5.8h15.7V56c0,5,1.2,8.6,3.6,10.9c2.4,2.3,5.7,3.4,9.9,3.4c8.8,0,13.3-4.6,13.4-13.9V5.8H1197.7z"/>
	<path class="st3" d="M1274.1,81.8h-15.7l-30.5-50v50h-15.7v-76h15.7l30.5,50.1V5.8h15.6V81.8z"/>
	<path class="st3" d="M1306.1,81.8h-15.7v-76h15.7V81.8z"/>
	<path class="st3" d="M1382,56.5c-0.6,8.2-3.6,14.6-9.1,19.3c-5.4,4.7-12.6,7-21.5,7c-9.7,0-17.4-3.3-23-9.8
		c-5.6-6.6-8.4-15.6-8.4-27v-4.6c0-7.3,1.3-13.7,3.9-19.3c2.6-5.6,6.3-9.8,11-12.8c4.8-3,10.3-4.5,16.7-4.5c8.8,0,15.8,2.3,21.2,7
		c5.4,4.7,8.5,11.3,9.3,19.8h-15.7c-0.4-4.9-1.7-8.5-4.1-10.7c-2.3-2.2-5.9-3.3-10.7-3.3c-5.2,0-9.1,1.9-11.7,5.6
		c-2.6,3.7-3.9,9.5-4,17.4v5.7c0,8.2,1.2,14.2,3.7,18c2.5,3.8,6.4,5.7,11.8,5.7c4.8,0,8.4-1.1,10.8-3.3c2.4-2.2,3.8-5.6,4.1-10.3
		H1382z"/>
	<path class="st3" d="M1455.9,81.8h-15.7V49.3h-30.5v32.6H1394v-76h15.7v30.8h30.5V5.8h15.7V81.8z"/>
	<path class="st3" d="M1061.4,174.9h-15.7v-76h15.7V174.9z"/>
	<path class="st3" d="M1139.5,174.9h-15.7l-30.5-50v50h-15.7v-76h15.7l30.5,50.1V98.8h15.6V174.9z"/>
	<path class="st3" d="M1212.1,111.5h-23.3v63.3h-15.7v-63.3h-23V98.8h61.9V111.5z"/>
	<path class="st3" d="M1268.5,141.9h-30.1v20.4h35.3v12.6h-51v-76h50.9v12.7h-35.2v18.1h30.1V141.9z"/>
	<path class="st3" d="M1312.7,147h-12.5v27.8h-15.7v-76h28.2c9,0,15.9,2,20.8,6c4.9,4,7.3,9.7,7.3,17c0,5.2-1.1,9.5-3.4,13
		c-2.2,3.5-5.6,6.2-10.2,8.3l16.4,31.1v0.7H1327L1312.7,147z M1300.3,134.3h12.6c3.9,0,7-1,9.1-3c2.2-2,3.2-4.8,3.2-8.3
		c0-3.6-1-6.4-3.1-8.5c-2-2.1-5.2-3.1-9.4-3.1h-12.6V134.3z"/>
	<path class="st3" d="M1416.4,174.9h-15.7l-30.5-50v50h-15.7v-76h15.7l30.5,50.1V98.8h15.6V174.9z"/>
	<path class="st3" d="M1474.7,159.2h-27.5l-5.2,15.7h-16.7l28.3-76h14.5l28.5,76H1480L1474.7,159.2z M1451.5,146.5h19l-9.6-28.5
		L1451.5,146.5z"/>
	<path class="st3" d="M1556.4,111.5h-23.3v63.3h-15.7v-63.3h-23V98.8h61.9V111.5z"/>
	<path class="st3" d="M1583.7,174.9H1568v-76h15.7V174.9z"/>
	<path class="st3" d="M1662.4,138.6c0,7.5-1.3,14-4,19.7s-6.4,10-11.4,13.1c-4.9,3.1-10.6,4.6-16.9,4.6c-6.3,0-11.9-1.5-16.9-4.5
		c-4.9-3-8.8-7.4-11.5-13c-2.7-5.6-4.1-12.1-4.1-19.4v-3.8c0-7.5,1.3-14.1,4-19.8c2.7-5.7,6.5-10.1,11.4-13.1
		c4.9-3,10.6-4.6,16.9-4.6s12,1.5,16.9,4.6c4.9,3,8.7,7.4,11.4,13.1c2.7,5.7,4,12.3,4,19.7V138.6z M1646.5,135.1
		c0-8-1.4-14-4.3-18.2c-2.9-4.1-6.9-6.2-12.2-6.2c-5.3,0-9.3,2-12.2,6.1c-2.9,4.1-4.3,10.1-4.3,18v3.7c0,7.8,1.4,13.8,4.3,18.1
		c2.9,4.3,7,6.4,12.3,6.4c5.3,0,9.3-2.1,12.1-6.2c2.8-4.1,4.2-10.1,4.3-18V135.1z"/>
	<path class="st3" d="M1737.3,174.9h-15.7l-30.5-50v50h-15.7v-76h15.7l30.5,50.1V98.8h15.6V174.9z"/>
	<path class="st3" d="M1795.6,159.2h-27.5l-5.2,15.7h-16.7l28.3-76h14.5l28.5,76h-16.7L1795.6,159.2z M1772.3,146.5h19l-9.6-28.5
		L1772.3,146.5z"/>
	<path class="st3" d="M1842,162.3h33.3v12.6h-48.9v-76h15.7V162.3z"/>
	<path class="st3" d="M1065.3,191.9l19.5,55.1l19.4-55.1h20.6v76h-15.7v-20.8l1.6-35.9l-20.5,56.7h-10.8l-20.5-56.6l1.6,35.8v20.8
		h-15.7v-76H1065.3z"/>
	<path class="st3" d="M1156.8,267.9h-15.7v-76h15.7V267.9z"/>
	<path class="st3" d="M1234.9,267.9h-15.7l-30.5-50v50H1173v-76h15.7l30.5,50.1v-50.1h15.6V267.9z"/>
	<path class="st3" d="M1266.9,267.9h-15.7v-76h15.7V267.9z"/>
	<path class="st3" d="M1345,267.9h-15.7l-30.5-50v50h-15.7v-76h15.7l30.5,50.1v-50.1h15.6V267.9z"/>
	<path class="st3" d="M1420.5,258.3c-2.8,3.4-6.8,6-12,7.9c-5.2,1.9-10.9,2.8-17.1,2.8c-6.6,0-12.3-1.4-17.3-4.3
		c-5-2.9-8.8-7-11.5-12.5c-2.7-5.5-4.1-11.9-4.2-19.3v-5.2c0-7.6,1.3-14.2,3.8-19.7c2.6-5.6,6.2-9.8,11.1-12.7
		c4.8-2.9,10.5-4.4,16.9-4.4c9,0,16.1,2.1,21.1,6.4c5.1,4.3,8.1,10.6,9,18.8h-15.2c-0.7-4.4-2.2-7.5-4.6-9.6c-2.4-2-5.7-3-9.8-3
		c-5.3,0-9.4,2-12.2,6c-2.8,4-4.2,10-4.2,17.9v4.9c0,8,1.5,14,4.5,18.1s7.5,6.1,13.3,6.1c5.9,0,10.1-1.3,12.6-3.8v-13.1h-14.3V228
		h29.9V258.3z"/>
</g>
<rect x="1054.6" y="165.8" transform="matrix(-7.068240e-07 -1 1 -7.068240e-07 880.3647 1246.0121)" class="st2" width="17.2" height="34.1"/>
</svg>
