<?xml version="1.0" encoding="UTF-8" standalone="no"?>
<!-- Created with Inkscape (http://www.inkscape.org/) -->

<svg
   version="1.1"
   id="svg2"
   width="816"
   height="1056"
   viewBox="0 0 816 1056"
   sodipodi:docname="Foundry-tag-horz (1).ai"
   xmlns:inkscape="http://www.inkscape.org/namespaces/inkscape"
   xmlns:sodipodi="http://sodipodi.sourceforge.net/DTD/sodipodi-0.dtd"
   xmlns="http://www.w3.org/2000/svg"
   xmlns:svg="http://www.w3.org/2000/svg">
  <defs
     id="defs6">
    <clipPath
       clipPathUnits="userSpaceOnUse"
       id="clipPath16">
      <path
         d="M 0,792 H 612 V 0 H 0 Z"
         id="path14" />
    </clipPath>
  </defs>
  <sodipodi:namedview
     id="namedview4"
     pagecolor="#ffffff"
     bordercolor="#000000"
     borderopacity="0.25"
     inkscape:showpageshadow="2"
     inkscape:pageopacity="0.0"
     inkscape:pagecheckerboard="0"
     inkscape:deskcolor="#d1d1d1" />
  <g
     id="g8"
     inkscape:groupmode="layer"
     inkscape:label="Foundry-tag-horz (1)"
     transform="matrix(1.3333333,0,0,-1.3333333,0,1056)">
    <g
       id="g10">
      <g
         id="g12"
         clip-path="url(#clipPath16)">
        <g
           id="g18"
           transform="translate(155.7946,424.4223)">
          <path
             d="m 0,0 v -10.133 h -1.609 c -5.384,0 -10.769,0.004 -16.153,-0.002 -3.306,-0.003 -4.072,-0.771 -4.073,-4.046 -10e-4,-2.09 -10e-4,-4.181 -10e-4,-6.444 H -0.127 V -31.84 h -21.637 v -44.596 h -15.558 v 44.482 h -15.795 v 11.214 h 15.736 c 0,1.003 -0.013,1.849 0.002,2.694 0.062,3.492 -0.272,7.021 0.924,10.412 1.568,4.445 4.925,6.611 9.416,7.329 0.603,0.096 1.205,0.203 1.807,0.305 z"
             style="fill:#000000;fill-opacity:1;fill-rule:nonzero;stroke:none"
             id="path20" />
        </g>
        <g
           id="g22"
           transform="translate(443.0382,378.8852)">
          <path
             d="m 0,0 c 0,3.374 -0.033,6.748 0.01,10.121 0.039,3.142 -1.531,5.122 -4.339,6.29 -3.612,1.501 -7.419,1.87 -11.28,2.195 -5.083,0.428 -10.118,0.334 -15.095,-0.71 -5.961,-1.251 -10.326,-4.467 -11.847,-10.628 -1.084,-4.388 -1.058,-8.862 -0.194,-13.286 1.175,-6.018 4.905,-9.753 10.802,-11.279 5.032,-1.301 10.166,-1.438 15.34,-1.085 3.925,0.268 7.811,0.648 11.552,1.961 3.612,1.268 5.038,3.24 5.045,7.067 C 0,-6.236 -0.005,-3.118 0,0 M 0.073,15.113 V 45.148 H 15.425 V -30.901 H 0.041 v 15.229 c -0.989,-3.83 -2.819,-7.031 -5.771,-9.618 -3.655,-3.203 -8.032,-4.744 -12.721,-5.534 -6.469,-1.091 -12.941,-0.91 -19.302,0.627 -10.098,2.438 -16.992,8.443 -19.663,18.65 -2.385,9.112 -2.231,18.194 1.251,27.05 2.433,6.189 6.884,10.501 12.961,13.172 6.321,2.779 13.014,3.36 19.787,3.018 5.277,-0.266 10.431,-1.294 15.023,-4.144 4.199,-2.606 7.092,-6.158 7.951,-11.147 0.056,-0.326 0.247,-0.63 0.516,-1.289"
             style="fill:#000000;fill-opacity:1;fill-rule:nonzero;stroke:none"
             id="path24" />
        </g>
        <g
           id="g26"
           transform="translate(172.8992,379.1384)">
          <path
             d="m 0,0 c 0.146,-1.721 0.183,-3.46 0.458,-5.161 0.86,-5.302 3.593,-9.18 8.853,-10.947 7.364,-2.473 14.877,-2.307 22.342,-0.736 5.189,1.092 9.064,4.08 10.542,9.417 0.972,3.505 1.079,7.089 0.739,10.737 -0.711,7.627 -4.621,11.846 -11.679,13.423 -6.003,1.341 -12.074,1.315 -18.108,0.283 C 8.737,16.263 4.731,14.558 2.351,10.466 0.483,7.256 -0.025,3.686 0,0 m 58.9,-0.138 c -0.166,-5.241 -0.924,-10.286 -3.08,-15.06 -2.865,-6.343 -7.717,-10.628 -14.136,-13.143 -8.376,-3.281 -17.103,-3.8 -25.982,-3.088 -6.061,0.487 -11.926,1.613 -17.344,4.52 -7.176,3.849 -11.337,9.875 -13.02,17.737 -1.321,6.166 -1.32,12.337 0.045,18.47 1.614,7.253 5.41,13.043 11.978,16.829 5.587,3.222 11.692,4.548 18.061,5.092 5.279,0.45 10.519,0.339 15.756,-0.353 5.828,-0.769 11.399,-2.366 16.261,-5.759 5.47,-3.818 8.841,-9.14 10.188,-15.626 0.656,-3.159 0.863,-6.41 1.273,-9.619"
             style="fill:#000000;fill-opacity:1;fill-rule:nonzero;stroke:none"
             id="path28" />
        </g>
        <g
           id="g30"
           transform="translate(304.6141,347.9828)">
          <path
             d="m 0,0 h -15.56 v 16.597 c -0.706,-3.035 -1.661,-5.935 -3.49,-8.477 -3.029,-4.208 -7.318,-6.537 -12.237,-7.64 -7.601,-1.705 -15.206,-1.543 -22.621,0.997 -8.813,3.019 -13.76,9.266 -14.913,18.472 -0.202,1.611 -0.299,3.246 -0.302,4.871 -0.025,11.856 -0.013,23.712 -0.013,35.568 0,0.599 0,1.197 0,1.868 h 15.408 c 0,-0.578 0,-1.166 0,-1.753 0.001,-11.243 -0.081,-22.487 0.031,-33.729 0.07,-7.014 3.043,-11.157 10.156,-12.866 7.109,-1.708 14.285,-1.529 21.3,0.622 3.036,0.93 5.641,2.624 6.478,6.024 0.156,0.633 0.171,1.312 0.172,1.969 0.009,12.674 0.007,25.348 0.007,38.022 v 1.713 H 0 Z"
             style="fill:#000000;fill-opacity:1;fill-rule:nonzero;stroke:none"
             id="path32" />
        </g>
        <g
           id="g34"
           transform="translate(552.8286,371.7938)">
          <path
             d="m 0,0 c 2.118,4.047 4.137,7.919 6.168,11.784 4.517,8.601 9.031,17.204 13.59,25.782 0.228,0.43 0.87,0.907 1.324,0.912 5.274,0.064 10.548,0.041 16.004,0.041 C 35.754,36.054 34.507,33.716 33.232,31.392 30.353,26.144 27.464,20.901 24.574,15.659 20.687,8.609 16.851,1.529 12.883,-5.475 10.777,-9.192 8.583,-12.876 6.171,-16.4 c -3.804,-5.559 -9.332,-8.622 -15.815,-10.099 -5.556,-1.266 -11.216,-1.537 -16.884,-1.694 -1.733,-0.048 -3.469,-0.007 -5.313,-0.007 v 13.043 c 3.933,0 7.818,-0.08 11.698,0.023 3.534,0.094 6.995,0.635 10.149,2.421 2.208,1.25 3.987,2.933 5.664,5.223 -2.662,0 -5.042,0.039 -7.42,-0.022 -0.818,-0.021 -1.229,0.254 -1.664,0.939 -8.885,14.003 -17.805,27.983 -26.713,41.972 -0.599,0.94 -1.155,1.906 -1.814,2.996 0.414,0.049 0.735,0.119 1.057,0.119 5.128,0.007 10.256,0.04 15.383,-0.04 0.614,-0.009 1.461,-0.481 1.792,-0.998 4.276,-6.677 8.483,-13.399 12.697,-20.116 C -7.498,11.76 -3.998,6.152 -0.488,0.55 -0.411,0.426 -0.294,0.328 0,0"
             style="fill:#000000;fill-opacity:1;fill-rule:nonzero;stroke:none"
             id="path36" />
        </g>
        <g
           id="g38"
           transform="translate(326.5086,390.4975)">
          <path
             d="m 0,0 c -0.604,6.634 3.346,13.616 9.488,16.839 3.408,1.788 7.047,2.609 10.858,3.033 5.197,0.577 10.307,0.245 15.353,-0.986 6.245,-1.524 11.36,-4.775 14.625,-10.418 1.781,-3.079 2.886,-6.518 2.929,-10.069 0.163,-13.331 0.148,-26.663 0.195,-39.995 10e-4,-0.251 -0.046,-0.501 -0.083,-0.881 H 37.908 v 1.66 c 0,11.139 -0.059,22.279 0.02,33.417 C 37.984,0.362 33.96,4.456 27.292,5.854 20.129,7.355 12.956,7.208 5.938,4.802 3.327,3.907 1.38,2.27 0.153,-0.204 0.101,-0.136 0.05,-0.068 0,0"
             style="fill:#000000;fill-opacity:1;fill-rule:nonzero;stroke:none"
             id="path40" />
        </g>
        <g
           id="g42"
           transform="translate(480.1147,347.9691)">
          <path
             d="M 0,0 H -15.436 V 62.218 H -0.03 V 44.051 c 0.656,2.26 1.128,4.693 2.062,6.933 2.092,5.017 6.013,8.201 11.078,9.975 5.039,1.764 10.226,2.092 15.545,1.381 V 47.291 C 24.813,47.607 21.067,48.145 17.318,48.16 13.304,48.177 9.275,47.778 5.517,46.092 1.659,44.361 -0.071,41.833 -0.038,37.88 0.066,25.873 0,13.865 0,1.857 Z"
             style="fill:#000000;fill-opacity:1;fill-rule:nonzero;stroke:none"
             id="path44" />
        </g>
        <g
           id="g46"
           transform="translate(326.6611,390.2938)">
          <path
             d="m 0,0 c -0.133,-1.415 -0.378,-2.83 -0.381,-4.245 -0.031,-12.109 -0.017,-24.218 -0.017,-36.327 v -1.74 h -15.639 v 62.23 H -0.153 V 0.204 C -0.102,0.136 -0.051,0.068 0,0"
             style="fill:#000000;fill-opacity:1;fill-rule:nonzero;stroke:none"
             id="path48" />
        </g>
        <g
           id="g50"
           transform="translate(75.729,434.5259)">
          <path
             d="m 0,0 c 0,-7.442 -6.033,-13.474 -13.474,-13.474 -7.442,0 -13.474,6.032 -13.474,13.474 0,7.442 6.032,13.474 13.474,13.474 C -6.033,13.474 0,7.442 0,0"
             style="fill:#000000;fill-opacity:1;fill-rule:nonzero;stroke:none"
             id="path52" />
        </g>
        <g
           id="g54"
           transform="translate(48.7801,414.3198)">
          <path
             d="m 0,0 c 0,-7.442 -6.033,-13.474 -13.474,-13.474 -7.442,0 -13.474,6.032 -13.474,13.474 0,7.442 6.032,13.474 13.474,13.474 C -6.033,13.474 0,7.442 0,0"
             style="fill:#000000;fill-opacity:1;fill-rule:nonzero;stroke:none"
             id="path56" />
        </g>
        <g
           id="g58"
           transform="translate(48.7801,373.8969)">
          <path
             d="m 0,0 c 0,-7.442 -6.033,-13.474 -13.474,-13.474 -7.442,0 -13.474,6.032 -13.474,13.474 0,7.442 6.032,13.474 13.474,13.474 C -6.033,13.474 0,7.442 0,0"
             style="fill:#000000;fill-opacity:1;fill-rule:nonzero;stroke:none"
             id="path60" />
        </g>
        <g
           id="g62"
           transform="translate(75.729,394.1031)">
          <path
             d="m 0,0 c 0,-7.442 -6.033,-13.474 -13.474,-13.474 -7.442,0 -13.474,6.032 -13.474,13.474 0,7.442 6.032,13.474 13.474,13.474 C -6.033,13.474 0,7.442 0,0"
             style="fill:#00e67e;fill-opacity:1;fill-rule:nonzero;stroke:none"
             id="path64" />
        </g>
        <g
           id="g66"
           transform="translate(75.729,353.6799)">
          <path
             d="m 0,0 c 0,-7.442 -6.033,-13.474 -13.474,-13.474 -7.442,0 -13.474,6.032 -13.474,13.474 0,7.442 6.032,13.474 13.474,13.474 C -6.033,13.474 0,7.442 0,0"
             style="fill:#00e67e;fill-opacity:1;fill-rule:nonzero;stroke:none"
             id="path68" />
        </g>
        <g
           id="g70"
           transform="translate(48.7801,333.4741)">
          <path
             d="m 0,0 c 0,-7.442 -6.033,-13.474 -13.474,-13.474 -7.442,0 -13.474,6.032 -13.474,13.474 0,7.442 6.032,13.474 13.474,13.474 C -6.033,13.474 0,7.442 0,0"
             style="fill:#00e67e;fill-opacity:1;fill-rule:nonzero;stroke:none"
             id="path72" />
        </g>
        <g
           id="g74"
           transform="translate(117.8451,310.9527)">
          <path
             d="M 0,0 V 17.138 H 11.386 V 14.376 H 3.128 V 9.983 h 7.798 V 7.224 H 3.128 V 2.761 h 8.258 V 0 Z"
             style="fill:#000000;fill-opacity:1;fill-rule:nonzero;stroke:none"
             id="path76" />
        </g>
        <g
           id="g78"
           transform="translate(130.8176,310.9527)">
          <path
             d="M 0,0 V 12.514 H 2.829 V 9.616 l -0.322,0.483 c 0.231,0.904 0.69,1.578 1.381,2.024 0.69,0.444 1.502,0.667 2.438,0.667 1.027,0 1.932,-0.269 2.714,-0.806 0.782,-0.536 1.288,-1.241 1.519,-2.115 L 9.707,9.8 c 0.384,0.995 0.958,1.744 1.726,2.242 0.766,0.498 1.648,0.748 2.645,0.748 0.889,0 1.683,-0.199 2.381,-0.598 0.697,-0.399 1.245,-0.955 1.644,-1.668 0.399,-0.713 0.599,-1.537 0.599,-2.473 V 0 h -3.014 v 7.338 c 0,0.552 -0.1,1.028 -0.299,1.426 -0.199,0.399 -0.475,0.71 -0.828,0.933 -0.353,0.221 -0.783,0.333 -1.288,0.333 -0.476,0 -0.898,-0.112 -1.265,-0.333 C 11.64,9.474 11.355,9.163 11.157,8.764 10.957,8.366 10.857,7.89 10.857,7.338 V 0 H 7.844 v 7.338 c 0,0.552 -0.1,1.028 -0.299,1.426 -0.2,0.399 -0.479,0.71 -0.84,0.933 C 6.345,9.918 5.919,10.03 5.429,10.03 4.953,10.03 4.532,9.918 4.164,9.697 3.795,9.474 3.512,9.163 3.312,8.764 3.113,8.366 3.014,7.89 3.014,7.338 V 0 Z"
             style="fill:#000000;fill-opacity:1;fill-rule:nonzero;stroke:none"
             id="path80" />
        </g>
        <g
           id="g82"
           transform="translate(158.0982,313.4368)">
          <path
             d="M 0,0 C 0.691,0 1.304,0.161 1.84,0.484 2.377,0.806 2.795,1.25 3.094,1.818 3.393,2.385 3.543,3.036 3.543,3.773 3.543,4.509 3.393,5.157 3.094,5.717 2.795,6.277 2.377,6.72 1.84,7.052 1.304,7.381 0.691,7.546 0,7.546 -0.659,7.546 -1.253,7.385 -1.782,7.063 -2.312,6.741 -2.726,6.292 -3.024,5.717 -3.324,5.142 -3.473,4.494 -3.473,3.773 -3.473,3.036 -3.324,2.385 -3.024,1.818 -2.726,1.25 -2.312,0.806 -1.782,0.484 -1.253,0.161 -0.659,0 0,0 M -6.486,-7.083 V 10.03 h 2.829 V 7.546 l -0.276,0.62 c 0.429,0.675 1.012,1.2 1.748,1.576 0.736,0.376 1.587,0.564 2.554,0.564 1.18,0 2.246,-0.291 3.197,-0.874 C 4.516,8.849 5.271,8.066 5.831,7.085 6.391,6.104 6.671,5 6.671,3.773 6.671,2.561 6.395,1.457 5.843,0.46 5.291,-0.536 4.539,-1.322 3.589,-1.897 2.638,-2.472 1.557,-2.759 0.345,-2.759 c -0.905,0 -1.737,0.179 -2.496,0.54 -0.759,0.36 -1.361,0.878 -1.805,1.553 l 0.483,0.598 v -7.015 z"
             style="fill:#000000;fill-opacity:1;fill-rule:nonzero;stroke:none"
             id="path84" />
        </g>
        <g
           id="g86"
           transform="translate(172.7283,313.4368)">
          <path
             d="m 0,0 c 0.674,0 1.268,0.161 1.782,0.484 0.514,0.322 0.92,0.77 1.22,1.345 C 3.3,2.404 3.45,3.052 3.45,3.773 3.45,4.509 3.3,5.157 3.002,5.717 2.702,6.277 2.296,6.72 1.782,7.052 1.268,7.381 0.674,7.546 0,7.546 -0.691,7.546 -1.296,7.381 -1.818,7.052 -2.339,6.72 -2.749,6.277 -3.048,5.717 -3.347,5.157 -3.497,4.509 -3.497,3.773 c 0,-0.721 0.15,-1.369 0.449,-1.944 0.299,-0.575 0.709,-1.023 1.23,-1.345 C -1.296,0.161 -0.691,0 0,0 m 0,-2.759 c -1.227,0 -2.343,0.282 -3.347,0.851 -1.004,0.567 -1.803,1.341 -2.392,2.323 -0.591,0.981 -0.886,2.101 -0.886,3.358 0,1.257 0.295,2.376 0.886,3.359 0.589,0.981 1.383,1.755 2.381,2.323 0.996,0.567 2.115,0.851 3.358,0.851 1.226,0 2.338,-0.284 3.335,-0.851 C 4.332,8.887 5.125,8.117 5.716,7.143 6.306,6.169 6.601,5.046 6.601,3.773 6.601,2.516 6.302,1.396 5.704,0.415 5.106,-0.567 4.308,-1.341 3.312,-1.908 2.315,-2.477 1.211,-2.759 0,-2.759"
             style="fill:#000000;fill-opacity:1;fill-rule:nonzero;stroke:none"
             id="path88" />
        </g>
        <g
           id="g90"
           transform="translate(184.0685,310.9527)">
          <path
             d="m 0,0 -4.302,12.514 h 3.175 l 3.151,-9.5 -1.104,0.022 3.358,9.478 h 2.669 l 3.335,-9.478 -1.104,-0.022 3.151,9.5 h 3.174 L 11.202,0 H 8.511 L 5.107,9.915 H 6.118 L 2.668,0 Z"
             style="fill:#000000;fill-opacity:1;fill-rule:nonzero;stroke:none"
             id="path92" />
        </g>
        <g
           id="g94"
           transform="translate(206.4727,310.6776)">
          <path
             d="M 0,0 C -1.288,0 -2.415,0.29 -3.382,0.874 -4.348,1.456 -5.099,2.246 -5.635,3.243 -6.173,4.24 -6.44,5.344 -6.44,6.556 c 0,1.257 0.271,2.372 0.816,3.347 0.545,0.973 1.288,1.743 2.231,2.311 0.944,0.568 1.997,0.851 3.163,0.851 0.982,0 1.844,-0.162 2.588,-0.484 C 3.102,12.259 3.734,11.815 4.256,11.248 4.776,10.68 5.176,10.032 5.452,9.304 5.727,8.575 5.866,7.789 5.866,6.947 5.866,6.731 5.854,6.509 5.831,6.279 5.808,6.049 5.766,5.85 5.705,5.681 H -3.956 V 7.982 H 4.002 L 2.577,6.9 C 2.714,7.606 2.68,8.235 2.473,8.787 2.266,9.339 1.928,9.775 1.461,10.097 0.993,10.419 0.429,10.58 -0.23,10.58 -0.859,10.58 -1.419,10.423 -1.909,10.108 -2.4,9.794 -2.771,9.334 -3.025,8.729 -3.278,8.123 -3.374,7.39 -3.312,6.532 -3.374,5.766 -3.27,5.086 -3.002,4.496 -2.734,3.907 -2.334,3.45 -1.805,3.128 -1.277,2.806 -0.667,2.645 0.023,2.645 c 0.69,0 1.277,0.146 1.76,0.437 0.483,0.291 0.862,0.682 1.138,1.173 L 5.359,3.059 C 5.114,2.461 4.73,1.932 4.209,1.471 3.688,1.012 3.071,0.651 2.358,0.391 1.644,0.13 0.858,0 0,0"
             style="fill:#000000;fill-opacity:1;fill-rule:nonzero;stroke:none"
             id="path96" />
        </g>
        <g
           id="g98"
           transform="translate(214.1551,310.9527)">
          <path
             d="M 0,0 V 12.514 H 2.829 V 9.73 l -0.23,0.414 c 0.291,0.936 0.748,1.587 1.369,1.956 0.621,0.367 1.369,0.552 2.242,0.552 H 6.947 V 9.983 H 5.866 C 5.007,9.983 4.317,9.719 3.795,9.189 3.274,8.661 3.013,7.92 3.013,6.97 V 0 Z"
             style="fill:#000000;fill-opacity:1;fill-rule:nonzero;stroke:none"
             id="path100" />
        </g>
        <path
           d="m 222.298,323.467 h 3.014 v -12.514 h -3.014 z m 0,4.623 h 3.014 v -3.221 h -3.014 z"
           style="fill:#000000;fill-opacity:1;fill-rule:nonzero;stroke:none"
           id="path102" />
        <g
           id="g104"
           transform="translate(227.6349,310.9527)">
          <path
             d="m 0,0 v 12.514 h 2.829 v -2.462 l -0.23,0.437 c 0.291,0.752 0.77,1.323 1.438,1.714 0.667,0.391 1.445,0.587 2.334,0.587 0.92,0 1.737,-0.199 2.451,-0.598 0.713,-0.399 1.268,-0.955 1.667,-1.668 0.398,-0.713 0.598,-1.537 0.598,-2.473 V 0 H 8.074 V 7.338 C 8.074,7.89 7.966,8.366 7.752,8.764 7.536,9.163 7.242,9.474 6.866,9.697 6.49,9.918 6.049,10.03 5.544,10.03 5.052,10.03 4.615,9.918 4.232,9.697 3.849,9.474 3.55,9.163 3.335,8.764 3.121,8.366 3.013,7.89 3.013,7.338 V 0 Z"
             style="fill:#000000;fill-opacity:1;fill-rule:nonzero;stroke:none"
             id="path106" />
        </g>
        <g
           id="g108"
           transform="translate(246.7493,314.2426)">
          <path
             d="M 0,0 C 0.644,0 1.207,0.141 1.69,0.426 2.173,0.709 2.553,1.104 2.829,1.61 3.106,2.116 3.243,2.698 3.243,3.358 3.243,4.002 3.102,4.582 2.818,5.094 2.534,5.608 2.151,6.012 1.668,6.302 1.185,6.594 0.629,6.74 0,6.74 -0.629,6.74 -1.196,6.594 -1.703,6.302 -2.208,6.012 -2.603,5.608 -2.887,5.094 -3.171,4.582 -3.312,4.002 -3.312,3.358 -3.312,2.714 -3.171,2.139 -2.887,1.633 -2.603,1.127 -2.213,0.728 -1.714,0.437 -1.216,0.145 -0.644,0 0,0 m 0.138,-8.35 c -0.935,0 -1.802,0.154 -2.6,0.461 -0.797,0.306 -1.483,0.732 -2.058,1.276 -0.575,0.544 -0.993,1.184 -1.254,1.921 l 2.807,1.058 c 0.183,-0.583 0.548,-1.054 1.092,-1.416 0.544,-0.359 1.215,-0.54 2.013,-0.54 0.614,0 1.154,0.116 1.622,0.346 0.468,0.23 0.832,0.563 1.092,0.999 0.261,0.438 0.391,0.963 0.391,1.577 v 2.852 l 0.576,-0.69 C 3.389,-1.257 2.814,-1.825 2.093,-2.208 1.372,-2.592 0.552,-2.784 -0.368,-2.784 c -1.166,0 -2.209,0.269 -3.129,0.806 -0.92,0.536 -1.641,1.272 -2.162,2.207 -0.521,0.936 -0.781,1.986 -0.781,3.153 0,1.18 0.26,2.231 0.781,3.15 0.521,0.921 1.235,1.646 2.14,2.174 C -2.615,9.235 -1.587,9.5 -0.437,9.5 0.498,9.5 1.323,9.304 2.036,8.913 2.749,8.522 3.343,7.959 3.819,7.223 L 3.404,6.463 V 9.224 H 6.257 V -2.668 C 6.257,-3.757 5.992,-4.731 5.463,-5.59 4.934,-6.448 4.213,-7.123 3.301,-7.614 2.389,-8.105 1.334,-8.35 0.138,-8.35"
             style="fill:#000000;fill-opacity:1;fill-rule:nonzero;stroke:none"
             id="path110" />
        </g>
        <g
           id="g112"
           transform="translate(262.7814,310.6776)">
          <path
             d="m 0,0 c -0.873,0 -1.632,0.146 -2.277,0.436 -0.644,0.292 -1.142,0.71 -1.495,1.254 -0.353,0.545 -0.529,1.177 -0.529,1.899 0,0.688 0.153,1.306 0.46,1.851 0.307,0.544 0.782,1 1.426,1.368 0.644,0.369 1.457,0.629 2.438,0.783 l 4.095,0.666 v -2.3 L 0.598,5.359 C 0,5.252 -0.445,5.06 -0.736,4.785 -1.027,4.508 -1.173,4.148 -1.173,3.703 -1.173,3.274 -1.008,2.932 -0.679,2.679 -0.348,2.426 0.062,2.3 0.552,2.3 1.181,2.3 1.737,2.434 2.22,2.703 2.703,2.971 3.078,3.342 3.347,3.818 3.616,4.293 3.749,4.815 3.749,5.382 v 3.22 c 0,0.537 -0.21,0.986 -0.632,1.345 C 2.696,10.309 2.14,10.488 1.45,10.488 0.806,10.488 0.234,10.316 -0.264,9.972 -0.763,9.625 -1.127,9.17 -1.357,8.602 l -2.461,1.197 c 0.245,0.659 0.633,1.23 1.162,1.713 0.529,0.483 1.154,0.863 1.874,1.139 0.721,0.277 1.503,0.414 2.347,0.414 1.027,0 1.932,-0.188 2.714,-0.564 C 5.061,12.125 5.67,11.604 6.107,10.938 6.544,10.27 6.763,9.492 6.763,8.602 V 0.275 H 3.91 v 2.14 L 4.554,2.461 C 4.232,1.924 3.85,1.475 3.405,1.116 2.96,0.754 2.454,0.479 1.887,0.287 1.319,0.095 0.691,0 0,0"
             style="fill:#000000;fill-opacity:1;fill-rule:nonzero;stroke:none"
             id="path114" />
        </g>
        <g
           id="g116"
           transform="translate(278.8829,313.7138)">
          <path
             d="M 0,0 H 2.53 C 3.695,0 4.703,0.241 5.555,0.724 6.406,1.207 7.068,1.881 7.544,2.748 8.019,3.615 8.257,4.639 8.257,5.82 8.257,7.016 8.019,8.043 7.544,8.901 7.068,9.76 6.406,10.427 5.555,10.902 4.703,11.378 3.695,11.615 2.53,11.615 H 0 Z m -3.129,-2.761 v 17.137 h 5.59 c 1.809,0 3.385,-0.365 4.727,-1.093 1.341,-0.728 2.38,-1.733 3.117,-3.013 0.736,-1.281 1.104,-2.764 1.104,-4.45 0,-1.672 -0.368,-3.156 -1.104,-4.452 C 9.568,0.072 8.529,-0.94 7.188,-1.668 5.846,-2.396 4.27,-2.761 2.461,-2.761 Z"
             style="fill:#000000;fill-opacity:1;fill-rule:nonzero;stroke:none"
             id="path118" />
        </g>
        <g
           id="g120"
           transform="translate(297.9972,310.6776)">
          <path
             d="M 0,0 C -1.288,0 -2.415,0.29 -3.382,0.874 -4.348,1.456 -5.099,2.246 -5.635,3.243 -6.173,4.24 -6.44,5.344 -6.44,6.556 c 0,1.257 0.271,2.372 0.816,3.347 0.545,0.973 1.288,1.743 2.231,2.311 0.944,0.568 1.997,0.851 3.163,0.851 0.982,0 1.844,-0.162 2.588,-0.484 C 3.102,12.259 3.734,11.815 4.256,11.248 4.776,10.68 5.176,10.032 5.452,9.304 5.727,8.575 5.866,7.789 5.866,6.947 5.866,6.731 5.854,6.509 5.831,6.279 5.808,6.049 5.766,5.85 5.705,5.681 H -3.956 V 7.982 H 4.002 L 2.577,6.9 C 2.714,7.606 2.68,8.235 2.473,8.787 2.266,9.339 1.928,9.775 1.461,10.097 0.993,10.419 0.429,10.58 -0.23,10.58 -0.859,10.58 -1.419,10.423 -1.909,10.108 -2.4,9.794 -2.771,9.334 -3.025,8.729 -3.278,8.123 -3.374,7.39 -3.312,6.532 -3.374,5.766 -3.27,5.086 -3.002,4.496 -2.734,3.907 -2.334,3.45 -1.805,3.128 -1.277,2.806 -0.667,2.645 0.023,2.645 c 0.69,0 1.277,0.146 1.76,0.437 0.483,0.291 0.862,0.682 1.138,1.173 L 5.359,3.059 C 5.114,2.461 4.73,1.932 4.209,1.471 3.688,1.012 3.071,0.651 2.358,0.391 1.645,0.13 0.858,0 0,0"
             style="fill:#000000;fill-opacity:1;fill-rule:nonzero;stroke:none"
             id="path122" />
        </g>
        <g
           id="g124"
           transform="translate(311.7072,310.6776)">
          <path
             d="m 0,0 c -1.242,0 -2.358,0.287 -3.347,0.862 -0.989,0.576 -1.768,1.357 -2.334,2.346 -0.568,0.989 -0.852,2.105 -0.852,3.348 0,1.242 0.284,2.353 0.852,3.335 0.566,0.981 1.345,1.755 2.334,2.323 0.989,0.568 2.105,0.851 3.347,0.851 0.889,0 1.717,-0.158 2.484,-0.472 0.767,-0.314 1.43,-0.744 1.99,-1.288 0.56,-0.544 0.962,-1.193 1.207,-1.943 L 3.036,8.211 C 2.806,8.84 2.419,9.347 1.875,9.729 1.33,10.112 0.705,10.305 0,10.305 -0.66,10.305 -1.247,10.144 -1.76,9.822 -2.273,9.5 -2.676,9.055 -2.968,8.487 -3.259,7.92 -3.404,7.269 -3.404,6.532 -3.404,5.796 -3.259,5.144 -2.968,4.577 -2.676,4.01 -2.273,3.565 -1.76,3.243 -1.247,2.92 -0.66,2.759 0,2.759 c 0.721,0 1.349,0.193 1.886,0.576 0.536,0.383 0.92,0.897 1.15,1.541 L 5.681,3.68 C 5.436,2.975 5.037,2.342 4.485,1.782 3.933,1.222 3.274,0.785 2.507,0.472 1.74,0.157 0.904,0 0,0"
             style="fill:#000000;fill-opacity:1;fill-rule:nonzero;stroke:none"
             id="path126" />
        </g>
        <g
           id="g128"
           transform="translate(325.1402,310.6776)">
          <path
             d="M 0,0 C -1.288,0 -2.415,0.29 -3.382,0.874 -4.348,1.456 -5.099,2.246 -5.635,3.243 -6.173,4.24 -6.44,5.344 -6.44,6.556 c 0,1.257 0.271,2.372 0.816,3.347 0.545,0.973 1.288,1.743 2.231,2.311 0.944,0.568 1.997,0.851 3.163,0.851 0.982,0 1.844,-0.162 2.588,-0.484 C 3.102,12.259 3.734,11.815 4.256,11.248 4.776,10.68 5.176,10.032 5.452,9.304 5.727,8.575 5.866,7.789 5.866,6.947 5.866,6.731 5.854,6.509 5.831,6.279 5.808,6.049 5.766,5.85 5.705,5.681 H -3.956 V 7.982 H 4.002 L 2.577,6.9 C 2.714,7.606 2.68,8.235 2.473,8.787 2.266,9.339 1.928,9.775 1.461,10.097 0.993,10.419 0.429,10.58 -0.23,10.58 -0.859,10.58 -1.419,10.423 -1.909,10.108 -2.4,9.794 -2.771,9.334 -3.025,8.729 -3.278,8.123 -3.374,7.39 -3.312,6.532 -3.374,5.766 -3.27,5.086 -3.002,4.496 -2.734,3.907 -2.334,3.45 -1.805,3.128 -1.277,2.806 -0.667,2.645 0.023,2.645 c 0.69,0 1.277,0.146 1.76,0.437 0.483,0.291 0.862,0.682 1.138,1.173 L 5.359,3.059 C 5.114,2.461 4.73,1.932 4.209,1.471 3.688,1.012 3.071,0.651 2.358,0.391 1.645,0.13 0.858,0 0,0"
             style="fill:#000000;fill-opacity:1;fill-rule:nonzero;stroke:none"
             id="path130" />
        </g>
        <g
           id="g132"
           transform="translate(332.8227,310.9527)">
          <path
             d="m 0,0 v 12.514 h 2.829 v -2.462 l -0.23,0.437 c 0.291,0.752 0.77,1.323 1.438,1.714 0.667,0.391 1.445,0.587 2.334,0.587 0.92,0 1.737,-0.199 2.45,-0.598 0.714,-0.399 1.269,-0.955 1.668,-1.668 0.398,-0.713 0.598,-1.537 0.598,-2.473 V 0 H 8.074 V 7.338 C 8.074,7.89 7.966,8.366 7.752,8.764 7.536,9.163 7.242,9.474 6.866,9.697 6.49,9.918 6.049,10.03 5.544,10.03 5.052,10.03 4.615,9.918 4.232,9.697 3.849,9.474 3.55,9.163 3.335,8.764 3.121,8.366 3.013,7.89 3.013,7.338 V 0 Z"
             style="fill:#000000;fill-opacity:1;fill-rule:nonzero;stroke:none"
             id="path134" />
        </g>
        <g
           id="g136"
           transform="translate(351.7077,310.8152)">
          <path
             d="M 0,0 C -1.411,0 -2.504,0.387 -3.278,1.162 -4.052,1.936 -4.439,3.028 -4.439,4.439 V 9.96 h -2.162 v 2.691 h 0.23 c 0.613,0 1.088,0.161 1.425,0.483 0.338,0.322 0.507,0.79 0.507,1.403 v 0.967 h 3.014 V 12.651 H 1.45 V 9.96 H -1.425 V 4.6 c 0,-0.413 0.072,-0.766 0.218,-1.057 0.146,-0.292 0.375,-0.515 0.689,-0.668 0.315,-0.153 0.717,-0.229 1.209,-0.229 0.106,0 0.233,0.007 0.379,0.022 0.146,0.015 0.287,0.03 0.426,0.046 V 0.138 C 1.28,0.108 1.035,0.077 0.759,0.046 0.483,0.016 0.23,0 0,0"
             style="fill:#000000;fill-opacity:1;fill-rule:nonzero;stroke:none"
             id="path138" />
        </g>
        <g
           id="g140"
           transform="translate(355.0435,310.9527)">
          <path
             d="M 0,0 V 12.514 H 2.829 V 9.73 l -0.23,0.414 c 0.291,0.936 0.748,1.587 1.369,1.956 0.621,0.367 1.369,0.552 2.242,0.552 H 6.947 V 9.983 H 5.866 C 5.006,9.983 4.317,9.719 3.795,9.189 3.274,8.661 3.013,7.92 3.013,6.97 V 0 Z"
             style="fill:#000000;fill-opacity:1;fill-rule:nonzero;stroke:none"
             id="path142" />
        </g>
        <g
           id="g144"
           transform="translate(366.9808,310.6776)">
          <path
             d="m 0,0 c -0.873,0 -1.632,0.146 -2.277,0.436 -0.644,0.292 -1.142,0.71 -1.495,1.254 -0.353,0.545 -0.529,1.177 -0.529,1.899 0,0.688 0.153,1.306 0.46,1.851 0.307,0.544 0.782,1 1.426,1.368 0.644,0.369 1.457,0.629 2.438,0.783 l 4.095,0.666 v -2.3 L 0.598,5.359 C 0,5.252 -0.445,5.06 -0.736,4.785 -1.027,4.508 -1.173,4.148 -1.173,3.703 -1.173,3.274 -1.008,2.932 -0.679,2.679 -0.348,2.426 0.062,2.3 0.552,2.3 1.181,2.3 1.737,2.434 2.22,2.703 2.703,2.971 3.078,3.342 3.347,3.818 3.616,4.293 3.749,4.815 3.749,5.382 v 3.22 c 0,0.537 -0.21,0.986 -0.632,1.345 C 2.696,10.309 2.14,10.488 1.45,10.488 0.806,10.488 0.234,10.316 -0.264,9.972 -0.763,9.625 -1.127,9.17 -1.357,8.602 l -2.461,1.197 c 0.245,0.659 0.633,1.23 1.162,1.713 0.529,0.483 1.154,0.863 1.874,1.139 0.721,0.277 1.503,0.414 2.347,0.414 1.027,0 1.932,-0.188 2.714,-0.564 C 5.061,12.125 5.67,11.604 6.107,10.938 6.544,10.27 6.763,9.492 6.763,8.602 V 0.275 H 3.91 v 2.14 L 4.554,2.461 C 4.232,1.924 3.85,1.475 3.405,1.116 2.96,0.754 2.454,0.479 1.887,0.287 1.319,0.095 0.691,0 0,0"
             style="fill:#000000;fill-opacity:1;fill-rule:nonzero;stroke:none"
             id="path146" />
        </g>
        <path
           d="m 376.067,328.365 h 3.013 v -17.413 h -3.013 z"
           style="fill:#000000;fill-opacity:1;fill-rule:nonzero;stroke:none"
           id="path148" />
        <path
           d="m 381.403,323.467 h 3.014 v -12.514 h -3.014 z m 0,4.623 h 3.014 v -3.221 h -3.014 z"
           style="fill:#000000;fill-opacity:1;fill-rule:nonzero;stroke:none"
           id="path150" />
        <g
           id="g152"
           transform="translate(385.6589,310.9527)">
          <path
             d="M 0,0 V 2.439 L 7.269,10.857 7.728,9.822 H 0.322 v 2.692 H 10.397 V 10.052 L 3.267,1.634 2.806,2.669 h 7.637 V 0 Z"
             style="fill:#000000;fill-opacity:1;fill-rule:nonzero;stroke:none"
             id="path154" />
        </g>
        <g
           id="g156"
           transform="translate(403.2785,310.6776)">
          <path
             d="M 0,0 C -1.288,0 -2.415,0.29 -3.382,0.874 -4.348,1.456 -5.099,2.246 -5.635,3.243 -6.173,4.24 -6.44,5.344 -6.44,6.556 c 0,1.257 0.271,2.372 0.816,3.347 0.545,0.973 1.288,1.743 2.231,2.311 0.944,0.568 1.997,0.851 3.163,0.851 0.982,0 1.844,-0.162 2.588,-0.484 C 3.102,12.259 3.734,11.815 4.256,11.248 4.776,10.68 5.176,10.032 5.452,9.304 5.727,8.575 5.866,7.789 5.866,6.947 5.866,6.731 5.854,6.509 5.831,6.279 5.808,6.049 5.766,5.85 5.705,5.681 H -3.956 V 7.982 H 4.002 L 2.577,6.9 C 2.714,7.606 2.68,8.235 2.473,8.787 2.266,9.339 1.928,9.775 1.461,10.097 0.993,10.419 0.429,10.58 -0.23,10.58 -0.859,10.58 -1.419,10.423 -1.909,10.108 -2.4,9.794 -2.771,9.334 -3.025,8.729 -3.278,8.123 -3.374,7.39 -3.312,6.532 -3.374,5.766 -3.27,5.086 -3.002,4.496 -2.734,3.907 -2.334,3.45 -1.805,3.128 -1.277,2.806 -0.667,2.645 0.023,2.645 c 0.69,0 1.277,0.146 1.76,0.437 0.483,0.291 0.862,0.682 1.138,1.173 L 5.359,3.059 C 5.114,2.461 4.73,1.932 4.209,1.471 3.688,1.012 3.071,0.651 2.358,0.391 1.645,0.13 0.858,0 0,0"
             style="fill:#000000;fill-opacity:1;fill-rule:nonzero;stroke:none"
             id="path158" />
        </g>
        <g
           id="g160"
           transform="translate(417.1028,313.4368)">
          <path
             d="M 0,0 C 0.69,0 1.295,0.161 1.817,0.484 2.338,0.806 2.749,1.25 3.048,1.818 3.346,2.385 3.496,3.036 3.496,3.773 3.496,4.494 3.346,5.142 3.048,5.717 2.749,6.292 2.338,6.741 1.817,7.063 1.295,7.385 0.69,7.546 0,7.546 -0.675,7.546 -1.281,7.381 -1.818,7.052 -2.355,6.72 -2.772,6.277 -3.071,5.717 -3.37,5.157 -3.519,4.509 -3.519,3.773 -3.519,3.036 -3.37,2.385 -3.071,1.818 -2.772,1.25 -2.355,0.806 -1.818,0.484 -1.281,0.161 -0.675,0 0,0 m -0.322,-2.759 c -1.212,0 -2.293,0.287 -3.244,0.862 -0.951,0.575 -1.702,1.361 -2.254,2.357 -0.552,0.997 -0.828,2.101 -0.828,3.313 0,1.227 0.276,2.331 0.828,3.312 0.552,0.981 1.308,1.764 2.266,2.347 0.958,0.583 2.027,0.874 3.209,0.874 0.951,0 1.798,-0.188 2.542,-0.564 C 2.94,9.366 3.527,8.841 3.956,8.166 l -0.46,-0.62 v 7.383 H 6.51 V -2.484 H 3.657 v 2.416 L 3.979,-0.666 C 3.549,-1.341 2.951,-1.859 2.185,-2.219 1.418,-2.58 0.582,-2.759 -0.322,-2.759"
             style="fill:#000000;fill-opacity:1;fill-rule:nonzero;stroke:none"
             id="path162" />
        </g>
        <path
           d="m 429.846,328.09 h 3.129 v -17.138 h -3.129 z"
           style="fill:#000000;fill-opacity:1;fill-rule:nonzero;stroke:none"
           id="path164" />
        <g
           id="g166"
           transform="translate(435.5497,310.9527)">
          <path
             d="m 0,0 v 12.514 h 2.829 v -2.462 l -0.23,0.437 c 0.292,0.752 0.771,1.323 1.438,1.714 0.667,0.391 1.446,0.587 2.335,0.587 0.92,0 1.736,-0.199 2.45,-0.598 0.713,-0.399 1.269,-0.955 1.667,-1.668 0.399,-0.713 0.598,-1.537 0.598,-2.473 V 0 H 8.075 V 7.338 C 8.075,7.89 7.967,8.366 7.752,8.764 7.537,9.163 7.243,9.474 6.866,9.697 6.491,9.918 6.05,10.03 5.544,10.03 5.053,10.03 4.616,9.918 4.232,9.697 3.85,9.474 3.55,9.163 3.336,8.764 3.121,8.366 3.014,7.89 3.014,7.338 V 0 Z"
             style="fill:#000000;fill-opacity:1;fill-rule:nonzero;stroke:none"
             id="path168" />
        </g>
        <g
           id="g170"
           transform="translate(450.1798,310.9527)">
          <path
             d="m 0,0 v 9.822 h -2.208 v 2.692 H 0 v 0.414 c 0,0.951 0.196,1.759 0.587,2.427 0.391,0.667 0.939,1.176 1.644,1.53 0.705,0.352 1.542,0.528 2.508,0.528 0.183,0 0.386,-0.012 0.609,-0.034 0.222,-0.023 0.41,-0.051 0.564,-0.08 v -2.601 c -0.154,0.031 -0.295,0.051 -0.425,0.058 -0.131,0.008 -0.25,0.012 -0.357,0.012 -0.676,0 -1.196,-0.15 -1.565,-0.449 C 3.197,14.021 3.014,13.557 3.014,12.928 V 12.514 H 5.796 V 9.822 H 3.014 V 0 Z"
             style="fill:#000000;fill-opacity:1;fill-rule:nonzero;stroke:none"
             id="path172" />
        </g>
        <g
           id="g174"
           transform="translate(457.5627,310.9527)">
          <path
             d="M 0,0 V 12.514 H 2.829 V 9.73 l -0.23,0.414 c 0.292,0.936 0.748,1.587 1.369,1.956 0.621,0.367 1.369,0.552 2.243,0.552 H 6.947 V 9.983 H 5.866 C 5.007,9.983 4.317,9.719 3.795,9.189 3.274,8.661 3.014,7.92 3.014,6.97 V 0 Z"
             style="fill:#000000;fill-opacity:1;fill-rule:nonzero;stroke:none"
             id="path176" />
        </g>
        <g
           id="g178"
           transform="translate(469.501,310.6776)">
          <path
             d="m 0,0 c -0.873,0 -1.632,0.146 -2.277,0.436 -0.644,0.292 -1.142,0.71 -1.495,1.254 -0.353,0.545 -0.529,1.177 -0.529,1.899 0,0.688 0.153,1.306 0.46,1.851 0.307,0.544 0.782,1 1.426,1.368 0.644,0.369 1.457,0.629 2.438,0.783 l 4.095,0.666 v -2.3 L 0.598,5.359 C 0,5.252 -0.445,5.06 -0.736,4.785 -1.027,4.508 -1.173,4.148 -1.173,3.703 -1.173,3.274 -1.008,2.932 -0.679,2.679 -0.348,2.426 0.062,2.3 0.552,2.3 1.181,2.3 1.737,2.434 2.22,2.703 2.703,2.971 3.078,3.342 3.347,3.818 3.616,4.293 3.75,4.815 3.75,5.382 v 3.22 C 3.75,9.139 3.539,9.588 3.117,9.947 2.696,10.309 2.14,10.488 1.45,10.488 0.806,10.488 0.234,10.316 -0.264,9.972 -0.763,9.625 -1.127,9.17 -1.357,8.602 l -2.461,1.197 c 0.245,0.659 0.633,1.23 1.162,1.713 0.529,0.483 1.154,0.863 1.874,1.139 0.721,0.277 1.503,0.414 2.347,0.414 1.027,0 1.932,-0.188 2.714,-0.564 C 5.061,12.125 5.67,11.604 6.107,10.938 6.544,10.27 6.763,9.492 6.763,8.602 V 0.275 H 3.91 v 2.14 L 4.554,2.461 C 4.232,1.924 3.85,1.475 3.405,1.116 2.96,0.754 2.454,0.479 1.887,0.287 1.319,0.095 0.691,0 0,0"
             style="fill:#000000;fill-opacity:1;fill-rule:nonzero;stroke:none"
             id="path180" />
        </g>
        <g
           id="g182"
           transform="translate(483.3486,310.6776)">
          <path
             d="M 0,0 C -1.334,0 -2.495,0.318 -3.485,0.955 -4.474,1.59 -5.152,2.453 -5.52,3.542 l 2.253,1.082 C -2.945,3.918 -2.495,3.366 -1.921,2.967 -1.346,2.568 -0.706,2.369 0,2.369 c 0.552,0 0.989,0.123 1.311,0.368 0.322,0.245 0.483,0.567 0.483,0.966 0,0.245 -0.065,0.449 -0.195,0.61 C 1.469,4.474 1.292,4.612 1.07,4.727 0.847,4.842 0.606,4.937 0.345,5.014 L -1.703,5.59 c -1.057,0.306 -1.858,0.773 -2.403,1.402 -0.544,0.629 -0.816,1.373 -0.816,2.231 0,0.768 0.195,1.438 0.587,2.013 0.39,0.576 0.935,1.023 1.632,1.345 0.698,0.322 1.499,0.484 2.404,0.484 1.181,0 2.223,-0.283 3.128,-0.851 0.905,-0.568 1.549,-1.365 1.932,-2.392 L 2.462,8.74 c -0.216,0.567 -0.576,1.02 -1.081,1.357 -0.507,0.337 -1.074,0.507 -1.703,0.507 -0.506,0 -0.905,-0.116 -1.196,-0.346 -0.291,-0.23 -0.437,-0.529 -0.437,-0.896 0,-0.231 0.061,-0.43 0.184,-0.599 0.123,-0.169 0.295,-0.307 0.518,-0.414 0.222,-0.107 0.479,-0.206 0.77,-0.299 L 1.518,7.452 C 2.546,7.145 3.339,6.686 3.899,6.073 4.459,5.459 4.739,4.707 4.739,3.818 4.739,3.066 4.539,2.404 4.141,1.829 3.742,1.253 3.19,0.805 2.484,0.483 1.779,0.161 0.951,0 0,0"
             style="fill:#000000;fill-opacity:1;fill-rule:nonzero;stroke:none"
             id="path184" />
        </g>
        <g
           id="g186"
           transform="translate(495.6547,310.8152)">
          <path
             d="M 0,0 C -1.411,0 -2.504,0.387 -3.278,1.162 -4.052,1.936 -4.439,3.028 -4.439,4.439 V 9.96 h -2.162 v 2.691 h 0.23 c 0.613,0 1.088,0.161 1.425,0.483 0.338,0.322 0.507,0.79 0.507,1.403 v 0.967 h 3.014 V 12.651 H 1.45 V 9.96 H -1.425 V 4.6 c 0,-0.413 0.072,-0.766 0.218,-1.057 0.146,-0.292 0.375,-0.515 0.689,-0.668 0.315,-0.153 0.717,-0.229 1.209,-0.229 0.106,0 0.233,0.007 0.379,0.022 0.146,0.015 0.287,0.03 0.426,0.046 V 0.138 C 1.28,0.108 1.035,0.077 0.759,0.046 0.483,0.016 0.23,0 0,0"
             style="fill:#000000;fill-opacity:1;fill-rule:nonzero;stroke:none"
             id="path188" />
        </g>
        <g
           id="g190"
           transform="translate(498.9905,310.9527)">
          <path
             d="M 0,0 V 12.514 H 2.829 V 9.73 l -0.23,0.414 c 0.291,0.936 0.748,1.587 1.369,1.956 0.621,0.367 1.369,0.552 2.242,0.552 H 6.947 V 9.983 H 5.866 C 5.006,9.983 4.317,9.719 3.795,9.189 3.274,8.661 3.013,7.92 3.013,6.97 V 0 Z"
             style="fill:#000000;fill-opacity:1;fill-rule:nonzero;stroke:none"
             id="path192" />
        </g>
        <g
           id="g194"
           transform="translate(511.5952,310.6776)">
          <path
             d="m 0,0 c -0.966,0 -1.805,0.214 -2.519,0.644 -0.713,0.429 -1.258,1.027 -1.633,1.793 -0.376,0.768 -0.563,1.664 -0.563,2.692 v 7.66 h 3.013 V 5.382 c 0,-0.522 0.103,-0.977 0.31,-1.369 0.207,-0.391 0.507,-0.698 0.898,-0.92 0.391,-0.221 0.831,-0.334 1.322,-0.334 0.491,0 0.928,0.113 1.312,0.334 0.382,0.222 0.682,0.533 0.896,0.932 0.215,0.398 0.322,0.874 0.322,1.426 v 7.338 H 6.372 V 0.275 H 3.519 V 2.737 L 3.773,2.3 C 3.481,1.533 3.002,0.958 2.335,0.575 1.668,0.191 0.889,0 0,0"
             style="fill:#000000;fill-opacity:1;fill-rule:nonzero;stroke:none"
             id="path196" />
        </g>
        <g
           id="g198"
           transform="translate(526.3395,310.6776)">
          <path
             d="m 0,0 c -1.242,0 -2.358,0.287 -3.347,0.862 -0.989,0.576 -1.768,1.357 -2.334,2.346 -0.568,0.989 -0.852,2.105 -0.852,3.348 0,1.242 0.284,2.353 0.852,3.335 0.566,0.981 1.345,1.755 2.334,2.323 0.989,0.568 2.105,0.851 3.347,0.851 0.889,0 1.717,-0.158 2.484,-0.472 0.767,-0.314 1.43,-0.744 1.99,-1.288 0.56,-0.544 0.962,-1.193 1.207,-1.943 L 3.036,8.211 C 2.806,8.84 2.419,9.347 1.875,9.729 1.33,10.112 0.705,10.305 0,10.305 -0.66,10.305 -1.247,10.144 -1.76,9.822 -2.273,9.5 -2.676,9.055 -2.968,8.487 -3.259,7.92 -3.404,7.269 -3.404,6.532 -3.404,5.796 -3.259,5.144 -2.968,4.577 -2.676,4.01 -2.273,3.565 -1.76,3.243 -1.247,2.92 -0.66,2.759 0,2.759 c 0.721,0 1.349,0.193 1.886,0.576 0.536,0.383 0.92,0.897 1.15,1.541 L 5.681,3.68 C 5.436,2.975 5.037,2.342 4.485,1.782 3.933,1.222 3.274,0.785 2.507,0.472 1.74,0.157 0.904,0 0,0"
             style="fill:#000000;fill-opacity:1;fill-rule:nonzero;stroke:none"
             id="path200" />
        </g>
        <g
           id="g202"
           transform="translate(539.5422,310.8152)">
          <path
             d="M 0,0 C -1.411,0 -2.504,0.387 -3.278,1.162 -4.052,1.936 -4.439,3.028 -4.439,4.439 V 9.96 h -2.162 v 2.691 h 0.23 c 0.613,0 1.088,0.161 1.425,0.483 0.338,0.322 0.507,0.79 0.507,1.403 v 0.967 h 3.014 V 12.651 H 1.45 V 9.96 H -1.425 V 4.6 c 0,-0.413 0.072,-0.766 0.218,-1.057 0.146,-0.292 0.375,-0.515 0.689,-0.668 0.315,-0.153 0.717,-0.229 1.209,-0.229 0.106,0 0.233,0.007 0.379,0.022 0.146,0.015 0.287,0.03 0.426,0.046 V 0.138 C 1.28,0.108 1.035,0.077 0.759,0.046 0.483,0.016 0.23,0 0,0"
             style="fill:#000000;fill-opacity:1;fill-rule:nonzero;stroke:none"
             id="path204" />
        </g>
        <g
           id="g206"
           transform="translate(547.3407,310.6776)">
          <path
             d="m 0,0 c -0.967,0 -1.806,0.214 -2.519,0.644 -0.713,0.429 -1.258,1.027 -1.633,1.793 -0.376,0.768 -0.563,1.664 -0.563,2.692 v 7.66 h 3.012 V 5.382 c 0,-0.522 0.104,-0.977 0.311,-1.369 0.207,-0.391 0.506,-0.698 0.897,-0.92 0.391,-0.221 0.832,-0.334 1.322,-0.334 0.492,0 0.928,0.113 1.312,0.334 0.383,0.222 0.682,0.533 0.897,0.932 0.215,0.398 0.322,0.874 0.322,1.426 v 7.338 H 6.371 V 0.275 H 3.519 V 2.737 L 3.772,2.3 C 3.481,1.533 3.002,0.958 2.334,0.575 1.667,0.191 0.889,0 0,0"
             style="fill:#000000;fill-opacity:1;fill-rule:nonzero;stroke:none"
             id="path208" />
        </g>
        <g
           id="g210"
           transform="translate(556.0574,310.9527)">
          <path
             d="M 0,0 V 12.514 H 2.829 V 9.73 l -0.23,0.414 c 0.291,0.936 0.748,1.587 1.369,1.956 0.621,0.367 1.369,0.552 2.242,0.552 H 6.947 V 9.983 H 5.866 C 5.006,9.983 4.317,9.719 3.795,9.189 3.274,8.661 3.013,7.92 3.013,6.97 V 0 Z"
             style="fill:#000000;fill-opacity:1;fill-rule:nonzero;stroke:none"
             id="path212" />
        </g>
        <g
           id="g214"
           transform="translate(570.1343,310.6776)">
          <path
             d="M 0,0 C -1.288,0 -2.415,0.29 -3.382,0.874 -4.348,1.456 -5.099,2.246 -5.635,3.243 -6.173,4.24 -6.44,5.344 -6.44,6.556 c 0,1.257 0.271,2.372 0.816,3.347 0.545,0.973 1.288,1.743 2.231,2.311 0.944,0.568 1.997,0.851 3.163,0.851 0.982,0 1.844,-0.162 2.588,-0.484 C 3.102,12.259 3.734,11.815 4.256,11.248 4.776,10.68 5.176,10.032 5.452,9.304 5.727,8.575 5.866,7.789 5.866,6.947 5.866,6.731 5.854,6.509 5.831,6.279 5.808,6.049 5.766,5.85 5.705,5.681 H -3.956 V 7.982 H 4.002 L 2.577,6.9 C 2.714,7.606 2.68,8.235 2.473,8.787 2.266,9.339 1.928,9.775 1.461,10.097 0.993,10.419 0.429,10.58 -0.23,10.58 -0.859,10.58 -1.419,10.423 -1.909,10.108 -2.4,9.794 -2.771,9.334 -3.025,8.729 -3.278,8.123 -3.374,7.39 -3.312,6.532 -3.374,5.766 -3.27,5.086 -3.002,4.496 -2.734,3.907 -2.334,3.45 -1.805,3.128 -1.277,2.806 -0.667,2.645 0.023,2.645 c 0.69,0 1.277,0.146 1.76,0.437 0.483,0.291 0.862,0.682 1.138,1.173 L 5.359,3.059 C 5.114,2.461 4.73,1.932 4.209,1.471 3.688,1.012 3.071,0.651 2.358,0.391 1.645,0.13 0.858,0 0,0"
             style="fill:#000000;fill-opacity:1;fill-rule:nonzero;stroke:none"
             id="path216" />
        </g>
      </g>
    </g>
  </g>
</svg>
