<svg width="900" height="209" viewBox="0 0 900 209" fill="none" xmlns="http://www.w3.org/2000/svg">
<path d="M278.816 180.125H196.71C192.026 180.125 189 177.099 189 172.414V35.71C189 31.026 192.026 28 196.71 28H277.356C312.443 28 328.998 41.694 329.454 71.098V73.221C329.454 87.027 325.223 96.791 316.199 103.627C325.689 110.715 330.496 121.568 330.496 135.946V137.821C330.497 166.683 314.075 180.125 278.816 180.125ZM222.759 147.617H276.941C290.765 147.617 295.905 144.115 295.905 134.695V131.361C295.905 122.012 290.857 118.024 279.025 118.024H222.759V147.617ZM222.759 89.684H277.983C289.83 89.684 294.446 86.237 294.446 77.388V74.055C294.446 64.332 289.306 60.717 275.482 60.717H222.759V89.684Z" fill="black"/>
<path d="M359.168 107.353V172.403C359.168 177.093 362.188 180.123 366.868 180.123H383.948C388.638 180.123 391.668 177.093 391.668 172.403V107.353" fill="black"/>
<path d="M391.668 128.393V81.7527C391.668 77.0727 388.638 74.0527 383.948 74.0527H366.868C362.118 74.0527 359.168 77.0027 359.168 81.7527V128.393" fill="black"/>
<path d="M383.952 61.75H366.864C362.114 61.75 359.164 58.792 359.164 54.031V35.699C359.164 30.95 362.114 28 366.864 28H383.952C388.64 28 391.671 31.022 391.671 35.699V54.031C391.67 58.72 388.64 61.75 383.952 61.75Z" fill="black"/>
<path d="M490.982 180.125H472.435C467.752 180.125 464.726 177.099 464.726 172.414V60.925H422.212C417.529 60.925 414.504 57.899 414.504 53.215V35.71C414.504 31.026 417.529 28 422.212 28H541.204C545.887 28 548.913 31.026 548.913 35.71V53.215C548.913 57.899 545.887 60.925 541.204 60.925H498.69V172.414C498.691 177.099 495.665 180.125 490.982 180.125Z" fill="black"/>
<path d="M662.815 180.125H580.709C576.026 180.125 573 177.099 573 172.414V35.71C573 31.026 576.026 28 580.709 28H661.356C696.443 28 712.998 41.694 713.453 71.098V73.221C713.453 87.027 709.223 96.79 700.199 103.627C709.69 110.715 714.496 121.567 714.496 135.946V137.821C714.496 166.683 698.074 180.125 662.815 180.125ZM606.756 147.617H660.94C674.764 147.617 679.904 144.115 679.904 134.695V131.361C679.904 122.012 674.855 118.024 663.023 118.024H606.756V147.617ZM606.756 89.684H661.981C673.829 89.684 678.445 86.237 678.445 77.388V74.055C678.445 64.332 673.305 60.717 659.481 60.717H606.756V89.684Z" fill="black"/>
<path d="M847.144 180.125H793.588C759.642 180.125 741.699 161.749 741.699 126.984V81.348C741.7 46.447 759.642 28 793.588 28H847.144C881.09 28 899.033 46.447 899.033 81.348V126.985C899.033 161.749 881.09 180.125 847.144 180.125ZM793.588 60.717C778.373 60.717 775.665 65.85 775.665 80.306V128.029C775.665 144.612 781.194 147.41 793.588 147.41H847.144C859.539 147.41 865.068 144.612 865.068 128.029V80.306C865.068 63.677 860.372 60.717 847.144 60.717H793.588Z" fill="black"/>
<path d="M124.667 48.1048C124.667 32.8888 112.305 20.5088 97.1109 20.5088C93.7379 20.5088 90.4059 21.1318 87.2079 22.3588L46.4479 38.0058C35.8639 42.0678 28.7539 52.4148 28.7539 63.7508V208.506L92.1919 184.592C111.754 177.083 124.667 158.296 124.667 137.342V122.102C124.667 111.868 119.071 102.924 110.786 98.1588C119.511 88.9488 124.667 76.5808 124.667 63.3458V48.1048ZM51.8519 52.0848L92.6109 36.4388C94.0779 35.8758 95.5919 35.5898 97.1099 35.5898C103.11 35.5898 109.586 40.3748 109.586 48.1048V62.8228C109.586 77.6878 100.466 91.0308 86.6159 96.4288C86.6159 96.4288 44.6799 112.738 43.8339 113.17V63.7498C43.8339 58.5768 47.0219 53.9388 51.8519 52.0848ZM109.586 136.819C109.586 151.684 100.466 165.027 86.6159 170.425L43.8339 186.74V129.081L92.1909 110.595C92.1999 110.591 92.2089 110.587 92.2189 110.584L92.6109 110.434C94.0779 109.871 95.5919 109.585 97.1099 109.585C103.11 109.585 109.586 114.37 109.586 122.1V136.819Z" fill="#F1A91E"/>
<path d="M80.831 55.3979V58.6679C80.831 63.8049 77.609 68.4929 72.812 70.3339L57.707 76.1319V92.2849L78.217 84.4129C88.876 80.3219 95.912 70.0849 95.912 58.6679V49.8359L80.831 55.3979Z" fill="#F1A91E"/>
<path d="M80.831 132.664C80.831 137.801 77.609 142.489 72.812 144.33L57.707 150.128V166.282L78.217 158.409C88.876 154.318 95.912 144.081 95.912 132.664V123.833L80.831 129.394V132.664Z" fill="#F1A91E"/>
<path d="M68.357 0C64.984 0 61.652 0.623 58.454 1.85L27.479 13.443C10.952 19.629 0 35.422 0 53.069V68.759V187.894L15.075 182.286L15.078 70.767L15.08 57.143C15.08 43.595 23.429 31.447 36.077 26.592L86.852 7.158C81.958 2.712 75.468 0 68.357 0Z" fill="#F1A91E"/>
</svg>
