<svg width="2000" height="2000" viewBox="0 0 2000 2000" fill="none" xmlns="http://www.w3.org/2000/svg">
<path d="M863.556 936.287C855.107 951.578 874.164 961.411 881.964 947.054C885.27 940.969 986.599 698.535 998.879 669.98L1117.04 946.157C1124.89 962.907 1144.5 950.643 1137.26 934.791L1010.69 646.361C1004.55 633.253 991.794 633.253 986.127 646.829C985.655 647.765 868.421 927.482 863.556 936.287Z" fill="#333333"/>
<path d="M841.343 913.046C818.206 883.724 803.821 848.563 799.82 811.551C795.818 774.538 802.36 737.155 818.703 703.64C835.047 670.125 860.538 641.819 892.286 621.933C924.034 602.047 960.768 591.375 998.324 591.129C1035.88 590.883 1072.75 601.072 1104.76 620.54C1136.77 640.009 1162.64 667.978 1179.43 701.276C1196.22 734.573 1203.26 771.868 1199.75 808.929C1196.24 845.991 1182.33 881.337 1159.59 910.96L1159.2 910.666C1181.88 881.116 1195.76 845.856 1199.26 808.884C1202.76 771.913 1195.74 734.709 1178.99 701.492C1162.24 668.276 1136.44 640.375 1104.51 620.954C1072.57 601.533 1035.79 591.369 998.327 591.615C960.863 591.86 924.218 602.505 892.547 622.343C860.877 642.181 835.448 670.418 819.144 703.851C802.841 737.284 796.315 774.577 800.307 811.499C804.299 848.421 818.648 883.496 841.729 912.747L841.343 913.046Z" stroke="#333333" stroke-width="20.3089" stroke-linejoin="round"/>
<path d="M909.727 968.589C937.92 982.394 968.692 989.782 1000.14 989.52C1031.58 989.257 1062.53 982.264 1090.49 967.991L1090.49 967.393C1062.6 981.631 1031.5 988.773 1000.13 989.034C968.765 989.296 937.851 981.762 909.727 967.991L909.727 968.589Z" stroke="#333333" stroke-width="20.3089" stroke-linejoin="round"/>
<g clip-path="url(#clip0_851_12244)">
<path d="M1515.53 1207.02C1515.53 1167.27 1547.06 1134.99 1585.89 1134.99C1624.39 1134.99 1655.93 1167.27 1655.93 1207.02C1655.93 1246.77 1622.74 1278.71 1585.89 1278.71C1547.06 1278.71 1515.53 1246.43 1515.53 1207.02ZM1498.94 1207.02C1498.94 1255.94 1537.77 1296.04 1585.89 1296.04C1593.86 1296.04 1601.49 1294.68 1608.8 1292.64L1552.47 1364.6C1545.5 1373.78 1556.2 1384.4 1563.17 1375.56L1653.6 1262.74C1667.54 1241.33 1672.85 1224.69 1672.85 1207.02C1672.85 1157.75 1633.69 1118 1585.89 1118C1537.77 1118 1498.94 1157.75 1498.94 1207.02Z" fill="#FF4961"/>
<path d="M390.686 1258.49C381.925 1258.49 373.613 1256.81 365.751 1253.44C358.113 1250.07 351.374 1245.58 345.533 1239.96C339.917 1234.12 335.424 1227.38 332.054 1219.74C328.685 1211.88 327 1203.57 327 1194.81C327 1186.05 328.685 1177.73 332.054 1169.87C335.424 1162.01 339.917 1155.27 345.533 1149.65C351.374 1143.81 358.113 1139.21 365.751 1135.84C373.613 1132.47 381.925 1130.78 390.686 1130.78H464.145C467.29 1130.78 469.648 1131.79 471.221 1133.82C472.793 1135.84 473.58 1138.08 473.58 1140.56C473.58 1142.8 472.793 1144.94 471.221 1146.96C469.648 1148.75 467.29 1149.65 464.145 1149.65H390.686C384.396 1149.65 378.556 1150.89 373.164 1153.36C367.773 1155.61 363.055 1158.75 359.012 1162.79C354.968 1166.84 351.711 1171.67 349.24 1177.28C346.993 1182.68 345.87 1188.52 345.87 1194.81C345.87 1201.1 346.993 1206.94 349.24 1212.33C351.711 1217.72 354.968 1222.44 359.012 1226.48C363.055 1230.52 367.773 1233.78 373.164 1236.25C378.556 1238.5 384.396 1239.62 390.686 1239.62H418.991C427.752 1239.62 436.064 1241.31 443.927 1244.68C451.789 1248.05 458.529 1252.65 464.145 1258.49C469.985 1264.11 474.591 1270.85 477.96 1278.71C481.33 1286.57 483.015 1294.88 483.015 1303.65C483.015 1312.41 481.33 1320.72 477.96 1328.58C474.591 1336.44 469.985 1343.3 464.145 1349.14C458.529 1354.75 451.789 1359.25 443.927 1362.61C436.064 1365.98 427.752 1367.67 418.991 1367.67H345.87C342.725 1367.67 340.254 1366.77 338.457 1364.97C336.884 1362.95 336.098 1360.82 336.098 1358.57C336.098 1356.1 336.884 1353.85 338.457 1351.83C340.254 1349.81 342.725 1348.8 345.87 1348.8H418.991C425.281 1348.8 431.122 1347.68 436.514 1345.43C442.13 1342.96 446.959 1339.7 451.003 1335.66C455.047 1331.61 458.192 1326.9 460.438 1321.51C462.909 1315.89 464.145 1309.94 464.145 1303.65C464.145 1297.36 462.909 1291.52 460.438 1286.12C458.192 1280.51 455.047 1275.68 451.003 1271.63C446.959 1267.59 442.13 1264.45 436.514 1262.2C431.122 1259.73 425.281 1258.49 418.991 1258.49H390.686Z" fill="#333333"/>
<path d="M638.708 1367.67C635.788 1367.67 633.429 1366.77 631.632 1364.97C629.835 1363.18 628.936 1360.82 628.936 1357.9V1149.65H553.456C550.536 1149.65 548.177 1148.75 546.38 1146.96C544.583 1145.16 543.684 1142.8 543.684 1139.88C543.684 1137.19 544.583 1134.94 546.38 1133.14C548.402 1131.12 550.76 1130.11 553.456 1130.11H723.623C726.319 1130.11 728.678 1131.12 730.7 1133.14C732.721 1134.94 733.732 1137.19 733.732 1139.88C733.732 1142.8 732.721 1145.16 730.7 1146.96C728.678 1148.75 726.319 1149.65 723.623 1149.65H648.48V1357.9C648.48 1360.82 647.582 1363.18 645.784 1364.97C643.987 1366.77 641.629 1367.67 638.708 1367.67Z" fill="#333333"/>
<path d="M745.271 1353.85C745.72 1352.96 747.405 1349.14 750.325 1342.4C753.245 1335.66 756.84 1327.12 761.108 1316.79C765.601 1306.23 770.543 1294.32 775.934 1281.07C781.326 1267.82 786.83 1254.45 792.446 1240.97C798.062 1227.27 803.565 1213.9 808.957 1200.87C814.348 1187.84 819.066 1176.27 823.109 1166.16C827.378 1156.06 830.747 1147.86 833.218 1141.57C835.914 1135.28 837.262 1132.13 837.262 1132.13C839.284 1127.19 842.092 1124.72 845.686 1124.72C849.505 1124.72 852.538 1127.08 854.784 1131.79L951.156 1354.86C952.504 1357.79 952.504 1360.37 951.156 1362.61C950.033 1364.86 948.348 1366.55 946.102 1367.67C943.855 1368.57 941.496 1368.68 939.025 1368.01C936.779 1367.33 934.982 1365.54 933.634 1362.61L846.36 1160.44C845.237 1162.91 843.215 1167.74 840.295 1174.93C837.374 1181.89 833.892 1190.31 829.849 1200.2C825.805 1210.08 821.312 1220.87 816.37 1232.55C811.428 1244.23 806.486 1256.13 801.544 1268.26C796.602 1280.17 791.772 1291.74 787.054 1302.97C782.561 1314.2 778.405 1324.2 774.587 1332.96C770.992 1341.72 767.96 1348.91 765.488 1354.53C763.242 1360.14 762.006 1363.18 761.782 1363.63C760.209 1366.32 758.075 1367.78 755.38 1368.01C752.908 1368.46 750.662 1368.12 748.64 1367C746.618 1365.87 745.158 1364.08 744.26 1361.6C743.361 1359.13 743.698 1356.55 745.271 1353.85Z" fill="#333333"/>
<path d="M1032.8 1149.65V1357.22C1032.8 1359.92 1031.79 1362.28 1029.77 1364.3C1027.75 1366.1 1025.39 1367 1022.69 1367C1020.22 1367 1017.98 1365.98 1015.95 1363.96C1013.93 1361.94 1012.92 1359.69 1012.92 1357.22V1143.59C1012.92 1139.54 1014.49 1136.4 1017.64 1134.15C1020.78 1131.91 1024.15 1130.78 1027.75 1130.78H1103.56C1112.33 1130.78 1120.52 1132.47 1128.16 1135.84C1136.02 1139.21 1142.76 1143.81 1148.38 1149.65C1154.22 1155.27 1158.83 1162.01 1162.2 1169.87C1165.57 1177.73 1167.25 1186.05 1167.25 1194.81C1167.25 1203.57 1165.57 1211.88 1162.2 1219.74C1158.83 1227.38 1154.22 1234.12 1148.38 1239.96C1142.76 1245.58 1136.02 1250.07 1128.16 1253.44C1120.52 1256.81 1112.33 1258.49 1103.56 1258.49H1080.99L1176.69 1351.16C1179.38 1352.96 1180.84 1355.09 1181.07 1357.56C1181.29 1360.03 1180.73 1362.28 1179.38 1364.3C1178.03 1366.1 1176.12 1367.44 1173.65 1368.34C1171.41 1369.24 1168.94 1368.79 1166.24 1367L1053.36 1257.14C1050.89 1255.57 1049.2 1253.78 1048.3 1251.75C1047.63 1249.73 1047.52 1247.82 1047.96 1246.03C1048.64 1244.23 1049.87 1242.77 1051.67 1241.64C1053.47 1240.3 1055.83 1239.62 1058.75 1239.62H1103.56C1109.85 1239.62 1115.69 1238.5 1121.09 1236.25C1126.7 1233.78 1131.53 1230.52 1135.58 1226.48C1139.62 1222.44 1142.76 1217.72 1145.01 1212.33C1147.48 1206.94 1148.72 1201.1 1148.72 1194.81C1148.72 1188.52 1147.48 1182.68 1145.01 1177.28C1142.76 1171.67 1139.62 1166.84 1135.58 1162.79C1131.53 1158.75 1126.7 1155.61 1121.09 1153.36C1115.69 1150.89 1109.85 1149.65 1103.56 1149.65H1032.8Z" fill="#333333"/>
<path d="M1336.8 1367.67C1333.88 1367.67 1331.53 1366.77 1329.73 1364.97C1327.93 1363.18 1327.03 1360.82 1327.03 1357.9V1149.65H1251.55C1248.63 1149.65 1246.27 1148.75 1244.48 1146.96C1242.68 1145.16 1241.78 1142.8 1241.78 1139.88C1241.78 1137.19 1242.68 1134.94 1244.48 1133.14C1246.5 1131.12 1248.86 1130.11 1251.55 1130.11H1421.72C1424.42 1130.11 1426.77 1131.12 1428.8 1133.14C1430.82 1134.94 1431.83 1137.19 1431.83 1139.88C1431.83 1142.8 1430.82 1145.16 1428.8 1146.96C1426.77 1148.75 1424.42 1149.65 1421.72 1149.65H1346.58V1357.9C1346.58 1360.82 1345.68 1363.18 1343.88 1364.97C1342.08 1366.77 1339.72 1367.67 1336.8 1367.67Z" fill="#333333"/>
</g>
<defs>
<clipPath id="clip0_851_12244">
<rect width="1345.85" height="260.876" fill="white" transform="translate(327 1118)"/>
</clipPath>
</defs>
</svg>
