<svg width="82" height="82" viewBox="0 0 82 82" fill="none" xmlns="http://www.w3.org/2000/svg">
<path d="M5.55131 44.4307C5.42985 44.269 5.32306 44.1249 5.23134 44C5.32306 43.8751 5.42985 43.731 5.55131 43.5693C6.03538 42.9248 6.75198 42.0004 7.67632 40.8896C9.52621 38.6666 12.2018 35.7042 15.5044 32.7447C22.1433 26.7956 31.158 21 41 21C50.842 21 59.8567 26.7956 66.4956 32.7447C69.7982 35.7042 72.4738 38.6666 74.3237 40.8896C75.248 42.0004 75.9646 42.9248 76.4487 43.5693C76.5702 43.731 76.6769 43.8751 76.7687 44C76.6769 44.1249 76.5702 44.269 76.4487 44.4307C75.9646 45.0752 75.248 45.9996 74.3237 47.1104C72.4738 49.3334 69.7982 52.2958 66.4956 55.2553C59.8567 61.2044 50.842 67 41 67C31.158 67 22.1433 61.2044 15.5044 55.2553C12.2018 52.2958 9.52621 49.3334 7.67632 47.1104C6.75198 45.9996 6.03538 45.0752 5.55131 44.4307Z" fill="url(#paint0_linear_1279_18761)" stroke="#FF9500" stroke-width="2"/>
<mask id="mask0_1279_18761" style="mask-type:alpha" maskUnits="userSpaceOnUse" x="4" y="20" width="74" height="48">
<path d="M5.55131 44.4307C5.42985 44.269 5.32306 44.1249 5.23134 44C5.32306 43.8751 5.42985 43.731 5.55131 43.5693C6.03538 42.9248 6.75198 42.0004 7.67632 40.8896C9.52621 38.6666 12.2018 35.7042 15.5044 32.7447C22.1433 26.7956 31.158 21 41 21C50.842 21 59.8567 26.7956 66.4956 32.7447C69.7982 35.7042 72.4738 38.6666 74.3237 40.8896C75.248 42.0004 75.9646 42.9248 76.4487 43.5693C76.5702 43.731 76.6769 43.8751 76.7687 44C76.6769 44.1249 76.5702 44.269 76.4487 44.4307C75.9646 45.0752 75.248 45.9996 74.3237 47.1104C72.4738 49.3334 69.7982 52.2958 66.4956 55.2553C59.8567 61.2044 50.842 67 41 67C31.158 67 22.1433 61.2044 15.5044 55.2553C12.2018 52.2958 9.52621 49.3334 7.67632 47.1104C6.75198 45.9996 6.03538 45.0752 5.55131 44.4307Z" fill="white" stroke="#FF9500" stroke-width="2"/>
</mask>
<g mask="url(#mask0_1279_18761)">
<circle cx="41.8474" cy="40.4045" r="19.4216" fill="black" stroke="#FF9500" stroke-width="2"/>
<mask id="mask1_1279_18761" style="mask-type:alpha" maskUnits="userSpaceOnUse" x="21" y="19" width="42" height="42">
<circle cx="41.8474" cy="40.4045" r="19.4216" fill="white" stroke="#FF9500" stroke-width="2"/>
</mask>
<g mask="url(#mask1_1279_18761)">
<line x1="13.4707" y1="40.4087" x2="73.7311" y2="40.4087" stroke="#FF9500" stroke-width="2"/>
<line x1="15.6133" y1="52.0259" x2="70.781" y2="27.7804" stroke="#FF9500" stroke-width="2"/>
<line x1="15.6133" y1="52.0259" x2="70.781" y2="27.7804" stroke="#FF9500" stroke-width="2"/>
<line x1="17.328" y1="65.6777" x2="68.4607" y2="14.545" stroke="#FF9500" stroke-width="2"/>
<line x1="29.5506" y1="74.1479" x2="55.7889" y2="6.76353" stroke="#FF9500" stroke-width="2"/>
<line x1="42.5996" y1="70.9487" x2="42.5996" y2="10.6883" stroke="#FF9500" stroke-width="2"/>
<line x1="54.8072" y1="68.8047" x2="30.5616" y2="13.637" stroke="#FF9500" stroke-width="2"/>
<line x1="42.5996" y1="70.9487" x2="42.5996" y2="10.6883" stroke="#FF9500" stroke-width="2"/>
<line x1="54.8072" y1="68.8047" x2="30.5616" y2="13.637" stroke="#FF9500" stroke-width="2"/>
<line x1="68.4589" y1="67.0919" x2="17.3262" y2="15.9592" stroke="#FF9500" stroke-width="2"/>
<line x1="76.9301" y1="54.8698" x2="9.54576" y2="28.6315" stroke="#FF9500" stroke-width="2"/>
</g>
<path d="M51.3664 40.5366C51.3664 46.1135 47.0443 50.561 41.8014 50.561C36.5584 50.561 32.2363 46.1135 32.2363 40.5366C32.2363 34.9597 36.5584 30.5122 41.8014 30.5122C47.0443 30.5122 51.3664 34.9597 51.3664 40.5366Z" fill="black" stroke="#FF9500" stroke-width="2"/>
<circle cx="28.3521" cy="28.3521" r="3.35214" fill="#313131" stroke="#FF9500" stroke-width="2"/>
</g>
<path d="M5.55131 44.4307C5.42985 44.269 5.32306 44.1249 5.23134 44C5.32306 43.8751 5.42985 43.731 5.55131 43.5693C6.03538 42.9248 6.75198 42.0004 7.67632 40.8896C9.52621 38.6666 12.2018 35.7042 15.5044 32.7447C22.1433 26.7956 31.158 21 41 21C50.842 21 59.8567 26.7956 66.4956 32.7447C69.7982 35.7042 72.4738 38.6666 74.3237 40.8896C75.248 42.0004 75.9646 42.9248 76.4487 43.5693C76.5701 43.731 76.6769 43.8751 76.7687 44C76.6769 44.1249 76.5701 44.269 76.4487 44.4307C75.9646 45.0752 75.248 45.9996 74.3237 47.1104C72.4738 49.3334 69.7982 52.2958 66.4956 55.2553C59.8567 61.2044 50.842 67 41 67C31.158 67 22.1433 61.2044 15.5044 55.2553C12.2018 52.2958 9.52621 49.3334 7.67632 47.1104C6.75198 45.9996 6.03538 45.0752 5.55131 44.4307Z" stroke="#FF9500" stroke-width="2"/>
<defs>
<linearGradient id="paint0_linear_1279_18761" x1="4" y1="31.1875" x2="34.2156" y2="69.3783" gradientUnits="userSpaceOnUse">
<stop stop-color="#6F6F6F" stop-opacity="0.81"/>
<stop offset="1" stop-color="#4D4D4D" stop-opacity="0"/>
</linearGradient>
</defs>
</svg>
