<svg width="260" height="75" viewBox="0 0 260 75" fill="none" xmlns="http://www.w3.org/2000/svg">
<path d="M104.684 13.4965C106.489 13.4965 108.049 13.8165 109.365 14.4565C110.681 15.0965 111.771 15.9624 112.636 17.0541C113.501 18.1459 114.14 19.4259 114.554 20.8941C114.967 22.3624 115.174 23.9435 115.174 25.6376C115.174 28.2353 114.685 30.7012 113.708 33.0353C112.768 35.3318 111.471 37.3459 109.816 39.0776C108.162 40.7718 106.207 42.1271 103.951 43.1435C101.694 44.1223 99.2505 44.6118 96.6185 44.6118C96.2801 44.6118 95.6785 44.5929 94.8137 44.5553C93.9864 44.5553 93.0276 44.48 91.9372 44.3294C90.8468 44.1788 89.6812 43.9529 88.4404 43.6518C87.2372 43.3506 86.0904 42.9365 85 42.4094L94.7573 1.35529L103.499 0L100.002 14.5694C100.754 14.2306 101.506 13.9671 102.258 13.7788C103.01 13.5906 103.819 13.4965 104.684 13.4965ZM97.3517 37.6659C98.6677 37.6659 99.9085 37.3459 101.074 36.7059C102.24 36.0659 103.236 35.2188 104.063 34.1647C104.928 33.0729 105.605 31.8494 106.094 30.4941C106.583 29.1388 106.827 27.7271 106.827 26.2588C106.827 24.4518 106.526 23.04 105.925 22.0235C105.323 21.0071 104.214 20.4988 102.597 20.4988C102.07 20.4988 101.375 20.5929 100.51 20.7812C99.6829 20.9694 98.9309 21.3647 98.2541 21.9671L94.5316 37.44C94.7573 37.4776 94.9453 37.5153 95.0957 37.5529C95.2837 37.5906 95.4717 37.6282 95.6597 37.6659C95.8477 37.6659 96.0733 37.6659 96.3365 37.6659C96.5997 37.6659 96.9381 37.6659 97.3517 37.6659Z" fill="white"/>
<path d="M125.788 43.8212H117.441L124.491 14.1176H132.895L125.788 43.8212ZM129.849 10.5035C128.684 10.5035 127.631 10.1647 126.691 9.48706C125.751 8.77176 125.281 7.69882 125.281 6.26824C125.281 5.47765 125.431 4.74353 125.732 4.06588C126.07 3.35059 126.503 2.74823 127.029 2.25882C127.556 1.73176 128.157 1.31765 128.834 1.01647C129.548 0.715294 130.3 0.564705 131.09 0.564705C132.256 0.564705 133.308 0.922352 134.248 1.63765C135.188 2.31529 135.658 3.36941 135.658 4.8C135.658 5.59059 135.489 6.34353 135.151 7.05882C134.85 7.73647 134.436 8.33882 133.91 8.86588C133.384 9.35529 132.763 9.75059 132.049 10.0518C131.372 10.3529 130.639 10.5035 129.849 10.5035Z" fill="white"/>
<path d="M141.479 6.72L150.221 5.3647L148.078 14.1176H157.44L155.748 21.0071H146.442L143.961 31.3976C143.735 32.2635 143.585 33.0729 143.51 33.8259C143.472 34.5788 143.566 35.2376 143.792 35.8023C144.055 36.3294 144.487 36.7435 145.089 37.0447C145.69 37.3459 146.518 37.4965 147.57 37.4965C148.473 37.4965 149.338 37.4212 150.165 37.2706C151.03 37.0824 151.894 36.8376 152.759 36.5365L153.38 42.9741C152.252 43.3882 151.03 43.7459 149.714 44.0471C148.398 44.3482 146.837 44.4988 145.032 44.4988C142.438 44.4988 140.426 44.1224 138.998 43.3694C137.569 42.5788 136.554 41.5247 135.952 40.2071C135.35 38.8518 135.087 37.3082 135.162 35.5765C135.238 33.8447 135.501 32.0188 135.952 30.0988L141.479 6.72Z" fill="white"/>
<path d="M157.743 31.9624C157.743 29.4023 158.157 26.9929 158.984 24.7341C159.811 22.4753 160.996 20.4988 162.537 18.8047C164.079 17.1106 165.94 15.7741 168.121 14.7953C170.339 13.8165 172.802 13.3271 175.509 13.3271C177.201 13.3271 178.705 13.4965 180.021 13.8353C181.375 14.1365 182.597 14.5506 183.687 15.0776L180.811 21.6282C180.059 21.3271 179.269 21.0635 178.442 20.8376C177.652 20.5741 176.675 20.4424 175.509 20.4424C172.689 20.4424 170.471 21.4023 168.854 23.3224C167.237 25.2047 166.429 27.7835 166.429 31.0588C166.429 32.9788 166.842 34.5412 167.67 35.7459C168.497 36.9129 170.02 37.4965 172.238 37.4965C173.328 37.4965 174.381 37.3835 175.396 37.1576C176.412 36.9318 177.314 36.6494 178.104 36.3106L178.724 43.0306C177.671 43.4447 176.506 43.8024 175.227 44.1035C173.986 44.4424 172.464 44.6118 170.659 44.6118C168.328 44.6118 166.354 44.2729 164.737 43.5953C163.12 42.9176 161.785 42.0141 160.732 40.8847C159.68 39.7176 158.909 38.3624 158.42 36.8188C157.969 35.2753 157.743 33.6565 157.743 31.9624Z" fill="white"/>
<path d="M195.141 44.6118C193.148 44.6118 191.419 44.3106 189.952 43.7082C188.486 43.1059 187.264 42.2588 186.286 41.1671C185.346 40.0753 184.632 38.7953 184.143 37.3271C183.654 35.8212 183.41 34.1647 183.41 32.3576C183.41 30.0988 183.767 27.84 184.481 25.5812C185.233 23.3224 186.324 21.2894 187.753 19.4824C189.181 17.6753 190.93 16.2071 192.998 15.0776C195.066 13.9106 197.435 13.3271 200.104 13.3271C202.059 13.3271 203.77 13.6282 205.237 14.2306C206.741 14.8329 207.963 15.68 208.903 16.7718C209.88 17.8635 210.613 19.1624 211.102 20.6682C211.591 22.1365 211.835 23.7741 211.835 25.5812C211.835 27.84 211.478 30.0988 210.764 32.3576C210.049 34.6165 208.997 36.6494 207.605 38.4565C206.214 40.2635 204.466 41.7506 202.36 42.9176C200.292 44.0471 197.886 44.6118 195.141 44.6118ZM199.315 20.4424C198.074 20.4424 196.983 20.8 196.043 21.5153C195.103 22.2306 194.314 23.1341 193.675 24.2259C193.035 25.3176 192.547 26.5224 192.208 27.84C191.907 29.12 191.757 30.3435 191.757 31.5106C191.757 33.4306 192.058 34.9176 192.659 35.9718C193.261 36.9882 194.351 37.4965 195.931 37.4965C197.171 37.4965 198.262 37.1388 199.202 36.4235C200.142 35.7082 200.931 34.8047 201.571 33.7129C202.21 32.6212 202.68 31.4353 202.981 30.1553C203.319 28.8376 203.488 27.5953 203.488 26.4282C203.488 24.5082 203.187 23.04 202.586 22.0235C201.984 20.9694 200.894 20.4424 199.315 20.4424Z" fill="white"/>
<path d="M222.451 43.8212H214.104L221.154 14.1176H229.557L222.451 43.8212ZM226.512 10.5035C225.346 10.5035 224.293 10.1647 223.353 9.48706C222.413 8.77176 221.943 7.69882 221.943 6.26824C221.943 5.47765 222.094 4.74353 222.395 4.06588C222.733 3.35059 223.165 2.74823 223.692 2.25882C224.218 1.73176 224.82 1.31765 225.497 1.01647C226.211 0.715294 226.963 0.564705 227.753 0.564705C228.918 0.564705 229.971 0.922352 230.911 1.63765C231.851 2.31529 232.321 3.36941 232.321 4.8C232.321 5.59059 232.152 6.34353 231.814 7.05882C231.513 7.73647 231.099 8.33882 230.573 8.86588C230.046 9.35529 229.426 9.75059 228.711 10.0518C228.035 10.3529 227.301 10.5035 226.512 10.5035Z" fill="white"/>
<path d="M236.901 15.4729C237.54 15.2847 238.236 15.0776 238.988 14.8518C239.777 14.5882 240.642 14.3624 241.582 14.1741C242.56 13.9482 243.631 13.7788 244.797 13.6659C246 13.5153 247.354 13.44 248.858 13.44C253.295 13.44 256.34 14.72 257.995 17.28C259.649 19.84 259.931 23.3412 258.841 27.7835L255.005 43.8212H246.602L250.324 28.1224C250.55 27.1435 250.719 26.2024 250.832 25.2988C250.982 24.3576 250.982 23.5482 250.832 22.8706C250.681 22.1553 250.324 21.5906 249.76 21.1765C249.234 20.7247 248.407 20.4988 247.279 20.4988C246.188 20.4988 245.079 20.6118 243.951 20.8376L238.48 43.8212H230.077L236.901 15.4729Z" fill="white"/>
<path d="M100.514 66.4838C100.201 67.757 100.112 69.0415 100.246 70.3371C100.38 71.6103 100.637 72.7496 101.016 73.7548L96.5599 74.3914C96.4259 74.1234 96.303 73.8665 96.1913 73.6208C96.0796 73.375 95.968 73.0958 95.8563 72.7831C95.2308 73.2969 94.5383 73.7213 93.7788 74.0564C93.0193 74.3914 92.1705 74.559 91.2323 74.559C90.1154 74.559 89.1549 74.3691 88.3507 73.9893C87.5689 73.5873 86.9211 73.0623 86.4073 72.4145C85.9159 71.7444 85.5584 70.9737 85.3351 70.1025C85.1117 69.209 85 68.2596 85 67.2544C85 65.7131 85.2681 64.2611 85.8042 62.8985C86.3626 61.5359 87.1221 60.352 88.0826 59.3468C89.0655 58.3192 90.2159 57.515 91.5339 56.9342C92.8518 56.3535 94.2814 56.0631 95.8228 56.0631C96.0238 56.0631 96.37 56.0742 96.8615 56.0966C97.3752 56.1189 97.956 56.1748 98.6038 56.2641C99.2516 56.3311 99.9329 56.454 100.648 56.6327C101.363 56.8114 102.044 57.0571 102.692 57.3698L100.514 66.4838ZM97.029 60.3185C96.7386 60.2738 96.4706 60.2403 96.2248 60.2179C96.0015 60.1956 95.7222 60.1844 95.3872 60.1844C94.6277 60.1844 93.9129 60.3743 93.2427 60.7541C92.5949 61.1338 92.0253 61.6364 91.5339 62.2619C91.0424 62.865 90.6515 63.5686 90.3611 64.3728C90.0931 65.177 89.959 66.0147 89.959 66.8858C89.959 67.9581 90.1377 68.8069 90.4951 69.4324C90.8526 70.0578 91.5115 70.3706 92.4721 70.3706C92.9858 70.3706 93.4438 70.2701 93.8458 70.069C94.2703 69.868 94.717 69.5329 95.1861 69.0638C95.2308 68.5054 95.2978 67.9246 95.3872 67.3214C95.4989 66.696 95.6105 66.1264 95.7222 65.6126L97.029 60.3185Z" fill="#FF9500"/>
<path d="M107.748 57.2693C108.127 57.1576 108.529 57.0348 108.954 56.9007C109.401 56.7444 109.892 56.6103 110.428 56.4987C110.987 56.3646 111.601 56.2641 112.271 56.1971C112.963 56.1077 113.756 56.0631 114.65 56.0631C115.722 56.0631 116.605 56.1971 117.297 56.4651C118.012 56.7332 118.66 57.1353 119.24 57.6714C120.067 57.2023 120.882 56.8226 121.686 56.5322C122.513 56.2194 123.474 56.0631 124.568 56.0631C125.618 56.0631 126.511 56.2083 127.249 56.4987C128.008 56.7667 128.634 57.1688 129.125 57.7049C129.616 58.2187 129.974 58.8441 130.197 59.5813C130.421 60.2961 130.532 61.0891 130.532 61.9603C130.532 62.3624 130.499 62.7868 130.432 63.2336C130.387 63.6803 130.309 64.1271 130.197 64.5739L127.919 74.0899H122.926L125.138 64.7749C125.205 64.4622 125.272 64.1159 125.339 63.7362C125.428 63.3341 125.473 62.9432 125.473 62.5634C125.473 61.938 125.328 61.4019 125.037 60.9551C124.747 60.486 124.177 60.2514 123.328 60.2514C122.859 60.2514 122.412 60.3408 121.988 60.5195C121.564 60.6759 121.184 60.8434 120.849 61.0221C120.893 61.2008 120.916 61.3683 120.916 61.5247C120.916 61.6811 120.916 61.8263 120.916 61.9603C120.916 62.3624 120.882 62.7868 120.815 63.2336C120.771 63.6803 120.692 64.1271 120.581 64.5739L118.302 74.0899H113.31L115.521 64.7749C115.588 64.4622 115.655 64.1159 115.722 63.7362C115.812 63.3341 115.856 62.9432 115.856 62.5634C115.856 61.938 115.711 61.4019 115.421 60.9551C115.13 60.486 114.561 60.2514 113.712 60.2514C113.354 60.2514 113.053 60.2738 112.807 60.3185C112.561 60.3408 112.271 60.3855 111.936 60.4525L108.686 74.0899H103.693L107.748 57.2693Z" fill="#FF9500"/>
<path d="M137.76 70.5381C138.899 70.5381 139.681 70.3818 140.105 70.069C140.53 69.7339 140.742 69.3765 140.742 68.9968C140.742 68.7511 140.697 68.5389 140.608 68.3602C140.541 68.1815 140.418 68.0139 140.239 67.8576C140.061 67.7012 139.815 67.5448 139.502 67.3885C139.19 67.2097 138.787 67.0087 138.296 66.7853C137.738 66.5396 137.213 66.2827 136.721 66.0147C136.23 65.7243 135.794 65.3892 135.414 65.0095C135.057 64.6074 134.767 64.1606 134.543 63.6692C134.342 63.1554 134.242 62.5523 134.242 61.8598C134.242 60.0504 134.901 58.6208 136.219 57.5709C137.559 56.521 139.502 55.996 142.049 55.996C143.255 55.996 144.327 56.1301 145.265 56.3981C146.204 56.6662 146.963 56.9566 147.544 57.2693L145.835 60.9886C145.366 60.7429 144.763 60.5083 144.026 60.285C143.289 60.0616 142.563 59.9499 141.848 59.9499C141.535 59.9499 141.222 59.9722 140.91 60.0169C140.619 60.0392 140.34 60.1062 140.072 60.2179C139.826 60.3296 139.625 60.486 139.469 60.687C139.312 60.8881 139.234 61.1561 139.234 61.4912C139.234 61.938 139.402 62.273 139.737 62.4964C140.094 62.7198 140.586 62.9879 141.211 63.3006C142.082 63.725 142.808 64.1159 143.389 64.4733C143.97 64.8307 144.428 65.2105 144.763 65.6126C145.12 66.0147 145.377 66.4726 145.534 66.9864C145.69 67.5001 145.768 68.1033 145.768 68.7958C145.768 69.5106 145.612 70.2142 145.299 70.9067C145.009 71.5992 144.539 72.2135 143.892 72.7496C143.244 73.2857 142.417 73.7213 141.412 74.0564C140.407 74.3914 139.201 74.559 137.793 74.559C136.922 74.559 136.129 74.5031 135.414 74.3914C134.722 74.2797 134.108 74.1457 133.572 73.9893C133.035 73.8106 132.577 73.6319 132.198 73.4532C131.84 73.2745 131.561 73.1293 131.36 73.0176L133.069 69.1978C133.449 69.4212 134.041 69.7004 134.845 70.0355C135.649 70.3706 136.621 70.5381 137.76 70.5381Z" fill="#FF9500"/>
<path d="M153.019 52.0757L158.213 51.2715L156.939 56.4651H162.501L161.496 60.553H155.968L154.493 66.7183C154.359 67.2321 154.27 67.7124 154.225 68.1591C154.203 68.6059 154.259 68.9968 154.393 69.3319C154.549 69.6446 154.806 69.8903 155.163 70.069C155.521 70.2477 156.012 70.3371 156.638 70.3371C157.174 70.3371 157.688 70.2924 158.179 70.203C158.693 70.0914 159.207 69.9462 159.72 69.7675L160.089 73.5873C159.419 73.833 158.693 74.0452 157.911 74.2239C157.129 74.4026 156.202 74.492 155.13 74.492C153.589 74.492 152.393 74.2686 151.545 73.8218C150.696 73.3527 150.093 72.7272 149.735 71.9454C149.378 71.1412 149.221 70.2254 149.266 69.1978C149.311 68.1703 149.467 67.0869 149.735 65.9476L153.019 52.0757Z" fill="#FF9500"/>
<path d="M162.681 67.1874C162.681 65.7578 162.927 64.3728 163.418 63.0325C163.932 61.6922 164.647 60.5083 165.563 59.4808C166.479 58.4309 167.584 57.5932 168.88 56.9678C170.198 56.3199 171.65 55.996 173.236 55.996C174.018 55.996 174.744 56.1077 175.414 56.3311C176.084 56.5545 176.665 56.8784 177.156 57.3028C177.67 57.7272 178.061 58.2522 178.329 58.8777C178.619 59.4808 178.765 60.1733 178.765 60.9551C178.765 62.206 178.485 63.2671 177.927 64.1383C177.368 65.0094 176.587 65.7243 175.581 66.2827C174.599 66.8188 173.426 67.2097 172.063 67.4555C170.701 67.7012 169.215 67.824 167.607 67.824C167.763 68.7622 168.098 69.4324 168.612 69.8345C169.148 70.2142 169.986 70.4041 171.125 70.4041C171.84 70.4041 172.566 70.3482 173.303 70.2366C174.04 70.1025 174.733 69.9127 175.38 69.6669L175.749 73.5873C175.123 73.833 174.319 74.0564 173.336 74.2574C172.376 74.4584 171.326 74.559 170.187 74.559C168.802 74.559 167.629 74.3691 166.669 73.9893C165.73 73.5873 164.96 73.0511 164.357 72.381C163.776 71.7109 163.351 70.929 163.083 70.0355C162.815 69.142 162.681 68.1926 162.681 67.1874ZM172.432 59.9499C171.293 59.9499 170.287 60.3631 169.416 61.1896C168.567 61.9938 168.009 63.066 167.741 64.4063C169.126 64.3616 170.243 64.25 171.091 64.0713C171.94 63.8702 172.599 63.6357 173.068 63.3676C173.537 63.0995 173.85 62.8092 174.007 62.4964C174.163 62.1837 174.241 61.871 174.241 61.5582C174.241 60.486 173.638 59.9499 172.432 59.9499Z" fill="#FF9500"/>
<path d="M192.914 60.7541C192.467 60.6424 192.02 60.5418 191.573 60.4525C191.149 60.3408 190.512 60.285 189.664 60.285C189.351 60.285 189.005 60.3185 188.625 60.3855C188.245 60.4302 187.932 60.486 187.687 60.553L184.436 74.0899H179.444L183.465 57.4033C184.425 57.0906 185.497 56.8002 186.681 56.5322C187.888 56.2418 189.239 56.0966 190.736 56.0966C191.294 56.0966 191.908 56.1524 192.579 56.2641C193.271 56.3535 193.874 56.5098 194.388 56.7332L192.914 60.7541Z" fill="#FF9500"/>
<path d="M200.458 74.559C199.341 74.559 198.381 74.3691 197.576 73.9893C196.795 73.6096 196.147 73.0958 195.633 72.448C195.142 71.7779 194.773 71.0072 194.527 70.136C194.304 69.2425 194.192 68.2931 194.192 67.2879C194.192 65.7689 194.46 64.3393 194.996 62.999C195.555 61.6364 196.314 60.4525 197.275 59.4473C198.235 58.4421 199.375 57.6491 200.693 57.0683C202.01 56.4875 203.451 56.1971 205.015 56.1971C205.417 56.1971 205.786 56.2194 206.121 56.2641C206.478 56.3088 206.835 56.3758 207.193 56.4651L209.002 48.8925L214.196 48.0884L209.773 66.4838C209.46 67.757 209.371 69.0415 209.505 70.3371C209.639 71.6103 209.896 72.7496 210.276 73.7548L205.819 74.3914C205.685 74.1234 205.562 73.8665 205.451 73.6208C205.339 73.375 205.227 73.0958 205.115 72.7831C204.49 73.2969 203.786 73.7213 203.005 74.0564C202.245 74.3914 201.396 74.559 200.458 74.559ZM206.221 60.4525C206.087 60.4302 205.964 60.4078 205.853 60.3855C205.763 60.3631 205.663 60.352 205.551 60.352C205.462 60.3296 205.339 60.3185 205.182 60.3185C205.026 60.3185 204.825 60.3185 204.579 60.3185C203.798 60.3185 203.072 60.5083 202.401 60.8881C201.731 61.2455 201.15 61.7369 200.659 62.3624C200.19 62.9879 199.821 63.7027 199.553 64.5068C199.285 65.2887 199.151 66.0928 199.151 66.9194C199.151 67.9916 199.33 68.8404 199.687 69.4659C200.067 70.069 200.737 70.3706 201.698 70.3706C202.212 70.3706 202.681 70.2701 203.105 70.069C203.529 69.868 203.976 69.5329 204.445 69.0638C204.49 68.5054 204.557 67.9246 204.646 67.3214C204.758 66.696 204.87 66.1264 204.981 65.6126L206.221 60.4525Z" fill="#FF9500"/>
<path d="M229.47 66.4838C229.157 67.757 229.068 69.0415 229.202 70.3371C229.336 71.6103 229.593 72.7496 229.972 73.7548L225.516 74.3914C225.382 74.1234 225.259 73.8665 225.147 73.6208C225.036 73.375 224.924 73.0958 224.812 72.7831C224.187 73.2969 223.494 73.7213 222.735 74.0564C221.975 74.3914 221.127 74.559 220.188 74.559C219.071 74.559 218.111 74.3691 217.307 73.9893C216.525 73.5873 215.877 73.0623 215.363 72.4145C214.872 71.7444 214.515 70.9737 214.291 70.1025C214.068 69.209 213.956 68.2596 213.956 67.2544C213.956 65.7131 214.224 64.2611 214.76 62.8985C215.319 61.5359 216.078 60.352 217.039 59.3468C218.022 58.3192 219.172 57.515 220.49 56.9342C221.808 56.3535 223.238 56.0631 224.779 56.0631C224.98 56.0631 225.326 56.0742 225.818 56.0966C226.331 56.1189 226.912 56.1748 227.56 56.2641C228.208 56.3311 228.889 56.454 229.604 56.6327C230.319 56.8114 231 57.0571 231.648 57.3698L229.47 66.4838ZM225.985 60.3185C225.695 60.2738 225.427 60.2403 225.181 60.2179C224.958 60.1956 224.678 60.1844 224.343 60.1844C223.584 60.1844 222.869 60.3743 222.199 60.7541C221.551 61.1338 220.981 61.6364 220.49 62.2619C219.999 62.865 219.608 63.5686 219.317 64.3728C219.049 65.177 218.915 66.0147 218.915 66.8858C218.915 67.9581 219.094 68.8069 219.451 69.4324C219.809 70.0578 220.468 70.3706 221.428 70.3706C221.942 70.3706 222.4 70.2701 222.802 70.069C223.226 69.868 223.673 69.5329 224.142 69.0638C224.187 68.5054 224.254 67.9246 224.343 67.3214C224.455 66.696 224.567 66.1264 224.678 65.6126L225.985 60.3185Z" fill="#FF9500"/>
<path d="M236.704 57.2693C237.083 57.1576 237.486 57.0348 237.91 56.9007C238.357 56.7444 238.848 56.6103 239.384 56.4987C239.943 56.3646 240.557 56.2641 241.227 56.1971C241.92 56.1077 242.713 56.0631 243.606 56.0631C244.678 56.0631 245.561 56.1971 246.253 56.4651C246.968 56.7332 247.616 57.1353 248.197 57.6714C249.023 57.2023 249.838 56.8226 250.643 56.5322C251.469 56.2194 252.43 56.0631 253.524 56.0631C254.574 56.0631 255.468 56.2083 256.205 56.4987C256.964 56.7667 257.59 57.1688 258.081 57.7049C258.573 58.2187 258.93 58.8441 259.153 59.5813C259.377 60.2961 259.488 61.0891 259.488 61.9603C259.488 62.3624 259.455 62.7868 259.388 63.2336C259.343 63.6803 259.265 64.1271 259.153 64.5739L256.875 74.0899H251.882L254.094 64.7749C254.161 64.4622 254.228 64.1159 254.295 63.7362C254.384 63.3341 254.429 62.9432 254.429 62.5634C254.429 61.938 254.284 61.4019 253.993 60.9551C253.703 60.486 253.133 60.2514 252.284 60.2514C251.815 60.2514 251.369 60.3408 250.944 60.5195C250.52 60.6759 250.14 60.8434 249.805 61.0221C249.85 61.2008 249.872 61.3683 249.872 61.5247C249.872 61.6811 249.872 61.8263 249.872 61.9603C249.872 62.3624 249.838 62.7868 249.771 63.2336C249.727 63.6803 249.649 64.1271 249.537 64.5739L247.258 74.0899H242.266L244.477 64.7749C244.544 64.4622 244.611 64.1159 244.678 63.7362C244.768 63.3341 244.812 62.9432 244.812 62.5634C244.812 61.938 244.667 61.4019 244.377 60.9551C244.086 60.486 243.517 60.2514 242.668 60.2514C242.311 60.2514 242.009 60.2738 241.763 60.3185C241.518 60.3408 241.227 60.3855 240.892 60.4525L237.642 74.0899H232.649L236.704 57.2693Z" fill="#FF9500"/>
<circle cx="37.5" cy="37.5" r="37.5" fill="white"/>
<path fill-rule="evenodd" clip-rule="evenodd" d="M28.4252 73.8773C48.5193 78.887 68.8688 66.661 73.878 46.5717C78.886 26.4813 66.6596 6.13071 46.5679 1.12217C26.4797 -3.88637 6.13014 8.34085 1.12332 28.4324C-3.88818 48.5205 8.33937 68.8688 28.4252 73.8773ZM45.7873 22.6962C50.9828 24.4856 54.7825 27.168 54.0359 32.1578C53.4944 35.8105 51.4704 37.5788 48.7818 38.1987C52.4736 40.1206 54.3524 43.0678 52.5627 48.1772C50.3417 54.5228 45.0654 55.0583 38.0486 53.7306L36.3456 60.5544L32.2307 59.529L33.9114 52.7967C32.8449 52.5318 31.7549 52.2506 30.6321 51.9459L28.9456 58.7099L24.8354 57.6845L26.5383 50.8478C26.1548 50.7497 25.769 50.649 25.3804 50.5477L25.3783 50.5472C24.7936 50.3947 24.2028 50.2407 23.6048 50.0908L18.2499 48.7561L20.2927 44.0463C20.2927 44.0463 23.3246 44.8526 23.2836 44.7928C24.4486 45.0811 24.9655 44.3217 25.1694 43.8155L27.8603 33.0285C27.9611 33.0527 28.0599 33.0775 28.1552 33.1013L28.1557 33.1015L28.2951 33.1363C28.131 33.0707 27.9822 33.0285 27.8673 32.9992L29.7871 25.2989C29.8375 24.4247 29.5363 23.3219 27.8697 22.9059C27.9342 22.8626 24.8811 22.163 24.8811 22.163L25.9757 17.7685L31.6506 19.1853L31.6459 19.2064C32.4991 19.4185 33.3781 19.62 34.2735 19.8239L35.9601 13.067L40.0726 14.0924L38.4201 20.7169C39.5241 20.9688 40.6352 21.2231 41.7169 21.4927L43.3578 14.9115L47.4727 15.9369L45.7873 22.6962ZM32.7716 47.203C36.1292 48.0897 43.4674 50.0277 44.6341 45.3401C45.8295 40.5472 38.7127 38.9505 35.24 38.1713L35.2396 38.1712C34.8517 38.0842 34.5093 38.0074 34.229 37.9374L31.9694 46.9948C32.1996 47.0519 32.4695 47.1232 32.7716 47.203ZM35.9377 33.9681C38.7371 34.7151 44.8433 36.3444 45.9069 32.084C46.993 27.7262 41.0583 26.4125 38.1599 25.771C37.8339 25.6988 37.5463 25.6351 37.3114 25.5766L35.2627 33.7914C35.4562 33.8396 35.6832 33.9002 35.9375 33.968L35.9377 33.9681ZM21.8152 24.9466L23.1329 24.1759L23.9144 25.5118L25.2502 24.7305L26.021 26.0481L24.6852 26.8293L25.4657 28.1635L24.148 28.9342L23.3675 27.6L22.0329 28.3806L21.2621 27.063L22.5967 26.2825L21.8152 24.9466ZM21.6578 30.3241L20.3401 31.0948L21.1216 32.4307L19.787 33.2112L20.5578 34.5288L21.8924 33.7483L22.6729 35.0825L23.9906 34.3118L23.2101 32.9776L24.5459 32.1963L23.7752 30.8787L22.4393 31.66L21.6578 30.3241ZM18.8635 37.2445L20.1813 36.4739L20.9628 37.8097L22.2986 37.0285L23.0694 38.346L21.7335 39.1273L22.514 40.4615L21.1963 41.2322L20.4158 39.898L19.0812 40.6785L18.3105 39.361L19.645 38.5804L18.8635 37.2445Z" fill="#FF9500"/>
</svg>
