<svg width="920" height="920" viewBox="0 0 920 920" fill="none" xmlns="http://www.w3.org/2000/svg">
<g id="B24_record_1">
<g id="Track">
<g id="Group">
<g id="Group_2">
<g id="Group_3">
<path id="Vector" d="M547.066 296.897C611.979 330.538 651.864 405.117 643.729 477.878C634.207 579.231 540.989 654.743 439.899 643.665C338.69 634.046 262.89 539.967 274.399 439.069C281.433 365.925 336.058 300.821 406.785 281.082C453.274 267.515 504.836 273.306 547.066 296.897C504.668 274.095 453.346 269.119 407.431 283.307C338.044 303.381 285.19 367.648 278.49 439.476C267.532 538.053 341.752 629.285 440.354 639.095C538.931 650.364 630.642 576.168 640.715 477.543C649.256 405.62 610.95 331.304 547.066 296.897Z" fill="black"/>
</g>
<g id="Group_4">
<path id="Vector_2" d="M554.938 282.373C625.641 319.077 669.044 400.331 660.143 479.576C649.735 589.925 548.215 672.161 438.152 660.054C327.971 649.55 245.424 547.169 257.962 437.322C265.594 357.67 325.076 286.752 402.071 265.218C452.724 250.431 508.927 256.7 554.938 282.373C508.736 257.49 452.795 252.035 402.741 267.467C327.061 289.336 269.375 359.417 262.077 437.752C250.09 545.302 331.057 644.837 438.631 655.532C546.157 667.83 646.194 586.863 657.152 479.265C666.436 400.858 624.612 319.842 554.938 282.373Z" fill="black"/>
</g>
<g id="Group_5">
<path id="Vector_3" d="M562.403 268.664C638.585 308.262 685.29 395.833 675.671 481.227C664.426 600.046 555.082 688.646 436.526 675.606C317.874 664.289 228.963 554.036 242.433 435.719C250.664 349.918 314.692 273.497 397.645 250.288C452.221 234.281 512.779 241.028 562.403 268.664C512.612 241.818 452.317 235.884 398.315 252.513C316.677 276.057 254.444 351.641 246.549 436.126C233.628 552.145 320.936 659.528 437.004 671.06C553 684.316 660.909 596.984 672.681 480.916C682.658 396.36 637.532 309.028 562.403 268.664Z" fill="black"/>
</g>
<g id="Group_6">
<path id="Vector_4" d="M569.653 255.289C651.147 297.711 701.105 391.432 690.793 482.807C678.734 609.905 561.757 704.678 434.922 690.729C307.992 678.598 212.884 560.688 227.288 434.116C236.069 342.31 304.547 260.553 393.314 235.694C451.719 218.562 516.536 225.74 569.653 255.289C516.368 226.53 451.791 220.141 393.984 237.919C306.556 263.113 239.873 344.033 231.427 434.523C217.574 558.774 311.102 673.837 435.425 686.159C559.675 700.323 675.241 606.818 687.826 482.472C698.473 391.958 650.118 298.477 569.653 255.289Z" fill="black"/>
</g>
<g id="Group_7">
<path id="Vector_5" d="M576.855 242.01C663.636 287.208 716.825 387.077 705.819 484.386C692.946 619.715 568.385 720.637 433.343 705.755C298.206 692.834 196.925 567.292 212.262 432.537C221.617 334.774 294.497 247.705 389.007 221.194C451.216 202.914 520.268 210.547 576.855 242.01C520.101 211.336 451.288 204.517 389.701 223.443C296.507 250.289 225.421 336.52 216.401 432.968C201.614 565.425 301.316 688.097 433.846 701.233C566.279 716.33 689.477 616.652 702.852 484.099C714.193 387.603 662.607 287.973 576.855 242.01Z" fill="black"/>
</g>
<g id="Group_8">
<path id="Vector_6" d="M584.248 228.42C676.461 276.488 732.928 382.627 721.228 486.013C707.733 629.525 574.917 737.122 431.74 721.163C288.205 707.43 180.607 574.087 196.877 430.91C206.807 327.045 284.209 234.521 384.629 206.36C450.714 186.907 524.097 194.995 584.248 228.42C523.929 195.808 450.786 188.534 385.299 208.609C286.219 237.129 210.587 328.792 200.993 431.365C185.273 572.221 291.267 702.692 432.219 716.641C573.05 732.696 704.048 626.677 718.237 485.726C730.296 383.129 675.432 277.23 584.248 228.42Z" fill="black"/>
</g>
<g id="Group_9">
<path id="Vector_7" d="M592.239 213.68C690.314 264.859 750.346 377.769 737.904 487.759C723.524 640.386 582.262 754.827 429.993 737.815C277.342 723.196 162.901 581.407 180.224 429.163C190.776 318.694 273.083 220.284 379.891 190.28C450.164 169.584 528.236 178.149 592.239 213.68C528.068 178.939 450.235 171.187 380.537 192.529C275.069 222.868 194.532 320.441 184.316 429.593C167.567 579.541 280.405 718.459 430.448 733.293C580.372 750.353 719.816 637.515 734.889 487.448C747.738 378.271 689.285 265.625 592.239 213.68Z" fill="black"/>
</g>
<g id="Group_10">
<path id="Vector_8" d="M600.016 199.349C703.809 253.543 767.286 373.056 754.103 489.459C738.861 650.939 589.392 772.031 428.271 754.038C266.767 738.558 145.674 588.562 163.978 427.465C175.152 310.56 262.22 206.407 375.226 174.657C449.637 152.716 532.256 161.784 600.016 199.349C532.088 162.574 449.709 154.319 375.896 176.882C264.206 208.968 178.932 312.282 168.093 427.872C150.34 586.648 269.829 733.797 428.749 749.468C587.526 767.533 735.153 648.044 751.112 489.124C764.678 373.582 702.78 254.308 600.016 199.349Z" fill="black"/>
</g>
<g id="Group_11">
<path id="Vector_9" d="M607.888 184.849C717.447 242.106 784.466 368.294 770.516 491.181C754.414 661.634 596.618 789.449 426.548 770.452C256.072 754.086 128.256 595.788 147.589 425.742C159.36 302.329 251.262 192.386 370.56 158.841C449.087 135.656 536.347 145.203 607.888 184.849C536.156 145.993 449.159 137.259 371.23 161.066C253.272 194.946 163.165 304.051 151.704 426.149C132.945 593.874 259.158 749.325 427.027 765.882C594.752 784.951 750.705 658.739 767.526 490.846C781.834 368.797 716.418 242.871 607.888 184.849Z" fill="black"/>
</g>
<g id="Group_12">
<path id="Vector_10" d="M615.568 170.709C730.774 230.932 801.214 363.653 786.523 492.88C769.559 672.09 603.653 806.461 424.849 786.483C245.616 769.279 111.244 602.846 131.534 424.067C143.928 294.313 240.519 178.7 365.966 143.409C448.561 119.004 540.319 129.005 615.568 170.709C540.128 129.818 448.632 120.607 366.636 145.634C242.529 181.26 147.708 296.036 135.673 424.474C115.934 600.956 248.726 764.518 425.352 781.937C601.81 801.987 765.899 669.195 783.556 492.569C798.582 364.155 729.769 231.674 615.568 170.709Z" fill="black"/>
</g>
<g id="Group_13">
<path id="Vector_11" d="M624.014 155.157C745.417 218.658 819.613 358.533 804.133 494.723C786.236 683.527 611.405 825.148 423.007 804.069C234.179 785.909 92.5573 610.575 113.948 422.201C126.988 285.461 228.771 163.627 360.941 126.421C447.986 100.7 544.697 111.228 624.014 155.157C544.506 112.017 448.058 102.303 361.611 128.67C230.757 166.211 130.768 287.208 118.063 422.632C97.2469 608.709 237.241 781.195 423.485 799.523C609.538 820.65 782.527 680.656 801.142 494.388C817.005 359.035 744.388 219.4 624.014 155.157Z" fill="black"/>
</g>
<g id="Group_14">
<path id="Vector_12" d="M632.412 139.7C759.965 206.455 837.893 353.436 821.623 496.565C802.793 694.916 619.109 843.691 421.189 821.559C222.814 802.49 74.0382 618.279 96.4814 420.359C110.191 276.704 217.095 148.673 355.965 109.553C447.412 82.5159 549.028 93.546 632.412 139.7C548.861 94.3595 447.484 84.119 356.635 111.802C219.081 151.257 113.972 278.426 100.597 420.789C78.7039 616.389 225.876 797.728 421.667 817.013C617.267 839.217 799.108 692.045 818.633 496.23C835.285 353.963 758.936 207.221 632.412 139.7Z" fill="black"/>
</g>
<g id="Group_15">
<path id="Vector_13" d="M640.954 123.956C774.799 194.037 856.532 348.267 839.449 498.43C819.685 706.519 626.957 862.616 419.322 839.384C79.8524 800.575 -45.1878 378.63 218.794 161.472C335.412 65.3595 509.286 49.8551 640.954 123.956C553.287 76.3418 446.91 65.5749 351.538 94.6456C207.166 136.039 96.8163 269.525 82.7714 418.922C59.778 624.236 214.272 814.62 419.777 834.837C625.091 858.142 815.953 703.672 836.434 498.119C853.9 348.793 773.77 194.778 640.954 123.956Z" fill="black"/>
</g>
<g id="Group_16">
<path id="Vector_14" d="M650.142 107.04C790.734 180.686 876.559 342.717 858.59 500.464C837.798 719.034 635.379 882.978 417.289 858.549C60.7112 817.778 -70.5738 374.611 206.663 146.519C329.167 45.525 511.822 29.2071 650.142 107.04C558.049 57.0098 446.264 45.6686 346.059 76.175C194.341 119.65 78.345 259.907 63.6063 416.913C39.4404 632.683 201.782 832.756 417.767 854.003C633.513 878.48 834.113 716.138 855.599 500.13C873.951 343.219 789.705 181.428 650.142 107.04Z" fill="black"/>
</g>
<g id="Group_17">
<path id="Vector_15" d="M659.162 90.4113C806.358 167.551 896.226 337.238 877.396 502.403C855.599 731.236 643.658 902.885 415.327 877.308C42.0006 834.599 -95.4575 370.639 194.772 131.78C323.042 26.0728 514.287 8.96534 659.162 90.4113C562.714 37.9883 445.642 26.0968 340.7 58.0387C181.78 103.547 60.2805 250.456 44.8239 414.927C19.5097 640.937 189.556 850.534 415.805 872.786C641.815 898.435 851.915 728.365 874.405 502.092C893.595 337.764 805.33 168.316 659.162 90.4113Z" fill="black"/>
</g>
</g>
<g id="Group_18">
<path id="Vector_16" d="M460.021 629.094C554.199 629.094 630.546 552.747 630.546 458.569C630.546 364.391 554.199 288.044 460.021 288.044C365.843 288.044 289.497 364.391 289.497 458.569C289.497 552.747 365.843 629.094 460.021 629.094Z" fill="black"/>
</g>
</g>
</g>
<g id="Glare">
<path id="Vector_17" d="M599.998 83.9187C635.986 94.3791 669.885 112.727 698.319 137.14L698.171 137.323C668.267 115.067 634.186 97.4887 599.998 83.9187ZM320.456 836.998C285.845 823.339 251.35 805.55 221.115 782.958L220.967 783.141C249.738 807.868 284.046 826.449 320.456 836.998ZM232.571 767.475C245.175 779.695 261.48 789.563 277.013 798.431C293.012 806.855 309.673 814.193 327.156 818.927L327.241 818.702C293.541 806.08 261.586 788.799 232.571 767.475ZM333.387 802.142C302.041 789.705 270.663 773.594 243.243 753.069L243.095 753.252C269.035 775.883 300.241 792.815 333.387 802.142ZM686.738 152.813C674.289 140.758 658.173 131.015 642.835 122.248C627.026 113.95 610.573 106.668 593.321 101.996L593.236 102.221C626.496 114.724 658.031 131.819 686.738 152.813ZM587.09 118.78C617.991 131.122 648.977 147.03 676.089 167.225L676.238 167.041C650.589 144.712 619.79 128.013 587.09 118.78ZM253.689 738.95C264.952 750.167 279.856 759.164 293.916 767.241C308.448 774.851 323.583 781.507 339.509 785.675L339.594 785.45C309.003 773.984 280.015 758.29 253.689 738.95ZM345.644 769.063C317.407 757.781 288.974 743.252 264.213 724.727L264.065 724.911C287.339 745.563 315.63 760.897 345.644 769.063ZM665.614 181.361C654.511 170.286 639.791 161.437 625.92 153.485C611.583 145.977 596.65 139.4 580.956 135.293L580.871 135.518C611.029 146.844 639.602 162.328 665.614 181.361ZM574.809 151.853C602.602 163.04 630.649 177.343 655.067 195.577L655.215 195.394C632.284 175.031 604.401 159.931 574.809 151.853ZM273.804 711.766C283.782 722.044 297.331 730.183 310.011 737.494C323.158 744.361 336.835 750.354 351.255 753.946L351.34 753.721C323.743 743.378 297.562 729.229 273.804 711.766ZM356.983 738.488C331.629 728.276 305.923 715.22 283.621 698.519L283.473 698.702C304.265 717.525 329.853 731.392 356.983 738.488ZM645.505 208.521C635.681 198.408 622.322 190.395 609.837 183.185C596.886 176.421 583.41 170.506 569.204 166.947L569.119 167.172C596.288 177.449 622.055 191.388 645.505 208.521ZM563.471 182.428C588.402 192.552 613.7 205.374 635.682 221.792L635.83 221.609C615.358 203.069 590.178 189.436 563.471 182.428ZM625.978 234.896L626.126 234.713C621.397 230.176 616.223 226.189 610.901 222.385C594.779 211.278 576.86 202.439 557.81 197.731L557.725 197.956C581.999 207.111 605.04 219.576 625.978 234.896ZM551.992 213.437C573.993 222.478 596.542 233.821 616.03 248.356L616.178 248.173C598.2 231.516 575.752 219.333 551.992 213.437ZM293.325 685.414C302.065 694.766 314.298 702.082 325.616 708.656C337.399 714.786 349.688 720.135 362.66 723.215L362.745 722.99C338.038 713.694 314.606 701.025 293.325 685.414ZM368.485 707.486C346.039 698.35 323.099 686.803 303.302 671.937L303.154 672.121C321.417 689.102 344.256 701.489 368.485 707.486ZM606.802 260.796L606.95 260.612C602.846 256.515 598.268 252.985 593.584 249.575C579.385 239.702 563.504 231.855 546.594 227.943L546.509 228.168C567.962 236.294 588.27 247.309 606.802 260.796ZM541.358 242.121C560.677 250.171 580.678 260.112 597.822 272.955L597.97 272.771C582.33 257.83 562.413 247.019 541.358 242.121ZM312.508 659.492L312.359 659.675C316.543 663.843 321.195 667.467 325.966 670.926C340.434 680.995 356.626 688.975 373.86 692.973L373.945 692.748C352.069 684.534 331.347 673.309 312.508 659.492ZM379.119 678.802C359.377 670.663 338.968 660.488 321.488 647.333L321.339 647.516C337.287 662.787 357.618 673.809 379.119 678.802ZM588.746 285.286L588.894 285.103C585.369 281.433 581.383 278.285 577.283 275.279C564.888 266.533 550.924 259.67 536.02 256.494L535.935 256.719C554.713 263.831 572.514 273.481 588.746 285.286ZM530.53 271.347C547.133 278.347 564.557 286.905 579.378 298.059L579.527 297.876C566.238 284.606 548.957 275.145 530.53 271.347ZM330.532 635.117L330.384 635.3C333.989 639.041 338.056 642.261 342.235 645.337C354.9 654.279 369.169 661.298 384.402 664.538L384.487 664.313C365.293 657.089 347.078 647.23 330.532 635.117ZM389.769 650.147C372.721 643.053 354.911 634.268 339.776 622.806L339.628 622.989C353.224 636.59 370.92 646.261 389.769 650.147ZM349.59 609.384C354.771 616.024 363.129 621.162 370.613 625.495C378.419 629.643 386.773 632.947 395.517 634.521L395.602 634.296C379.222 628.124 363.711 619.732 349.59 609.384ZM569.582 311.139C564.538 304.635 556.392 299.629 549.098 295.42C541.487 291.374 533.335 288.15 524.823 286.637L524.738 286.862C540.678 292.916 555.798 301.104 569.582 311.139Z" fill="white"/>
</g>
<g id="Label_back">
<path id="Vector_18" d="M460.385 623.135C551.172 623.135 624.769 549.537 624.769 458.75C624.769 367.963 551.172 294.366 460.385 294.366C369.598 294.366 296 367.963 296 458.75C296 549.537 369.598 623.135 460.385 623.135Z" fill="url(#paint0_linear_1111_4019)"/>
<path id="Vector_19" d="M623.269 458.75C623.269 548.709 550.343 621.635 460.385 621.635C370.426 621.635 297.5 548.709 297.5 458.75C297.5 368.792 370.426 295.866 460.385 295.866C550.343 295.866 623.269 368.792 623.269 458.75Z" stroke="url(#paint1_linear_1111_4019)" stroke-width="3"/>
</g>
</g>
<defs>
<linearGradient id="paint0_linear_1111_4019" x1="423.89" y1="622.747" x2="501.74" y2="301.884" gradientUnits="userSpaceOnUse">
<stop stop-color="#FF9500"/>
<stop offset="1" stop-color="#FFD08D"/>
</linearGradient>
<linearGradient id="paint1_linear_1111_4019" x1="504.226" y1="298.632" x2="415.778" y2="617.459" gradientUnits="userSpaceOnUse">
<stop stop-color="white"/>
<stop offset="1" stop-color="#C67300"/>
</linearGradient>
</defs>
</svg>
