<svg width="927" height="132" viewBox="0 0 927 132" fill="none" xmlns="http://www.w3.org/2000/svg">
<ellipse cx="65.3176" cy="65.355" rx="49.6982" ry="49.7266" fill="white"/>
<path d="M127.511 81.9663C118.865 117.323 83.7426 138.841 49.061 130.024C14.3935 121.209 -6.71086 85.3961 1.93882 50.041C10.5804 14.6799 45.7031 -6.84002 80.3746 1.97502C115.052 10.79 136.155 46.607 127.511 81.9663ZM93.2643 56.5978C94.5527 47.8157 87.9947 43.0946 79.0275 39.9453L81.9363 28.0488L74.8341 26.2442L72.0021 37.827C70.1349 37.3527 68.2174 36.9052 66.3119 36.4618L69.1641 24.8025L62.0658 22.9978L59.155 34.8901C57.6096 34.5312 56.0923 34.1765 54.6198 33.8032L54.6279 33.7661L44.8333 31.2726L42.9439 39.0069C42.9439 39.0069 48.2135 40.2381 48.1021 40.3144C50.9787 41.0466 51.4985 42.9874 51.4115 44.526L48.0982 58.0786C48.2963 58.1301 48.5532 58.2044 48.8364 58.3198C48.5998 58.26 48.3469 58.1941 48.086 58.1301L43.4416 77.1152C43.0895 78.0063 42.1974 79.3428 40.1868 78.8354C40.2576 78.9405 35.0244 77.5215 35.0244 77.5215L31.4987 85.8107L40.7411 88.1599C42.4604 88.5991 44.1455 89.0591 45.8043 89.4922L42.865 101.525L49.9591 103.329L52.8699 91.4247C54.8078 91.961 56.6892 92.4559 58.53 92.9221L55.6291 104.771L62.7313 106.576L65.6706 94.566C77.7813 96.9027 86.8881 95.9601 90.7214 84.7918C93.8103 75.7995 90.5677 70.6122 84.1959 67.2298C88.8362 66.1388 92.3296 63.0264 93.2643 56.5978ZM77.0369 79.7985C74.8421 88.791 59.9924 83.9298 55.1781 82.7107L59.0781 66.7699C63.8924 67.995 79.3308 70.4205 77.0369 79.7985ZM79.2337 56.4678C77.2311 64.6476 64.8715 60.4917 60.8623 59.4727L64.3982 45.0149C68.4075 46.0336 81.3193 47.9353 79.2337 56.4678Z" fill="#FF9500"/>
<path d="M189.675 39.9438C194.923 39.9438 199.459 40.9029 203.27 42.7859C207.099 44.6874 210.259 47.2491 212.793 50.4706C215.294 53.7088 217.156 57.4935 218.357 61.8308C219.551 66.1806 220.149 70.8562 220.149 75.8619C220.149 83.5509 218.767 90.815 215.977 97.6624C213.187 104.52 209.403 110.468 204.589 115.542C199.778 120.609 194.098 124.604 187.548 127.556C181.008 130.509 173.899 131.986 166.264 131.986C165.277 131.986 163.541 131.957 161.09 131.906C158.638 131.854 155.82 131.596 152.665 131.161C149.489 130.709 146.131 130.041 142.585 129.146C139.041 128.267 135.675 127.036 132.505 125.473L160.849 4.0423L186.236 0.0307617L176.086 43.1221C178.26 42.124 180.449 41.3505 182.633 40.7874C184.82 40.2326 187.165 39.9438 189.675 39.9438ZM168.38 111.452C172.204 111.452 175.807 110.493 179.19 108.61C182.585 106.725 185.513 104.18 187.967 101.01C190.422 97.8252 192.364 94.2387 193.779 90.2313C195.194 86.2238 195.912 82.0432 195.912 77.6933C195.912 72.3495 195.035 68.1813 193.29 65.168C191.544 62.167 188.313 60.6573 183.623 60.6573C182.086 60.6573 180.104 60.9564 177.649 61.4904C175.186 62.0577 172.979 63.2354 171.004 65.007L160.198 110.769C160.849 110.887 161.425 110.998 161.917 111.103C162.398 111.217 162.93 111.297 163.461 111.353C164.021 111.417 164.662 111.45 165.437 111.45C166.212 111.45 167.18 111.452 168.38 111.452Z" fill="white"/>
<path d="M246.482 129.658H222.234L242.711 41.8031H267.126L246.482 129.658ZM258.282 31.0989C254.897 31.0989 251.828 30.0717 249.105 28.0134C246.36 25.9674 245.001 22.8179 245.001 18.5733C245.001 16.2387 245.466 14.0483 246.389 11.9817C247.326 9.9192 248.549 8.14343 250.083 6.63371C251.613 5.13634 253.387 3.94007 255.403 3.03878C257.429 2.15192 259.586 1.7085 261.884 1.7085C265.266 1.7085 268.318 2.73562 271.051 4.79396C273.773 6.86264 275.144 10.012 275.144 14.2339C275.144 16.5769 274.681 18.7755 273.749 20.838C272.825 22.9005 271.601 24.6763 270.068 26.186C268.549 27.6855 266.758 28.8775 264.748 29.7705C262.72 30.6719 260.57 31.0989 258.282 31.0989Z" fill="white"/>
<path d="M288.366 19.9115L313.764 15.8999L307.528 41.7964H334.727L329.815 62.1696H302.779L295.579 92.9004C294.915 95.4621 294.539 97.8545 294.433 100.078C294.314 102.312 294.59 104.23 295.246 105.845C295.898 107.464 297.069 108.711 298.768 109.594C300.459 110.491 302.88 110.943 306.056 110.943C308.672 110.943 311.221 110.689 313.685 110.186C316.135 109.691 318.617 109.002 321.129 108.101L322.937 127.15C319.66 128.375 316.112 129.429 312.288 130.316C308.459 131.215 303.927 131.648 298.687 131.648C291.154 131.648 285.314 130.508 281.154 128.237C276.999 125.95 274.062 122.825 272.303 118.869C270.57 114.928 269.795 110.384 270.011 105.265C270.236 100.134 270.994 94.7403 272.303 89.0602L288.366 19.9115Z" fill="white"/>
<path d="M333.661 94.5779C333.661 87.0107 334.862 79.8744 337.264 73.1941C339.66 66.5075 343.112 60.6605 347.593 55.6424C352.057 50.6491 357.497 46.6933 363.9 43.7892C370.272 40.9018 377.407 39.4458 385.269 39.4458C390.191 39.4458 394.587 39.9202 398.454 40.8709C402.338 41.83 405.851 43.0696 409.03 44.6247L400.667 64.012C398.483 63.1087 396.215 62.3124 393.869 61.5905C391.524 60.8543 388.659 60.4996 385.271 60.4996C377.177 60.4996 370.779 63.3438 366.017 69.0135C361.273 74.6873 358.885 82.3247 358.885 91.9049C358.885 97.5828 360.086 102.174 362.498 105.686C364.897 109.199 369.33 110.946 375.763 110.946C378.939 110.946 382.004 110.608 384.94 109.947C387.898 109.279 390.509 108.438 392.808 107.444L394.619 127.318C391.552 128.53 388.17 129.626 384.459 130.585C380.742 131.511 376.316 131.991 371.184 131.991C364.409 131.991 358.674 130.981 353.984 128.99C349.29 126.969 345.413 124.286 342.359 120.887C339.288 117.48 337.084 113.501 335.72 108.935C334.356 104.373 333.661 99.5794 333.661 94.5779Z" fill="white"/>
<path d="M441.373 131.991C435.586 131.991 430.559 131.092 426.294 129.312C422.043 127.532 418.521 125.034 415.735 121.796C412.945 118.575 410.859 114.757 409.428 110.358C407.998 105.961 407.31 101.091 407.31 95.7556C407.31 89.0628 408.365 82.3721 410.494 75.7C412.614 69.0135 415.761 63.0055 419.923 57.6657C424.054 52.3177 429.149 47.9452 435.148 44.536C441.143 41.1493 448.036 39.4458 455.78 39.4458C461.462 39.4458 466.463 40.347 470.785 42.127C475.087 43.9028 478.632 46.4211 481.433 49.6426C484.206 52.8807 486.311 56.6819 487.726 61.0875C489.153 65.4764 489.857 70.3582 489.857 75.698C489.857 82.37 488.817 89.0607 486.753 95.7535C484.688 102.413 481.624 108.436 477.578 113.788C473.54 119.128 468.491 123.498 462.426 126.893C456.37 130.288 449.347 131.991 441.373 131.991ZM453.492 60.5017C449.897 60.5017 446.72 61.5659 443.999 63.6675C441.268 65.7939 438.974 68.4668 437.125 71.6906C435.257 74.9287 433.87 78.4597 432.934 82.298C432.006 86.1445 431.551 89.7805 431.551 93.2352C431.551 98.8101 432.433 103.152 434.165 106.276C435.924 109.385 439.081 110.948 443.672 110.948C447.278 110.948 450.44 109.892 453.176 107.767C455.892 105.658 458.187 102.982 460.05 99.7526C461.906 96.531 463.305 92.9898 464.241 89.1454C465.158 85.3111 465.626 81.6544 465.626 78.2059C465.626 72.6455 464.748 68.2937 462.998 65.1731C461.249 62.0649 458.077 60.5017 453.492 60.5017Z" fill="white"/>
<path d="M516.282 129.658H492.013L512.49 41.8031H536.917L516.282 129.658ZM528.063 31.0989C524.68 31.0989 521.614 30.0717 518.895 28.0134C516.164 25.9674 514.793 22.8179 514.793 18.5733C514.793 16.2387 515.265 14.0483 516.188 11.9817C517.112 9.9192 518.344 8.14343 519.878 6.63371C521.401 5.13634 523.191 3.94007 525.201 3.03878C527.217 2.15192 529.374 1.7085 531.662 1.7085C535.054 1.7085 538.116 2.73562 540.842 4.79396C543.572 6.86264 544.949 10.012 544.949 14.2339C544.949 16.5769 544.46 18.7755 543.543 20.838C542.626 22.9005 541.395 24.6763 539.868 26.186C538.331 27.6855 536.562 28.8775 534.548 29.7705C532.516 30.6719 530.365 31.0989 528.063 31.0989Z" fill="white"/>
<path d="M554.399 45.8012C556.24 45.2524 558.295 44.5925 560.53 43.8748C562.773 43.1571 565.279 42.4889 568.079 41.8866C570.848 41.2658 573.974 40.7626 577.41 40.3727C580.848 39.9746 584.763 39.7808 589.114 39.7808C601.904 39.7808 610.718 43.5778 615.585 51.1492C620.449 58.7206 621.29 69.0824 618.135 82.2163L606.98 129.653H582.572L593.382 83.2145C594.043 80.3147 594.561 77.5118 594.943 74.7727C595.329 72.0585 595.307 69.6661 594.856 67.5954C594.425 65.5493 593.41 63.8746 591.833 62.5773C590.234 61.3007 587.817 60.6593 584.537 60.6593C581.375 60.6593 578.158 61.0058 574.876 61.674L558.983 129.651H534.565L554.399 45.8012Z" fill="white"/>
<path d="M93.5533 56.4311C94.8533 47.6231 88.2369 42.8881 79.19 39.7294L82.1247 27.7979L74.9594 25.9879L72.1022 37.605C70.2185 37.1292 68.2838 36.6803 66.3614 36.2356L69.2389 24.5419L62.0777 22.7319L59.141 34.6593C57.5818 34.2994 56.0512 33.9436 54.5654 33.5692L54.5736 33.532L44.6919 31.0311L42.7858 38.7882C42.7858 38.7882 48.1022 40.0232 47.9899 40.0997C50.892 40.834 51.4165 42.7806 51.3287 44.3237L47.9858 57.9163C48.1858 57.968 48.445 58.0425 48.7307 58.1584C48.492 58.0984 48.2369 58.0322 47.9736 57.968L43.2879 77.0093C42.9328 77.9029 42.0328 79.2433 40.0042 78.7345C40.0756 78.84 34.796 77.4168 34.796 77.4168L31.2389 85.7304L40.5634 88.0865C42.2981 88.5271 43.9981 88.9884 45.6715 89.4228L42.7062 101.491L49.8634 103.301L52.8001 91.3611C54.7552 91.8989 56.6532 92.3953 58.5104 92.8628L55.5838 104.747L62.7491 106.557L65.7145 94.5115C77.9328 96.8552 87.1206 95.9099 90.988 84.7085C94.1043 75.6895 90.8329 70.4871 84.4043 67.0946C89.0859 66.0003 92.6104 62.8788 93.5533 56.4311ZM77.1818 79.7005C74.9675 88.7195 59.9859 83.8439 55.1287 82.6213L59.0634 66.6333C63.9206 67.862 79.4961 70.2947 77.1818 79.7005ZM79.3981 56.3008C77.3777 64.5047 64.9083 60.3366 60.8634 59.3147L64.4308 44.814C68.4757 45.8359 81.5022 47.7431 79.3981 56.3008Z" fill="white"/>
<path d="M702.517 89.9071C701.033 95.9491 700.609 102.044 701.245 108.192C701.881 114.234 703.1 119.64 704.902 124.41L683.755 127.431C683.119 126.159 682.536 124.94 682.006 123.774C681.476 122.608 680.946 121.283 680.416 119.799C677.448 122.237 674.162 124.251 670.558 125.841C666.954 127.431 662.926 128.226 658.474 128.226C653.174 128.226 648.616 127.325 644.8 125.523C641.09 123.615 638.016 121.124 635.578 118.05C633.246 114.87 631.55 111.213 630.49 107.079C629.43 102.839 628.9 98.3341 628.9 93.5641C628.9 86.2501 630.172 79.3601 632.716 72.8941C635.366 66.4281 638.97 60.8101 643.528 56.0401C648.192 51.1641 653.651 47.3481 659.905 44.5921C666.159 41.8361 672.943 40.4581 680.257 40.4581C681.211 40.4581 682.854 40.5111 685.186 40.6171C687.624 40.7231 690.38 40.9881 693.454 41.4121C696.528 41.7301 699.761 42.3131 703.153 43.1611C706.545 44.0091 709.778 45.1751 712.852 46.6591L702.517 89.9071ZM685.981 60.6511C684.603 60.4391 683.331 60.2801 682.165 60.1741C681.105 60.0681 679.78 60.0151 678.19 60.0151C674.586 60.0151 671.194 60.9161 668.014 62.7181C664.94 64.5201 662.237 66.9051 659.905 69.8731C657.573 72.7351 655.718 76.0741 654.34 79.8901C653.068 83.7061 652.432 87.6811 652.432 91.8151C652.432 96.9031 653.28 100.931 654.976 103.899C656.672 106.867 659.799 108.351 664.357 108.351C666.795 108.351 668.968 107.874 670.876 106.92C672.89 105.966 675.01 104.376 677.236 102.15C677.448 99.5001 677.766 96.7441 678.19 93.8821C678.72 90.9141 679.25 88.2111 679.78 85.7731L685.981 60.6511Z" fill="#FF9500"/>
<path d="M744.794 109.146C750.2 109.146 753.91 108.404 755.924 106.92C757.938 105.33 758.945 103.634 758.945 101.832C758.945 100.666 758.733 99.6591 758.309 98.8111C757.991 97.9631 757.408 97.1681 756.56 96.4261C755.712 95.6841 754.546 94.9421 753.062 94.2001C751.578 93.3521 749.67 92.3981 747.338 91.3381C744.688 90.1721 742.197 88.9531 739.865 87.6811C737.533 86.3031 735.466 84.7131 733.664 82.9111C731.968 81.0031 730.59 78.8831 729.53 76.5511C728.576 74.1131 728.099 71.2511 728.099 67.9651C728.099 59.3791 731.226 52.5951 737.48 47.6131C743.84 42.6311 753.062 40.1401 765.146 40.1401C770.87 40.1401 775.958 40.7761 780.41 42.0481C784.862 43.3201 788.466 44.6981 791.222 46.1821L783.113 63.8311C780.887 62.6651 778.025 61.5521 774.527 60.4921C771.029 59.4321 767.584 58.9021 764.192 58.9021C762.708 58.9021 761.224 59.0081 759.74 59.2201C758.362 59.3261 757.037 59.6441 755.765 60.1741C754.599 60.7041 753.645 61.4461 752.903 62.4001C752.161 63.3541 751.79 64.6261 751.79 66.2161C751.79 68.3361 752.585 69.9261 754.175 70.9861C755.871 72.0461 758.203 73.3181 761.171 74.8021C765.305 76.8161 768.75 78.6711 771.506 80.3671C774.262 82.0631 776.435 83.8651 778.025 85.7731C779.721 87.6811 780.94 89.8541 781.682 92.2921C782.424 94.7301 782.795 97.5921 782.795 100.878C782.795 104.27 782.053 107.609 780.569 110.895C779.191 114.181 776.965 117.096 773.891 119.64C770.817 122.184 766.895 124.251 762.125 125.841C757.355 127.431 751.631 128.226 744.953 128.226C740.819 128.226 737.056 127.961 733.664 127.431C730.378 126.901 727.463 126.265 724.919 125.523C722.375 124.675 720.202 123.827 718.4 122.979C716.704 122.131 715.379 121.442 714.425 120.912L722.534 102.786C724.336 103.846 727.145 105.171 730.961 106.761C734.777 108.351 739.388 109.146 744.794 109.146Z" fill="#FF9500"/>
<path d="M817.997 126H794.465L814.34 42.3661H838.031L817.997 126ZM829.445 32.1901C826.159 32.1901 823.191 31.2361 820.541 29.3281C817.891 27.3141 816.566 24.2931 816.566 20.2651C816.566 18.0391 816.99 15.9721 817.838 14.0641C818.792 12.0501 820.011 10.3541 821.495 8.97605C822.979 7.49205 824.675 6.32605 826.583 5.47806C828.597 4.63006 830.717 4.20605 832.943 4.20605C836.229 4.20605 839.197 5.21305 841.847 7.22705C844.497 9.13505 845.822 12.1031 845.822 16.1311C845.822 18.3571 845.345 20.4771 844.391 22.4911C843.543 24.3991 842.377 26.0951 840.893 27.5791C839.409 28.9571 837.66 30.0701 835.646 30.9181C833.738 31.7661 831.671 32.1901 829.445 32.1901Z" fill="#FF9500"/>
<path d="M916.117 89.9071C914.633 95.9491 914.209 102.044 914.845 108.192C915.481 114.234 916.7 119.64 918.502 124.41L897.355 127.431C896.719 126.159 896.136 124.94 895.606 123.774C895.076 122.608 894.546 121.283 894.016 119.799C891.048 122.237 887.762 124.251 884.158 125.841C880.554 127.431 876.526 128.226 872.074 128.226C866.774 128.226 862.216 127.325 858.4 125.523C854.69 123.615 851.616 121.124 849.178 118.05C846.846 114.87 845.15 111.213 844.09 107.079C843.03 102.839 842.5 98.3341 842.5 93.5641C842.5 86.2501 843.772 79.3601 846.316 72.8941C848.966 66.4281 852.57 60.8101 857.128 56.0401C861.792 51.1641 867.251 47.3481 873.505 44.5921C879.759 41.8361 886.543 40.4581 893.857 40.4581C894.811 40.4581 896.454 40.5111 898.786 40.6171C901.224 40.7231 903.98 40.9881 907.054 41.4121C910.128 41.7301 913.361 42.3131 916.753 43.1611C920.145 44.0091 923.378 45.1751 926.452 46.6591L916.117 89.9071ZM899.581 60.6511C898.203 60.4391 896.931 60.2801 895.765 60.1741C894.705 60.0681 893.38 60.0151 891.79 60.0151C888.186 60.0151 884.794 60.9161 881.614 62.7181C878.54 64.5201 875.837 66.9051 873.505 69.8731C871.173 72.7351 869.318 76.0741 867.94 79.8901C866.668 83.7061 866.032 87.6811 866.032 91.8151C866.032 96.9031 866.88 100.931 868.576 103.899C870.272 106.867 873.399 108.351 877.957 108.351C880.395 108.351 882.568 107.874 884.476 106.92C886.49 105.966 888.61 104.376 890.836 102.15C891.048 99.5001 891.366 96.7441 891.79 93.8821C892.32 90.9141 892.85 88.2111 893.38 85.7731L899.581 60.6511Z" fill="#FF9500"/>
</svg>
