<svg width="900" height="178" viewBox="0 0 900 178" fill="none" xmlns="http://www.w3.org/2000/svg">
<path d="M225.3 129.902L216.3 116.402H158.4L149.5 129.902H131.2L180.2 56.1016H194.7L243.7 129.902H225.3ZM187.4 72.7016L168.6 101.102H206.2L187.4 72.7016Z" fill="#0B3B60"/>
<path d="M330.8 129.902L318.9 107.402H267V129.902H251.8V56.1016H324.3C335.9 56.1016 345.3 65.6016 345.3 77.3016V86.3016C345.3 94.1016 341 101.302 334.2 104.902L347.4 129.902H330.8ZM330.2 86.2016V77.2016C330.2 74.0016 327.6 71.4016 324.4 71.4016H267V92.1016H324.3C327.6 92.1016 330.2 89.5016 330.2 86.2016Z" fill="#0B3B60"/>
<path d="M447 129.902L438 116.402H380.1L371.2 129.902H352.9L401.9 56.1016H416.4L465.4 129.902H447ZM409.1 72.7016L390.2 101.102H427.8L409.1 72.7016Z" fill="#0B3B60"/>
<path d="M488.2 129.902V71.4016H447.9V56.1016H543.7V71.4016H503.4V129.902H488.2Z" fill="#0B3B60"/>
<path d="M635 129.902V100.602H569.6V129.902H554.4V56.1016H569.6V85.3016H635V56.1016H650.2V129.902H635Z" fill="#0B3B60"/>
<path d="M684.5 129.9C672.9 129.9 663.5 120.4 663.5 108.7V77.2C663.5 65.6 672.9 56 684.5 56H742.7C754.3 56 763.7 65.5 763.7 77.2V108.7C763.7 120.4 754.3 129.9 742.7 129.9H684.5ZM748.5 108.7V77.2C748.5 74 745.9 71.4 742.7 71.4H684.5C681.2 71.4 678.7 74 678.7 77.2V108.7C678.7 112 681.3 114.6 684.5 114.6H742.7C745.9 114.6 748.5 112 748.5 108.7Z" fill="#0B3B60"/>
<path d="M859.6 129.902L792.2 77.1016V129.902H777V56.1016H790.1L857.5 108.802V56.1016H872.8V129.902H859.6Z" fill="#0B3B60"/>
<path d="M109.4 56.1016L70.6002 102.102L31.7002 56.1016H18.2002V129.902H33.4002V82.9016L64.7002 119.102H76.5002L107.7 83.0016V130.002H123V56.1016H109.4Z" fill="#0B3B60"/>
<path d="M42.2 175.599H18V152.199H42.1C43.3 152.199 44.4 152.499 45.3 153.099C46.3 153.699 47.1 154.499 47.6 155.499C48.2 156.499 48.5 157.599 48.5 158.799V169.099C48.5 170.299 48.2 171.399 47.6 172.399C47 173.399 46.2 174.199 45.3 174.699C44.4 175.299 43.4 175.599 42.2 175.599ZM42.2 171.499C42.9 171.499 43.5 171.299 43.9 170.799C44.4 170.299 44.6 169.799 44.6 169.099V158.699C44.6 157.999 44.4 157.499 43.9 156.999C43.4 156.499 42.9 156.299 42.2 156.299H22.1V171.499L42.2 171.499Z" fill="#0B3B60"/>
<path d="M85.1001 152.199H81.1001V175.499H85.1001V152.199Z" fill="#0B3B60"/>
<path d="M141.9 175.502H124.2C123 175.502 121.9 175.202 121 174.602C120 174.002 119.3 173.202 118.7 172.302C118.1 171.302 117.8 170.202 117.8 169.002V158.602C117.8 157.402 118.1 156.302 118.7 155.402C119.3 154.402 120.1 153.602 121 153.002C121.9 152.402 123 152.102 124.2 152.102H141.9C143.1 152.102 144.2 152.402 145.1 153.002C146.1 153.602 146.9 154.402 147.4 155.402C148 156.402 148.3 157.502 148.3 158.602V159.202H144.3V158.602C144.3 157.902 144.1 157.402 143.6 156.902C143.1 156.402 142.6 156.202 141.9 156.202H124.2C123.5 156.202 122.9 156.402 122.5 156.902C122 157.402 121.8 157.902 121.8 158.602V169.102C121.8 169.802 122 170.402 122.5 170.802C123 171.302 123.5 171.502 124.2 171.502H141.9C142.6 171.502 143.2 171.302 143.6 170.802C144.1 170.302 144.3 169.802 144.3 169.102V165.902H132.5V161.802H148.3V169.002C148.3 170.202 148 171.302 147.4 172.302C146.8 173.302 146 174.102 145.1 174.602C144.2 175.302 143.1 175.502 141.9 175.502Z" fill="#0B3B60"/>
<path d="M184.8 152.199H180.8V175.499H184.8V152.199Z" fill="#0B3B60"/>
<path d="M234 175.499H230V156.299H216.7V152.199H247.3V156.299H234V175.499Z" fill="#0B3B60"/>
<path d="M306.1 175.499H301.3L298.3 171.099H278.7L275.8 175.499H270.9L286.4 152.199H290.7L306.1 175.499ZM295.6 167.099L288.5 156.399L281.4 167.099H295.6Z" fill="#0B3B60"/>
<path d="M363.3 175.499H337.2V152.199H341.2V171.499H363.3V175.499Z" fill="#0B3B60"/>
<path d="M463.6 175.499H459.5V165.899H437V175.499H433V152.199H437V161.899H459.5V152.199H463.6V175.499Z" fill="#0B3B60"/>
<path d="M521.8 175.602H502.6C501.4 175.602 500.3 175.302 499.4 174.702C498.4 174.102 497.7 173.302 497.1 172.402C496.5 171.402 496.2 170.302 496.2 169.102V158.702C496.2 157.502 496.5 156.402 497.1 155.402C497.7 154.402 498.5 153.602 499.4 153.002C500.4 152.402 501.4 152.102 502.6 152.102H521.8C523 152.102 524.1 152.402 525 153.002C526 153.602 526.8 154.402 527.3 155.402C527.9 156.402 528.2 157.502 528.2 158.702V169.102C528.2 170.302 527.9 171.402 527.3 172.402C526.7 173.402 525.9 174.202 525 174.702C524.1 175.302 523 175.602 521.8 175.602ZM521.8 171.502C522.5 171.502 523.1 171.302 523.5 170.802C524 170.302 524.2 169.802 524.2 169.102V158.702C524.2 158.002 524 157.502 523.5 157.002C523 156.502 522.5 156.302 521.8 156.302H502.6C501.9 156.302 501.3 156.502 500.9 157.002C500.4 157.502 500.2 158.002 500.2 158.702V169.102C500.2 169.802 500.4 170.402 500.9 170.802C501.4 171.302 501.9 171.502 502.6 171.502L521.8 171.502Z" fill="#0B3B60"/>
<path d="M587.1 175.499H560.9V152.199H565V171.499H587.1V175.499Z" fill="#0B3B60"/>
<path d="M643.3 175.599H619.2V152.199H643.3C644.5 152.199 645.6 152.499 646.5 153.099C647.5 153.699 648.3 154.499 648.8 155.499C649.4 156.499 649.7 157.599 649.7 158.799V169.099C649.7 170.299 649.4 171.399 648.8 172.399C648.2 173.399 647.4 174.199 646.5 174.699C645.5 175.299 644.5 175.599 643.3 175.599ZM643.3 171.499C644 171.499 644.6 171.299 645 170.799C645.5 170.299 645.7 169.799 645.7 169.099V158.699C645.7 157.999 645.5 157.499 645 156.999C644.5 156.499 644 156.299 643.3 156.299H623.2V171.499L643.3 171.499Z" fill="#0B3B60"/>
<path d="M686.2 152.199H682.2V175.499H686.2V152.199Z" fill="#0B3B60"/>
<path d="M749.7 175.499H746L723.1 157.599V175.499H719.1V152.199H722.8L745.6 170.099V152.199H749.7V175.499Z" fill="#0B3B60"/>
<path d="M806.4 175.502H788.7C787.5 175.502 786.4 175.202 785.5 174.602C784.5 174.002 783.8 173.202 783.2 172.302C782.6 171.302 782.3 170.202 782.3 169.002V158.602C782.3 157.402 782.6 156.302 783.2 155.402C783.8 154.402 784.6 153.602 785.5 153.002C786.5 152.402 787.5 152.102 788.7 152.102H806.4C807.6 152.102 808.7 152.402 809.6 153.002C810.6 153.602 811.4 154.402 811.9 155.402C812.5 156.402 812.8 157.502 812.8 158.602V159.202H808.8V158.602C808.8 157.902 808.6 157.402 808.1 156.902C807.6 156.402 807.1 156.202 806.4 156.202H788.7C788 156.202 787.5 156.402 787 156.902C786.5 157.402 786.3 157.902 786.3 158.602V169.102C786.3 169.802 786.5 170.402 787 170.802C787.5 171.302 788 171.502 788.7 171.502H806.4C807.1 171.502 807.7 171.302 808.1 170.802C808.6 170.302 808.8 169.802 808.8 169.102V165.902H797V161.802H812.8V169.002C812.8 170.202 812.5 171.302 811.9 172.302C811.3 173.302 810.5 174.102 809.6 174.602C808.7 175.302 807.6 175.502 806.4 175.502Z" fill="#0B3B60"/>
<path d="M867.7 175.499H850.5C849.4 175.499 848.4 175.199 847.5 174.699C846.6 174.199 845.9 173.499 845.3 172.599C844.8 171.699 844.5 170.699 844.5 169.599V169.099H848.5V169.699C848.5 170.199 848.7 170.699 849.1 170.999C849.5 171.399 849.9 171.499 850.5 171.499H867.7C868.2 171.499 868.7 171.299 869.1 170.999C869.5 170.699 869.7 170.199 869.7 169.699V167.799C869.7 167.299 869.5 166.799 869.1 166.499C868.7 166.099 868.3 165.999 867.7 165.999H850.5C849.4 165.999 848.4 165.699 847.5 165.199C846.6 164.699 845.9 163.999 845.3 163.099C844.7 162.199 844.5 161.199 844.5 160.099V158.099C844.5 156.999 844.8 155.999 845.3 155.099C845.8 154.199 846.6 153.499 847.5 152.999C848.4 152.499 849.4 152.199 850.5 152.199H867.7C868.8 152.199 869.8 152.499 870.7 152.999C871.6 153.499 872.3 154.199 872.9 155.099C873.4 155.999 873.7 156.999 873.7 158.099V158.599H869.7V158.099C869.7 157.599 869.5 157.099 869.1 156.799C868.7 156.399 868.3 156.299 867.7 156.299H850.5C849.9 156.299 849.5 156.499 849.1 156.799C848.7 157.199 848.5 157.599 848.5 158.099V159.999C848.5 160.499 848.7 160.999 849.1 161.299C849.5 161.699 849.9 161.799 850.5 161.799H867.7C868.8 161.799 869.8 162.099 870.7 162.599C871.6 163.099 872.3 163.799 872.9 164.699C873.4 165.599 873.7 166.599 873.7 167.699V169.599C873.7 170.699 873.4 171.699 872.9 172.499C872.4 173.399 871.6 174.099 870.7 174.599C869.8 175.299 868.8 175.499 867.7 175.499Z" fill="#0B3B60"/>
<path d="M891.3 57.2986C892.8 58.1986 894 59.2986 894.8 60.7986C895.7 62.2986 896.1 63.8986 896.1 65.7986C896.1 67.5986 895.7 69.2986 894.8 70.7986C893.9 72.2986 892.7 73.4986 891.2 74.3986C889.7 75.2986 888 75.6986 886.2 75.6986C884.4 75.6986 882.7 75.2986 881.2 74.3986C879.7 73.4986 878.5 72.2986 877.7 70.7986C876.8 69.2986 876.4 67.6986 876.4 65.8986C876.4 64.0986 876.8 62.4986 877.7 60.9986C878.6 59.4986 879.7 58.2986 881.2 57.3986C882.7 56.4986 884.4 56.0986 886.2 56.0986C888.1 55.9986 889.8 56.4986 891.3 57.2986ZM890.4 72.9986C891.6 72.2986 892.6 71.2986 893.4 69.9986C894.1 68.6986 894.5 67.2986 894.5 65.7986C894.5 64.2986 894.1 62.8986 893.4 61.5986C892.7 60.2986 891.7 59.3986 890.5 58.5986C889.3 57.8986 887.9 57.4986 886.3 57.4986C884.7 57.4986 883.3 57.8986 882.1 58.5986C880.8 59.2986 879.9 60.2986 879.1 61.5986C878.4 62.8986 878 64.2986 878 65.7986C878 67.2986 878.4 68.6986 879.1 69.9986C879.8 71.2986 880.8 72.2986 882 72.9986C883.3 73.6986 884.6 74.0986 886.2 74.0986C887.8 74.0986 889.1 73.7986 890.4 72.9986ZM890.7 66.2986C890.3 66.8986 889.8 67.2986 889.1 67.5986L891.5 71.3986H889.1L886.9 68.0986H886.6H884.4V71.3986H882V60.3986H886.6C888 60.3986 889.1 60.6986 890 61.3986C890.8 62.0986 891.2 62.9986 891.2 64.1986C891.3 64.9986 891.1 65.6986 890.7 66.2986ZM886.6 66.0986C887.4 66.0986 888 65.8986 888.4 65.5986C888.8 65.2986 889 64.7986 889 64.1986C889 63.5986 888.8 63.0986 888.4 62.7986C888 62.4986 887.4 62.2986 886.6 62.2986H884.5V66.0986H886.6Z" fill="#0B3B60"/>
</svg>
